<!-- 白天 阴 -->
<svg
  t="1734714593157"
  class="icon"
  viewBox="0 0 1024 1024"
  version="1.1"
  xmlns="http://www.w3.org/2000/svg"
  p-id="2883"
  width="256"
  height="256"
>
  <path
    d="M957 459.1c-14.69-77.16-103.25-76.6-103.25-76.6s4.1-66.67-62.57-88.26c-40.48-13.09-79 7.1-79 7.1s-58.87-99.15-169.31-91.15C393.79 221 371.5 355.92 371.5 355.92s-93.35-21.29-116.84 87.36c-25.49 117.84 79.06 130.93 79.06 130.93H574.5s52.67-4.1 74.16-27.49c29-31.78 30.48-78.26-3.6-103.35-30.78-22.59-68.37-17.59-94.55-7.7-10.59 4-11.59 5.5-13 5.3-1-0.2-3.9-3.1 2.5-7.7a82.81 82.81 0 0 1 32.88-15c53.37-12.29 103.35 14.39 117.24 55a119.67 119.67 0 0 1-3.4 87c-3.7 8.4-5.5 8.2-5.3 11.19 0.1 3.3 4.1 2.8 4.1 2.8h170.53c-0.23 0.08 71.11-2.53 95.34-54 7.41-15.77 10.41-35.76 5.6-61.16z"
    fill="#8DD7F7"
    p-id="2884"
  ></path>
  <path
    d="M246.76 424.34S92.63 400.1 67.32 534.39C53.38 608.5 87.81 653.66 131.89 680.9c41 25.31 81.94 28.1 81.94 28.1h605.9s30.89-1.5 58.67-12c43.55-16.52 92.24-53.52 80-140.72-14.16-101.46-122.81-97.6-122.81-97.6s3.43-79.16-79.8-104.36c-57.28-17.27-94.39 7.4-94.39 7.4S594.81 247.59 456 255.31c-183 10.3-209.24 169.03-209.24 169.03z"
    fill="#78A4D6"
    p-id="2885"
  ></path>
  <path
    d="M945.75 556.48C928.48 465.42 824 470 824 470s4.83-78.62-73.79-104c-47.73-15.44-93.1 8.37-93.1 8.37s-69.4-117-199.71-107.58c-175.78 12.76-202.17 171.93-202.17 171.93s-147.58-31.43-175.36 96.74c-30 139 130.75 160.78 130.75 160.78h284s62.21-4.83 87.41-32.5c34.21-37.43 36-92.35-4.29-121.84-36.36-26.6-80.55-20.7-111.55-9-12.55 4.72-13.73 6.54-15.34 6.22-1.18-0.21-4.61-3.65 2.9-9.12 9.44-6.86 20.16-13.41 38.72-17.7 62.85-14.48 122 16.95 138.25 64.89a140.63 140.63 0 0 1-4.08 102.54c-4.4 9.87-6.44 9.65-6.33 13.19 0.11 3.86 4.83 3.32 4.83 3.32h201.13c0.11-0.11 143.73-11.91 119.48-139.76z"
    fill="#C0E7FA"
    p-id="2886"
  ></path>
  <path
    d="M494.52 696.13s62.21-4.83 87.41-32.5c23-25.1 31.21-57.92 22.09-85.81a74.09 74.09 0 0 0-16.2-26.92 14.64 14.64 0 0 0-1.82-1.82c-0.75-0.75-1.5-1.5-2.36-2.25-1.93-1.72-4-3.43-6.11-5a95.79 95.79 0 0 0-43.87-17.7H533c49.55 30.25 32.93 82.16-0.64 100.61-26.49 14.59-84.3 17.27-102.54 13.51-109.27-22.13-105.62-80.16-103.05-102.79 0.64-6.11 4.4-8.15 1.61-9.65s-11 4.29-14.59 7c-40.22 30.25-31.1 72-31.1 72s-60.81 19.89-122.59-12.39c-56.85-29.93-62.1-90.53-62.43-101.79l-1.61 2.57c-1.5 2.68-3.86 6.65-6.44 12.23-1 2.15-1.93 4.4-2.9 6.65-0.32 0.75-0.54 1.5-0.86 2.25-1 2.57-1.82 5.26-2.68 7.94-0.32 1-0.64 2-1 3.11-0.75 2.57-1.39 5.15-1.93 7.83-1 4.08-1.82 8.37-2.57 13.19-0.64 3.86-1 7.51-1.29 11.15 0 0.43-0.11 0.75-0.11 1.18-0.21 3-0.32 5.9-0.32 8.8v3.54c0 2 0.11 4.08 0.21 6.11C83.09 678.86 210.4 696.13 210.4 696.13h284.12zM948.43 579.44a161.72 161.72 0 0 0-2.68-22.63c-0.32-1.82-0.75-3.54-1.07-5.15l-0.32-1.61c-0.21-1.07-0.54-2-0.75-3.11-6.11-22.2-17.8-38-31.53-49.23a131.37 131.37 0 0 0-11.26-8c-0.32-0.21 32.5 95.78-84.3 128.71C775.43 630 679.33 632.32 637.28 603A140.72 140.72 0 0 1 627 679.29c-4.4 9.87-6.44 9.65-6.33 13.19 0.11 3.86 4.83 3.32 4.83 3.32h201.09c-0.21 0.33 125.7-10.07 121.84-116.36z"
    fill="#9CDCF8"
    p-id="2887"
  ></path>
  <path
    d="M430.92 342.19a81.3 52.45 0 1 0 162.6 0 81.3 52.45 0 1 0-162.6 0Z"
    fill="#FFFFFF"
    p-id="2888"
  ></path>
</svg>