<svg t="1730401107593" class="icon" viewBox="0 0 1024 1024" version="1.1" xmlns="http://www.w3.org/2000/svg" p-id="1901"
     width="256" height="256">
  <path
    d="M554.666667 217.6c132.266667 17.066667 234.666667 123.733333 251.733333 251.733333H896v85.333334h-89.6c-17.066667 132.266667-123.733333 234.666667-251.733333 251.733333V896h-85.333334v-89.6C337.066667 789.333333 234.666667 682.666667 217.6 554.666667H128v-85.333334h89.6c17.066667-132.266667 119.466667-234.666667 251.733333-251.733333V128h85.333334v89.6zM512 725.333333c119.466667 0 213.333333-93.866667 213.333333-213.333333s-93.866667-213.333333-213.333333-213.333333-213.333333 93.866667-213.333333 213.333333 93.866667 213.333333 213.333333 213.333333z"
    fill="#444444" p-id="1902"></path>
</svg>
