<svg
  t="1734024534422"
  class="icon"
  viewBox="0 0 1024 1024"
  version="1.1"
  xmlns="http://www.w3.org/2000/svg"
  p-id="5305"
  width="256"
  height="256"
>
  <path
    d="M681.7 853.5H94.6l-1.3-624.2h587z"
    fill="#FFFFFF"
    p-id="5306"
  ></path>
  <path
    d="M681.7 871.7H94.6c-10.1 0-18.2-8.1-18.3-18.2L75 229.3c0-4.8 1.9-9.5 5.3-12.9 3.4-3.4 8.1-5.4 12.9-5.4h587.1c10.1 0 18.2 8.1 18.3 18.2l1.3 624.2c0 4.8-1.9 9.5-5.3 12.9-3.4 3.5-8.1 5.4-12.9 5.4z m-568.9-36.5h550.6l-1.3-587.7H111.6l1.2 587.7z"
    fill="#232323"
    p-id="5307"
  ></path>
  <path
    d="M664.9 939.9H111.3c-9.3 0-16.8-7.8-16.8-17.5l-1.3-537.5h46.4l24.1 66.6h446.2l26.6-66.6h43.8l1.3 537.5c0.1 9.6-7.5 17.5-16.7 17.5z"
    fill="#FF7B7B"
    p-id="5308"
  ></path>
  <path
    d="M664.9 958.1H111.3c-19.3 0-35-16-35-35.7L75 384.9c0-4.8 1.9-9.5 5.3-12.9 3.4-3.4 8.1-5.4 12.9-5.4h46.4c7.7 0 14.6 4.8 17.2 12l19.7 54.5h421l22-55.1c2.8-6.9 9.5-11.5 17-11.5h43.8c10.1 0 18.2 8.1 18.3 18.2l1.3 537.5c0 9.7-3.7 18.8-10.5 25.7-6.6 6.6-15.3 10.2-24.5 10.2z m-552.1-36.5h550.6L662.1 403h-13.3l-22 55.1c-2.8 6.9-9.5 11.5-17 11.5H163.7c-7.7 0-14.6-4.8-17.2-12l-19.7-54.5h-15.3l1.3 518.5z"
    fill="#232323"
    p-id="5309"
  ></path>
  <path
    d="M680.3 229.3h-587v-78.4c0-9 7.3-16.3 16.3-16.3H664c9 0 16.3 7.3 16.3 16.3v78.4z"
    fill="#FF7B7B"
    p-id="5310"
  ></path>
  <path
    d="M680.3 247.5h-587c-10.1 0-18.3-8.2-18.3-18.3v-65c0-26.5 21.6-48 48-48h527.5c26.5 0 48 21.6 48 48v65c0.1 10.2-8.1 18.3-18.2 18.3zM111.5 211h550.6v-46.7c0-6.4-5.2-11.5-11.5-11.5H123c-6.4 0-11.5 5.2-11.5 11.5V211z"
    fill="#232323"
    p-id="5311"
  ></path>
  <path
    d="M94.5 842.6h587.2V921c0 9-7.3 16.3-16.3 16.3H110.8c-9 0-16.3-7.3-16.3-16.3v-78.4z"
    fill="#FF7B7B"
    p-id="5312"
  ></path>
  <path
    d="M651.9 955.6H124.3c-26.5 0-48-21.6-48-48v-65c0-10.1 8.2-18.3 18.3-18.3h587.2c10.1 0 18.3 8.2 18.3 18.3v65c-0.2 26.4-21.7 48-48.2 48z m-539.2-94.7v46.7c0 6.4 5.2 11.5 11.5 11.5h527.6c6.4 0 11.5-5.2 11.5-11.5v-46.7H112.7z"
    fill="#232323"
    p-id="5313"
  ></path>
  <path
    d="M200.117 447.817v-168.9h93.1v168.9z"
    fill="#FFAF78"
    p-id="5314"
  ></path>
  <path
    d="M293.2 466h-93.1c-10.1 0-18.3-8.2-18.3-18.3V278.9c0-10.1 8.2-18.3 18.3-18.3h93.1c10.1 0 18.3 8.2 18.3 18.3v168.9c0 10.1-8.2 18.2-18.3 18.2z m-74.8-36.5H275V297.2h-56.6v132.3z"
    fill="#232323"
    p-id="5315"
  ></path>
  <path
    d="M388.155 447.755v-168.9h93.1v168.9z"
    fill="#FFAF78"
    p-id="5316"
  ></path>
  <path
    d="M481.3 466h-93.1c-10.1 0-18.3-8.2-18.3-18.3V278.9c0-10.1 8.2-18.3 18.3-18.3h93.1c10.1 0 18.3 8.2 18.3 18.3v168.9c-0.1 10.1-8.3 18.2-18.3 18.2z m-74.9-36.5H463V297.2h-56.6v132.3z"
    fill="#232323"
    p-id="5317"
  ></path>
  <path
    d="M481.28 447.78v-168.9h93.1v168.9z"
    fill="#FFAF78"
    p-id="5318"
  ></path>
  <path
    d="M574.4 466h-93.1c-10.1 0-18.3-8.2-18.3-18.3V278.9c0-10.1 8.2-18.3 18.3-18.3h93.1c10.1 0 18.3 8.2 18.3 18.3v168.9c-0.1 10.1-8.2 18.2-18.3 18.2z m-74.9-36.5h56.6V297.2h-56.6v132.3z"
    fill="#232323"
    p-id="5319"
  ></path>
  <path
    d="M295.021 447.74v-268.4h93.1v268.4z"
    fill="#FFFFFF"
    p-id="5320"
  ></path>
  <path
    d="M388.1 466H295c-10.1 0-18.3-8.2-18.3-18.3V179.3c0-10.1 8.2-18.3 18.3-18.3h93.1c10.1 0 18.3 8.2 18.3 18.3v268.4c0 10.2-8.2 18.3-18.3 18.3z m-74.8-36.5h56.6V197.6h-56.6v231.9z m595.9-47.1c-3.1 0-6.3-0.8-9.2-2.5-1.6-0.9-39.1-23.4-39.1-76.3 0-29.9 18-47.1 32.5-60.8 12.2-11.6 19-18.6 19-29 0-28.5-16.5-42.7-17.2-43.3l0.2 0.2 22.7-28.6c1.3 1 30.8 25 30.8 71.7 0 26.6-16.9 42.6-30.4 55.5-13.1 12.5-21.2 20.8-21.2 34.4 0 31.6 20.8 44.6 21 44.8 8.7 5.1 11.6 16.3 6.6 25-3.3 5.7-9.4 8.9-15.7 8.9zM838 248.3c-11.5-6.7-31.1-27-31.1-60.1 0-24 14.7-38 25.4-48.1 8.8-8.4 12.4-12.4 12.4-17.7 0-18.5-10.4-27.6-10.9-28l0.3 0.2L856.8 66c2.5 2 24.4 20.4 24.4 56.4 0 21.6-13.8 34.6-23.8 44.2-9.2 8.8-14 13.7-14 21.7 0 19.7 11.9 27.9 13.3 28.8l-0.3-0.2-18.4 31.4z"
    fill="#232323"
    p-id="5321"
  ></path>
  <path
    d="M112.1 666.6l278.4-137.1 275.4 142.3v232.8c0 8.4-6.8 15.2-15.2 15.2H124.2c-6.7 0-12.1-5.4-12.1-12.1V666.6z"
    fill="#FFFFFF"
    p-id="5322"
  ></path>
  <path
    d="M439.1 808.1l407.6-403.2 62.1 62.8-407.6 403.2"
    fill="#FFFFFF"
    p-id="5323"
  ></path>
  <path
    d="M514 883.9l-25.7-26L883 467.6l-36.4-36.8-394.7 390.3-25.7-26 407.6-403.2c7.2-7.1 18.7-7 25.8 0.1l62.1 62.8c3.4 3.4 5.3 8.1 5.3 12.9 0 4.8-2 9.5-5.4 12.9L514 883.9z"
    fill="#232323"
    p-id="5324"
  ></path>
  <path
    d="M484.4 895.3c-3.4 0-6.9-0.3-10.4-1-13.4-2.6-26.8-10.1-37.6-20.9-24.7-24.8-29.2-59-10.2-78.1l25.8 25.8c-2.4 2.4-1.7 14.5 10.2 26.4 5.7 5.7 12.6 9.7 18.8 10.9 4 0.8 6.7 0.2 7.6-0.7l25.8 25.8c-7.7 7.7-18.3 11.8-30 11.8z"
    fill="#232323"
    p-id="5325"
  ></path>
  <path
    d="M860.138 454.272a43.9 24.1 44.999 1 0 34.082-34.083 43.9 24.1 44.999 1 0-34.082 34.083z"
    fill="#FFFFFF"
    p-id="5326"
  ></path>
  <path
    d="M896.3 490.9c-15.5 0-33.6-8.2-49-23.7-25-25-31-56.8-14-73.9 9.3-9.3 23.6-12.1 39.1-7.6 12 3.5 24.3 11.1 34.7 21.6 25 25 31 56.8 14 73.9-6.5 6.5-15.2 9.7-24.8 9.7z m-36-70.6c0.8 4.3 4.1 12.4 12.8 21.1 8.7 8.7 16.8 12 21.1 12.8-0.8-4.3-4.1-12.4-12.8-21.1-8.7-8.7-16.8-12-21.1-12.8z"
    fill="#232323"
    p-id="5327"
  ></path>
  <path
    d="M312.6 196.7h57.7v158.9h-57.7z"
    fill="#FFAF78"
    p-id="5328"
  ></path>
  <path
    d="M295.4 348.5h92.4V385h-92.4z"
    fill="#232323"
    p-id="5329"
  ></path>
  <path
    d="M447.5 819.1L553 715l15.3 23.2 28.2 18.9-105.6 104.4s-16.6 8.1-34.9-10.2c-18.3-18.2-8.5-32.2-8.5-32.2z"
    fill="#FFAF78"
    p-id="5330"
  ></path>
  <path
    d="M614.8 765c-16 0-33.7-7.5-48.1-22-24.8-24.8-29.1-57.8-10-76.9l25.8 25.8c-2.6 2.6-1.4 13.8 10 25.2 11.9 11.9 24.1 12.6 26.4 10.2l25.8 25.8c-7.9 8-18.4 11.9-29.9 11.9z"
    fill="#232323"
    p-id="5331"
  ></path>
</svg>