<svg
  t="1733589121477"
  class="icon"
  viewBox="0 0 1024 1024"
  version="1.1"
  xmlns="http://www.w3.org/2000/svg"
  p-id="4722"
  width="256"
  height="256"
>
  <path
    d="M5.29749333 456.1487648a17.69472 17.69472 0 0 0 17.80394667 19.44234667h216.70570667a18.38648853 18.38648853 0 0 0 18.31367146-17.76753814c4.51470187-125.9747552 24.68522667-241.42734187 56.57941334-330.73834666 7.3910048-20.75306667 15.65582187-40.70513813 24.8672704-59.41930667 7.46382187-15.29173333-6.84487147-33.2777248-22.5735104-26.76053333-168.31829333 69.75943147-291.19829333 227.11864853-311.6600896 415.24337813zM706.9696 40.86897813c-15.69223147-6.48078187-30.0009248 11.50520853-22.53710187 26.79694187 9.21144853 18.71416853 17.47626667 38.70264853 24.8672704 59.41930667 31.89418667 89.3110048 52.06471147 204.8 56.57941334 330.73834666 0.36408853 9.86680853 8.44686187 17.76753813 18.31367146 17.76753814h236.25728c-13.87178667-196.68081813-139.33681813-362.5597152-313.48053333-434.72213334zM692.98858667 456.91335147a18.05880853 18.05880853 0 0 1-18.05880854 18.67776h-325.85955626a18.05880853 18.05880853 0 0 1-18.05880854-18.67776C340.84181333 201.32295147 418.06506667 2.2755552 512 2.2755552s171.1945952 199.01098667 180.98858667 454.63779627z"
    fill="#11AA66"
    p-id="4723"
  ></path>
  <path
    d="M316.99399147 983.13102187c15.72864 6.48078187 30.03733333-11.50520853 22.5735104-26.79694187a573.40359147 573.40359147 0 0 1-24.8672704-59.41930667c-31.89418667-89.3110048-52.06471147-204.8-56.57941334-330.73834666A18.38648853 18.38648853 0 0 0 239.80714667 548.40888853H23.10144c-10.55857813 0-18.93262187 8.95658667-17.80394667 19.44234667 20.4982048 188.12472853 143.3782048 345.5203552 311.69649814 415.24337813z m14.01742186-416.04437334C340.84181333 822.67704853 418.06506667 1021.7244448 512 1021.7244448s171.1945952-199.01098667 180.98858667-454.63779627a18.05880853 18.05880853 0 0 0-18.05880854-18.67776h-325.85955626a18.05880853 18.05880853 0 0 0-18.05880854 18.67776z m687.69109334 0.76458667a17.69472 17.69472 0 0 0-17.80394667-19.44234667h-216.70570667a18.38648853 18.38648853 0 0 0-18.31367146 17.76753814c-4.51470187 125.9747552-24.68522667 241.42734187-56.57941334 330.73834666-7.3910048 20.75306667-15.65582187 40.66872853-24.8672704 59.4557152-7.46382187 15.2553248 6.84487147 33.2413152 22.5735104 26.7241248 168.31829333-69.75943147 291.19829333-227.11864853 311.6600896-415.24337813z"
    fill="#FFAA44"
    p-id="4724"
  ></path>
</svg>