<svg
  t="1743410750652"
  class="icon"
  viewBox="0 0 1024 1024"
  version="1.1"
  xmlns="http://www.w3.org/2000/svg"
  p-id="10720"
  width="200"
  height="200"
>
  <path
    d="M128 170.666667a42.666667 42.666667 0 0 1 42.666667-42.666667h298.666666a42.666667 42.666667 0 1 1 0 85.333333H213.333333v554.666667a42.666667 42.666667 0 0 0 42.666667 42.666667h512a42.666667 42.666667 0 0 0 42.666667-42.666667v-213.333333a42.666667 42.666667 0 1 1 85.333333 0v213.333333a128 128 0 0 1-128 128H256a128 128 0 0 1-128-128V170.666667z"
    fill="#333333"
    p-id="10721"
  ></path>
  <path
    d="M883.498667 140.501333a42.666667 42.666667 0 0 1 0 60.330667l-469.333334 469.333333a42.666667 42.666667 0 0 1-60.330666-60.330666l469.333333-469.333334a42.666667 42.666667 0 0 1 60.330667 0z"
    fill="#EF4F4F"
    p-id="10722"
  ></path>
  <path
    d="M597.333333 170.666667a42.666667 42.666667 0 0 1 42.666667-42.666667h213.333333a42.666667 42.666667 0 0 1 42.666667 42.666667v213.333333a42.666667 42.666667 0 1 1-85.333333 0V213.333333h-170.666667a42.666667 42.666667 0 0 1-42.666667-42.666666z"
    fill="#EF4F4F"
    p-id="10723"
  ></path>
</svg>
