<svg
  t="1746463496836"
  class="icon"
  viewBox="0 0 1024 1024"
  version="1.1"
  xmlns="http://www.w3.org/2000/svg"
  p-id="11981"
  width="256"
  height="256"
>
  <path
    d="M0.399688 512Q0.399688 263.394223 0 14.388759C0 2.398126 2.398126 0 14.388759 0h995.222482c11.990632 0 14.388759 2.398126 14.388759 14.388759q-0.799375 497.611241 0 995.222482c0 11.990632-2.398126 14.388759-14.388759 14.388759q-497.611241-0.799375-995.222482 0c-11.990632 0-14.388759-2.398126-14.388759-14.388759q0.799375-248.605777 0.399688-497.611241z"
    fill="#FEFEFE"
    p-id="11982"
  ></path>
  <path
    d="M41.567525 513.998439v-403.684622c0-45.964091 22.782201-68.746292 68.746292-68.746292h677.470726c43.565964 0 64.749415 21.583138 65.149103 64.749415 0 29.976581 0.799375 59.953162-0.399688 89.929742-0.799375 14.388759 4.396565 17.985948 17.985948 17.186573s34.772834-0.399688 51.959407 0c37.17096 0.799375 59.953162 23.181889 59.953162 59.953162v617.517564c-0.399688 53.15847-39.169399 91.528493-93.127245 91.528494H103.918813c-37.970336 0-62.351288-24.380952-62.351288-62.750976z"
    fill="#DD2910"
    p-id="11983"
  ></path>
  <path
    d="M852.933646 581.545667q0-154.279469-0.399688-307.359875c0-13.989071 2.797814-19.584699 17.186573-17.985948s26.779079 0 39.968774 0c29.177205 0 29.177205 0 29.177206 28.37783v604.727556c-0.399688 29.576893-17.985948 49.56128-43.166277 49.561281s-42.766589-20.384075-42.766588-49.960968c-0.399688-102.71975 0-205.039813 0-307.359876zM256.199844 295.768931c0 51.559719 0 97.124122 0.399688 142.688524 0 15.188134-1.598751 28.777518-20.384075 30.376269s-22.782201-9.592506-22.782202-30.376269c-0.399688-64.349727 0-129.099141-0.399687-193.848556 0-12.39032 1.199063-23.981265 15.188134-29.177205s21.982826 4.396565 29.576893 13.989071l126.301327 157.876659V235.815769c0.799375-13.589383 8.79313-21.583138 21.18345-21.982826s21.18345 8.393443 21.583139 21.583138c0.799375 19.185012 0.399688 38.769711 0.399687 57.954723v145.886027c0 12.790008-1.199063 24.380952-15.587822 28.777517s-20.783763-3.996877-28.37783-13.189695C342.532397 403.284934 301.364559 352.124902 256.199844 295.768931z"
    fill="#FEFEFE"
    p-id="11984"
  ></path>
  <path
    d="M450.0484 767.800156H651.491023c20.783763 0.399688 32.774395 8.393443 31.175644 22.382514s-15.188134 20.783763-30.775957 20.783762H244.608899c-19.984387 0-32.774395-9.192818-31.175644-22.382513s15.587822-20.783763 31.175644-20.783763zM446.45121 640.299766H241.01171c-12.39032 0-21.982826-3.59719-26.379391-16.387198s1.598751-16.786885 8.393442-22.382513 15.188134-4.396565 23.181889-4.396566h399.288056a90.32943 90.32943 0 0 1 17.985949 0.799376c11.990632 1.598751 19.584699 9.192818 19.185012 21.583138a20.384075 20.384075 0 0 1-20.384075 20.384075h-215.831382z"
    fill="#FEFDFD"
    p-id="11985"
  ></path>
  <path
    d="M596.334114 256.199844h-59.953162c-13.989071 0-23.581577-6.395004-23.981264-20.783763s9.592506-21.583138 23.181889-21.982826h123.903201c13.589383 0.399688 23.581577 7.993755 22.782201 21.982826s-9.592506 21.18345-23.981265 20.783763zM597.533177 384.099922h59.953162c14.788447 0 25.180328 7.194379 24.78064 21.982826s-9.992194 21.18345-23.981265 21.18345h-121.904762c-13.589383-0.399688-23.981265-7.194379-23.981264-21.18345s10.391881-21.982826 25.180328-21.982826z"
    fill="#FEFCFC"
    p-id="11986"
  ></path>
  <path
    d="M810.566745 90.32943c7.993755 9.192818 5.195941 18.385636 5.19594 26.379391V887.306792c0 14.788447-0.799375 29.576893 5.595629 43.166276 1.598751 3.996877 1.998439 7.993755-1.998439 10.791569s-5.595628 2.398126-7.194379 1.199063 1.199063-6.395004 0.799375-9.592506c-1.598751-11.590945-5.595628-22.782201-5.595628-35.172521q0.799375-393.29274 0.399688-786.58548c0-6.395004-1.598751-13.189696 2.797814-20.783763z"
    fill="#DD2B12"
    p-id="11987"
  ></path>
</svg>