<?xml version="1.0" standalone="no"?>
<!DOCTYPE
  svg
  PUBLIC "-//W3C//DTD SVG 1.1//EN" "http://www.w3.org/Graphics/SVG/1.1/DTD/svg11.dtd"
><svg
  t="1717952480097"
  class="icon"
  viewBox="0 0 1024 1024"
  version="1.1"
  xmlns="http://www.w3.org/2000/svg"
  p-id="1602"
  xmlns:xlink="http://www.w3.org/1999/xlink"
  width="256"
  height="256"
>
  <path
    d="M204.58761482 989.80598518c-93.69220741 0-169.90814815-76.21594075-169.90814815-169.90814815V204.10216297c0-93.69220741 76.21594075-169.90814815 169.90814815-169.90814815h614.82477036c93.69220741 0 169.90814815 76.21594075 169.90814815 169.90814815v615.67431111c0 93.69220741-76.21594075 169.90814815-169.90814815 169.90814814H204.58761482z"
    fill="#F43B51"
    p-id="1603"
  ></path>
  <path
    d="M989.32053333 204.10216297v54.00651851c0-93.69220741-76.21594075-169.90814815-169.90814815-169.90814815H204.58761482c-93.69220741 0-169.90814815 76.21594075-169.90814815 169.90814815v-54.00651851c0-93.69220741 76.21594075-169.90814815 169.90814815-169.90814815h614.82477036c93.69220741 0 169.90814815 76.3373037 169.90814815 169.90814815z"
    fill="#FF788F"
    p-id="1604"
  ></path>
  <path
    d="M819.41238518 46.33031111c42.11294815 0 81.79863703 16.384 111.53256297 46.23928889 29.85528889 29.85528889 46.23928889 69.41961482 46.23928888 111.53256297v615.67431111c0 42.11294815-16.384 81.79863703-46.23928888 111.53256295-29.85528889 29.85528889-69.41961482 46.23928889-111.53256297 46.23928889H204.58761482c-42.11294815 0-81.79863703-16.384-111.53256297-46.23928889-29.85528889-29.85528889-46.23928889-69.41961482-46.23928888-111.53256295V204.10216297c0-42.11294815 16.384-81.79863703 46.23928888-111.53256297 29.85528889-29.85528889 69.41961482-46.23928889 111.53256297-46.23928889h614.82477036m0-24.27259259H204.58761482c-100.48853333 0-182.04444445 81.55591111-182.04444445 182.04444445v615.67431111c0 100.48853333 81.55591111 182.04444445 182.04444445 182.04444444h614.82477036c100.48853333 0 182.04444445-81.55591111 182.04444445-182.04444444V204.10216297c0-100.48853333-81.55591111-182.04444445-182.04444445-182.04444445z"
    fill="#511017"
    p-id="1605"
  ></path>
  <path
    d="M864.19531852 517.46133333c0 83.98317037-29.36983703 163.35454815-83.37635555 226.46328889-6.06814815 7.03905185-12.37902222 13.95674075-19.05398519 20.51034075-66.02145185 66.02145185-153.76687408 102.30897778-247.0949926 102.30897778-93.32811852 0-181.07354075-36.28752592-247.09499259-102.30897778-8.49540741-8.49540741-16.62672592-17.47626667-24.15122962-26.69985186-50.72971852-62.13783703-78.27911111-139.08195555-78.27911112-220.39514074 0-93.32811852 36.28752592-181.07354075 102.30897778-247.09499259 66.02145185-66.02145185 153.76687408-102.30897778 247.09499259-102.30897778 93.32811852 0 181.07354075 36.28752592 247.0949926 102.30897778 66.26417778 66.14281482 102.5517037 153.88823703 102.5517037 247.21635555z"
    fill="#332D2D"
    p-id="1606"
  ></path>
  <path
    d="M514.79134815 519.5245037m-257.04675556 0a257.04675555 257.04675555 0 1 0 514.09351111 0 257.04675555 257.04675555 0 1 0-514.09351111 0Z"
    fill="#FFF3F3"
    p-id="1607"
  ></path>
  <path
    d="M668.80094815 512c0 26.33576297-6.67496297 51.21517037-18.3258074 72.81777778-25.97167408 48.30245925-77.06548148 81.19182222-135.6837926 81.19182222-51.57925925 0-97.3330963-25.36485925-125.24657778-64.32237037-18.08308148-25.2434963-28.76302222-56.31241482-28.76302222-89.68722963 0-85.07543703 68.93416297-154.0096 154.0096-154.0096 85.07543703 0 154.0096 68.93416297 154.0096 154.0096z"
    fill="#332D2D"
    p-id="1608"
  ></path>
  <path
    d="M864.19531852 517.46133333c0 6.91768889-0.24272592 13.83537778-0.60681482 20.75306667-4.97588148-85.68225185-40.65659259-165.41771852-101.70216295-226.58465185-66.02145185-66.02145185-153.76687408-102.30897778-247.0949926-102.30897778-93.32811852 0-181.07354075 36.28752592-247.0949926 102.30897778-61.04557037 61.04557037-96.84764445 140.78103703-101.70216296 226.34192593-0.36408889-6.79632592-0.60681482-13.71401482-0.60681481-20.51034075 0-93.32811852 36.28752592-181.07354075 102.30897777-247.09499258 66.02145185-66.02145185 153.76687408-102.30897778 247.0949926-102.30897778 93.32811852 0 181.07354075 36.28752592 247.0949926 102.30897778 65.90008889 66.02145185 102.30897778 153.76687408 102.30897777 247.09499258z"
    fill="#5E5A5A"
    p-id="1609"
  ></path>
  <path
    d="M514.79134815 180.19365925c45.51111111 0 89.68722963 8.8594963 131.31472593 26.45712593 40.17114075 16.99081482 76.21594075 41.26340741 107.16349629 72.33232593s55.34151111 67.11371852 72.33232593 107.1634963c17.59762963 41.50613333 26.45712592 85.68225185 26.45712592 131.31472592s-8.8594963 89.68722963-26.45712592 131.31472592c-16.99081482 40.17114075-41.26340741 76.21594075-72.33232593 107.1634963s-67.11371852 55.34151111-107.16349629 72.33232593c-41.50613333 17.59762963-85.68225185 26.45712592-131.31472593 26.45712593s-89.68722963-8.8594963-131.31472593-26.45712593c-40.17114075-16.99081482-76.21594075-41.26340741-107.1634963-72.33232593-30.94755555-30.94755555-55.34151111-67.11371852-72.33232592-107.1634963-17.59762963-41.50613333-26.45712592-85.68225185-26.45712592-131.31472592s8.8594963-89.68722963 26.45712592-131.31472592c16.99081482-40.17114075 41.26340741-76.21594075 72.33232592-107.1634963 30.94755555-30.94755555 67.11371852-55.34151111 107.1634963-72.33232593 41.6274963-17.47626667 85.80361482-26.45712592 131.31472593-26.45712593m0-24.27259258c-199.64207408 0-361.54026667 161.89819259-361.54026667 361.54026666s161.89819259 361.54026667 361.54026667 361.54026667S876.33161482 717.10340741 876.33161482 517.46133333 714.43342222 155.92106667 514.79134815 155.92106667z"
    fill="#161414"
    p-id="1610"
  ></path>
  <path
    d="M644.64971852 595.49771852c-0.9709037 1.57771852-1.94180741 3.03407408-3.03407407 4.61179259-27.79211852 40.17114075-74.15277037 66.62826667-126.8242963 66.62826667-51.57925925 0-97.21173333-25.36485925-125.24657778-64.32237037-0.48545185-0.72817778-1.09226667-1.45635555-1.57771852-2.3058963-1.09226667-1.45635555-2.06317037-3.03407408-3.03407407-4.49042963 3.15543703-4.97588148 6.5536-9.70903703 10.31585185-14.32082963 28.27757037-34.70980741 71.24005925-56.79786667 119.54251852-56.79786667s91.26494815 22.20942222 119.54251852 56.79786667c3.64088889 4.49042963 7.16041482 9.22358518 10.31585185 14.19946667z"
    fill="#5E5A5A"
    p-id="1611"
  ></path>
  <path
    d="M514.79134815 678.75271111c-53.3997037 0-103.8866963-25.97167408-135.07697778-69.41961481-0.60681482-0.84954075-1.09226667-1.57771852-1.69908148-2.42725927-1.09226667-1.45635555-2.06317037-3.03407408-3.2768-4.85451851l-4.24770371-6.5536 4.24770371-6.5536c3.39816297-5.33997037 7.16041482-10.55857778 11.16539259-15.4130963 31.67573333-38.95751111 78.6432-61.2882963 128.88746667-61.2882963 50.24426667 0 97.21173333 22.33078518 128.88746667 61.2882963 4.00497778 4.85451852 7.76722963 10.07312592 11.16539259 15.4130963l4.12634074 6.5536-4.12634074 6.5536c-1.09226667 1.82044445-2.18453333 3.39816297-3.2768 4.97588148-31.06891852 44.78293333-82.16272592 71.72551111-136.77605926 71.72551111z m-115.17345185-83.25499259c26.69985185 36.89434075 69.66234075 58.9824 115.17345185 58.9824 45.63247408 0 88.4736-21.9666963 115.17345185-58.9824-1.57771852-2.3058963-3.2768-4.49042963-5.09724445-6.5536-27.06394075-33.25345185-67.23508148-52.4288-110.0762074-52.4288-42.84112592 0-83.01226667 19.05398518-110.0762074 52.4288-1.82044445 2.06317037-3.39816297 4.2477037-5.09724445 6.5536z"
    fill="#161414"
    p-id="1612"
  ></path>
  <path
    d="M514.79134815 678.1458963c-53.3997037 0-103.8866963-25.97167408-135.07697778-69.41961482-20.38897778-28.39893333-31.06891852-61.77374815-31.06891852-96.84764445 0-91.62903703 74.51685925-166.1458963 166.1458963-166.14589628s166.1458963 74.63822222 166.1458963 166.26725925c0 27.42802963-6.79632592 54.61333333-19.78216297 78.6432-29.00574815 54.00651852-85.07543703 87.5026963-146.36373333 87.5026963z m0-308.0192c-78.27911111 0-141.8733037 63.71555555-141.8733037 141.8733037 0 29.85528889 9.22358518 58.49694815 26.57848888 82.64817778 26.57848889 37.13706667 69.7837037 59.22512592 115.41617778 59.22512592 52.30743703 0 100.24580741-28.64165925 125.00385186-74.75958518 11.04402963-20.51034075 16.86945185-43.69066667 16.86945185-67.11371852-0.12136297-78.27911111-63.71555555-141.8733037-141.99466667-141.8733037z"
    fill="#161414"
    p-id="1613"
  ></path>
</svg>