<svg
  t="1730624457973"
  class="icon"
  viewBox="0 0 1024 1024"
  version="1.1"
  xmlns="http://www.w3.org/2000/svg"
  p-id="11046"
  width="256"
  height="256"
>
  <path
    d="M1024 512c0 282.774-229.226 512-512 512S0 794.774 0 512 229.226 0 512 0s512 229.226 512 512z m0 0"
    fill="#8DB0FF"
    p-id="11047"
  ></path>
  <path
    d="M855.914 132.704c82.46 90.89 132.704 211.53 132.704 343.914 0 282.772-229.228 512-512 512-132.384 0-253.024-50.244-343.914-132.704C226.374 959.156 361.618 1024 512 1024c282.774 0 512-229.226 512-512 0-150.382-64.844-285.626-168.086-379.296z m0 0"
    fill="#669AF7"
    p-id="11048"
  ></path>
  <path
    d="M919.938 512c0 225.296-182.64 407.938-407.938 407.938S104.062 737.298 104.062 512 286.702 104.062 512 104.062 919.938 286.702 919.938 512z m0 0"
    fill="#DDF5FF"
    p-id="11049"
  ></path>
  <path
    d="M780.546 204.946c62.806 71.758 100.884 165.702 100.884 268.546 0 225.298-182.64 407.938-407.938 407.938-102.844 0-196.788-38.08-268.546-100.884C279.718 865.968 389.554 919.94 512 919.94c225.296 0 407.938-182.64 407.938-407.938 0-122.446-53.96-232.28-139.392-307.054z m0 0"
    fill="#C1E9F4"
    p-id="11050"
  ></path>
  <path
    d="M545.296 512h-66.592V245.594c0-18.39 14.906-33.298 33.296-33.298s33.296 14.908 33.296 33.298z m0 0"
    fill="#636363"
    p-id="11051"
  ></path>
  <path
    d="M488.454 535.546l47.092-47.092 144.228 144.226c13 13.008 13 34.094 0 47.094-13.008 13.008-34.094 13.008-47.094 0z m0 0"
    fill="#636363"
    p-id="11052"
  ></path>
  <path
    d="M299.71 739.9c-4 0-7.992-1.524-11.04-4.572a15.602 15.602 0 0 1 0-22.078l171.018-171.016a15.608 15.608 0 0 1 22.07 0 15.602 15.602 0 0 1 0 22.08l-171.016 171.014a15.552 15.552 0 0 1-11.032 4.57z m0 0"
    fill="#FF6969"
    p-id="11053"
  ></path>
  <path
    d="M527.61 104.36v41.328c0 8.616-6.992 15.608-15.61 15.608s-15.61-6.992-15.61-15.608V104.36c5.18-0.188 10.384-0.298 15.61-0.298s10.43 0.11 15.61 0.298z m0 0M336.648 208.274a15.338 15.338 0 0 1-7.78 2.1 15.632 15.632 0 0 1-13.556-7.804L294.624 166.76a402.64 402.64 0 0 1 27.04-15.656l20.712 35.86a15.594 15.594 0 0 1-5.728 21.312z m0 0M208.274 336.648c-2.868 5.016-8.134 7.806-13.524 7.806a15.574 15.574 0 0 1-7.79-2.08l-35.86-20.71a400.7 400.7 0 0 1 15.658-27.04l35.82 20.688c7.468 4.336 10.024 13.868 5.696 21.336z m0 0M161.296 512a15.614 15.614 0 0 1-15.608 15.61H104.36c-0.188-5.18-0.298-10.384-0.298-15.61s0.11-10.43 0.298-15.61h41.328A15.614 15.614 0 0 1 161.296 512z m0 0M202.57 708.68L166.76 729.368a400.524 400.524 0 0 1-15.656-27.032l35.86-20.71a15.594 15.594 0 0 1 21.312 5.726c4.328 7.468 1.772 17-5.704 21.328z m0 0M342.376 837.04l-20.712 35.86a402.462 402.462 0 0 1-27.032-15.658l20.688-35.82a15.62 15.62 0 0 1 21.328-5.704 15.604 15.604 0 0 1 5.726 21.32z m0 0M527.61 878.304v41.336c-5.18 0.188-10.384 0.298-15.61 0.298s-10.43-0.11-15.61-0.298v-41.336a15.62 15.62 0 0 1 15.61-15.608c8.618 0.008 15.61 7 15.61 15.608z m0 0M729.368 857.242a400.524 400.524 0 0 1-27.032 15.656l-20.71-35.86a15.594 15.594 0 0 1 5.726-21.312 15.63 15.63 0 0 1 21.336 5.704z m0 0M872.9 702.336a400.524 400.524 0 0 1-15.658 27.032l-35.812-20.688c-7.476-4.328-10.04-13.86-5.704-21.328a15.586 15.586 0 0 1 21.314-5.726z m0 0M919.938 512c0 5.226-0.11 10.43-0.298 15.61h-41.336c-8.608 0-15.608-6.992-15.608-15.61s7-15.61 15.608-15.61h41.336c0.188 5.18 0.298 10.384 0.298 15.61z m0 0M872.9 321.664l-35.86 20.712a15.574 15.574 0 0 1-7.79 2.078 15.574 15.574 0 0 1-13.524-7.806c-4.328-7.468-1.772-17 5.704-21.328l35.812-20.688a400.524 400.524 0 0 1 15.656 27.032z m0 0M729.368 166.758l-20.688 35.812c-2.89 5.024-8.156 7.806-13.548 7.806a15.318 15.318 0 0 1-7.78-2.102 15.586 15.586 0 0 1-5.726-21.314l20.702-35.86a398.78 398.78 0 0 1 27.04 15.658z m0 0"
    fill="#636363"
    p-id="11054"
  ></path>
  <path
    d="M574.438 512c0 34.484-27.954 62.438-62.438 62.438S449.562 546.484 449.562 512s27.954-62.438 62.438-62.438 62.438 27.954 62.438 62.438z m0 0"
    fill="#8DB0FF"
    p-id="11055"
  ></path>
  <path
    d="M547.64 460.742a62.116 62.116 0 0 1 11.188 35.648c0 34.486-27.952 62.44-62.438 62.44-13.258 0-25.54-4.142-35.648-11.19 11.29 16.196 30.032 26.798 51.258 26.798 34.484 0 62.438-27.954 62.438-62.438 0-21.226-10.602-39.968-26.798-51.258z m0 0"
    fill="#669AF7"
    p-id="11056"
  ></path>
</svg>
