<svg t="1734243620963" class="icon" viewBox="0 0 1024 1024" version="1.1" xmlns="http://www.w3.org/2000/svg" p-id="5429" width="256" height="256"><path d="M817.83466667 998.65577245H219.79682133c-102.70219378 0-186.00573155-83.30353778-186.00573155-186.00573156V227.77764978c0-102.70219378 83.30353778-186.00573155 186.00573155-186.00573156H817.83466667c102.70219378 0 186.00573155 83.30353778 186.00573155 186.00573156v584.87239111c0 102.760448-83.24528355 186.00573155-186.00573155 186.00573156z" fill="#4F44E0" p-id="5430"></path><path d="M781.77530311 920.07082667H255.91443911c-102.35266845 0-185.30668089-82.95401245-185.30668089-185.30668089V253.11823645c0-102.35266845 82.95401245-185.30668089 185.30668089-185.3066809h525.860864c102.35266845 0 185.30668089 82.95401245 185.30668089 185.3066809v481.64590933c0 102.35266845-82.95401245 185.30668089-185.30668089 185.30668089z" fill="#634FED" p-id="5431"></path><path d="M757.71630933 861.700096H279.91517867c-92.39119645 0-167.30612622-74.91492978-167.30612622-167.30612622v-427.00344889c0-92.39119645 74.91492978-167.30612622 167.30612622-167.30612622h477.80113066c92.39119645 0 167.30612622 74.91492978 167.30612622 167.30612622v427.00344889c0.05825422 92.39119645-74.85667555 167.30612622-167.30612622 167.30612622z" fill="#756AF6" p-id="5432"></path><path d="M334.49938489 172.49439289c72.64301511-3.84477867 230.10417778-22.020096 321.44679822 7.86432s187.28732445 56.68135822 190.43305244 166.84009244-4.718592 199.87023645 0 239.25009067c4.718592 39.3216 8.912896 168.41295645-67.98267733 184.14159645-76.83731911 15.72864-232.66736355 6.291456-309.79595377 23.59296-77.12859022 17.301504-286.43601067 11.010048-288.00887467-92.85723023s40.894464-221.94858667 18.874368-275.42596267S192.35908267 179.95093333 334.49938489 172.49439289z" fill="#7F73F4" p-id="5433"></path><path d="M731.79318045 382.96689778l-255.15349334-147.324928c-49.63259733-28.66107733-108.81888711-28.66107733-158.50973866 0-49.63259733 28.66107733-79.22574222 79.98304711-79.22574223 137.24694755v294.59160178c0 57.26390045 29.65139911 108.58587022 79.22574223 137.24694756 24.29201067 14.03926755 51.67149511 21.43755378 79.22574222 21.43755378s54.93373155-7.39828622 79.22574222-21.43755378l255.09523911-147.26667378c49.63259733-28.66107733 79.22574222-79.92479289 79.22574222-137.24694756 0.11650845-57.26390045-29.47663645-108.58587022-79.10923377-137.24694755z m-144.47047112 137.24694755l-157.2864 90.81833245V429.39551289l157.2864 90.81833244z" fill="#634FED" p-id="5434"></path><path d="M397.41394489 792.26106311c-21.37929955 0-42.75859911-5.65065955-62.27376356-16.89372444-39.03032889-22.544384-62.27376355-62.85630578-62.27376355-107.88681956V372.88891733c0-45.03051378 23.30168889-85.34243555 62.27376355-107.88681955 39.03032889-22.48612978 85.57545245-22.48612978 124.54752712 0l255.15349333 147.324928c39.03032889 22.544384 62.27376355 62.85630578 62.27376355 107.88681955s-23.30168889 85.34243555-62.27376355 107.88681956l-255.09523911 147.324928c-19.51516445 11.24306489-40.894464 16.83547022-62.33201778 16.83547022z m-1.22333867-419.954688s-0.05825422 0.17476267-0.05825422 0.58254222v294.59160178c0 0.46603378 0.05825422 0.64079645 0.05825422 0.64079644 0.17476267 0.29127111 0.93206755 0.75730489 1.33984711 0.7573049 0 0 0.17476267-0.05825422 0.58254222-0.29127112l255.09523912-147.324928c0.40777955-0.23301689 0.524288-0.34952533 0.524288-0.34952533 0.17476267-0.29127111 0.17476267-1.16508445 0-1.51460978 0 0-0.11650845-0.11650845-0.524288-0.34952533l-255.15349334-147.26667378a3.85642951 3.85642951 0 0 0-0.58254222-0.29127111c-0.29127111 0.05825422-1.10683022 0.46603378-1.28159289 0.81555911z" fill="#F7BC00" p-id="5435"></path><path d="M397.41394489 767.56127289c-17.18499555 0-34.31173689-4.54382933-49.98212267-13.57323378-31.28251733-18.05880889-49.98212267-50.38990222-49.98212267-86.50752V372.88891733c0-36.11761778 18.69960533-68.44871111 49.98212267-86.50752 31.28251733-18.05880889 68.62347378-18.05880889 99.90599111 0l255.09523912 147.324928c31.28251733 18.05880889 49.98212267 50.38990222 49.98212266 86.56577422 0 36.11761778-18.69960533 68.44871111-49.98212266 86.50752L447.33781333 754.10454755c-15.61213155 8.97115022-32.73887289 13.45672533-49.92386844 13.45672534z m0.17476266-420.71199289c-6.00018489 0-10.71877689 2.21366045-13.1072 3.55350755-3.90303289 2.27191467-12.99069155 8.97115022-12.99069155 22.48612978v294.59160178c0 13.51497955 9.08765867 20.21421511 12.99069155 22.48612978 3.90303289 2.27191467 14.21403022 6.75748978 25.9231289 0l255.0952391-147.324928c11.70909867-6.75748978 12.99069155-17.94230045 12.99069156-22.48612978 0-4.48557511-1.28159289-15.72864-12.99069156-22.48612978L410.40463645 350.46104178c-4.60208355-2.67969422-8.97115022-3.61176178-12.8159289-3.61176178z" fill="#FFD029" p-id="5436"></path><path d="M397.41394489 749.03643022c-13.98101333 0-27.96202667-3.670016-40.71970134-11.010048-25.51534933-14.73831822-40.71970133-41.06922667-40.71970133-70.48760889V372.88891733c0-29.41838222 15.204352-55.80754489 40.71970133-70.48760888 25.51534933-14.73831822 55.92405333-14.73831822 81.43940267 0l255.09523911 147.324928c25.51534933 14.73831822 40.71970133 41.06922667 40.71970134 70.5458631 0 29.41838222-15.204352 55.80754489-40.71970134 70.4876089L438.13364622 738.02638222a81.4743552 81.4743552 0 0 1-40.71970133 11.010048z m0-420.65373867c-7.63130311 0-15.26260622 2.03889778-22.25311289 6.0001849-13.92275911 8.03908267-22.19485867 22.42787555-22.19485867 38.50604088v294.59160178c0 16.07816533 8.33035378 30.46695822 22.19485867 38.50604089a43.97611235 43.97611235 0 0 0 44.44797155 0l255.09523912-147.324928c13.92275911-8.03908267 22.19485867-22.42787555 22.19485866-38.50604089s-8.33035378-30.46695822-22.19485866-38.50604089L419.66705778 334.44113067a44.56448 44.56448 0 0 0-22.25311289-6.05843912z" fill="#FFE576" p-id="5437"></path></svg>