<svg
  t="1734527852316"
  class="icon"
  viewBox="0 0 1024 1024"
  version="1.1"
  xmlns="http://www.w3.org/2000/svg"
  p-id="7764"
  width="256"
  height="256"
>
  <path
    d="M989.695534 725.324292c0 62.821939-35.429965 119.499883-98.277905 119.499883H151.885352c-62.822939 0-134.962868-56.651945-134.962869-119.499883v-559.999453C16.922483 102.5019 202.829302 0 265.677241 0h586.674427c88.012914 0 137.394866 51.53295 137.394865 138.623865v586.699427z"
    fill="#678036"
    p-id="7765"
  ></path>
  <path
    d="M938.495584 839.090181c0 62.822939-41.13996 133.708869-103.961899 133.708869H208.768296c-62.821939 0-140.645863-70.885931-140.645863-133.708869v-682.649334c0-117.169886 26.289974-105.214897 169.112835-105.214897H834.559685c62.821939 0 103.961898 42.367959 103.961898 105.215897v682.649334z"
    fill="#CCD6DD"
    p-id="7766"
  ></path>
  <path
    d="M861.695659 861.874158a85.324917 85.324917 0 0 1-85.324917 85.324917H102.2464a85.324917 85.324917 0 0 1-85.323917-85.324917V187.749817a85.324917 85.324917 0 0 1 85.323917-85.323917h674.124342a85.324917 85.324917 0 0 1 85.324917 85.323917v674.124341z"
    fill="#E1E8ED"
    p-id="7767"
  ></path>
  <path
    d="M861.695659 910.233111A113.765889 113.765889 0 0 1 747.92977 1023.999H156.288347A113.765889 113.765889 0 0 1 42.522458 910.233111V292.991714a113.765889 113.765889 0 0 1 113.765889-113.765889H747.92977a113.765889 113.765889 0 0 1 113.765889 113.765889v617.241397z"
    fill="#82A637"
    p-id="7768"
  ></path>
  <path
    d="M810.495709 895.973125c0 62.822939-26.905974 128.025875-89.753913 128.025875H180.326324c-62.821939 0-137.803865-65.202936-137.803866-128.025875V327.090681c0-62.821939 74.981927-96.690906 137.803866-96.690906h549.964463c62.822939 0 80.204922 24.293976 80.204922 87.141915v578.431435z"
    fill="#82A637"
    p-id="7769"
  ></path>
  <path
    d="M180.326324 179.225825c-47.999953 0-49.253952-61.79894-28.440972-85.324917 23.653977-26.751974 60.440941-42.674958 126.232876-42.674958h20.40398V0.026h-53.324947C132.300371 0.026 16.896483 56.882944 16.896483 138.649865v757.32326c0 62.822939 72.13993 128.025875 134.962869 128.025875h44.236956V179.199825h-15.769984z"
    fill="#678036"
    p-id="7770"
  ></path>
  <path
    d="M686.23383 460.33955c0 28.159973-23.039978 51.19995-51.19995 51.19995H420.992089c-28.159973 0-51.19995-23.039978-51.19995-51.19995V403.199606c0-28.159973 23.039978-51.19995 51.19995-51.19995h214.041791c28.159973 0 51.19995 23.039978 51.19995 51.19995v57.139944z"
    fill="#A4BE6B"
    p-id="7771"
  ></path>
</svg>