<svg
  t="1747709422615"
  class="icon"
  viewBox="0 0 1024 1024"
  version="1.1"
  xmlns="http://www.w3.org/2000/svg"
  p-id="11764"
  width="200"
  height="200"
>
  <path
    d="M1018.6496 886.8352c0 72.8064-74.2656 131.84-165.888 131.84H166.016c-91.648 0-165.888-59.0336-165.888-131.84V131.9424c0-72.8064 74.24-131.84 165.888-131.84H852.736c91.648 0 165.9136 59.0336 165.9136 131.84v754.8928z"
    fill="#F8D561"
    p-id="11765"
  ></path>
  <path
    d="M848.3328 509.184c-24.6784 0.1792-145.6128-69.632-149.4272-73.2928-9.1648-8.7552-5.76-19.6864 3.6352-21.12 9.3696-1.5104 62.0032-7.7568 62.0032-7.7568-32.3584-86.4768-104.4992-155.52-199.2704-177.92-151.1936-35.712-307.584 65.6384-342.1184 220.3392-0.3328 1.3056-2.4064 17.1008-14.9248 16.5888-8.4992-0.3328-36.2496-11.392-46.336-16.0768-11.4432-5.376-14.5152-3.968-11.0848-21.2992C190.1568 231.936 391.5776 99.4048 584.9088 144.7424c160.4352 37.632 271.9232 176.896 284.16 335.488 2.048 21.248-8.8064 28.8256-20.736 28.928"
    fill="#FFFFFF"
    p-id="11766"
  ></path>
  <path
    d="M602.8288 552.2432a28.8 28.8 0 0 1 0 57.5488h-57.5232v35.9424a35.8912 35.8912 0 1 1-71.8592 0V609.792h-57.5232a28.7744 28.7744 0 0 1 0-57.5488h57.5232V523.52h-57.5232a28.7744 28.7744 0 0 1 0-57.4976h57.5232v-1.9456l-63.7952-63.8208a28.928 28.928 0 1 1 40.9088-40.96l58.368 58.3168 58.5216-58.5472a28.928 28.928 0 1 1 40.9344 40.96l-63.0784 63.0528v2.944h57.4976a28.7744 28.7744 0 1 1 0 57.5232h-57.4976v28.6976h57.5232"
    fill="#FFFFFF"
    p-id="11767"
  ></path>
  <path
    d="M316.6208 592.8704c12.5696 8.064 9.5744 24.2432-4.3008 25.6768-13.8496 1.4592-57.2672 5.2736-57.2672 5.2736 34.4064 80.64 104.1408 144.256 194.3552 165.5296 151.1936 35.7376 305.8176-60.7488 340.4032-215.424 0.7168-3.1744 0.6912-2.688 1.92-9.4976 1.2544-6.8608 3.2512-17.2032 16.5632-12.5952 13.312 4.6848 45.7472 14.1824 55.8848 16.896 10.112 2.7136 8.9856 6.656 7.7312 16.1024-0.384 2.8672-0.9984 5.4784-1.6128 8.2176-45.2352 201.1392-242.2528 326.656-440.0128 280.2432-160.256-37.6064-271.6672-176.512-284.1088-334.8992-1.7152-27.2128 17.5104-32.768 37.1712-22.3744 15.4624 8.192 120.6272 68.736 133.2736 76.8512"
    fill="#FFFFFF"
    p-id="11768"
  ></path>
</svg>