<!-- 晚上 多云  -->
<svg
  t="1734720734860"
  class="icon"
  viewBox="0 0 1024 1024"
  version="1.1"
  xmlns="http://www.w3.org/2000/svg"
  p-id="3945"
  width="256"
  height="256"
>
  <path
    d="M913 309.4c-20.3 12.9-41.4 23.1-63.1 29.6-32.3 9.8-69.6 11.4-101.8 4.9-47.5-9.5-90.6-26.3-137-82.8-26.9-32.8-43.1-77.8-46.9-113.6-2.5-23.5-1.4-44.1 2.8-68.2 0.8-4.1 4.8-13.3 3.2-15-1.6-1.7-8.6 2.2-13.2 5s-9 5.9-13.2 9.2c-109.5 89.3-126 250.5-36.7 360.1s251 126.6 360.1 36.7c54.5-44.8 81.7-99.8 90.4-156.8 1.3-8.7 2.6-17.4 2.7-26.1 0.2-13.4-4.1-19.3-7.4-17-2.8 1.7-17.5 19.7-39.9 34z"
    fill="#FDBC11"
    p-id="3946"
  ></path>
  <path
    d="M934.2 304.3c-99.6 81.2-246 66.2-327.2-33.3-44.1-53.9-61.6-124.8-47.7-193.1-3.7 2.7-7.3 5.5-10.8 8.4-105.7 86.2-121.6 241.7-35.4 347.5s241.8 121.6 347.5 35.4c54.6-44.4 87.5-109.9 90.6-180.2-5.3 5.2-11 10.4-17 15.3z"
    fill="#F58A33"
    p-id="3947"
  ></path>
  <path
    d="M768.8 355.8c-128-10.2-223.6-122.3-213.4-250.3 0.7-9.3 2-18.6 3.9-27.7-3.7 2.7-7.3 5.5-10.8 8.4-105.8 86.2-121.6 241.7-35.4 347.5C523 445.8 534 457 546 467.1c58.8 9.5 120.1-4.5 168.6-44.1 22.6-18.3 41-41.2 54.2-67.2z"
    fill="#F79A4D"
    p-id="3948"
  ></path>
  <path
    d="M459.3 306.4c50.9 29.8 115 24.8 160.7-12.4l4.5-3.9c-6.2-6.1-12-12.5-17.5-19.2-44-53.9-61.5-124.8-47.6-193.1-3.7 2.7-7.3 5.5-10.8 8.4-65.5 53.2-99.2 136.3-89.3 220.2z"
    fill="#F4B04E"
    p-id="3949"
  ></path>
  <path
    d="M478 179c23.9 22.5 58 30.7 89.5 21.3-13.6-39.4-16.4-81.7-8.2-122.5-3.7 2.7-7.3 5.5-10.8 8.4-30.7 24.8-54.8 56.6-70.5 92.8z"
    fill="#F2C051"
    p-id="3950"
  ></path>
  <path
    d="M246.8 424.3S92.7 400.1 67.4 534.4C53.5 608.5 87.9 653.7 132 680.9c41 25.3 81.9 28.1 81.9 28.1h605.9s30.9-1.5 58.7-12c43.5-16.5 92.2-53.5 80-140.7-14.2-101.5-122.8-97.6-122.8-97.6s3.4-79.2-79.8-104.4c-57.3-17.3-94.4 7.4-94.4 7.4S594.8 247.6 456 255.3c-182.9 10.3-209.2 169-209.2 169z"
    fill="#78A4D6"
    p-id="3951"
  ></path>
  <path
    d="M945.8 556.5C928.5 465.4 824 470 824 470s4.8-78.6-73.8-104c-47.7-15.4-93.1 8.4-93.1 8.4s-69.4-117-199.7-107.6c-175.8 12.8-202.1 171.9-202.1 171.9s-147.6-31.4-175.4 96.7c-30 139 130.8 160.8 130.8 160.8h284s62.2-4.8 87.4-32.5c34.2-37.4 36-92.3-4.3-121.8-36.4-26.6-80.5-20.7-111.5-9-12.5 4.7-13.7 6.5-15.3 6.2-1.2-0.2-4.6-3.7 2.9-9.1 9.4-6.9 20.2-13.4 38.7-17.7 62.9-14.5 122 17 138.2 64.9 11.6 33.5 10.1 70.1-4.1 102.5-4.4 9.9-6.4 9.7-6.3 13.2 0.1 3.9 4.8 3.3 4.8 3.3h201.1c0.1-0.1 143.7-11.9 119.5-139.7z"
    fill="#C0E7FA"
    p-id="3952"
  ></path>
  <path
    d="M494.6 696.1s62.2-4.8 87.4-32.5c23-25.1 31.2-57.9 22.1-85.8-3.4-10-8.9-19.2-16.2-26.9-0.6-0.7-1.2-1.3-1.8-1.8-0.8-0.8-1.5-1.5-2.4-2.2-1.9-1.7-4-3.4-6.1-5-12.9-9.5-28-15.6-43.9-17.7h-0.6c49.5 30.2 32.9 82.2-0.6 100.6-26.5 14.6-84.3 17.3-102.5 13.5-109.3-22.1-105.6-80.1-103.1-102.8 0.6-6.1 4.4-8.2 1.6-9.7s-11 4.3-14.6 7c-40.2 30.2-31.1 72-31.1 72s-60.8 20-122.6-12.3c-56.9-30-62.1-90.6-62.4-101.9l-1.6 2.6c-1.5 2.7-3.9 6.6-6.4 12.2-1 2.1-1.9 4.4-2.9 6.6-0.3 0.8-0.5 1.5-0.9 2.2-1 2.6-1.8 5.3-2.7 7.9-0.3 1-0.6 2-1 3.1-0.8 2.6-1.4 5.2-1.9 7.8-1 4.1-1.8 8.4-2.6 13.2-0.6 3.9-1 7.5-1.3 11.2 0 0.4-0.1 0.8-0.1 1.2-0.2 3-0.3 5.9-0.3 8.8v3.5c0 2 0.1 4.1 0.2 6.1 6.9 101.7 134.2 119 134.2 119h284.1zM948.5 579.4c-0.4-7.6-1.3-15.2-2.7-22.6-0.3-1.8-0.8-3.5-1.1-5.2l-0.3-1.6c-0.2-1.1-0.5-2-0.8-3.1-6.1-22.2-17.8-38-31.5-49.2-3.6-2.9-7.4-5.5-11.3-8-0.3-0.2 32.5 95.8-84.3 128.7-41 11.6-137.1 13.9-179.2-15.4 3.7 25.9 0.1 52.3-10.3 76.3-4.4 9.9-6.4 9.7-6.3 13.2 0.1 3.9 4.8 3.3 4.8 3.3h201.1c-0.2 0.3 125.7-10.1 121.9-116.4z"
    fill="#9CDCF8"
    p-id="3953"
  ></path>
  <path
    d="M430.9 342.2a81.3 52.5 0 1 0 162.6 0 81.3 52.5 0 1 0-162.6 0Z"
    fill="#FFFFFF"
    p-id="3954"
  ></path>
</svg>