<?xml version="1.0" standalone="no"?><!DOCTYPE svg PUBLIC "-//W3C//DTD SVG 1.1//EN" "http://www.w3.org/Graphics/SVG/1.1/DTD/svg11.dtd"><svg t="1715790127902" class="icon" viewBox="0 0 1024 1024" version="1.1" xmlns="http://www.w3.org/2000/svg" p-id="38602" xmlns:xlink="http://www.w3.org/1999/xlink" width="256" height="256"><path d="M82.72 557.216a63.968 63.968 0 0 1 0-90.432L466.784 82.72c24.96-24.96 65.472-24.96 90.432 0l384.064 384.064c24.96 24.96 24.96 65.472 0 90.432L557.216 941.28c-24.96 24.96-65.472 24.96-90.432 0L82.72 557.216z" fill="#F05133" p-id="38603" data-spm-anchor-id="a313x.search_index.0.i18.7ca93a81ATNBr6" class="selected"></path><path d="M388.8 161.984l-38.912 38.88 100.448 100.448A68.032 68.032 0 0 0 488 393.6v245.728a68.032 68.032 0 1 0 55.008 3.104v-248.48l96 96a68 68 0 1 0 41.056-36.704l-103.104-103.136a68 68 0 0 0-85.12-85.12l-103.04-103.04z" fill="#FFFFFF" p-id="38604"></path></svg>