<svg
  t="1732459909315"
  class="icon"
  viewBox="0 0 1024 1024"
  version="1.1"
  xmlns="http://www.w3.org/2000/svg"
  p-id="3683"
  width="256"
  height="256"
>
  <path
    d="M863.0912 102.4l2.7904 0.064 3.328 0.256c1.7408 0.1792 3.456 0.4352 5.1584 0.768l3.1104 0.704 2.048 0.5504 4.3008 1.4464 3.1104 1.28 3.6864 1.792 2.624 1.4976c1.088 0.6656 2.176 1.3568 3.2128 2.0864l1.28 0.9088 2.9184 2.304 2.24 1.9712 3.072 3.072 1.4336 1.6128 1.216 1.4464 0.6784 0.8576c0.64 0.8192 1.2672 1.664 1.856 2.5216l1.856 2.8288 1.7152 3.008 1.4848 2.9696 1.344 3.136 1.1648 3.264 0.5376 1.7536c1.536 5.1968 2.3424 10.7136 2.3424 16.4096v526.6304a58.5088 58.5088 0 0 1-117.0304 0V302.1696L202.2912 904.4608a58.5216 58.5216 0 0 1-80.576 2.0736l-2.176-2.0736a58.5088 58.5088 0 0 1 0-82.752l602.2784-602.2912H336.4608a58.5216 58.5216 0 0 1-58.4576-55.744l-0.064-2.7648A58.5088 58.5088 0 0 1 336.4608 102.4h526.6304z"
    fill="#000000"
    p-id="3684"
  ></path>
</svg>