<svg
  t="1733556774005"
  class="icon"
  viewBox="0 0 1024 1024"
  version="1.1"
  xmlns="http://www.w3.org/2000/svg"
  p-id="7758"
  width="256"
  height="256"
>
  <path
    d="M512.32 967.46666667c-11.30666667 0-22.18666667-4.48-30.18666667-12.48l-133.33333333-133.33333333c-16.64-16.64-16.64-43.62666667 0-60.37333334s43.62666667-16.64 60.37333333 0l103.14666667 103.14666667 103.14666667-103.14666667c16.64-16.64 43.62666667-16.64 60.37333333 0s16.64 43.62666667 0 60.37333334l-133.33333333 133.33333333c-8 8-18.88 12.48-30.18666667 12.48z"
    p-id="7759"
  ></path>
  <path
    d="M512.32 814.18666667c-23.57333333 0-42.66666667-19.09333333-42.66666667-42.66666667v-320c0-23.57333333 19.09333333-42.66666667 42.66666667-42.66666666s42.66666667 19.09333333 42.66666667 42.66666666v320c0 23.57333333-19.09333333 42.66666667-42.66666667 42.66666667z"
    p-id="7760"
  ></path>
  <path
    d="M743.89333333 690.34666667h-98.24c-23.57333333 0-42.66666667-19.09333333-42.66666666-42.66666667s19.09333333-42.66666667 42.66666666-42.66666666h98.24c69.33333333 0 125.76-56.42666667 125.76-125.76 0-69.12-56.10666667-125.44-125.22666666-125.76h-1.28c-12.05333333 0-23.57333333-4.90666667-31.68-13.76a42.83733333 42.83733333 0 0 1-11.09333334-32.74666667c0.53333333-6.18666667 0.85333333-11.84 0.85333334-17.28 0-104.10666667-84.69333333-188.90666667-188.90666667-188.90666667s-188.8 84.8-188.8 189.01333334c0 5.44 0.32 11.09333333 0.85333333 17.28 1.06666667 11.94666667-2.98666667 23.89333333-11.09333333 32.74666666-8.10666667 8.74666667-19.52 13.76-31.36 13.76h-1.49333333c-69.12 0.32-125.22666667 56.53333333-125.22666667 125.76 0 69.33333333 56.42666667 125.76 125.76 125.76h98.24c23.57333333 0 42.66666667 19.09333333 42.66666667 42.66666667s-19.09333333 42.66666667-42.66666667 42.66666667h-98.24c-116.37333333 0-211.09333333-94.72-211.09333333-211.09333334 0-101.97333333 72.64-187.30666667 168.96-206.82666666C242.98666667 205.86666667 270.93333333 143.68 318.61333333 96c51.84-51.84 120.64-80.32 193.92-80.32S654.61333333 44.16 706.45333333 96c47.68 47.68 75.62666667 109.76 79.78666667 176.53333334 96.32 19.62666667 168.96 104.85333333 168.96 206.82666666-0.21333333 116.26666667-94.93333333 210.98666667-211.30666667 210.98666667z"
    p-id="7761"
  ></path>
</svg>