<svg
  t="1733556982663"
  class="icon"
  viewBox="0 0 1024 1024"
  version="1.1"
  xmlns="http://www.w3.org/2000/svg"
  p-id="4452"
  width="256"
  height="256"
>
  <path
    d="M162.11057778 592.58500741c59.46785185-116.9938963 177.06856297-197.5789037 313.84462222-197.57890371V439.18222222c0 1.09226667 0 2.18453333 0.12136297 3.2768v0.12136296c2.54862222 55.46287408 66.99235555 85.92497778 111.65392592 51.33653334l217.72515556-168.33042963c35.92343703-27.79211852 35.92343703-81.92 0-109.71211852L587.60912592 47.90802963c-44.66157037-34.46708148-109.1053037-4.00497778-111.65392592 51.33653334v0.12136295c0 1.09226667-0.12136297 2.18453333-0.12136297 3.2768v46.60337778c-25.00077037 0.12136297-49.39472592 3.03407408-72.93914073 8.25268148-160.44183703 35.80207408-280.95525925 183.13671111-280.95525927 360.32663704 0 29.24847408 3.2768 56.31241482 8.98085927 82.64817778 2.91271111 13.59265185 6.5536 26.94257778 10.67994073 40.2925037 5.70405925-16.62672592 12.62174815-32.64663703 20.51034075-48.18109629z"
    fill="#0C0C0C"
    p-id="4453"
  ></path>
  <path
    d="M899.26921482 585.42459259c0.24272592-1.45635555 0.60681482-2.91271111 0.84954073-4.36906667 0.84954075-4.36906667 1.57771852-8.73813333 2.3058963-13.1072 2.91271111-19.17534815 4.49042963-38.83614815 4.49042963-58.86103703 0-8.8594963-0.36408889-17.59762963-0.84954073-26.09303704-2.06317037-30.4621037-7.64586667-58.9824-15.89854816-87.25997037-0.9709037-3.15543703-1.82044445-6.31087408-2.91271111-9.46631111-24.51531852 70.99733333-69.05552592 132.16426667-126.8242963 175.85493333-2.79134815 2.06317037-5.5826963 4.12634075-8.4954074 6.18951112-4.12634075 2.91271111-8.37404445 5.82542222-12.62174815 8.4954074-1.82044445 1.21362963-3.64088889 2.3058963-5.46133333 3.51952593-3.15543703 1.94180741-6.43223703 3.88361482-9.58767408 5.82542222-5.21860741 3.03407408-10.55857778 5.94678518-16.01991111 8.73813333-0.12136297 0.12136297-0.36408889 0.12136297-0.48545186 0.24272593C661.03371852 618.79940741 608.60491852 632.14933333 552.89931852 632.14933333v-44.17611851c0-1.09226667 0-2.18453333-0.12136297-3.2768v-0.24272593c-2.66998518-55.46287408-66.99235555-85.92497778-111.65392592-51.33653334L223.52023703 701.0834963c-35.92343703 27.79211852-35.92343703 81.92 0 109.71211852l217.72515556 168.20906666c44.66157037 34.46708148 109.1053037 4.00497778 111.65392593-51.33653333v-0.24272593c0-1.09226667 0.12136297-2.18453333 0.12136296-3.2768v-46.60337777c161.04865185-1.09226667 296.85380741-112.62482963 339.8162963-265.54216297 0.48545185-1.82044445 0.9709037-3.76225185 1.45635555-5.5826963 1.82044445-6.79632592 3.51952592-13.83537778 4.97588149-20.99579259z"
    fill="#0C0C0C"
    p-id="4454"
  ></path>
</svg>