<?xml version="1.0" standalone="no"?><!DOCTYPE svg PUBLIC "-//W3C//DTD SVG 1.1//EN" "http://www.w3.org/Graphics/SVG/1.1/DTD/svg11.dtd"><svg t="1715791915344" class="icon" viewBox="0 0 1024 1024" version="1.1" xmlns="http://www.w3.org/2000/svg" p-id="15004" xmlns:xlink="http://www.w3.org/1999/xlink" width="256" height="256"><path d="M188.864 870.432L116.992 64h790.016l-71.968 806.304L511.52 960 188.864 870.432z" fill="#1572B6" p-id="15005"></path><path d="M512 891.456l261.44-72.48 61.504-689.024H512v761.504z" fill="#33A9DC" p-id="15006"></path><path d="M512 422.112h130.88l9.024-101.28H512V221.92h248l-2.368 26.528-24.288 272.576H512v-98.912z" fill="#FFFFFF" p-id="15007"></path><path d="M512.608 678.976l-0.448 0.128-110.144-29.76-7.04-78.88H295.68l13.856 155.296 202.592 56.256 0.48-0.128v-102.912z" fill="#EBEBEB" p-id="15008"></path><path d="M634.464 516.832l-11.904 132.448-110.304 29.76v102.912l202.752-56.192 1.504-16.704 17.184-192.224h-99.232z" fill="#FFFFFF" p-id="15009"></path><path d="M512.352 221.92v98.912H273.44l-1.984-22.24-4.512-50.144-2.368-26.528h247.776zM512 422.112v98.912H403.232l-1.984-22.24-4.48-50.144-2.368-26.528H512z" fill="#EBEBEB" p-id="15010"></path></svg>