<svg
  t="1732459328186"
  class="icon"
  viewBox="0 0 1024 1024"
  version="1.1"
  xmlns="http://www.w3.org/2000/svg"
  p-id="3361"
  width="256"
  height="256"
>
  <path
    d="M1021.0688 494.0032l0.8192 2.6368 0.7424 2.9568 0.5376 2.6624 0.4864 3.5072 0.2176 2.4448 0.128 2.7136-0.0256 2.7904-0.1664 2.9056-0.2816 2.7392-0.3584 2.3808-0.6144 2.9952-0.6016 2.368-0.8832 2.8928-0.832 2.304-1.3184 3.1488-1.5104 3.072-1.3312 2.368-2.0352 3.1488c-0.9472 1.408-1.984 2.7648-3.0848 4.096l-1.6128 1.8432-2.0096 2.0992-341.3248 340.1216a57.0368 57.0368 0 0 1-80.4608 0 56.5376 56.5376 0 0 1 0-80.1664l244.224-243.3536H56.8832a56.8064 56.8064 0 0 1-56.832-54.016L0 512a56.7936 56.7936 0 0 1 56.8832-56.6912h772.8768L585.5488 211.968a56.5376 56.5376 0 0 1-2.0736-77.9776l2.0736-2.176a57.0368 57.0368 0 0 1 80.4608 0l342.4384 341.248 1.0752 1.152c0.4864 0.5376 0.96 1.1008 1.4336 1.664l1.6 2.0096 2.3936 3.4176 1.4592 2.3808 1.536 2.8416 1.152 2.4064 1.152 2.7648 0.8192 2.304z"
    fill="#000000"
    p-id="3362"
  ></path>
</svg>