<svg
  t="1732459468442"
  class="icon"
  viewBox="0 0 1024 1024"
  version="1.1"
  xmlns="http://www.w3.org/2000/svg"
  p-id="3522"
  width="256"
  height="256"
>
  <path
    d="M3.8912 532.3008l-0.832-2.304-0.896-2.8928-0.7424-3.0336-0.4608-2.3296-0.4864-3.5072-0.2176-2.4448-0.128-3.1104 0.0256-2.5472 0.1664-2.752 0.2816-2.7392 0.3584-2.3808 0.6144-2.9952c0.3968-1.7536 0.896-3.4816 1.4592-5.184l0.8576-2.3808 1.3184-3.1488 1.5104-3.072 1.3312-2.368 2.0352-3.1488c0.9472-1.408 1.984-2.7648 3.0848-4.096l1.728-1.9712 1.8944-1.9712 341.3248-340.1216a57.0368 57.0368 0 0 1 80.4608 0 56.5376 56.5376 0 0 1 0 80.1664l-244.224 243.3408h772.8896a56.8064 56.8064 0 0 1 56.832 54.016L1024.128 512a56.7936 56.7936 0 0 1-56.8832 56.6912l-772.9024-0.0128 244.224 243.3536a56.5376 56.5376 0 0 1 2.0864 77.9776l-2.0736 2.176a57.0368 57.0368 0 0 1-80.4608 0L16.4864 551.7824a57.152 57.152 0 0 1-3.3152-3.648l-1.6-2.0096-2.3936-3.4176-1.4592-2.3808-1.536-2.8416-1.152-2.4064-1.152-2.7648z"
    fill="#000000"
    p-id="3523"
  ></path>
</svg>