<svg
  t="1734242316687"
  class="icon"
  viewBox="0 0 1024 1024"
  version="1.1"
  xmlns="http://www.w3.org/2000/svg"
  p-id="5934"
  width="256"
  height="256"
>
  <path
    d="M768 0h-111.808C635.072 59.52 578.752 102.4 512 102.4A153.088 153.088 0 0 1 367.808 0H102.4v1024h265.408c21.12-59.52 77.44-102.4 144.192-102.4 66.752 0 123.008 42.88 144.192 102.4H921.6V0"
    fill="#EC373D"
    p-id="5935"
  ></path>
  <path
    d="M665.6 512a51.2 51.2 0 1 0 0-102.4h-30.016l66.24-66.176a51.2 51.2 0 1 0-72.448-72.448L512 388.48 394.624 270.976a51.2 51.2 0 1 0-72.448 72.448L388.48 409.6H358.4a51.2 51.2 0 1 0 0 102.4h102.4v51.2H358.4a51.2 51.2 0 1 0 0 102.4h102.4v51.2a51.2 51.2 0 1 0 102.4 0v-51.2h102.4a51.2 51.2 0 1 0 0-102.4H563.2V512h102.4z"
    fill="#FFAAAD"
    p-id="5936"
  ></path>
</svg>