<svg
  t="1743260737599"
  class="icon"
  viewBox="0 0 1024 1024"
  version="1.1"
  xmlns="http://www.w3.org/2000/svg"
  p-id="10140"
  width="256"
  height="256"
>
  <path
    d="M458.666667 106.666667a32 32 0 0 1 32-32h426.666666a32 32 0 0 1 32 32v810.666666a32 32 0 0 1-32 32h-810.666666a32 32 0 0 1-32-32v-426.666666a32 32 0 0 1 32-32h352V106.666667z m64 32v352a32 32 0 0 1-32 32H138.666667v362.666666h746.666666V138.666667h-362.666666z"
    p-id="10141"
  ></path>
  <path
    d="M704 245.333333a32 32 0 0 1 32 32v426.666667a32 32 0 0 1-32 32h-426.666667a32 32 0 0 1 0-64h394.666667V277.333333a32 32 0 0 1 32-32z"
    p-id="10142"
  ></path>
  <path
    d="M385.28 596.053333a32 32 0 0 1 0 45.226667L322.56 704l62.72 62.72a32 32 0 1 1-45.226667 45.226667l-85.333333-85.333334a32 32 0 0 1 0-45.226666l85.333333-85.333334a32 32 0 0 1 45.226667 0z"
    p-id="10143"
  ></path>
</svg>
