<svg
  t="1730624576349"
  class="icon"
  viewBox="0 0 1024 1024"
  version="1.1"
  xmlns="http://www.w3.org/2000/svg"
  p-id="21085"
  width="256"
  height="256"
>
  <path
    d="M0 0m267.130435 0l489.73913 0q267.130435 0 267.130435 267.130435l0 489.73913q0 267.130435-267.130435 267.130435l-489.73913 0q-267.130435 0-267.130435-267.130435l0-489.73913q0-267.130435 267.130435-267.130435Z"
    fill="#0070FF"
    p-id="21086"
  ></path>
  <path
    d="M772.251826 200.347826a27.002435 27.002435 0 0 1 26.668522 27.358609 27.002435 27.002435 0 0 1-26.668522 27.314087H735.276522v77.57913c0 1.001739-0.044522 2.025739-0.178087 3.049739-2.871652 76.265739-82.543304 142.625391-142.425044 179.734261 60.260174 37.398261 140.065391 104.314435 142.425044 181.203478 0.066783 0.667826 0.066783 1.224348 0.066782 1.914435v0.356174l0.044522 4.897391v65.157566h37.019826a27.002435 27.002435 0 0 1 26.668522 27.425391A27.002435 27.002435 0 0 1 772.229565 823.652174H271.493565A27.002435 27.002435 0 0 1 244.869565 796.293565a27.002435 27.002435 0 0 1 26.668522-27.314087h34.771478v-70.477913c0-1.202087 0.133565-2.426435 0.222609-3.606261 2.960696-76.176696 89.154783-142.313739 148.880696-179.422608-59.881739-37.197913-146.053565-103.557565-148.902957-179.823305a23.552 23.552 0 0 1-0.222609-3.094261v-77.556869h-34.749217A27.002435 27.002435 0 0 1 244.869565 227.706435 27.024696 27.024696 0 0 1 271.538087 200.347826h500.713739zM633.989565 697.499826H375.184696c-14.625391 0-26.423652 12.777739-26.423653 28.471652 0 15.716174 11.865043 28.42713 26.423653 28.427131H633.989565c14.60313 0 26.423652-12.777739 26.423652-28.427131 0-15.693913-11.887304-28.40487-26.423652-28.471652z m-129.402435-165.865739c-14.536348 0-26.35687 12.688696-26.423652 28.360348v55.585391c0 15.738435 11.842783 28.42713 26.423652 28.427131 14.647652 0 26.423652-12.755478 26.423653-28.427131v-55.518609c0-15.760696-11.842783-28.471652-26.423653-28.471652v0.044522z m0-123.525565c-14.536348 0-26.35687 12.710957-26.423652 28.42713 0 15.760696 11.842783 28.493913 26.423652 28.493913 14.647652 0 26.423652-12.8 26.423653-28.493913 0-15.716174-11.842783-28.42713-26.423653-28.42713z"
    fill="#FFFFFF"
    p-id="21087"
  ></path>
</svg>
