<svg t="1740111613706" class="icon" viewBox="0 0 1024 1024" version="1.1" xmlns="http://www.w3.org/2000/svg" p-id="9445" width="200" height="200"><path d="M125.65799822 296.45937778a432.013312 432.013312 0 0 1 34.42824533-52.4288A601.59135289 601.59135289 0 0 0 273.15768889 287.77949867c-0.75730489 2.85445689-1.39810133 5.82542222-2.097152 8.67987911h481.76241778c-0.69905067-2.85445689-1.33984711-5.82542222-2.097152-8.67987911A601.59135289 601.59135289 0 0 0 863.91375645 244.03057778a432.013312 432.013312 0 0 1 34.42824533 52.4288h66.17679644a501.62710755 501.62710755 0 0 0-905.03759644 0z m698.23510756-98.041856a562.96880355 562.96880355 0 0 1-90.177536 33.32141511 578.289664 578.289664 0 0 0-28.02028089-66.40981334 412.55640178 412.55640178 0 0 0-43.57415822-69.90506666 442.09129245 442.09129245 0 0 1 161.77197511 102.99346489zM541.12711111 74.62729955c40.77795555 13.45672533 80.44908089 54.46769778 111.84810667 117.03273245a511.23905422 511.23905422 0 0 1 23.30168889 53.59388445 859.24977778 859.24977778 0 0 1-135.14979556 14.79657244z m-58.25422222 0v185.42318934a859.24977778 859.24977778 0 0 1-134.85852444-14.79657244 511.23905422 511.23905422 0 0 1 23.30168888-53.59388445C402.19079111 129.09499733 442.09493333 88.08402489 482.87288889 74.62729955z m-120.99401956 21.08802845a412.55640178 412.55640178 0 0 0-43.57415822 69.90506667 578.289664 578.289664 0 0 0-28.02028089 66.40981333 562.96880355 562.96880355 0 0 1-90.177536-33.32141511 442.09129245 442.09129245 0 0 1 161.77197511-102.99346489zM898.34200178 727.54062222a432.013312 432.013312 0 0 1-34.42824533 52.4288 601.59135289 601.59135289 0 0 0-113.07144534-43.74892089c0.75730489-2.85445689 1.39810133-5.82542222 2.097152-8.67987911H271.11879111c0.69905067 2.85445689 1.33984711 5.82542222 2.097152 8.67987911A601.59135289 601.59135289 0 0 0 160.08624355 779.96942222a432.013312 432.013312 0 0 1-34.42824533-52.4288H59.48120178a501.62710755 501.62710755 0 0 0 905.03759644 0zM200.10689422 825.58247822a562.96880355 562.96880355 0 0 1 90.177536-33.32141511 578.289664 578.289664 0 0 0 28.02028089 66.40981334 412.55640178 412.55640178 0 0 0 43.57415822 69.90506666 442.09129245 442.09129245 0 0 1-161.77197511-102.99346489zM482.87288889 949.37270045c-40.77795555-13.45672533-80.44908089-54.46769778-111.84810667-117.03273245a511.23905422 511.23905422 0 0 1-23.30168889-53.59388445 859.24977778 859.24977778 0 0 1 135.14979556-14.79657244z m58.720256 0v-185.42318934a859.24977778 859.24977778 0 0 1 134.85852444 14.79657244 511.23905422 511.23905422 0 0 1-23.30168888 53.59388445c-31.34077155 62.56503467-70.95364267 103.57600711-112.02286934 117.03273245z m120.76100266-21.08802845a412.55640178 412.55640178 0 0 0 43.57415823-69.90506667 578.289664 578.289664 0 0 0 28.02028089-66.40981333 562.96880355 562.96880355 0 0 1 90.177536 33.32141511 442.09129245 442.09129245 0 0 1-162.004992 102.99346489z" fill="#474D4F" p-id="9446"></path><path d="M11.01368889 345.97546667m46.60337778 0l908.76586666 0q46.60337778 0 46.60337778 46.60337778l0 238.8423111q0 46.60337778-46.60337778 46.60337778l-908.76586666 0q-46.60337778 0-46.60337778-46.60337778l0-238.8423111q0-46.60337778 46.60337778-46.60337778Z" fill="#26999E" p-id="9447"></path><path d="M339.62575645 510.07761067a135.14979555 135.14979555 0 0 1-16.19467378 67.51664355 107.53729422 107.53729422 0 0 1-46.60337778 43.80717511 153.67463822 153.67463822 0 0 1-69.90506667 15.204352H113.016832a8.912896 8.912896 0 0 1-8.79638755-9.02940444V396.59838578a8.912896 8.912896 0 0 1 8.79638755-9.02940445h84.75989333Q267.33226667 387.56898133 303.333376 418.79324445t36.29238045 91.28436622z m-48.4675129 0q0-88.42990933-94.37184-88.42990934h-35.88460088a8.97115022 8.97115022 0 0 0-8.79638756 9.08765867V593.55591111a8.97115022 8.97115022 0 0 0 8.79638756 9.08765867H203.25262222q41.65176889 0 64.95345778-24.23375645t22.95216355-68.33220266zM595.07052089 634.33386667L463.35772445 451.70688a5.82542222 5.82542222 0 0 0-11.06830223 3.84477867v2.097152q0.524288 11.18481067 0.524288 22.71914666v150.17938489a5.82542222 5.82542222 0 0 1-5.82542222 5.82542223h-32.97188978a6.17494755 6.17494755 0 0 1-6.17494755-5.82542223V393.62742045a6.17494755 6.17494755 0 0 1 6.17494755-5.82542223h50.04037689a5.82542222 5.82542222 0 0 1 4.95160889 2.50493156l132.93613511 183.32603733a6.17494755 6.17494755 0 0 0 11.12655644-3.90303289c-0.40777955-7.74781155-0.58254222-17.01023289-0.58254222-27.72900977V393.62742045a5.82542222 5.82542222 0 0 1 6.11669334-5.82542223h33.20490666a5.82542222 5.82542222 0 0 1 5.82542222 5.82542223v236.91992177a5.82542222 5.82542222 0 0 1-5.82542222 5.82542223h-51.49673244a5.82542222 5.82542222 0 0 1-5.24288-2.03889778zM919.77955555 566.46769778a63.38059378 63.38059378 0 0 1-26.27265422 54.70071467Q867.35075555 640.15928889 817.48514133 640.15928889q-43.74892089 0-68.79823644-16.42769067a73.74984533 73.74984533 0 0 1-29.12711111-38.44778667 9.67020089 9.67020089 0 0 1 7.57304889-12.8741831l27.262976-4.01954134a9.55369245 9.55369245 0 0 1 10.42750578 6.17494756c8.21384533 22.07835022 26.738688 33.08839822 55.39976533 33.08839822q51.96276622 0 51.96276622-38.73905778a30.11743289 30.11743289 0 0 0-5.12637155-18.17531733 40.25366755 40.25366755 0 0 0-14.09752178-11.65084445 105.55665067 105.55665067 0 0 0-21.14628267-8.03908266l-26.09789155-6.815744a188.97669689 188.97669689 0 0 1-48.58402134-17.47626667 60.35137422 60.35137422 0 0 1-31.16600889-56.56484978 56.97262933 56.97262933 0 0 1 23.82597689-48.87529244q24.117248-17.47626667 67.108864-17.47626667 40.77795555 0 64.07964444 14.03926756a69.26427022 69.26427022 0 0 1 27.787264 32.91363555 9.49543822 9.49543822 0 0 1-7.45654044 12.99069156l-27.37948444 4.25255822a9.78670933 9.78670933 0 0 1-10.42750578-5.82542222q-11.30131911-26.91345067-46.60337778-26.91345067a50.44815645 50.44815645 0 0 0-31.80680533 8.73813334 29.12711111 29.12711111 0 0 0-11.18481067 24.35026488 29.94267022 29.94267022 0 0 0 5.00986311 17.47626667 41.71002311 41.71002311 0 0 0 15.02958933 12.058624 224.919552 224.919552 0 0 0 38.44778667 12.87418311 318.06805333 318.06805333 0 0 1 47.88497067 15.78689422 82.37147022 82.37147022 0 0 1 22.71914666 15.14609778 55.45801955 55.45801955 0 0 1 12.64116623 19.28214756 69.55554133 69.55554133 0 0 1 4.13604977 25.45709511z" fill="#FFFFFF" p-id="9448"></path></svg>
