<!-- 体感温度  -->


<svg
  t="1734730971195"
  class="icon"
  viewBox="0 0 1052 1024"
  version="1.1"
  xmlns="http://www.w3.org/2000/svg"
  p-id="1470"
  width="256"
  height="256"
>
  <path
    d="M401.248335 181.404464c-5.242106-62.02077 65.956407-119.079392 159.186373-119.866519 13.024118-0.117663 26.052294-0.13795 39.076412-0.044631 93.225908 0.572087 164.542085 57.472472 159.433872 119.501357-9.778232 139.548762-19.560522 258.21836-29.338754 397.767122 62.179007 43.803234 94.426886 113.07856 85.378979 184.488055-16.898895 117.395588-120.609016 198.871389-232.22287 199.317699-111.617911-0.442252-215.323974-81.92211-232.222869-199.313641-8.816638-69.782496 21.670348-137.520083 81.126868-181.477497-10.143394-140.412979-20.278674-259.954909-30.418011-400.371945z"
    fill="#DBE3E7"
    p-id="1471"
  ></path>
  <path
    d="M513.231408 392.281574l-0.113606 0.004058 0.028402 0.807414v0.024344l7.635947 228.709198c-50.071852 22.384443-80.530436 70.35864-76.160662 121.960115 6.63378 70.999703 68.43951 122.82839 138.205776 122.946054 69.782496-0.190696 131.527365-52.100531 138.088113-123.100233 4.304857-51.60959-26.218646-99.551329-76.298612-121.866797 2.446587-76.517709 4.889116-153.043533 7.323531-229.5653 0.511227-91.797719-125.774032-95.782044-138.708889 0.081147z"
    fill="#FF8080"
    p-id="1472"
  ></path>
</svg>