<svg
  t="1743229415037"
  class="icon"
  viewBox="0 0 1024 1024"
  version="1.1"
  xmlns="http://www.w3.org/2000/svg"
  p-id="19508"
  width="256"
  height="256"
>
  <path
    d="M271.10968853 297.7792a45.51111147 45.51111147 0 0 1 0 64.35271147l-149.86808853 150.00462186 149.59502187 149.7315552a45.51111147 45.51111147 0 1 1-64.39822187 64.35271147L24.71253333 544.31288853a45.51111147 45.51111147 0 0 1 0-64.3527104l182.0444448-182.18097813a45.51111147 45.51111147 0 0 1 64.3527104 0zM753.20888853 297.7792a45.51111147 45.51111147 0 0 1 64.35271147 0l181.72586667 181.90791147a45.51111147 45.51111147 0 0 1 0 64.3527104l-182.0444448 182.18097813a45.51111147 45.51111147 0 1 1-64.3527104-64.35271147l149.86808853-150.00462186-149.59502187-149.7315552a45.51111147 45.51111147 0 0 1 0-64.35271147z"
    p-id="19509"
  ></path>
  <path
    d="M11.37777813 512a45.51111147 45.51111147 0 0 1 45.5111104-45.51111147h910.22222294a45.51111147 45.51111147 0 1 1 0 91.02222294H56.88888853a45.51111147 45.51111147 0 0 1-45.5111104-45.51111147z"
    p-id="19510"
  ></path>
</svg>
