<svg
  t="1743230446440"
  class="icon"
  viewBox="0 0 1024 1024"
  version="1.1"
  xmlns="http://www.w3.org/2000/svg"
  p-id="10146"
  width="256"
  height="256"
>
  <path
    d="M116.64801185 461.86496c-36.87006815 0-66.74962963-29.87956148-66.74962963-66.74962963V260.30535111c0-112.81901037 91.78680889-204.61795555 204.61795556-204.61795556h134.80997925c36.87006815 0 66.74962963 29.87956148 66.74962964 66.74962963s-29.87956148 66.74962963-66.74962964 66.74962964H254.50420148c-39.21237333 0-71.1186963 31.90632297-71.1186963 71.11869629v134.80997926c0.0121363 36.87006815-29.87956148 66.74962963-66.73749333 66.74962963zM906.75730963 461.86496c-36.87006815 0-66.74962963-29.87956148-66.74962963-66.74962963V260.30535111c0-39.21237333-31.90632297-71.1186963-71.1186963-71.11869629H634.09114075c-36.87006815 0-66.74962963-29.87956148-66.74962964-66.74962964s29.87956148-66.74962963 66.74962964-66.74962963h134.80997925c112.81901037 0 204.61795555 91.78680889 204.61795555 204.61795556v134.80997926c-0.0121363 36.87006815-29.89169778 66.74962963-66.76176592 66.74962963zM768.90112 969.24709925H634.09114075c-36.87006815 0-66.74962963-29.87956148-66.74962964-66.74962962s29.87956148-66.74962963 66.74962964-66.74962963h134.80997925c39.21237333 0 71.1186963-31.90632297 71.1186963-71.1186963V629.81916445c0-36.87006815 29.87956148-66.74962963 66.74962962-66.74962963s66.74962963 29.87956148 66.74962963 66.74962963v134.80997925c-0.0121363 112.83114667-91.79894518 204.61795555-204.61795555 204.61795555zM389.31418075 969.24709925H254.50420148c-112.81901037 0-204.61795555-91.78680889-204.61795556-204.61795555V629.81916445c0-36.87006815 29.87956148-66.74962963 66.74962963-66.74962963s66.74962963 29.87956148 66.74962963 66.74962963v134.80997925c0 39.21237333 31.90632297 71.1186963 71.1186963 71.1186963h134.80997927c36.87006815 0 66.74962963 29.87956148 66.74962962 66.74962963s-29.87956148 66.74962963-66.74962962 66.74962962z"
    p-id="10147"
  ></path>
</svg>
