<svg
  t="1743260992166"
  class="icon"
  viewBox="0 0 1024 1024"
  version="1.1"
  xmlns="http://www.w3.org/2000/svg"
  p-id="19869"
  width="256"
  height="256"
>
  <path
    d="M511.987209 565.488215l-67.032696 62.60485L243.998665 440.265212l67.044976-62.593594L511.987209 565.488215zM958.70846 244.020666l0 535.9996c0 98.713232-80.000032 178.667216-178.711218 178.667216L243.998665 958.687482c-98.623181 0-178.709171-79.953983-178.709171-178.667216L65.289494 244.020666c0-98.623181 80.08599-178.709171 178.709171-178.709171l535.998577 0C878.708428 65.311495 958.70846 145.397485 958.70846 244.020666zM869.374852 288.643979c0-73.979922-60.065004-133.912919-134.042879-133.912919L288.664957 154.73106c-74.021877 0-133.954875 59.932997-133.954875 133.912919l0 446.709995c0 73.979922 59.932997 134.042879 133.954875 134.042879l446.667016 0c73.977875 0 134.042879-60.062957 134.042879-134.042879L869.374852 288.643979zM511.987209 565.488215l0.01228 0.011256-67.044976 62.593594 67.044976 62.59564 267.998777-250.42247-66.912969-62.593594L511.987209 565.488215z"
    p-id="19870"
  ></path>
</svg>
