<svg
  t="1733500852143"
  class="icon"
  viewBox="0 0 1024 1024"
  version="1.1"
  xmlns="http://www.w3.org/2000/svg"
  p-id="6630"
  width="256"
  height="256"
>
  <path
    d="M0 0h1024v1024H0z"
    fill="#FFFFFF"
    p-id="6631"
  ></path>
  <path
    d="M0 0m204.8 0l614.4 0q204.8 0 204.8 204.8l0 614.4q0 204.8-204.8 204.8l-614.4 0q-204.8 0-204.8-204.8l0-614.4q0-204.8 204.8-204.8Z"
    fill="#2B4F80"
    p-id="6632"
  ></path>
  <path
    d="M716.3904 384.1024c149.3504-2.304 231.424 39.5776 231.424 130.4576 0 56.1664-20.992 88.32-68.7616 125.3888l-19.456 14.4896c-29.3376 21.6064-40.6016 33.7408-45.1072 50.944-15.2064 57.7024 32.7168 107.008 90.368 84.992l6.4512-2.7648 21.8112 46.336c-102.144 48.0256-194.4064-41.984-168.1408-141.568 7.68-29.3888 23.1424-47.7696 55.0912-72.2944l19.3024-14.336c42.5984-31.4368 57.2416-51.5584 57.2416-91.1872 0-51.3024-50.9952-79.1552-166.3488-79.36l-13.056 0.1024-0.8192-51.2z"
    fill="#2A72A8"
    p-id="6633"
  ></path>
  <path
    d="M716.1856 386.304A323.072 323.072 0 0 0 425.3696 204.8C247.04 204.8 102.4 348.7744 102.4 526.3872c0 177.664 144.5888 321.5872 323.0208 321.5872 178.3296 0 322.9696-143.9744 322.9696-321.536 0-39.4752-7.168-77.312-20.224-112.2304 0-11.776-6.5536-18.176-11.9808-27.904z m-438.784 208.7424a67.1232 67.1232 0 0 1-67.328-66.9696c0-37.0176 30.1056-67.0208 67.2768-67.0208 37.1712 0 67.2768 30.0032 67.2768 67.0208s-30.1056 66.9696-67.2768 66.9696z m147.968 147.456a67.1744 67.1744 0 0 1-67.2768-67.072c0-36.9664 30.1568-66.9696 67.328-66.9696 37.12 0 67.2768 30.0032 67.2768 67.0208 0 36.9664-30.1568 66.9696-67.2768 66.9696z m-26.3168-214.4256a26.88 26.88 0 1 1 53.7088 0.1024 26.88 26.88 0 0 1-53.76-0.1024z m26.368-80.384a67.1232 67.1232 0 0 1-67.328-67.0208c0-37.0176 30.1568-67.0208 67.328-67.0208 37.12 0 67.2768 30.0032 67.2768 67.072 0 36.9664-30.1568 66.9184-67.2768 66.9184z m147.968 147.3536a67.1232 67.1232 0 0 1-67.2768-66.9696c0-37.0176 30.1568-67.0208 67.328-67.0208s67.2768 30.0032 67.2768 67.0208-30.1056 66.9696-67.2768 66.9696z"
    fill="#27B0FE"
    p-id="6634"
  ></path>
</svg>