<svg
  t="1743230470411"
  class="icon"
  viewBox="0 0 1024 1024"
  version="1.1"
  xmlns="http://www.w3.org/2000/svg"
  p-id="10307"
  width="256"
  height="256"
>
  <path
    d="M251.44585482 461.86496H116.64801185c-36.87006815 0-66.74962963-29.87956148-66.74962963-66.74962963s29.87956148-66.74962963 66.74962963-66.74962962h134.80997926c39.21237333 0 71.1186963-31.90632297 71.1186963-71.1186963V122.44916148c0-36.87006815 29.87956148-66.74962963 66.74962962-66.74962963s66.74962963 29.87956148 66.74962964 66.74962963V257.25914075c-0.0121363 112.81901037-91.79894518 204.60581925-204.63009185 204.60581925zM906.75730963 461.86496H771.95946667c-112.81901037 0-204.61795555-91.78680889-204.61795556-204.61795555V122.44916148c0-36.87006815 29.87956148-66.74962963 66.74962964-66.74962963s66.74962963 29.87956148 66.74962962 66.74962963V257.25914075c0 39.21237333 31.90632297 71.1186963 71.1186963 71.11869628h134.80997925c36.87006815 0 66.74962963 29.87956148 66.74962963 66.74962964s-29.89169778 66.73749333-66.76176592 66.73749333zM634.09114075 969.24709925c-36.87006815 0-66.74962963-29.87956148-66.74962964-66.74962962V767.68749037c0-112.81901037 91.78680889-204.61795555 204.61795556-204.61795555h134.80997925c36.87006815 0 66.74962963 29.87956148 66.74962963 66.74962963s-29.87956148 66.74962963-66.74962963 66.74962963H771.95946667c-39.21237333 0-71.1186963 31.90632297-71.1186963 71.11869629v134.80997926c0 36.85793185-29.87956148 66.74962963-66.74962962 66.74962962zM389.31418075 969.24709925c-36.87006815 0-66.74962963-29.87956148-66.74962964-66.74962962V767.68749037c0-39.21237333-31.90632297-71.1186963-71.11869629-71.11869629H116.64801185c-36.87006815 0-66.74962963-29.87956148-66.74962963-66.74962963s29.87956148-66.74962963 66.74962963-66.74962963h134.80997926c112.81901037 0 204.61795555 91.78680889 204.61795556 204.61795555v134.80997926c-0.0121363 36.85793185-29.89169778 66.74962963-66.76176592 66.74962962z"
    p-id="10308"
  ></path>
</svg>
