<svg
  t="1745910366380"
  class="icon"
  viewBox="0 0 1024 1024"
  version="1.1"
  xmlns="http://www.w3.org/2000/svg"
  p-id="6777"
  width="200"
  height="200"
>
  <path
    d="M192 0h448.1536L960 320V896a128 128 0 0 1-128 128h-640a128 128 0 0 1-128-128V128a128 128 0 0 1 128-128z"
    fill="#9342D5"
    p-id="6778"
  ></path>
  <path
    d="M283.52 204.16c7.04 0 10.6752 3.6608 10.6752 10.7776 0 6.016-2.6112 9.5488-7.7312 10.368l-1.4592 0.1536-1.4848 0.0256h-13.568c-6.912 0-10.6752 3.2512-11.5968 10.0352l-0.1792 1.7664-0.0512 1.8432v44.2368c0 14.7712-6.8352 24.704-20.4288 28.4416 11.904 4.9152 18.6112 13.1328 20.1216 24.5504l0.2304 2.5088 0.0768 2.56v44.4672c0 7.68 2.9184 12.0832 8.704 13.1584l1.536 0.2048 1.5616 0.0512h13.5936c7.04 0 10.6752 3.584 10.6752 10.5472 0 5.8368-2.56 9.3696-7.6032 10.4448l-1.4336 0.2304-1.6384 0.1024h-18.176c-10.752 0-19.0208-3.5072-24.7296-10.368a35.7632 35.7632 0 0 1-7.424-19.2512l-0.2304-2.9696-0.0768-3.072v-42.1632c0-6.5536-1.3568-11.2128-3.9936-13.8496-3.072-3.5328-8.6528-5.5552-16.64-6.0416-5.3504-0.8448-8.0384-4.4288-8.0384-10.496 0-6.0928 2.688-9.6768 8.064-10.5728 7.8592-0.6656 13.5168-2.6624 16.64-5.76a17.8944 17.8944 0 0 0 3.712-9.6512l0.2048-2.1248 0.0512-2.3296V240.0512c0-10.7008 2.56-19.1488 7.7568-25.4976 4.6592-5.8368 11.136-9.1648 19.5072-10.112l2.56-0.2048 2.6112-0.0768h18.2016z m179.968 0c10.7008 0 18.9952 3.5072 24.6784 10.368 4.1472 5.0944 6.6304 11.4944 7.424 19.2512l0.256 2.9952 0.0768 3.0464v42.1632c0 6.5536 1.3568 11.2128 3.9936 13.8496 3.072 3.5328 8.6528 5.5808 16.64 6.0416 5.3248 0.8448 8.0384 4.4032 8.0384 10.496s-2.7136 9.6768-8.064 10.5728c-7.8592 0.6656-13.5168 2.6624-16.64 5.76a17.8944 17.8944 0 0 0-3.712 9.6512l-0.2048 2.1248-0.0512 2.3296v41.9328c0 10.7008-2.56 19.1488-7.7568 25.5232-4.6592 5.8112-11.136 9.1648-19.5072 10.112l-2.56 0.2048-2.6112 0.0512h-18.2016c-7.04 0-10.6752-3.6608-10.6752-10.7776 0-6.016 2.6112-9.5488 7.7056-10.368l1.4592-0.1536 1.5104-0.0256h13.568c6.912 0 10.6752-3.2512 11.5968-10.0352l0.1792-1.7664 0.0512-1.8432v-44.2368c0-14.7968 6.8352-24.704 20.4288-28.4416-11.904-4.9152-18.6112-13.1328-20.1216-24.5504l-0.256-2.5088-0.0512-2.56V238.8992c0-7.68-2.9184-12.0832-8.704-13.1328l-1.536-0.2048-1.5616-0.0768h-13.5936c-7.04 0-10.6752-3.584-10.6752-10.5472 0-5.8368 2.56-9.3696 7.6032-10.4448l1.4336-0.2304 1.6384-0.1024h18.2016z m-72.8832 140.8a20.224 20.224 0 0 1 16.1792 7.8336c4.0192 5.248 6.1184 12.1088 6.1184 20.224 0 12.16-3.6096 22.912-10.7264 32.384-5.632 7.8592-11.0848 10.8544-16.2304 8.9856-4.608-1.664-5.0688-8.3968-2.0992-11.4688l1.3568-1.4592 1.024-1.2544 2.2528-3.3536c3.9168-5.248 5.632-10.1632 6.4768-15.1808a17.92 17.92 0 0 1-5.9648 0.9728 17.8432 17.8432 0 0 1-13.1328-5.4784 18.1248 18.1248 0 0 1-5.248-13.3632 17.152 17.152 0 0 1 5.7088-13.568c3.5328-3.5584 8.2688-5.2736 14.2848-5.2736z m-65.3824 1.28a15.7696 15.7696 0 0 0-11.0592 3.9168l-1.1776 1.2032a16.256 16.256 0 0 0-5.12 12.4416c0 4.992 1.6128 8.96 5.12 12.4416a16.896 16.896 0 0 0 12.2368 4.8896 18.304 18.304 0 0 0 12.4416-4.864c3.4304-3.6608 5.12-7.68 5.12-12.4672a17.0496 17.0496 0 0 0-5.12-12.4416 16.5632 16.5632 0 0 0-12.4416-5.12z m0-78.08c5.3248 0 9.6 1.7408 13.3376 5.504 3.6096 3.584 5.504 8.1408 5.504 13.3376 0 5.12-1.8176 9.4208-5.5296 13.3888a19.5584 19.5584 0 0 1-13.312 5.2224 18.176 18.176 0 0 1-13.1328-5.248 17.8176 17.8176 0 0 1-5.4784-13.3632c0-4.736 1.3568-8.7552 4.1728-12.0064l1.28-1.3312a16.6912 16.6912 0 0 1 13.1584-5.504z"
    fill="#C88CFF"
    fill-opacity=".9"
    p-id="6779"
  ></path>
  <path
    d="M640 0l320 320H768a128 128 0 0 1-128-128V0z"
    fill="#C88CFF"
    p-id="6780"
  ></path>
  <path
    d="M246.9376 732.2112c17.8176 0 32.4608-5.504 43.8784-16.5376 11.4176-11.0336 17.1264-25.856 17.1264-44.4416v-123.648h-42.24v123.648c0 8.9088-1.792 15.872-5.2736 20.9408-3.5072 5.0432-7.9872 7.552-13.4912 7.552-7.2448 0-13.1328-2.0736-17.6384-6.2464-4.5056-4.1728-6.7328-10.7008-6.7328-19.6096H181.2992l-0.384 0.7424c-0.4096 18.7392 5.376 33.024 17.3312 42.8544 11.9552 9.8304 28.16 14.7456 48.6912 14.7456z m157.3632 0c20.6592 0 37.248-4.5056 49.7664-13.568 12.4928-9.0112 18.7392-21.5296 18.7392-37.5296 0-15.6928-5.4272-28.032-16.256-37.0176-10.8288-9.0112-26.7776-16.64-47.872-22.8608-12.416-4.8384-20.8896-8.8576-25.4464-12.0576a14.9504 14.9504 0 0 1-6.8096-12.8256c0-5.504 2.2272-10.1376 6.656-13.8752 4.4032-3.7376 10.4448-5.632 18.0992-5.632 9.4208 0 16.4608 1.9456 21.12 5.8112 4.6848 3.8656 7.0144 10.112 7.0144 18.688h40.9856l0.256-0.768c0.4096-17.664-5.7088-31.3344-18.3808-41.0368-12.672-9.728-29.3632-14.5664-50.1248-14.5664-19.6608 0-35.8656 4.7104-48.64 14.1312-12.7232 9.3952-19.0976 21.76-19.0976 36.992 0 15.5904 5.4784 27.52 16.4352 35.8144 10.9568 8.2944 27.7248 16.1024 50.304 23.424 11.1616 3.9424 18.8928 7.6032 23.1424 11.0848 4.2496 3.4304 6.3744 8.448 6.3744 14.9248 0 5.6832-2.176 10.24-6.5024 13.7728-4.352 3.4816-10.9312 5.248-19.7632 5.248-10.752 0-18.7136-2.2528-23.936-6.7072-5.1968-4.4544-7.808-11.9808-7.808-22.5536h-41.1136l-0.256 0.7424c-0.4352 20.8384 6.528 36.096 20.8128 45.824 14.2848 9.7024 31.744 14.5664 52.3008 14.5664z m165.76 0c22.912 0 41.472-7.2704 55.68-21.8112 14.208-14.5152 21.3248-33.024 21.3248-55.424v-32.768c0-22.3232-7.168-40.7808-21.504-55.3728-14.336-14.592-32.9216-21.8624-55.7568-21.8624-22.9888 0-41.6512 7.296-55.936 21.8624-14.2848 14.592-21.4272 33.024-21.4272 55.3728v32.768c0 22.4 7.168 40.8832 21.504 55.424 14.336 14.5408 33.024 21.8112 56.1152 21.8112z m0-32.4864c-11.4176 0-20.1984-4.1728-26.3168-12.4928-6.144-8.32-9.1904-19.072-9.1904-32.256v-32.9984c0-13.0816 3.0208-23.7568 9.0624-32.0512 6.0416-8.32 14.7712-12.4416 26.1888-12.4416 11.1616 0 19.8144 4.1728 25.9328 12.4928 6.144 8.32 9.216 18.9952 9.216 32v32.9984c0 13.1584-3.072 23.9104-9.1392 32.256-6.0928 8.32-14.6688 12.4928-25.7536 12.4928z m144.9728 29.8752v-114.2528l0.768-0.256 66.6368 114.5088h42.112v-182.016h-42.112v114.1504l-0.768 0.256-66.6112-114.4064h-42.24v182.016h42.24z"
    fill="#FFFFFF"
    fill-opacity=".9"
    p-id="6781"
  ></path>
</svg>
