<svg
  t="1739118884643"
  class="icon"
  viewBox="0 0 1024 1024"
  version="1.1"
  xmlns="http://www.w3.org/2000/svg"
  p-id="22284"
  width="256"
  height="256"
>
  <path
    d="M725.333333 938.666667H298.666667c-93.866667 0-170.666667-76.8-170.666667-170.666667V256c0-93.866667 76.8-170.666667 170.666667-170.666667h426.666666c93.866667 0 170.666667 76.8 170.666667 170.666667v512c0 93.866667-76.8 170.666667-170.666667 170.666667z"
    fill="#292D32"
    opacity=".4"
    p-id="22285"
  ></path>
  <path
    d="M693.333333 469.333333h-362.666666C289.706667 469.333333 256 435.626667 256 394.666667v-106.666667C256 247.04 289.706667 213.333333 330.666667 213.333333h362.666666c40.96 0 74.666667 33.706667 74.666667 74.666667v106.666667c0 40.96-33.706667 74.666667-74.666667 74.666666zM463.36 728.746667l-27.733333-27.733334 26.453333-26.453333c12.373333-12.373333 12.373333-32.853333 0-45.226667a32.170667 32.170667 0 0 0-45.226667 0l-26.453333 26.453334-25.173333-25.173334a32.170667 32.170667 0 0 0-45.226667 0c-12.373333 12.373333-12.373333 32.853333 0 45.226667l25.173333 25.173333-26.453333 26.453334c-12.373333 12.373333-12.373333 32.853333 0 45.226666 6.4 6.4 14.506667 9.386667 22.613333 9.386667s16.213333-2.986667 22.613334-9.386667l26.453333-26.453333 27.733333 27.733333c6.4 6.4 14.506667 9.386667 22.613334 9.386667s16.213333-2.986667 22.613333-9.386667c12.373333-12.373333 12.373333-32.853333 0-45.226666zM704.426667 696.746667c-23.466667 0-43.093333-19.2-43.093334-42.666667s18.773333-42.666667 42.24-42.666667h0.853334c23.466667 0 42.666667 19.2 42.666666 42.666667s-19.2 42.666667-42.666666 42.666667zM618.24 788.906667c-23.466667 0-42.666667-18.773333-42.666667-42.24v-0.853334c0-23.466667 19.2-42.666667 42.666667-42.666666s42.666667 19.2 42.666667 42.666666-19.2 43.093333-42.666667 43.093334z"
    fill="#292D32"
    p-id="22286"
  ></path>
</svg>
