<svg
  t="1730439533270"
  class="icon"
  viewBox="0 0 1024 1024"
  version="1.1"
  xmlns="http://www.w3.org/2000/svg"
  p-id="55835"
  width="200"
  height="200"
>
  <path
    d="M920.9 934.4H98.4c-6.6 0-12-5.4-12-12V103.9c0-6.6 5.4-12 12-12h822.5c6.6 0 12 5.4 12 12v818.5c0 6.6-5.4 12-12 12z"
    fill="#FEF582"
    p-id="55836"
  ></path>
  <path
    d="M888.1 956.8h-757c-37 0-67.1-30.1-67.1-67.1v-753c0-37 30.1-67.1 67.1-67.1h757c37 0 67.1 30.1 67.1 67.1v753c0 37-30.1 67.1-67.1 67.1z m-757-842.5c-12.3 0-22.4 10-22.4 22.4v753c0 12.3 10 22.4 22.4 22.4h757c12.3 0 22.4-10 22.4-22.4v-753c0-12.3-10-22.4-22.4-22.4h-757z"
    fill="#526351"
    p-id="55837"
  ></path>
  <path
    d="M665.8 432.3h-27.4V327.5c0-71.6-58.1-129.6-129.6-129.6-71.6 0-129.6 58-129.6 129.6v104.8h-27.4c-34.3 0-62.3 28-62.3 62.3V694c0 34.3 28 62.3 62.3 62.3h314.1c34.3 0 62.3-28 62.3-62.3V494.6c-0.1-34.3-28.1-62.3-62.4-62.3zM424 327.6c0-46.8 37.9-84.8 84.8-84.8 46.8 0 84.8 37.9 84.8 84.8v104.7H424V327.6z m259.3 352.7c-0.1 17.2-14 31.1-31.2 31.2H365.4c-17.2-0.1-31.1-14-31.2-31.2v-172c0-17.2 14-31.1 31.2-31.2h286.7c17.2 0.1 31.1 14 31.2 31.2v172z m0 0"
    fill="#526351"
    p-id="55838"
  ></path>
  <path
    d="M446.4 544.5c-12.4 0-22.4 10.1-22.4 22.4v54.8c0 12.4 10.1 22.4 22.4 22.4 12.4 0 22.4-10.1 22.4-22.4v-54.8c0-12.4-10-22.4-22.4-22.4z m124.7 0c-12.4 0-22.4 10.1-22.4 22.4v54.8c0 12.4 10.1 22.4 22.4 22.4 12.4 0 22.4-10.1 22.4-22.4v-54.8c0-12.4-10-22.4-22.4-22.4z m0 0"
    fill="#526351"
    p-id="55839"
  ></path>
</svg>
