<svg
  t="1743470202981"
  class="icon"
  viewBox="0 0 1024 1024"
  version="1.1"
  xmlns="http://www.w3.org/2000/svg"
  p-id="10194"
  width="200"
  height="200"
>
  <path
    d="M748.70373389 204.25200577h47.34903182a23.6538033 23.6538033 0 0 1 23.6538033 23.6538033 23.6538033 23.6538033 0 0 1-23.6538033 23.65380329h-47.34903182a23.6538033 23.6538033 0 0 1-23.65380331-23.65380329 23.6538033 23.6538033 0 0 1 23.65380331-23.6538033z"
    fill="#56B3B4"
    p-id="10195"
  ></path>
  <path
    d="M38.55110701 961.75366448h236.70373388a23.6538033 23.6538033 0 0 1 23.65380329 23.65380329 23.6538033 23.6538033 0 0 1-23.65380329 23.6538033H38.55110701a23.6538033 23.6538033 0 0 1-23.65380331-23.61237808 23.6538033 23.6538033 0 0 1 23.65380331-23.69522851z"
    fill="#EA5E5E"
    p-id="10196"
  ></path>
  <path
    d="M606.69806365 583.00283511h142.04709546a23.6538033 23.6538033 0 0 1 23.65380329 23.65380331 23.6538033 23.6538033 0 0 1-23.65380329 23.6538033h-142.04709546a23.6538033 23.6538033 0 0 1-23.6538033-23.6538033 23.6538033 23.6538033 0 0 1 23.6538033-23.65380331z"
    fill="#BF85BF"
    p-id="10197"
  ></path>
  <path
    d="M322.64529794 583.00283511H512a23.6538033 23.6538033 0 0 1 23.6538033 23.65380331 23.6538033 23.6538033 0 0 1-23.6538033 23.6538033h-189.35470206a23.6538033 23.6538033 0 0 1-23.65380331-23.6538033 23.6538033 23.6538033 0 0 1 23.65380331-23.65380331z"
    fill="#EA5E5E"
    p-id="10198"
  ></path>
  <path
    d="M38.55110701 583.00283511h189.39612728a23.6538033 23.6538033 0 0 1 23.65380331 23.65380331 23.6538033 23.6538033 0 0 1-23.65380331 23.6538033H38.55110701a23.6538033 23.6538033 0 0 1-23.65380331-23.61237807 23.6538033 23.6538033 0 0 1 23.65380331-23.69522854z"
    fill="#56B3B4"
    p-id="10199"
  ></path>
  <path
    d="M38.55110701 772.3989624h236.70373388a23.6538033 23.6538033 0 0 1 23.65380329 23.65380331 23.6538033 23.6538033 0 0 1-23.65380329 23.6538033H38.55110701A23.6538033 23.6538033 0 0 1 14.8973037 796.05276571a23.6538033 23.6538033 0 0 1 23.65380331-23.65380331zM38.55110701 393.64813307h236.70373388a23.6538033 23.6538033 0 0 1 23.65380329 23.65380328 23.6538033 23.6538033 0 0 1-23.65380329 23.6538033H38.55110701A23.6538033 23.6538033 0 0 1 14.8973037 417.30193635a23.6538033 23.6538033 0 0 1 23.65380331-23.65380328z"
    fill="#BF85BF"
    p-id="10200"
  ></path>
  <path
    d="M275.29626611 109.59536735h473.40746778a23.6538033 23.6538033 0 0 1 23.65380329 23.6538033 23.6538033 23.6538033 0 0 1-23.65380329 23.6538033H275.29626611a23.6538033 23.6538033 0 0 1-23.65380329-23.6538033 23.6538033 23.6538033 0 0 1 23.65380329-23.6538033z"
    fill="#F7BA3E"
    p-id="10201"
  ></path>
  <path
    d="M38.55110701 109.59536735H180.59820247a23.6538033 23.6538033 0 0 1 23.6538033 23.6538033 23.6538033 23.6538033 0 0 1-23.6538033 23.69522852H38.55110701A23.6538033 23.6538033 0 0 1 14.8973037 133.24917065a23.6538033 23.6538033 0 0 1 23.65380331-23.6538033z"
    fill="#EA5E5E"
    p-id="10202"
  ></path>
  <path
    d="M227.94723429 867.05560083h47.34903182a23.6538033 23.6538033 0 0 1 23.65380331 23.6538033 23.6538033 23.6538033 0 0 1-23.65380331 23.6538033H227.94723429a23.6538033 23.6538033 0 0 1-23.6538033-23.6538033 23.6538033 23.6538033 0 0 1 23.6538033-23.6538033z"
    fill="#F7BA3E"
    p-id="10203"
  ></path>
  <path
    d="M227.94723429 298.95006942h47.34903182a23.6538033 23.6538033 0 0 1 23.65380331 23.65380329 23.6538033 23.6538033 0 0 1-23.65380331 23.65380329H227.94723429a23.6538033 23.6538033 0 0 1-23.6538033-23.65380329 23.6538033 23.6538033 0 0 1 23.6538033-23.65380329zM38.55110701 867.05560083h94.69806364a23.6538033 23.6538033 0 0 1 23.6538033 23.6538033 23.6538033 23.6538033 0 0 1-23.6538033 23.6538033H38.55110701a23.6538033 23.6538033 0 0 1-23.65380331-23.61237808 23.6538033 23.6538033 0 0 1 23.65380331-23.69522852z"
    fill="#56B3B4"
    p-id="10204"
  ></path>
  <path
    d="M38.55110701 298.95006942h94.69806364a23.6538033 23.6538033 0 0 1 23.6538033 23.65380329 23.6538033 23.6538033 0 0 1-23.6538033 23.69522853H38.55110701A23.6538033 23.6538033 0 0 1 14.8973037 322.64529794a23.6538033 23.6538033 0 0 1 23.65380331-23.69522852z"
    fill="#F7BA3E"
    p-id="10205"
  ></path>
  <path
    d="M654.04709547 867.05560083h47.34903182a23.6538033 23.6538033 0 0 1 23.65380329 23.6538033 23.6538033 23.6538033 0 0 1-23.65380329 23.6538033h-47.34903182a23.6538033 23.6538033 0 0 1-23.6538033-23.6538033 23.6538033 23.6538033 0 0 1 23.6538033-23.6538033zM369.95290453 867.05560083h189.35470206a23.6538033 23.6538033 0 0 1 23.65380331 23.6538033 23.6538033 23.6538033 0 0 1-23.65380331 23.6538033h-189.35470206a23.6538033 23.6538033 0 0 1-23.65380329-23.61237808 23.6538033 23.6538033 0 0 1 23.65380329-23.69522852zM796.05276571 867.05560083h189.35470206a23.6538033 23.6538033 0 0 1 23.6538033 23.6538033 23.6538033 23.6538033 0 0 1-23.6538033 23.6538033h-189.35470206a23.6538033 23.6538033 0 0 1-23.65380331-23.6538033 23.6538033 23.6538033 0 0 1 23.65380331-23.6538033z"
    fill="#4D616E"
    p-id="10206"
  ></path>
  <path
    d="M417.30193635 488.3461967h378.75082936a23.6538033 23.6538033 0 0 1 23.6538033 23.6538033 23.6538033 23.6538033 0 0 1-23.6538033 23.6538033h-378.75082936a23.6538033 23.6538033 0 0 1-23.65380328-23.6538033 23.6538033 23.6538033 0 0 1 23.65380328-23.6538033z"
    fill="#56B3B4"
    p-id="10207"
  ></path>
  <path
    d="M180.59820247 488.3461967h142.04709547A23.6538033 23.6538033 0 0 1 346.29910124 512a23.6538033 23.6538033 0 0 1-23.6538033 23.6538033H180.59820247A23.6538033 23.6538033 0 0 1 156.94439917 512 23.6538033 23.6538033 0 0 1 180.59820247 488.3461967z"
    fill="#F7BA3E"
    p-id="10208"
  ></path>
  <path
    d="M38.55110701 488.3461967h47.34903182a23.6538033 23.6538033 0 0 1 23.69522852 23.6538033 23.6538033 23.6538033 0 0 1-23.6538033 23.6538033H38.55110701A23.6538033 23.6538033 0 0 1 14.8973037 512a23.6538033 23.6538033 0 0 1 23.65380331-23.6538033z"
    fill="#EA5E5E"
    p-id="10209"
  ></path>
  <path
    d="M464.65096818 204.25200577h189.35470206a23.6538033 23.6538033 0 0 1 23.69522852 23.69522852 23.6538033 23.6538033 0 0 1-23.65380329 23.65380331h-189.39612729a23.6538033 23.6538033 0 0 1-23.65380329-23.65380331 23.6538033 23.6538033 0 0 1 23.65380329-23.69522852z"
    fill="#BF85BF"
    p-id="10210"
  ></path>
  <path
    d="M38.55110701 204.25200577h331.40179752a23.6538033 23.6538033 0 0 1 23.6538033 23.6538033 23.6538033 23.6538033 0 0 1-23.6538033 23.65380329h-331.40179752A23.6538033 23.6538033 0 0 1 14.8973037 227.94723429a23.6538033 23.6538033 0 0 1 23.65380331-23.69522852z"
    fill="#56B3B4"
    p-id="10211"
  ></path>
  <path
    d="M180.59820247 677.70089876h426.09986118a23.6538033 23.6538033 0 0 1 23.65380328 23.6538033 23.6538033 23.6538033 0 0 1-23.65380328 23.65380331H180.59820247a23.6538033 23.6538033 0 0 1-23.6538033-23.65380331A23.6538033 23.6538033 0 0 1 180.59820247 677.70089876z"
    fill="#F7BA3E"
    p-id="10212"
  ></path>
  <path
    d="M38.55110701 677.70089876h47.34903182a23.6538033 23.6538033 0 0 1 23.6538033 23.6538033 23.6538033 23.6538033 0 0 1-23.6538033 23.65380331H38.55110701A23.6538033 23.6538033 0 0 1 14.8973037 701.35470206 23.6538033 23.6538033 0 0 1 38.55110701 677.70089876z"
    fill="#BF85BF"
    p-id="10213"
  ></path>
  <path
    d="M606.69806365 298.95006942H843.40179753a23.6538033 23.6538033 0 0 1 23.6538033 23.65380329A23.6538033 23.6538033 0 0 1 843.40179753 346.29910124h-236.70373388a23.6538033 23.6538033 0 0 1-23.6538033-23.6538033 23.6538033 23.6538033 0 0 1 23.6538033-23.69522852z"
    fill="#EA5E5E"
    p-id="10214"
  ></path>
  <path
    d="M606.69806365 393.64813307H843.40179753a23.6538033 23.6538033 0 0 1 23.6538033 23.65380328 23.6538033 23.6538033 0 0 1-23.6538033 23.6538033h-236.70373388a23.6538033 23.6538033 0 0 1-23.6538033-23.6538033 23.6538033 23.6538033 0 0 1 23.6538033-23.65380328z"
    fill="#F7BA3E"
    p-id="10215"
  ></path>
  <path
    d="M38.55110701 14.8973037h568.14695664a23.6538033 23.6538033 0 0 1 23.65380328 23.65380331 23.6538033 23.6538033 0 0 1-23.65380328 23.65380329H38.55110701A23.6538033 23.6538033 0 0 1 14.8973037 38.55110701 23.6538033 23.6538033 0 0 1 38.55110701 14.8973037z"
    fill="#56B3B4"
    p-id="10216"
  ></path>
  <path
    d="M701.35470206 14.8973037h284.05276571a23.6538033 23.6538033 0 0 1 23.69522853 23.65380331 23.6538033 23.6538033 0 0 1-23.65380331 23.65380329h-284.09419093A23.6538033 23.6538033 0 0 1 677.70089876 38.55110701 23.6538033 23.6538033 0 0 1 701.35470206 14.8973037zM701.35470206 677.70089876h94.69806365a23.6538033 23.6538033 0 0 1 23.6538033 23.6538033 23.6538033 23.6538033 0 0 1-23.6538033 23.65380331h-94.69806365a23.6538033 23.6538033 0 0 1-23.6538033-23.65380331 23.6538033 23.6538033 0 0 1 23.6538033-23.6538033zM890.75082935 677.70089876h94.69806364a23.6538033 23.6538033 0 0 1 23.65380331 23.6538033 23.6538033 23.6538033 0 0 1-23.65380331 23.65380331h-94.69806364a23.6538033 23.6538033 0 0 1-23.6538033-23.65380331 23.6538033 23.6538033 0 0 1 23.6538033-23.6538033zM843.40179753 583.00283511h142.04709546a23.6538033 23.6538033 0 0 1 23.65380331 23.65380331 23.6538033 23.6538033 0 0 1-23.65380331 23.6538033H843.40179753a23.6538033 23.6538033 0 0 1-23.6538033-23.6538033 23.6538033 23.6538033 0 0 1 23.6538033-23.65380331zM843.40179753 109.59536735h142.04709546a23.6538033 23.6538033 0 0 1 23.65380331 23.6538033 23.6538033 23.6538033 0 0 1-23.65380331 23.6538033H843.40179753a23.6538033 23.6538033 0 0 1-23.6538033-23.6538033 23.6538033 23.6538033 0 0 1 23.6538033-23.6538033zM890.75082935 488.3461967h94.69806364A23.6538033 23.6538033 0 0 1 1009.1026963 512a23.6538033 23.6538033 0 0 1-23.65380331 23.6538033h-94.69806364a23.6538033 23.6538033 0 0 1-23.69522852-23.6538033 23.6538033 23.6538033 0 0 1 23.69522852-23.6538033zM890.75082935 204.25200577h94.69806364a23.6538033 23.6538033 0 0 1 23.65380331 23.69522852 23.6538033 23.6538033 0 0 1-23.65380331 23.65380331h-94.69806364a23.6538033 23.6538033 0 0 1-23.6538033-23.65380331 23.6538033 23.6538033 0 0 1 23.6538033-23.69522852zM938.09986117 298.95006942h47.34903182a23.6538033 23.6538033 0 0 1 23.65380331 23.65380329 23.6538033 23.6538033 0 0 1-23.65380331 23.65380329h-47.34903182a23.6538033 23.6538033 0 0 1-23.6538033-23.65380329 23.6538033 23.6538033 0 0 1 23.6538033-23.65380329zM938.09986117 393.64813307h47.34903182a23.6538033 23.6538033 0 0 1 23.65380331 23.65380328 23.6538033 23.6538033 0 0 1-23.65380331 23.6538033h-47.34903182a23.6538033 23.6538033 0 0 1-23.6538033-23.6538033 23.6538033 23.6538033 0 0 1 23.6538033-23.65380328zM559.34903182 772.3989624h426.09986117a23.6538033 23.6538033 0 0 1 23.65380331 23.65380331 23.6538033 23.6538033 0 0 1-23.65380331 23.6538033H559.34903182a23.6538033 23.6538033 0 0 1-23.65380329-23.6538033 23.6538033 23.6538033 0 0 1 23.65380329-23.65380331zM369.95290453 772.3989624h94.69806365a23.6538033 23.6538033 0 0 1 23.65380329 23.65380331 23.6538033 23.6538033 0 0 1-23.65380329 23.6538033h-94.69806365a23.6538033 23.6538033 0 0 1-23.65380329-23.6538033 23.6538033 23.6538033 0 0 1 23.65380329-23.65380331zM748.70373389 961.75366448h236.70373388a23.6538033 23.6538033 0 0 1 23.6538033 23.65380329 23.6538033 23.6538033 0 0 1-23.6538033 23.6538033h-236.70373388a23.6538033 23.6538033 0 0 1-23.65380331-23.6538033 23.6538033 23.6538033 0 0 1 23.65380331-23.65380329zM369.95290453 961.75366448h284.05276571a23.6538033 23.6538033 0 0 1 23.65380331 23.65380329 23.6538033 23.6538033 0 0 1-23.65380331 23.6538033h-284.05276571a23.6538033 23.6538033 0 0 1-23.65380329-23.61237808 23.6538033 23.6538033 0 0 1 23.65380329-23.69522851zM369.95290453 298.95006942H512a23.6538033 23.6538033 0 0 1 23.6538033 23.65380329A23.6538033 23.6538033 0 0 1 512 346.29910124h-142.04709547a23.6538033 23.6538033 0 0 1-23.65380329-23.6538033 23.6538033 23.6538033 0 0 1 23.65380329-23.69522852zM369.95290453 393.64813307H512a23.6538033 23.6538033 0 0 1 23.6538033 23.65380328 23.6538033 23.6538033 0 0 1-23.6538033 23.6538033h-142.04709547a23.6538033 23.6538033 0 0 1-23.65380329-23.6538033 23.6538033 23.6538033 0 0 1 23.65380329-23.65380328z"
    fill="#4D616E"
    p-id="10217"
  ></path>
</svg>
