<svg
  t="1747709783798"
  class="icon"
  viewBox="0 0 1024 1024"
  version="1.1"
  xmlns="http://www.w3.org/2000/svg"
  p-id="11825"
  width="200"
  height="200"
>
  <path
    d="M513.11653888 2.03283001c-280.44553443 0-507.78263666 227.33710222-507.78263666 507.78263666 0 280.49408 227.33710222 507.78263666 507.78263666 507.78263666 280.49408 0 507.78263666-227.28855666 507.78263779-507.78263666 0-280.44553443-227.28855666-507.78263666-507.78263779-507.78263666z m185.92806002 338.35993998l-90.77949668 90.77949668h39.70996111a39.37014557 39.37014557 0 0 1 0 78.78883555h-95.48837888v50.29281223h95.48837888a39.37014557 39.37014557 0 0 1 0 78.74029h-95.48837888v109.22666666a39.37014557 39.37014557 0 0 1-78.69174557 0v-109.22666666H378.25801443a39.37014557 39.37014557 0 0 1 0-78.74029h95.43983446v-50.29281223H378.35510557a39.37014557 39.37014557 0 0 1 0-78.74028999h39.7099611l-90.77949668-90.77949668a39.46723555 39.46723555 0 0 1 0-55.77841777 39.46723555 39.46723555 0 0 1 55.72987335 0l130.14964111 130.29527665 130.19818666-130.1496411a39.3216 39.3216 0 1 1 55.72987222 55.63278222z"
    fill="#FFAE33"
    p-id="11826"
  ></path>
</svg>