<svg
  t="1745597856061"
  class="icon"
  viewBox="0 0 1024 1024"
  version="1.1"
  xmlns="http://www.w3.org/2000/svg"
  p-id="11365"
  width="256"
  height="256"
>
  <path
    d="M335.657769 831.865977c0 10.134611 0 20.269222 0.202692 30.403833 0 2.189076 0 4.337614-0.202692 6.405074zM688.017924 152.765964v345.387543c-0.243231-110.426721-0.77023-220.893981-0.891846-331.320703a117.561487 117.561487 0 0 1 0.891846-14.06684z"
    fill="#93CEAA"
    p-id="11366"
  ></path>
  <path
    d="M676.14269281 508.71013437a64.22809687 64.22809687 0 0 0 0.87411094-9.69122156v302.74616625l-158.63199844-145.0642875-79.81006219-72.77917594-48.03805593-44.16156656-21.35869219-19.49645812-7.86699188-7.18290563-0.57007218-0.4940625c-1.93824469-1.55819625-3.80047875-3.19240219-5.58670407-4.67458875s-3.34442156-2.77434938-5.47269-2.12826844a4.75059844 4.75059844 0 0 0-3.00237843 3.42043125v-285.03593437l1.63420593 1.48218656 32.57010563 29.45371313c17.14016063 15.20191688 34.43234062 30.40383281 51.53449687 45.60574969q36.48459937 32.68412062 72.74117063 65.74828874 28.69361719 26.07128719 57.31122562 52.21858313c22.80287438 20.78862094 45.30171094 41.80527 68.10458532 62.4418725 10.26129375 9.27316875 20.59859719 18.35631375 30.973905 27.47746406 2.20427813 1.93824469 4.37055094 3.80047875 6.61283343 5.77672781a5.58670406 5.58670406 0 0 0 5.32067063 0.68408625 4.40855531 4.40855531 0 0 0 2.12826844-2.736345c0.30403875-1.44418219 0.30403875-2.43230625 0.53206687-3.610455z"
    fill="#4C9717"
    p-id="11367"
  ></path>
  <path
    d="M346.33711531 510.87640719a59.55350813 59.55350813 0 0 0-0.38004843 10.41331312c0 96.9122175 0 193.824435 0.72209156 290.69864813v34.50835031a56.43711469 56.43711469 0 0 1-22.30881281 42.14731312c-25.8812625 21.62472656-50.014305 45.26370656-74.98345313 67.99057125-10.4513175 9.50119781-20.82662531 19.00239562-31.58198156 28.27556532s-38.42284406 10.41331313-53.73877407-2.39430188a298.26160125 298.26160125 0 0 1-32.4560925-32.91214969 48.49411313 48.49411313 0 0 1-14.17578656-33.02616375c0-2.736345-0.22802906-5.73872344 0-9.04513968 0-5.70071906 0-11.40143719 0.19002375-17.14016063 0.19002375-16.34206031 0-32.722125 0-49.06418625V308.34887469a48.03805594 48.03805594 0 0 1 1.44418219-12.08552344 70.00482562 70.00482562 0 0 1 3.80047875-10.03326469 84.2186175 84.2186175 0 0 1 7.67696812-13.60571531l60.80766563-60.80766562 38.72688281-38.6888775a29.79575625 29.79575625 0 0 1 6.99288094-5.24466188 30.59385656 30.59385656 0 0 1 12.19953844-3.80047875 52.63663594 52.63663594 0 0 1 36.90265218 6.80285719 51.64851094 51.64851094 0 0 1 7.94300157 5.9667525l52.56062625 47.20195125v285.03593344a12.84561937 12.84561937 0 0 0-0.34204313 1.78622531z"
    fill="#5FBC21"
    p-id="11368"
  ></path>
  <path
    d="M335.292923 510.801501a13.701994 13.701994 0 0 1 0.364846-1.662076v322.726552c-0.608077-103.373032-0.567538-206.746064-0.770231-310.078558a63.523742 63.523742 0 0 1 0.405385-10.985918z"
    fill="#E8CEAA"
    p-id="11369"
  ></path>
  <path
    d="M898.58473625 743.50373469l-111.69608156 102.61293562a14.25179625 14.25179625 0 0 1-1.3681725 0.91211532l-0.41805282 0.30403875-0.76009593 0.45605718a53.20670812 53.20670812 0 0 1-63.69603-6.27079031l-6.7268475-5.89074281-37.05467156-33.86226938V175.21809125c0.60807656-5.28266625 1.52019187-10.56533156 2.54632125-15.73398375 2.66033531-13.49170125 14.51783063-20.18054438 23.56297031-28.6176075 19.6484775-18.24229969 39.90503062-35.80051312 59.93355562-53.66276531 13.79573906-12.3135525 27.55347375-24.66510938 41.46322688-36.90265219 12.12352875-10.67934656 35.61048938-10.14727969 47.0119275-3.53444531a38.42284406 38.42284406 0 0 1 7.90499625 6.11877094l12.84561937 12.38956218 10.37530782 9.91925063 9.46319343 9.15915468a43.51548563 43.51548563 0 0 1 6.76485282 7.94300157 44.57962031 44.57962031 0 0 1 6.46081406 24.55109437c-0.19002375 55.71502406 0.22802906 111.43004812 0.34204312 167.22108188q0.34204313 141.947895 0.60807657 283.89579 0 72.74117062 0.26603343 145.44433594v6.65083875c0.57007219 14.44182094 0.26603344 23.98102313-7.82898656 33.44421656z"
    fill="#5FBC21"
    p-id="11370"
  ></path>
</svg>