<svg
  t="1733555853492"
  class="icon"
  viewBox="0 0 1024 1024"
  version="1.1"
  xmlns="http://www.w3.org/2000/svg"
  p-id="4232"
  width="256"
  height="256"
>
  <path
    d="M205 804.6s241.8 313.5 551.1 45.4c337.3-292.7-281.3-492.1-281.3-492.1L309.4 526.3 205 804.6z m0 0"
    fill="#FD973B"
    p-id="4233"
  ></path>
  <path
    d="M331.20711111 1000.04977778c-65.19466667-135.168-30.37866667-212.87822222 19.79733334-285.696 54.49955555-80.09955555 69.06311111-159.28888889 69.0631111-159.2888889s43.008 55.97866667 25.6 143.36c75.776-84.42311111 90.22577778-219.59111111 78.62044445-271.24622222 171.80444445 120.14933333 245.19111111 380.35911111 146.20444445 572.98488889 526.10844445-297.30133333 130.84444445-743.31022222 61.78133333-793.48622222 23.21066667 50.176 27.53422222 135.168-19.34222223 176.69688889-78.16533333-298.09777778-272.15644445-358.85511111-272.15644444-358.85511111 23.21066667 153.48622222-83.05777778 321.42222222-185.344 446.464-3.41333333-61.32622222-7.28177778-103.31022222-39.59466666-162.13333333-7.28177778 111.04711111-92.16 201.728-115.37066667 313.23022222-30.94755555 151.09688889 23.09688889 261.57511111 230.74133333 377.96977778z m0 0"
    fill="#F23921"
    p-id="4234"
  ></path>
</svg>