<svg
  t="1745903664036"
  class="icon"
  viewBox="0 0 1024 1024"
  version="1.1"
  xmlns="http://www.w3.org/2000/svg"
  p-id="19062"
  width="200"
  height="200"
>
  <path
    d="M0 0h1024v1024H0z"
    fill="#FFFFFF"
    p-id="19063"
  ></path>
  <path
    d="M608 660h40a20 20 0 0 1 20 20v156a20 20 0 0 1-20 20h-40a20 20 0 0 1-20-20v-156a20 20 0 0 1 20-20z"
    fill="#FF402A"
    p-id="19064"
  ></path>
  <path
    d="M936 716h40a20 20 0 0 1 20 20v182a20 20 0 0 1-20 20h-40a20 20 0 0 1-20-20v-182a20 20 0 0 1 20-20z"
    fill="#505873"
    p-id="19065"
  ></path>
  <path
    d="M772 660h40a20 20 0 0 1 20 20v294a20 20 0 0 1-20 20h-40a20 20 0 0 1-20-20V680a20 20 0 0 1 20-20z"
    fill="#505873"
    p-id="19066"
  ></path>
  <path
    d="M1024 580v40a20 20 0 0 1-20 20H580a20 20 0 0 1-20-20v-40a20 20 0 0 1 20-20h424a20 20 0 0 1 20 20z"
    fill="#505873"
    p-id="19067"
  ></path>
  <path
    d="M344 424H120c-44.112 0-80-35.888-80-80V120c0-44.112 35.888-80 80-80h224c44.112 0 80 35.888 80 80v224c0 44.112-35.888 80-80 80z"
    fill="#FFFFFF"
    p-id="19068"
  ></path>
  <path
    d="M120 80c-22.056 0-40 17.944-40 40v224c0 22.056 17.944 40 40 40h224c22.056 0 40-17.944 40-40V120c0-22.056-17.944-40-40-40H120m0-80h224c66.274 0 120 53.726 120 120v224c0 66.274-53.726 120-120 120H120c-66.274 0-120-53.726-120-120V120C0 53.726 53.726 0 120 0z"
    fill="#505873"
    p-id="19069"
  ></path>
  <path
    d="M904 424H680c-44.112 0-80-35.888-80-80V120c0-44.112 35.888-80 80-80h224c44.112 0 80 35.888 80 80v224c0 44.112-35.888 80-80 80z"
    fill="#D8DDE3"
    p-id="19070"
  ></path>
  <path
    d="M680 80c-22.056 0-40 17.944-40 40v224c0 22.056 17.944 40 40 40h224c22.056 0 40-17.944 40-40V120c0-22.056-17.944-40-40-40H680m0-80h224c66.274 0 120 53.726 120 120v224c0 66.274-53.726 120-120 120H680c-66.274 0-120-53.726-120-120V120c0-66.274 53.726-120 120-120z"
    fill="#505873"
    p-id="19071"
  ></path>
  <path
    d="M344 984H120c-44.112 0-80-35.888-80-80V680c0-44.112 35.888-80 80-80h224c44.112 0 80 35.888 80 80v224c0 44.112-35.888 80-80 80z"
    fill="#D8DDE3"
    p-id="19072"
  ></path>
  <path
    d="M120 640c-22.056 0-40 17.944-40 40v224c0 22.056 17.944 40 40 40h224c22.056 0 40-17.944 40-40V680c0-22.056-17.944-40-40-40H120m0-80h224c66.274 0 120 53.726 120 120v224c0 66.274-53.726 120-120 120H120c-66.274 0-120-53.726-120-120V680c0-66.274 53.726-120 120-120z"
    fill="#505873"
    p-id="19073"
  ></path>
  <path
    d="M772 192h40a20 20 0 0 1 20 20v40a20 20 0 0 1-20 20h-40a20 20 0 0 1-20-20v-40a20 20 0 0 1 20-20z"
    fill="#FF402A"
    p-id="19074"
  ></path>
  <path
    d="M212 192h40a20 20 0 0 1 20 20v40a20 20 0 0 1-20 20h-40a20 20 0 0 1-20-20v-40a20 20 0 0 1 20-20z"
    fill="#FF402A"
    p-id="19075"
  ></path>
  <path
    d="M212 752h40a20 20 0 0 1 20 20v40a20 20 0 0 1-20 20h-40a20 20 0 0 1-20-20v-40a20 20 0 0 1 20-20z"
    fill="#FF402A"
    p-id="19076"
  ></path>
  <path
    d="M608 876h40a20 20 0 0 1 20 20v40a20 20 0 0 1-20 20h-40a20 20 0 0 1-20-20v-40a20 20 0 0 1 20-20z"
    fill="#FF402A"
    p-id="19077"
  ></path>
</svg>
