<!-- 风向  -->

<svg
  t="1734730959724"
  class="icon"
  viewBox="0 0 1089 1024"
  version="1.1"
  xmlns="http://www.w3.org/2000/svg"
  p-id="1297"
  width="256"
  height="256"
>
  <path
    d="M224.431043 970.288137a32.824889 32.824889 0 0 1-32.566701-29.083351 3738.947829 3738.947829 0 0 1-2.844445-824.893265 32.824889 32.824889 0 0 1 65.264684 7.027966 3673.052991 3673.052991 0 0 0 2.791932 810.386598 32.820513 32.820513 0 0 1-32.64547 36.562052z"
    fill="#999999"
    p-id="1298"
  ></path>
  <path
    d="M408.505983 509.632547a21.862838 21.862838 0 0 1-18.134427-9.60547C320.827077 397.408274 255.938735 288.732991 197.500718 177.016342a21.880342 21.880342 0 0 1 23.136273-31.700239 23889.044786 23889.044786 0 0 0 302.810804 50.613606 21.880342 21.880342 0 0 1-6.931692 43.2093A23967.144479 23967.144479 0 0 1 257.181538 196.039111c52.105846 96.435419 108.985983 190.262701 169.423864 279.433846a21.880342 21.880342 0 0 1-18.099419 34.15959z"
    fill="#999999"
    p-id="1299"
  ></path>
  <path
    d="M1003.174291 621.406085c-25.149265 52.083966-92.01559 85.499624-150.554257 70.782906a5341.731009 5341.731009 0 0 1-397.482666-118.517059c-57.895385-19.359726-83.385983-88.562872-54.499556-150.234804a3262.534017 3262.534017 0 0 1 95.490188-188.179692c32.212239-58.49053 96.999932-68.940581 142.983658-27.735521 104.684308 92.991453 213.302701 177.677128 324.879316 253.846974 49.116991 33.905778 67.776547 100.706462 42.657915 152.847316-1.164034 2.389333-2.323692 4.787419-3.474598 7.18988z"
    fill="#F58282"
    p-id="1300"
  ></path>
  <path
    d="M889.61094 710.918564c-13.959658 0.905846-27.678632-0.262564-40.780581-3.553367a5346.18147 5346.18147 0 0 1-398.055932-116.775385c-32.435419-10.861402-57.435897-35.406769-69.745777-69.155009-12.327385-33.704479-10.222496-71.933812 5.964581-106.447863a3279.758222 3279.758222 0 0 1 95.967179-188.744205C506.035419 184.254359 546.509675 161.634462 587.491556 166.054291c22.317949 2.363077 43.568137 12.336137 61.62817 28.483829 104.307966 93.223385 212.576274 178.15412 323.833436 254.577777 55.186598 38.382496 75.968547 112.696889 47.795419 171.257436-1.159658 2.389333-2.310564 4.778667-3.46147 7.172376-21.954735 45.506735-72.620855 79.631316-127.676171 83.372855zM584.073846 200.034462c-29.726632-2.875077-57.904137 13.399521-74.756376 44.163282a3249.716513 3249.716513 0 0 0-95.017573 187.619555c-11.635966 24.917333-13.272615 52.013949-4.65176 75.679727 8.612103 23.687658 26.457709 41.191932 49.935316 49.29641a5337.350564 5337.350564 0 0 0 396.883145 120.254359c9.981812 2.612513 20.515009 3.597128 31.31077 3.010735 43.64253-2.481231 83.94612-28.921436 101.292854-64.857709 1.159658-2.411214 2.319316-4.813675 3.487727-7.211761 22.177915-45.948718 5.763282-104.671179-37.47665-134.305915-111.900444-75.911658-220.864547-160.352274-325.925196-253.107419-13.399521-11.828513-28.947692-19.000889-45.082257-20.541264z"
    fill="#FF8A8A"
    p-id="1301"
  ></path>
  <path
    d="M659.819214 638.888479a5384.257641 5384.257641 0 0 0 78.567931 22.67241 2890.21812 2890.21812 0 0 1 130.673778-267.583453 3243.248684 3243.248684 0 0 1-64.792068-49.086359c-52.59159 93.507829-100.947145 191.61053-144.449641 293.997402z m304.163008-177.528342a3297.026188 3297.026188 0 0 1-31.153231-21.543385 2818.135521 2818.135521 0 0 0-117.847521 242.587351c12.537436 3.308308 25.079248 6.572855 37.629812 9.784888 14.585436 3.72841 29.752889 4.393573 44.631521 2.507488a2739.95706 2739.95706 0 0 1 97.818257-202.266257c-8.257641-11.955419-18.672684-22.606769-31.078838-31.070085zM507.667692 591.268103c26.050735 8.577094 52.136479 16.952889 78.244103 25.10988 47.292171-111.576615 100.211966-218.230154 158.015453-319.566769a3274.471932 3274.471932 0 0 1-63.181675-52.919795c-63.619282 109.804308-121.619692 225.756991-173.077881 347.376684zM427.996991 576.468239c-9.027829 21.565265-31.774632 31.035077-50.779897 20.550017l-7.776273-4.319179c-18.983385-10.515692-27.065983-37.502906-17.718701-59.497026 59.527658-140.344889 127.382974-273.574291 202.301265-399.023042 11.745368-19.666051 35.660581-25.105504 53.007316-12.61183l7.124239 5.102496c17.372991 12.458667 22.134154 38.01053 10.734496 57.287111-73.027829 123.356991-139.080205 254.415863-196.892445 392.511453z"
    fill="#FF8A8A"
    p-id="1302"
  ></path>
  <path
    d="M394.822017 619.25306a47.379692 47.379692 0 0 1-24.169026-5.929573l-7.802529-4.288547c-12.953162-7.141744-22.786188-19.876103-27.551727-35.831248-4.774291-15.946393-3.872821-33.109333 2.516239-48.123624 59.847111-140.751863 128.039385-274.379487 203.303385-400.208957 11.460923-19.158427 31.341402-29.293402 51.646359-26.711521 8.21388 1.037128 16.173949 4.227282 23.031248 9.185367 2.363077 1.711043 4.73053 3.417709 7.093607 5.12 24.422838 17.688068 31.048205 53.300513 15.053675 80.405881-72.686496 122.971897-138.419419 253.628171-195.92971 391.31241-8.739009 20.913231-26.715897 34.444034-47.191521 35.069812zM588.651214 132.104752c-8.607726-1.00212-16.944137 3.325812-21.718428 11.320889-74.563829 125.068034-142.082188 257.90359-201.290393 397.837128a29.866667 29.866667 0 0 0-1.019624 20.094906c1.991111 6.67788 6.078359 12.034188 11.482804 15.062428l7.763145 4.354188a19.670427 19.670427 0 0 0 10.082461 2.568752c8.537709-0.166291 16.388376-5.929573 20.04677-14.655453 58.12294-138.50694 124.499145-269.964034 197.863931-393.70612 6.813538-11.495932 3.969094-26.689641-6.389059-34.045812l-7.150496-5.071863a20.641915 20.641915 0 0 0-9.671111-3.759043z"
    fill="#FF8A8A"
    p-id="1303"
  ></path>
</svg>