<?xml version="1.0" standalone="no"?><!DOCTYPE svg PUBLIC "-//W3C//DTD SVG 1.1//EN" "http://www.w3.org/Graphics/SVG/1.1/DTD/svg11.dtd">
<svg
  t="1739872937244"
  class="icon"
  viewBox="0 0 1024 1024"
  version="1.1"
  xmlns="http://www.w3.org/2000/svg"
  p-id="9475"
  xmlns:xlink="http://www.w3.org/1999/xlink"
  width="200"
  height="200"
>
  <path
    d="M66.218914 740.124602l427.917985-246.670085H0.000284a491.690394 491.690394 0 0 0 66.161741 246.670085"
    fill="#F2C326"
    p-id="9476"
  ></path>
  <path
    d="M247.068592 920.803613l247.068307-427.349096-427.861096 246.670085a492.657504 492.657504 0 0 0 180.792789 180.679011"
    fill="#FFF107"
    p-id="9477"
  ></path>
  <path
    d="M494.136899 986.851576V493.454517l-247.068307 427.292207a491.804171 491.804171 0 0 0 247.068307 66.104852"
    fill="#93C728"
    p-id="9478"
  ></path>
  <path
    d="M741.205206 920.803613L494.136899 493.454517v493.34017a493.112615 493.112615 0 0 0 247.068307-65.991074"
    fill="#069B46"
    p-id="9479"
  ></path>
  <path
    d="M922.111772 740.124602L494.193788 493.454517l247.011418 427.292207a490.268172 490.268172 0 0 0 180.906566-180.622122"
    fill="#17989E"
    p-id="9480"
  ></path>
  <path
    d="M988.330402 493.454517H494.08001l427.917984 246.670085A490.666394 490.666394 0 0 0 988.330402 493.454517"
    fill="#2D6FAA"
    p-id="9481"
  ></path>
  <path
    d="M922.111772 246.727543L494.193788 493.454517h494.022836a491.064616 491.064616 0 0 0-66.104852-246.726974"
    fill="#434E8D"
    p-id="9482"
  ></path>
  <path
    d="M741.205206 66.105421L494.136899 493.454517l427.917984-246.726974a490.837061 490.837061 0 0 0-180.849677-180.622122"
    fill="#631B89"
    p-id="9483"
  ></path>
  <path
    d="M494.136899 0.000569v493.453948l247.068307-427.292207A491.974838 491.974838 0 0 0 494.136899 0.000569"
    fill="#B61379"
    p-id="9484"
  ></path>
  <path
    d="M247.068592 66.105421l247.068307 427.349096V0.057458a491.519727 491.519727 0 0 0-247.068307 66.047963"
    fill="#E70214"
    p-id="9485"
  ></path>
  <path
    d="M66.218914 246.727543l427.917985 246.726974-247.011419-427.292207a490.268172 490.268172 0 0 0-180.906566 180.565233"
    fill="#EB6200"
    p-id="9486"
  ></path>
  <path
    d="M0.000284 493.454517h494.136615L66.275803 246.784432A490.38195 490.38195 0 0 0 0.000284 493.454517"
    fill="#E69016"
    p-id="9487"
  ></path>
  <path
    d="M188.586846 669.582419l305.550053-176.127902H141.369095a349.297584 349.297584 0 0 0 47.217751 176.127902"
    fill="#F8D66E"
    p-id="9488"
  ></path>
  <path
    d="M317.724552 798.606347l176.412347-305.15183-305.550053 176.127902a350.549139 350.549139 0 0 0 129.137706 129.023928"
    fill="#FEF450"
    p-id="9489"
  ></path>
  <path
    d="M494.136899 845.76721V493.454517l-176.355458 305.094942a349.752695 349.752695 0 0 0 176.412347 47.217751"
    fill="#AFD561"
    p-id="9490"
  ></path>
  <path
    d="M670.549245 798.606347L494.136899 493.454517v352.312693a353.848692 353.848692 0 0 0 176.355457-47.217751"
    fill="#49B77A"
    p-id="9491"
  ></path>
  <path
    d="M799.686951 669.582419l-305.493163-176.127902 176.355457 305.094942a352.995359 352.995359 0 0 0 129.137706-128.96704"
    fill="#5EB6BB"
    p-id="9492"
  ></path>
  <path
    d="M846.961592 493.454517H494.136899l305.493163 176.127902a348.159807 348.159807 0 0 0 47.33153-176.127902"
    fill="#6C9CC4"
    p-id="9493"
  ></path>
  <path
    d="M799.686951 317.269726l-305.493163 176.184791h352.710915a349.866472 349.866472 0 0 0-47.217752-176.184791"
    fill="#7A80B2"
    p-id="9494"
  ></path>
  <path
    d="M670.549245 188.302686L494.136899 493.454517l305.493163-176.127902a350.549139 350.549139 0 0 0-129.137706-129.023929"
    fill="#8E59A8"
    p-id="9495"
  ></path>
  <path
    d="M494.136899 141.084935v352.369582l176.412346-305.038053a354.303803 354.303803 0 0 0-85.447063-35.441758 354.645136 354.645136 0 0 0-90.965283-11.832882"
    fill="#CB589D"
    p-id="9496"
  ></path>
  <path
    d="M317.724552 188.302686l176.412347 305.151831V141.141824a351.630027 351.630027 0 0 0-176.412347 47.160862"
    fill="#EE5563"
    p-id="9497"
  ></path>
  <path
    d="M188.586846 317.269726l305.550053 176.184791-176.355458-305.094942a352.312693 352.312693 0 0 0-129.194595 128.910151"
    fill="#F49A5C"
    p-id="9498"
  ></path>
  <path
    d="M141.312206 493.454517h352.824693l-305.493164-176.127902a350.833583 350.833583 0 0 0-47.331529 176.127902"
    fill="#EEAF5D"
    p-id="9499"
  ></path>
  <path
    d="M670.549245 493.454517a176.298569 176.298569 0 0 1-176.412346 176.127902 176.24168 176.24168 0 0 1-176.355458-176.127902 176.24168 176.24168 0 0 1 176.355458-176.127902 176.298569 176.298569 0 0 1 176.355457 176.127902"
    fill="#FFFFFF"
    p-id="9500"
  ></path>
</svg>
