<svg
  t="1743449720507"
  class="icon"
  viewBox="0 0 1024 1024"
  version="1.1"
  xmlns="http://www.w3.org/2000/svg"
  p-id="19406"
  width="256"
  height="256"
>
  <path
    d="M722.56 402.56l19.2-18.56H64V256h677.76l-19.2-18.56a64.256 64.256 0 0 1 90.88-90.88l128 128a64 64 0 0 1 0 90.88l-128 128a64 64 0 0 1-90.88 0 64 64 0 0 1 0-90.88zM301.44 621.44l-19.2 18.56H960v128H282.24l19.2 18.56a64 64 0 0 1 0 90.88 64 64 0 0 1-90.88 0l-128-128a64 64 0 0 1 0-90.88l128-128a64.256 64.256 0 0 1 90.88 90.88z"
    p-id="19407"
  ></path>
</svg>
