<svg
  t="1745702056578"
  class="icon"
  viewBox="0 0 1024 1024"
  version="1.1"
  xmlns="http://www.w3.org/2000/svg"
  p-id="11064"
  width="256"
  height="256"
>
  <path
    d="M90.29121264 458.522624c-39.32807269 0-71.19960494-31.87153225-71.19960494-71.19960494V243.52570785c0-120.34027773 97.90592948-218.25915259 218.2591526-218.2591526h143.7973112c39.32807269 0 71.19960494 31.87153225 71.19960495 71.19960494s-31.87153225 71.19960494-71.19960495 71.19960495H237.33781491c-41.82653155 0-75.85994272 34.03341117-75.85994272 75.85994271v143.79731121c0.01294539 39.32807269-31.87153225 71.19960494-71.18665955 71.19960494zM933.07446361 458.522624c-39.32807269 0-71.19960494-31.87153225-71.19960494-71.19960494V243.52570785c0-41.82653155-34.03341117-75.85994272-75.85994272-75.85994271H642.23055013c-39.32807269 0-71.19960494-31.87153225-71.19960495-71.19960495s31.87153225-71.19960494 71.19960495-71.19960494h143.7973112c120.34027773 0 218.25915259 97.90592948 218.25915259 218.2591526v143.79731121c-0.01294539 39.32807269-31.88447763 71.19960494-71.21255031 71.19960494zM786.02786133 999.7302392H642.23055013c-39.32807269 0-71.19960494-31.87153225-71.19960495-71.19960493s31.87153225-71.19960494 71.19960495-71.19960494h143.7973112c41.82653155 0 75.85994272-34.03341117 75.85994272-75.85994272V637.67377541c0-39.32807269 31.87153225-71.19960494 71.19960493-71.19960494s71.19960494 31.87153225 71.19960494 71.19960494v143.7973112c-0.01294539 120.35322311-97.91887486 218.25915259-218.25915259 218.25915259zM381.13512613 999.7302392H237.33781491c-120.34027773 0-218.25915259-97.90592948-218.2591526-218.25915259V637.67377541c0-39.32807269 31.87153225-71.19960494 71.19960494-71.19960494s71.19960494 31.87153225 71.19960494 71.19960494v143.7973112c0 41.82653155 34.03341117 75.85994272 75.85994272 75.85994272h143.79731122c39.32807269 0 71.19960494 31.87153225 71.19960493 71.19960494s-31.87153225 71.19960494-71.19960493 71.19960493z"
    p-id="11065"
  ></path>
</svg>