<?xml version="1.0" standalone="no"?><!DOCTYPE svg PUBLIC "-//W3C//DTD SVG 1.1//EN" "http://www.w3.org/Graphics/SVG/1.1/DTD/svg11.dtd">
<svg
  t="1739789150974"
  class="icon"
  viewBox="0 0 1024 1024"
  version="1.1"
  xmlns="http://www.w3.org/2000/svg"
  p-id="8594"
  xmlns:xlink="http://www.w3.org/1999/xlink"
  width="200"
  height="200"
>
  <path
    d="M535.21066667 876.99911111L414.15111111 705.99111111c-4.55111111-6.37155555-14.336-4.89244445-16.72533333 2.61688889L379.67644445 764.58666667c-1.82044445 5.68888889-8.30577778 8.30577778-13.53955556 5.46133333C269.65333333 717.93777778 204.00355555 615.99288889 204.00355555 498.688c0-14.56355555 1.024-29.01333333 2.95822223-43.008 0.56888889-3.86844445-1.36533333-7.73688889-4.77866667-9.55733333l-134.03022222-73.728c-5.00622222-2.73066667-11.37777778-0.45511111-13.42577778 4.89244444-16.15644445 43.23555555-25.14488889 89.99822222-25.14488889 138.80888889 0 188.98488889 132.66488889 347.02222222 310.04444445 385.93422222 4.77866667 1.024 7.96444445 5.46133333 7.39555555 10.35377778l-8.76088889 76.34488889c-0.91022222 7.85066667 7.50933333 13.19822222 14.22222222 9.216l179.7688889-107.40622222c4.77866667-2.73066667 6.144-8.98844445 2.95822222-13.53955556z"
    fill="#86BF78"
    p-id="8595"
  ></path>
  <path
    d="M790.98311111 272.15644445L703.14666667 462.27911111c-3.29955555 7.05422222 2.95822222 14.90488889 10.58133333 13.19822222l57.344-12.40177778c5.80266667-1.25155555 11.37777778 3.072 11.49155555 9.10222223 2.95822222 109.568-52.67911111 217.20177778-154.39644444 275.68355555-12.62933333 7.28177778-25.6 13.53955555-38.79822222 18.88711112-3.64088889 1.47911111-6.03022222 5.00622222-5.91644444 8.98844444l2.95822222 152.91733333c0.11377778 5.80266667 5.23377778 10.12622222 10.92266666 9.216 45.51111111-7.50933333 90.45333333-23.09688889 132.89244445-47.44533333 163.84-94.208 234.72355555-287.97155555 180.11022222-461.14133334-1.47911111-4.66488889 0.79644445-9.55733333 5.23377778-11.49155555l70.54222222-30.49244445c7.168-3.072 7.73688889-13.08444445 0.91022222-16.95288888l-182.72711111-102.28622222c-4.89244445-2.95822222-10.92266667-0.91022222-13.312 4.096z"
    fill="#83B6D7"
    p-id="8596"
  ></path>
  <path
    d="M135.39555555 343.26755555l208.21333334-23.21066666c7.73688889-0.91022222 11.264-10.24 5.80266666-15.92888889l-40.27733333-42.55288889c-4.096-4.32355555-3.18577778-11.264 1.82044445-14.56355556 92.16-59.27822222 213.10577778-67.35644445 315.84711111-10.58133333 12.74311111 7.05422222 24.80355555 14.90488889 36.18133333 23.43822223 3.18577778 2.38933333 7.39555555 2.50311111 10.69511111 0.4551111L803.04355555 178.63111111c4.89244445-3.072 5.91644445-9.78488889 2.16177778-14.10844444-29.92355555-35.04355555-66.56-65.536-109.34044444-89.088-165.43288889-91.47733333-367.95733333-51.76888889-487.76533334 84.53688888-3.18577778 3.64088889-8.64711111 4.32355555-12.62933333 1.47911112l-62.57777777-44.60088889c-6.37155555-4.55111111-15.24622222 0.22755555-15.01866667 8.07822222l7.05422222 209.23733333c0.11377778 5.57511111 5.00622222 9.67111111 10.46755555 9.10222222z"
    fill="#E2B796"
    p-id="8597"
  ></path>
  <path
    d="M68.38044445 392.64711111l120.03555555 65.99111111c-1.59288889 13.08444445-2.38933333 26.39644445-2.38933333 39.59466667 0 120.03555555 65.76355555 230.05866667 171.46311111 287.17511111 3.98222222 2.16177778 8.53333333 3.29955555 13.08444444 3.29955555 12.06044445 0 22.64177778-7.73688889 26.28266667-19.22844444l12.51555556-39.36711111 105.69955555 149.27644445-156.78577778 93.6391111 6.71288889-59.05066666c1.59288889-14.10844445-7.62311111-26.96533333-21.504-30.03733334-41.64266667-9.216-81.23733333-25.25866667-117.53244444-47.90044444-35.61244445-22.18666667-67.24266667-49.94844445-93.75288889-82.60266666-26.73777778-32.88177778-47.67288889-69.74577778-62.00888889-109.45422223-14.90488889-40.96-22.41422222-84.19555555-22.41422222-128.34133333 0-42.21155555 6.94044445-83.51288889 20.59377778-122.99377778m-4.6648889-21.84533333c-3.75466667 0-7.39555555 2.27555555-8.87466666 6.144-16.15644445 43.23555555-25.14488889 89.99822222-25.14488889 138.80888889 0 188.98488889 132.66488889 347.02222222 310.04444445 385.93422222 4.77866667 1.024 7.96444445 5.46133333 7.39555555 10.35377778l-8.76088889 76.34488888c-0.68266667 6.03022222 4.096 10.58133333 9.44355556 10.58133334 1.59288889 0 3.29955555-0.45511111 4.89244444-1.36533334l179.65511111-107.29244444c4.77866667-2.84444445 6.03022222-9.10222222 2.84444445-13.65333333L414.26488889 705.64977778c-1.93422222-2.73066667-4.89244445-3.98222222-7.73688889-3.98222223-3.86844445 0-7.73688889 2.38933333-9.10222222 6.59911112l-17.74933333 55.75111111a9.59146667 9.59146667 0 0 1-9.10222223 6.59911111c-1.47911111 0-3.072-0.34133333-4.55111111-1.13777778-96.48355555-51.99644445-162.01955555-153.94133333-162.01955556-271.24622222 0-14.56355555 1.024-28.89955555 2.95822223-43.008 0.56888889-3.86844445-1.36533333-7.73688889-4.77866667-9.67111111L68.26666667 371.93955555c-1.47911111-0.79644445-3.072-1.13777778-4.55111112-1.13777777z"
    fill="#7AB66E"
    p-id="8598"
  ></path>
  <path
    d="M603.24977778 909.53955555L601.54311111 772.55111111c12.17422222-5.12 24.12088889-10.92266667 35.61244444-17.408 104.448-59.16444445 167.82222222-170.55288889 165.31911112-290.70222222-0.11377778-4.55111111-1.36533333-9.10222222-3.52711112-13.08444444-5.91644445-10.46755555-17.86311111-15.92888889-29.696-13.42577778l-40.3911111 8.53333333L806.68444445 280.80355555l158.83377777 90.22577778-54.72711111 23.21066667c-13.08444445 5.57511111-19.68355555 19.91111111-15.58755556 33.45066667 12.51555555 40.73244445 18.09066667 83.17155555 16.27022223 125.83822222-1.70666667 41.984-10.35377778 83.17155555-25.71377778 122.31111111-15.47377778 39.48088889-37.20533333 75.776-64.62577778 107.86133333-28.44444445 33.22311111-62.23644445 61.09866667-100.69333333 82.83022222-36.63644445 21.04888889-76.00355555 35.38488889-117.19111111 43.008m-16.72533333 14.79111112c1.82044445 3.29955555 5.68888889 5.34755555 9.6711111 4.66488888 45.51111111-7.168 90.68088889-22.528 133.12-46.5351111 164.40888889-93.184 236.544-286.49244445 183.06844445-460.00355556-1.47911111-4.66488889 0.91022222-9.55733333 5.34755555-11.49155556l70.656-30.03733333c5.57511111-2.38933333 7.168-8.76088889 4.55111112-13.42577778-0.79644445-1.36533333-1.93422222-2.61688889-3.52711112-3.52711111L807.59466667 260.55111111c-4.77866667-2.73066667-10.92266667-0.79644445-13.312 4.20977778l-89.088 189.44c-1.47911111 3.072-1.13777778 6.144 0.34133333 8.64711111 1.93422222 3.41333333 5.80266667 5.57511111 10.24 4.66488889l57.344-12.06044444c4.20977778-0.91022222 8.30577778 1.13777778 10.24 4.66488888 0.79644445 1.36533333 1.25155555 2.84444445 1.25155555 4.55111112 2.27555555 109.568-54.15822222 216.86044445-156.21688888 274.65955555-12.74311111 7.168-25.71377778 13.312-38.912 18.54577778-3.64088889 1.47911111-6.03022222 5.00622222-6.03022222 8.98844444l1.93422222 152.91733333c0 1.59288889 0.45511111 3.18577778 1.13777778 4.55111112z"
    fill="#79AAD7"
    p-id="8599"
  ></path>
  <path
    d="M785.408 167.70844445l-115.93955555 72.93155555c-10.69511111-7.73688889-21.95911111-14.90488889-33.45066667-21.27644445-105.01688889-58.25422222-233.13066667-54.04444445-334.27911111 10.8088889-3.86844445 2.50311111-7.05422222 5.91644445-9.216 9.89866666-5.80266667 10.58133333-4.20977778 23.552 4.096 32.31288889l28.33066666 30.03733333-181.81688888 20.02488889L137.10222222 139.94666667l48.46933333 34.58844444c11.49155555 8.192 27.30666667 6.37155555 36.63644445-4.20977778 28.21688889-31.97155555 61.44-58.82311111 98.87288889-79.64444444 36.75022222-20.48 76.34488889-34.58844445 117.76-41.984 41.75644445-7.50933333 84.08177778-7.85066667 125.72444444-1.25155556 43.12177778 6.94044445 84.53688889 21.27644445 123.22133334 42.66666667 36.864 20.36622222 69.632 46.42133333 97.62133333 77.59644445m21.39022222 6.48533333c1.82044445-3.29955555 1.59288889-7.62311111-1.024-10.69511111-29.92355555-35.15733333-66.56-65.536-109.22666667-89.20177778-165.31911111-91.70488889-367.84355555-52.224-487.8791111 83.968-3.18577778 3.64088889-8.64711111 4.32355555-12.62933334 1.47911111l-62.57777778-44.60088889c-4.89244445-3.52711111-11.264-1.47911111-13.88088888 3.18577778-0.79644445 1.36533333-1.25155555 3.072-1.13777778 4.89244444l6.82666666 209.12355556c0.22755555 5.57511111 5.00622222 9.78488889 10.58133334 9.10222222l208.09955555-22.98311111c3.29955555-0.34133333 5.80266667-2.27555555 7.28177778-4.77866667 1.93422222-3.41333333 1.70666667-7.85066667-1.36533333-11.15022222l-40.16355556-42.55288889c-2.95822222-3.18577778-3.29955555-7.62311111-1.36533333-11.15022222 0.79644445-1.36533333 1.82044445-2.50311111 3.18577777-3.41333333 92.27377778-59.16444445 213.21955555-67.12888889 315.73333334-10.24 12.74311111 7.05422222 24.80355555 14.90488889 36.18133333 23.43822222 3.18577778 2.38933333 7.39555555 2.50311111 10.69511111 0.45511111l129.36533334-81.46488889c1.47911111-0.91022222 2.50311111-2.048 3.29955555-3.41333333z"
    fill="#E7A98F"
    p-id="8600"
  ></path>
</svg>
