<!-- 降水量  -->

<svg
  t="1734731034817"
  class="icon"
  viewBox="0 0 1089 1024"
  version="1.1"
  xmlns="http://www.w3.org/2000/svg"
  p-id="1807"
  width="256"
  height="256"
>
  <path
    d="M908.589949 293.607932c-52.473436-98.514051-144.655316-144.637812-230.329983-130.695658-107.865709 18.414496-184.114325 114.057846-206.034051 223.293264-62.783453 25.963214-104.553026 83.224068-109.174154 146.764582-5.404444 81.911248 52.088342 160.269128 140.441162 175.524102l321.518496 49.523966c100.242598 17.836855 207.928889-84.322462 214.462359-229.292855 5.448205-110.963966-53.61559-208.047043-130.883829-235.117401z"
    fill="#1F2930"
    opacity=".8"
    p-id="1808"
  ></path>
  <path
    d="M695.536684 207.009915c-68.944957-127.842462-184.516923-180.088342-279.980855-155.612992-120.665709 32.321641-192.770188 154.921573-214.637402 284.680752-71.006085 32.66735-117.698735 98.798496-125.895111 171.511248-9.373538 93.28465 45.716786 189.103043 144.419009 215.880205l360.784957 87.114393c111.445333 31.411419 256.437607-97.743863 270.147829-292.942769 11.264-148.952615-63.824957-278.234803-154.838427-310.630837z"
    fill="#545F66"
    opacity=".8"
    p-id="1809"
  ></path>
  <path
    d="M323.233915 941.44547c1.829197 21.823453-7.662496 32.37853-20.374975 33.643214-12.708103 1.255932-24.099009-7.224889-26.588991-28.991453-2.533744-21.753436 4.284171-58.599932 17.775589-59.934633 13.500171-1.343453 27.40294 33.450667 29.188377 55.282872zM247.95241 679.091419c4.494222 44.482735-16.52841 66.542496-44.876581 70.038974-28.343795 3.478974-54.114462-12.830632-60.534154-57.072684-6.542222-44.211419 7.627487-120.166838 38.273094-123.92588 30.649983-3.780923 62.774701 66.485607 67.137641 110.95959zM709.470085 860.291282c-3.535863 50.793026-29.433436 71.644991-59.488273 70.310291-30.046085-1.365333-53.961299-24.449094-52.937299-75.355898 0.862085-50.893675 29.197128-133.632 62.245196-132.144137 33.056821 1.479111 53.88253 86.422974 50.180376 137.189744zM909.618325 838.726017c-4.988718 34.531556-24.225915 47.392821-45.270428 44.723419-21.044513-2.68253-36.426393-19.954872-32.610461-54.630838 3.737162-34.675966 28.129368-89.416205 50.574222-86.554256 22.440479 2.848821 32.369778 61.952 27.306667 96.461675zM541.534085 956.420376c-4.988718 34.531556-24.225915 47.392821-45.270427 44.723419-21.044513-2.68253-36.426393-19.954872-32.610461-54.630838 3.737162-34.675966 28.129368-89.416205 50.574222-86.554256 22.444855 2.844444 32.369778 61.952 27.306666 96.461675zM356.675829 786.348855c2.349949 27.949949-9.815521 41.467624-26.09012 43.082393-16.278974 1.610393-30.86441-9.251009-34.054564-37.126564-3.242667-27.858051 5.483214-75.045197 22.768684-76.760616 17.289846-1.711043 35.087316 42.850462 37.376 70.804787zM205.294496 837.163761c1.286564 15.33812-5.382564 22.755556-14.31412 23.639521-8.931556 0.883966-16.935385-5.076239-18.685812-20.370598-1.78106-15.285607 3.010735-41.178803 12.489299-42.119658 9.487316-0.940855 19.254701 23.512615 20.510633 38.850735zM786.515145 950.648342c-3.868444 26.790291-18.795214 36.772103-35.122324 34.702222-16.322735-2.087385-28.265026-15.48253-25.302428-42.390974 2.901333-26.904068 21.823453-69.378188 39.240205-67.163898 17.412376 2.218667 25.114256 48.075487 21.184547 74.85265z"
    fill="#9DBFD4"
    p-id="1810"
  ></path>
</svg>