<svg
  t="1745979701711"
  class="icon"
  viewBox="0 0 1024 1024"
  version="1.1"
  xmlns="http://www.w3.org/2000/svg"
  p-id="11275"
  width="200"
  height="200"
>
  <path
    d="M0 0m240 0l544 0q240 0 240 240l0 544q0 240-240 240l-544 0q-240 0-240-240l0-544q0-240 240-240Z"
    fill="#000000"
    p-id="11276"
  ></path>
  <path
    d="M533.09726562 178.015625c123.54960937 0 231.42304687 67.09921875 289.19882813 166.8375l-0.5625-0.95976562-145.36757812 83.69999999c-28.63828125-48.49101563-81.14414062-81.21796875-141.37382813-81.88945312l-1.89492188-0.01054687c-91.84921875 0-166.31015625 74.45742187-166.31015625 166.303125a165.515625 165.515625 0 0 0 21.93398438 82.51171875c28.66640625 50.04492188 82.55390625 83.80195312 144.37617187 83.80195312 62.1984375 0 116.3953125-34.1859375 144.91757813-84.76523437l-0.69257813 1.21289062 145.14609375 84.08671875c-57.14296875 98.89453125-163.53632813 165.78632813-285.6515625 167.11875l-3.71953125 0.02109375c-123.94335938 0-232.12265625-67.5140625-289.75429687-167.7796875C215.20742187 629.25664063 199.109375 572.5109375 199.109375 511.99648438 199.109375 327.54570312 348.6359375 178.015625 533.09726562 178.015625z"
    fill="#F5E952"
    p-id="11277"
  ></path>
</svg>