<svg
  t="1746463627832"
  class="icon"
  viewBox="0 0 1493 1024"
  version="1.1"
  xmlns="http://www.w3.org/2000/svg"
  p-id="12143"
  width="256"
  height="256"
>
  <path
    d="M153.32575 1005.653204c129.671424-118.476769 100.751898-183.157 326.821743-133.402976l672.923171 148.640146c93.288794 20.834497 171.651382-77.118737 190.931066-165.432129l146.152444-667.325843C1509.433858 99.508047 1411.480624 25.8099 1315.393166 23.944124L176.647949 0C80.249528 0-13.350229 75.874886 1.575978 165.121166L99.218249 741.02399c14.304282 85.825691 37.315518 177.559672 54.107501 264.629214z m1095.832372-746.310356l-93.288794 329.309445h-49.754024l-66.235044-237.264501a148.640146 148.640146 0 0 1-5.286365-33.894928 164.810203 164.810203 0 0 1-5.908291 33.583966l-66.856969 237.575463h-48.821136L817.541966 259.653811h46.95536l67.167932 248.770119a155.481324 155.481324 0 0 1 5.286365 33.894928 179.736411 179.736411 0 0 1 7.152141-33.894928l71.210447-248.770119H1057.294168l68.10082 250.635894a250.324932 250.324932 0 0 1 5.597328 31.096265 184.711813 184.711813 0 0 1 5.90829-31.096265l64.680231-248.770118z m-473.907076 144.908594v37.626481h-117.854843v110.702703h134.646826v37.62648h-177.248709V259.653811h169.785606v37.937443h-127.183723v106.660188zM260.918826 259.653811h53.485576l161.078652 251.879745a215.808078 215.808078 0 0 1 13.682356 22.700273 421.976313 421.976313 0 0 1-1.865776-48.19921V259.653811H528.657666v329.309444h-49.132098l-165.743091-255.922259a142.731855 142.731855 0 0 1-11.194656-22.078348 347.345278 347.345278 0 0 1 1.865776 46.022472v231.35621h-43.534771z"
    fill="#F92200"
    p-id="12144"
  ></path>
  <path
    d="M1132.858092 542.007896a250.324932 250.324932 0 0 0-5.597328-31.096265L1057.294168 259.653811h-40.736107l-71.210446 248.770119a179.736411 179.736411 0 0 0-7.152141 33.894928 155.481324 155.481324 0 0 0-5.286365-33.894928l-67.167932-248.770119h-48.199211l95.465533 329.309444h49.132099l66.856969-237.575463a164.810203 164.810203 0 0 0 5.90829-33.583966 148.640146 148.640146 0 0 0 5.286365 33.894929l66.235044 237.2645h49.754024l93.288795-329.309444H1203.446613l-64.680231 248.770119a184.711813 184.711813 0 0 0-5.90829 33.583966zM784.579926 297.591254V259.964774h-169.785606v328.998481h177.248709V551.336775h-134.646826v-110.702703h117.854843v-37.62648h-117.854843V297.591254h127.183723zM303.209747 357.607045a347.345278 347.345278 0 0 0-1.865776-46.644397 142.731855 142.731855 0 0 0 11.194655 21.456423l165.743091 255.922259H528.657666V259.653811h-40.736106v226.380808a421.976313 421.976313 0 0 0 1.865775 48.19921 215.808078 215.808078 0 0 0-13.682356-22.700273l-161.078652-251.879745H260.918826v329.309444h42.290921z"
    fill="#FFFFFF"
    p-id="12145"
  ></path>
</svg>