<svg
  t="1734459432355"
  class="icon"
  viewBox="0 0 1024 1024"
  version="1.1"
  xmlns="http://www.w3.org/2000/svg"
  p-id="6847"
  width="256"
  height="256"
>
  <path
    d="M925.42111193 76.71794111v44.23740645a22.08503694 22.08503694 0 0 1-22.2197007 22.08503694H62.82536766A22.08503694 22.08503694 0 0 1 40.67299953 120.95534756v-44.23740645a22.08503694 22.08503694 0 0 1 22.08503556-22.15236814h840.51070871c12.18716993 0 22.08503694 9.89786702 22.08503556 22.15236814zM783.34968741 337.36177354l7.13723757 6.26191568 169.00439613 169.07172865c29.0876094 29.0876094 31.78090628 75.41231969 6.26191568 107.66455252l-6.26191568 7.06990502-316.46241439 316.46241578a81.06824369 81.06824369 0 0 1-107.6645539 6.26191566l-7.06990501-6.26191566-169.00439611-169.00439612a81.06824369 81.06824369 0 0 1-6.32924823-107.6645539l6.26191567-7.06990501 316.46241437-316.46241438a81.06824369 81.06824369 0 0 1 107.73188646-6.32924824zM512 632.54714032l-84.83886017 84.97352529 158.63520256 158.63520256 84.83886017-84.90619273L512 632.54714032z m-272.22500931 85.51218439c12.2545025 0 22.1523695 9.96519957 22.15236949 22.1523695v44.23740507a22.08503694 22.08503694 0 0 1-22.15236949 22.08503694H62.75803509A22.08503694 22.08503694 0 0 1 40.67299953 784.44909928v-44.23740507c0-12.18716993 9.89786702-22.1523695 22.08503556-22.1523695h176.94962303z m493.47936996-306.63187992l-158.76986629 158.70253373 158.70253374 158.63520255 158.63520256-158.56786998-158.63520256-158.63520117V411.42744479zM313.36933537 496.93962918c12.2545025 0 22.1523695 9.89786702 22.15236954 22.08503693v44.23740506a22.08503694 22.08503694 0 0 1-22.15236954 22.15236952H62.75803509A22.08503694 22.08503694 0 0 1 40.67299953 563.26207117v-44.23740506c0-12.18716993 9.89786702-22.08503694 22.08503556-22.08503693h250.67863285z m221.18702811-221.18702811c12.18716993 0 22.1523695 9.89786702 22.1523695 22.08503695v44.23740507a22.08503694 22.08503694 0 0 1-22.1523695 22.1523695H62.75803509A22.08503694 22.08503694 0 0 1 40.67299953 342.07504309v-44.23740507c0-12.18716993 9.89786702-22.08503694 22.08503556-22.08503695h471.86566095z"
    fill="#FC6B79"
    p-id="6848"
  ></path>
</svg>