<svg
  t="1734527110444"
  class="icon"
  viewBox="0 0 1024 1024"
  version="1.1"
  xmlns="http://www.w3.org/2000/svg"
  p-id="8452"
  width="256"
  height="256"
>
  <path
    d="M0 0m240 0l544 0q240 0 240 240l0 544q0 240-240 240l-544 0q-240 0-240-240l0-544q0-240 240-240Z"
    fill="#242938"
    p-id="8453"
  ></path>
  <path
    d="M485.804 112.216c-1.72 0.156-7.196 0.704-12.124 1.092-113.624 10.244-220.056 71.556-287.468 165.788C148.68 331.492 124.668 390.924 115.6 453.88c-3.204 21.976-3.596 28.468-3.596 58.26 0 29.796 0.392 36.288 3.6 58.26 21.736 150.224 128.64 276.444 273.624 323.208 25.964 8.368 53.332 14.076 84.456 17.516 12.124 1.328 64.516 1.328 76.64 0 53.724-5.944 99.236-19.236 144.124-42.152 6.88-3.516 8.212-4.456 7.272-5.236-0.624-0.472-29.952-39.808-65.14-87.352l-63.968-86.412-80.16-118.632c-44.104-65.22-80.388-118.556-80.704-118.556-0.312-0.076-0.624 52.632-0.78 116.992-0.236 112.688-0.312 117.224-1.72 119.88-2.032 3.832-3.596 5.396-6.884 7.12-2.5 1.248-4.692 1.484-16.5 1.484h-13.528l-3.6-2.268a14.6 14.6 0 0 1-5.24-5.708l-1.64-3.52 0.16-156.792 0.232-156.872 2.424-3.052c1.252-1.64 3.912-3.752 5.788-4.768 3.204-1.564 4.456-1.72 17.984-1.72 15.956 0 18.612 0.624 22.76 5.16 1.172 1.252 44.572 66.628 96.5 145.376a356488 356488 0 0 0 157.808 239.06l63.344 95.956 3.208-2.112c28.384-18.456 58.416-44.732 82.188-72.104 50.596-58.104 83.208-128.952 94.156-204.496 3.204-21.972 3.596-28.464 3.596-58.26s-0.392-36.284-3.596-58.26c-21.74-150.224-128.644-276.44-273.628-323.204-25.572-8.292-52.784-14-83.284-17.44-7.508-0.784-59.2-1.64-65.688-1.016m163.752 241.956c3.752 1.876 6.804 5.472 7.9 9.224 0.624 2.036 0.78 45.516 0.624 143.5l-0.236 140.608-24.788-38.008-24.868-38.004v-102.208c0-66.08 0.312-103.228 0.78-105.028 1.252-4.376 3.988-7.816 7.744-9.852 3.204-1.64 4.38-1.8 16.656-1.8 11.576 0 13.608 0.16 16.188 1.568"
    fill="#FFFFFF"
    p-id="8454"
  ></path>
</svg>