<svg
  t="1745249542978"
  class="icon"
  viewBox="0 0 1024 1024"
  version="1.1"
  xmlns="http://www.w3.org/2000/svg"
  p-id="42932"
  width="256"
  height="256"
>
  <path
    d="M960 1002.666667H64a42.666667 42.666667 0 0 1-42.666667-42.666667V64a42.666667 42.666667 0 0 1 42.666667-42.666667h896a42.666667 42.666667 0 0 1 42.666667 42.666667v896a42.666667 42.666667 0 0 1-42.666667 42.666667z"
    fill="#8680D8"
    p-id="42933"
  ></path>
  <path
    d="M64 64h896v682.666667H64zM896 896H597.333333a21.333333 21.333333 0 1 1 0-42.666667h298.666667a21.333333 21.333333 0 1 1 0 42.666667z"
    fill="#5757B2"
    p-id="42934"
  ></path>
  <path
    d="M661.333333 896H128a21.333333 21.333333 0 1 1 0-42.666667h533.333333a21.333333 21.333333 0 1 1 0 42.666667z"
    fill="#EF8EC3"
    p-id="42935"
  ></path>
  <path
    d="M640 960c-47.04 0-85.333333-38.293333-85.333333-85.333333s38.293333-85.333333 85.333333-85.333334 85.333333 38.293333 85.333333 85.333334-38.293333 85.333333-85.333333 85.333333zM426.666667 554.666667a21.269333 21.269333 0 0 1-21.333334-21.333334V277.333333a21.333333 21.333333 0 0 1 33.173334-17.749333l192 128a21.333333 21.333333 0 0 1 0 35.498667l-192 128A21.333333 21.333333 0 0 1 426.666667 554.666667z"
    fill="#FFFFFF"
    p-id="42936"
  ></path>
</svg><svg
  t="1745249542978"
  class="icon"
  viewBox="0 0 1024 1024"
  version="1.1"
  xmlns="http://www.w3.org/2000/svg"
  p-id="42932"
  width="256"
  height="256"
>
  <path
    d="M960 1002.666667H64a42.666667 42.666667 0 0 1-42.666667-42.666667V64a42.666667 42.666667 0 0 1 42.666667-42.666667h896a42.666667 42.666667 0 0 1 42.666667 42.666667v896a42.666667 42.666667 0 0 1-42.666667 42.666667z"
    fill="#8680D8"
    p-id="42933"
  ></path>
  <path
    d="M64 64h896v682.666667H64zM896 896H597.333333a21.333333 21.333333 0 1 1 0-42.666667h298.666667a21.333333 21.333333 0 1 1 0 42.666667z"
    fill="#5757B2"
    p-id="42934"
  ></path>
  <path
    d="M661.333333 896H128a21.333333 21.333333 0 1 1 0-42.666667h533.333333a21.333333 21.333333 0 1 1 0 42.666667z"
    fill="#EF8EC3"
    p-id="42935"
  ></path>
  <path
    d="M640 960c-47.04 0-85.333333-38.293333-85.333333-85.333333s38.293333-85.333333 85.333333-85.333334 85.333333 38.293333 85.333333 85.333334-38.293333 85.333333-85.333333 85.333333zM426.666667 554.666667a21.269333 21.269333 0 0 1-21.333334-21.333334V277.333333a21.333333 21.333333 0 0 1 33.173334-17.749333l192 128a21.333333 21.333333 0 0 1 0 35.498667l-192 128A21.333333 21.333333 0 0 1 426.666667 554.666667z"
    fill="#FFFFFF"
    p-id="42936"
  ></path>
</svg>
