<svg
  t="1743230353684"
  class="icon"
  viewBox="0 0 1202 1024"
  version="1.1"
  xmlns="http://www.w3.org/2000/svg"
  p-id="10146"
  width="256"
  height="256"
>
  <path
    d="M1152.86547219 69.25530781a65.58374063 65.58374063 0 0 0-102.14436188-21.19218468L435.76900719 582.0621125a6.47249906 6.47249906 0 0 1-8.86593656-0.384375L207.70247563 355.73745594a65.58374063 65.58374063 0 0 0-104.92311 14.77781062L39.76718656 488.41431219a65.45155312 65.45155312 0 0 0 6.85687406 72.16030312l329.3390175 407.08588219A65.28842812 65.28842812 0 0 0 426.94713313 991.99986875h0.088125a65.28842812 65.28842812 0 0 0 51.01405593-24.47249625l666.73303406-828.8455125a65.02217906 65.02217906 0 0 0 8.08312407-69.42655219z"
    fill="#ffffff"
    p-id="10147"
  ></path>
</svg>
