<svg
  t="1734246057864"
  class="icon"
  viewBox="0 0 1024 1024"
  version="1.1"
  xmlns="http://www.w3.org/2000/svg"
  p-id="6672"
  width="256"
  height="256"
>
  <path
    d="M855.4 753.2c2.9 8.6 6.4 13 6.4 33.1 0 20 6.9 92.8-19.7 113.1-30.2 23.1-165.9 37-334 39.1-160.5 2-281.9-13.3-314.1-35.1-31-21-20-98.1-14.3-134.8 3.5-21.2 12-37.2 25.8-48.2 13.7-10.8 29.9-19.5 48.5-25.8s37.8-12 57.6-17.2 37.1-12.6 52-22.4c12-7.5 21.3-14.6 27.9-21.5s11.1-13.7 13.7-20.6c2.6-6.9 3.8-14 3.8-21.5s-0.3-15.4-0.9-24.1c-1.2-13.7-5.6-24.4-13.3-31.8-7.8-7.5-16.5-15.2-26.2-23.2-4.6-4-8.6-9.6-12-16.8-3.5-7.2-6.6-14.5-9.5-21.9-3-8.8-5.9-17.7-8.6-26.7-4-1.2-8.1-3.2-12-6-3.5-2.9-7.2-6.9-11.1-12-4-5.2-7.5-12.6-10.3-22.4-2.9-9.8-3.8-18.5-3-26.2 0.9-7.8 2.4-14.5 4.7-20.2 2.3-6.3 5.8-12.3 10.3-18-0.6-21.8 0.6-43.6 3.5-65.3 2.3-18.3 6.4-37.8 12.5-58.4s14.8-39.2 26.2-55.8c10.9-15.4 23-28.2 36.5-38.3 13.4-10.1 27.1-17.9 40.9-23.6 13.7-5.8 27.6-9.8 41.7-12 14-2.3 27.6-3.5 40.9-3.5 16.6 0 32.5 2 47.7 6s29.4 9.2 42.5 15.4c13.1 6.3 24.9 13.3 35.2 21 10.4 7.8 18.6 15.6 24.9 23.6 14.3 18.3 25 38.6 32.2 60.6s12.2 42.8 15.1 62.4c3.5 22.9 4.9 45.9 4.3 68.8 4 2.3 7.2 5.8 9.5 10.4 2.3 4 4.1 9.2 5.6 15.4 1.4 6.3 1.5 14 0.4 23.2-1.7 12-4.4 21.6-8.2 28.8s-7.9 12.8-12.5 16.8c-5.2 4.6-10.6 7.8-16.3 9.5-2.3 9.2-4.9 18-7.8 26.7-2.9 7.5-6.1 14.8-9.9 21.9-3.7 7.2-7.9 12.8-12.5 16.8-5.2 4.6-10.1 8.4-14.6 11.6-4.6 3.2-8.6 6.4-12 9.9-3.5 3.5-6.3 7.6-8.6 12.5s-4 10.7-5.2 17.7c-1.7 8.6-2.3 17.4-1.7 26.2 0.6 8.9 2.9 17.7 6.9 26.7s10.6 17.4 19.8 25.3c9.2 8.1 21.5 15.2 36.9 21.5 14.3 5.8 29.9 10.7 46.8 15.1 16.9 4.3 33.2 9.5 49 15.4 15.7 6 29.8 13.6 42.1 22.7 12.5 9.1 21.3 21.1 26.5 36.1z"
    fill="#FF556E"
    p-id="6673"
  ></path>
  <path
    d="M742.62755555 985.31555555c74.06933333-7.62311111 126.63466667-18.65955555 144.9528889-32.768 24.46222222-18.77333333 23.89333333-76.57244445 22.86933333-110.0231111-44.032 59.61955555-101.376 108.65777778-167.82222223 142.7911111zM129.36533333 837.85955555c-5.00622222 44.14577778-6.37155555 100.80711111 20.93511112 119.3528889 21.84533333 14.79111111 79.872 26.96533333 162.01955555 33.90577777-73.04533333-35.04355555-135.85066667-88.064-182.95466667-153.25866667zM451.584 35.38488889c-8.41955555 2.38933333-16.83911111 5.23377778-25.25866667 8.76088889-15.58755555 6.59911111-31.06133333 15.47377778-46.53511111 26.85155555-12.288 9.216-23.66577778 20.25244445-34.01955555 33.45066667 54.49955555-21.27644445 113.77777778-32.99555555 175.67288888-32.99555555 59.96088889 0 117.19111111 10.92266667 170.09777778 30.83377777-0.11377778-0.22755555-0.22755555-0.34133333-0.45511111-0.56888889-7.168-9.216-16.61155555-18.09066667-28.33066667-26.85155555-11.71911111-8.87466667-25.14488889-16.83911111-40.04977777-23.89333333-14.90488889-7.168-31.06133333-12.97066667-48.35555556-17.52177778-9.67111111-2.61688889-19.79733333-4.32355555-29.92355555-5.46133334H542.72c-30.94755555-0.11377778-61.44 2.50311111-91.136 7.39555556z"
    fill="#FF556E"
    p-id="6674"
  ></path>
  <path
    d="M500.50844445 949.36177778c-145.97688889 0-274.31822222-74.86577778-348.84266667-188.416-8.98844445 11.264-14.67733333 25.6-17.52177778 43.008-1.36533333 9.32977778-3.29955555 21.16266667-4.66488889 33.90577777 46.99022222 65.19466667 110.02311111 118.21511111 183.06844444 153.37244445 55.296 4.66488889 121.74222222 6.94044445 195.1288889 6.03022222 89.20177778-1.13777778 170.32533333-5.23377778 235.06488888-11.94666667 66.33244445-34.13333333 123.79022222-83.17155555 167.82222222-142.7911111-0.22755555-7.85066667-0.56888889-14.336-0.56888888-18.65955556 0-22.75555555-3.98222222-27.87555555-7.28177778-37.66044444-5.91644445-16.95288889-15.81511111-30.72-29.80977778-41.07377778-3.18577778-2.27555555-6.48533333-4.55111111-9.67111111-6.71288889-72.02133333 125.952-207.41688889 210.944-362.72355555 210.944zM345.88444445 104.448c-2.50311111 3.29955555-5.00622222 6.59911111-7.50933334 10.01244445-9.32977778 13.53955555-17.06666667 28.10311111-23.09688889 44.032 55.75111111-27.648 118.67022222-43.23555555 185.23022223-43.23555556 86.016 0 165.888 25.94133333 232.22044444 70.656-1.36533333-4.89244445-2.95822222-9.89866667-4.55111111-15.01866667-8.07822222-24.91733333-20.13866667-47.67288889-36.18133333-68.38044444-53.02044445-19.91111111-110.36444445-30.83377778-170.21155556-30.83377778-62.12266667-0.11377778-121.40088889 11.60533333-175.90044444 32.768z"
    fill="#FF5F71"
    p-id="6675"
  ></path>
  <path
    d="M479.34577778 860.04622222c-111.95733333 0-211.74044445-52.56533333-275.91111111-134.37155555-14.79111111 6.37155555-28.10311111 14.22222222-39.936 23.43822222-4.32355555 3.52711111-8.30577778 7.39555555-11.83288889 11.83288889 74.52444445 113.55022222 202.86577778 188.416 348.84266667 188.416 155.30666667 0 290.70222222-84.87822222 362.60977777-210.83022223-11.60533333-7.39555555-24.23466667-13.88088889-38.22933333-19.22844444-17.06666667-6.59911111-34.70222222-12.06044445-52.90666667-16.95288889-62.80533333 95.11822222-170.43911111 157.696-292.63644444 157.696zM315.27822222 158.60622222c-2.50311111 6.37155555-4.66488889 12.85688889-6.71288889 19.56977778-2.95822222 10.01244445-5.46133333 20.02488889-7.62311111 29.58222222 52.224-30.83377778 113.20888889-48.69688889 178.28977778-48.69688889 108.77155555 0 206.05155555 49.60711111 270.336 127.31733334-0.79644445-14.79111111-2.16177778-29.80977778-4.43733333-44.60088889-2.61688889-17.63555555-6.71288889-36.29511111-12.40177778-55.86488889-66.33244445-44.60088889-146.20444445-70.656-232.22044444-70.656-66.56 0-129.47911111 15.58755555-185.23022223 43.34933333z"
    fill="#FF6974"
    p-id="6676"
  ></path>
  <path
    d="M479.34577778 158.94755555c-65.19466667 0-126.06577778 17.74933333-178.28977778 48.6968889-2.84444445 12.74311111-5.00622222 25.14488889-6.59911111 36.97777777-0.45511111 3.64088889-0.91022222 7.168-1.36533334 10.80888889 46.53511111-33.22311111 103.424-52.79288889 164.97777778-52.79288889 138.46755555 0 253.72444445 99.10044445 278.98311112 230.28622223 2.38933333-1.47911111 4.77866667-3.41333333 7.168-5.46133334 5.23377778-4.55111111 9.89866667-10.92266667 14.22222222-19.11466666 4.20977778-8.192 7.28177778-19.11466667 9.32977778-32.768 1.36533333-10.46755555 1.13777778-19.22844445-0.45511112-26.39644445-1.59288889-7.168-3.75466667-12.97066667-6.37155555-17.52177778-2.61688889-5.23377778-6.25777778-9.216-10.80888889-11.83288889 0.34133333-11.264 0.11377778-22.41422222-0.45511111-33.56444444-64.28444445-77.824-161.56444445-127.31733333-270.336-127.31733334zM458.18311111 770.61688889c-70.20088889 0-134.48533333-25.48622222-183.97866666-67.69777778-19.00088889 5.12-37.43288889 10.80888889-55.40977778 16.83911111-5.23377778 1.70666667-10.35377778 3.75466667-15.24622222 5.80266667 64.17066667 81.69244445 163.95377778 134.37155555 275.9111111 134.37155556 122.19733333 0 229.94488889-62.69155555 292.63644445-157.46844445-1.024-0.22755555-1.82044445-0.56888889-2.84444445-0.79644445-19.22844445-4.89244445-36.97777778-10.58133333-53.248-17.18044444-14.67733333-6.03022222-26.73777778-12.51555555-36.40888888-20.02488889-52.33777778 64.85333333-132.096 106.15466667-221.41155556 106.15466667z"
    fill="#FF7377"
    p-id="6677"
  ></path>
  <path
    d="M458.18311111 202.63822222c-61.55377778 0-118.55644445 19.56977778-164.97777778 52.79288889-1.70666667 15.92888889-2.61688889 31.744-2.73066666 47.67288889 38.68444445-35.27111111 90.112-56.77511111 146.54577778-56.77511111 120.14933333 0 217.54311111 97.39377778 217.5431111 217.54311111S557.16977778 681.41511111 436.90666667 681.41511111c-28.33066667 0-55.40977778-5.46133333-80.32711112-15.24622222-3.98222222 2.95822222-8.53333333 5.91644445-13.312 8.87466666-16.95288889 11.15022222-36.63644445 19.56977778-59.16444444 25.48622223-3.41333333 0.91022222-6.71288889 1.82044445-10.01244444 2.73066667 49.49333333 42.21155555 113.77777778 67.69777778 183.97866666 67.69777777 89.42933333 0 169.18755555-41.41511111 221.184-105.92711111-1.93422222-1.47911111-3.86844445-2.95822222-5.57511111-4.43733333-10.46755555-9.216-17.86311111-18.77333333-22.528-28.78577778-4.55111111-10.12622222-7.168-20.13866667-7.85066667-30.37866667-0.68266667-10.12622222 0-20.13866667 1.93422223-29.80977778 1.36533333-7.85066667 3.29955555-14.56355555 5.91644444-20.13866666s5.91644445-10.24 9.78488889-14.22222222c3.98222222-3.98222222 8.53333333-7.62311111 13.65333334-11.264 5.23377778-3.64088889 10.80888889-7.96444445 16.61155555-13.19822222 5.23377778-4.55111111 9.89866667-10.92266667 14.22222222-19.11466667 4.20977778-8.07822222 7.96444445-16.384 11.264-24.91733333 3.29955555-9.78488889 6.25777778-19.91111111 8.87466667-30.37866667 3.98222222-1.25155555 7.73688889-2.95822222 11.49155556-5.34755556-25.14488889-131.18577778-140.40177778-230.4-278.86933334-230.4z"
    fill="#FF7E7A"
    p-id="6678"
  ></path>
  <path
    d="M654.44977778 463.872c0-120.14933333-97.39377778-217.54311111-217.54311111-217.54311111-56.43377778 0-107.97511111 21.504-146.54577778 56.77511111 0 5.23377778 0 10.58133333 0.11377778 15.81511111-5.23377778 6.59911111-9.216 13.312-11.71911112 20.48-2.61688889 6.59911111-4.32355555 14.22222222-5.34755555 22.98311111-0.79644445 7.05422222-0.22755555 14.79111111 1.70666667 23.32444445 22.07288889-56.09244445 76.68622222-95.80088889 140.62933333-95.80088889 83.39911111 0 151.09688889 67.584 151.09688889 151.09688889s-67.584 151.09688889-151.09688889 151.09688888c-7.05422222 0-14.10844445-0.56888889-20.82133333-1.36533333 0.11377778 4.096 0.22755555 8.07822222 0.22755555 11.94666667 0 8.53333333-1.36533333 16.61155555-4.32355555 24.46222222s-8.192 15.58755555-15.58755556 23.43822222c-4.77866667 5.00622222-11.03644445 10.24-18.432 15.58755556 24.91733333 9.89866667 51.99644445 15.24622222 80.32711111 15.24622222 120.03555555 0 217.31555555-97.39377778 217.31555556-217.54311111z"
    fill="#FF887D"
    p-id="6679"
  ></path>
  <path
    d="M566.84088889 441.11644445c0-83.39911111-67.584-151.09688889-151.09688889-151.0968889-63.94311111 0-118.67022222 39.70844445-140.62933333 95.8008889 0.45511111 2.048 1.024 4.20977778 1.59288888 6.48533333 3.29955555 11.15022222 7.168 19.56977778 11.71911112 25.48622222 4.55111111 5.91644445 8.87466667 10.46755555 12.62933333 13.65333333 4.55111111 3.29955555 9.216 5.57511111 13.65333333 6.82666667 3.18577778 10.12622222 6.48533333 20.13866667 9.78488889 30.37866667 3.29955555 8.41955555 6.82666667 16.83911111 10.80888889 24.91733333 3.98222222 8.192 8.53333333 14.56355555 13.65333334 19.11466667 11.15022222 9.216 21.04888889 17.86311111 29.80977777 26.39644444 8.87466667 8.53333333 13.88088889 20.48 15.13244445 36.18133334 0.34133333 5.34755555 0.68266667 10.46755555 0.79644444 15.47377777 6.71288889 1.024 13.76711111 1.36533333 20.82133334 1.36533333 83.62666667-0.11377778 151.32444445-67.69777778 151.32444444-150.9831111z"
    fill="#FF9280"
    p-id="6680"
  ></path>
  <path
    d="M475.47733333 1007.72977778c-75.66222222 0-145.18044445-3.41333333-202.52444444-10.12622223-44.82844445-5.23377778-103.53777778-14.90488889-128.45511111-31.85777777-37.09155555-25.14488889-30.49244445-100.57955555-20.59377778-163.38488889 4.32355555-26.73777778 15.47377778-47.21777778 33.10933333-61.21244444 16.49777778-13.08444445 36.06755555-23.43822222 58.25422222-31.06133334 20.70755555-7.05422222 42.32533333-13.53955555 66.21866667-19.79733333 21.504-5.68888889 40.39111111-13.76711111 56.09244445-24.12088889l0.22755555-0.11377778c13.19822222-8.192 22.98311111-15.70133333 29.80977778-22.86933333 6.59911111-6.82666667 10.92266667-13.312 13.42577778-20.02488889 2.50311111-6.71288889 3.75466667-13.53955555 3.75466667-20.82133334 0-8.30577778-0.34133333-16.95288889-0.91022223-26.624-1.13777778-13.19822222-5.12-22.86933333-12.06044444-29.58222222-8.192-7.85066667-17.74933333-16.384-29.24088889-25.94133333l-0.22755556-0.11377778c-6.37155555-5.57511111-11.83288889-13.19822222-16.15644444-22.528-3.98222222-8.30577778-7.73688889-16.83911111-11.03644444-25.48622222l-0.11377778-0.45511111c-2.73066667-8.192-5.57511111-16.72533333-8.41955556-25.71377778-3.86844445-1.59288889-7.73688889-3.86844445-11.49155556-6.59911111l-0.4551111-0.45511111c-4.55111111-3.75466667-9.32977778-8.87466667-14.22222223-15.24622222-5.57511111-7.05422222-9.89866667-16.61155555-13.42577777-28.89955556-3.64088889-12.17422222-4.89244445-23.552-3.75466667-33.792 1.13777778-9.89866667 3.072-18.20444445 5.91644444-25.48622222 2.50311111-6.94044445 6.144-13.65333333 10.92266667-20.13866667-0.45511111-24.00711111 0.91022222-48.35555555 4.096-72.36266667 2.73066667-21.39022222 7.62311111-44.37333333 14.56355556-68.0391111 7.168-24.34844445 17.63555555-46.76266667 31.1751111-66.44622223l0.11377778-0.11377777c13.312-18.77333333 27.648-33.792 43.80444445-45.85244445 15.92888889-11.94666667 32.31288889-21.39022222 48.69688889-28.10311111 16.384-6.82666667 33.10933333-11.71911111 49.72088888-14.336 16.384-2.73066667 32.54044445-4.096 48.128-4.096 19.68355555 0 38.79822222 2.38933333 56.8888889 7.168 17.63555555 4.66488889 34.58844445 10.80888889 50.06222222 18.20444444 15.70133333 7.62311111 29.80977778 15.92888889 41.75644444 24.91733334 12.288 9.216 22.41422222 18.88711111 30.26488889 28.672 16.95288889 21.73155555 29.80977778 45.96622222 38.34311111 72.13511111 8.30577778 25.37244445 14.22222222 49.83466667 17.52177778 72.59022222 3.75466667 24.68977778 5.46133333 49.72088889 5.12 74.52444445 3.86844445 3.18577778 7.05422222 7.28177778 9.44355556 12.17422222 2.95822222 5.34755555 5.34755555 11.94666667 7.28177777 20.13866666 1.93422222 8.30577778 2.048 18.20444445 0.56888889 30.03733334v0.22755555c-2.16177778 15.01866667-5.57511111 26.85155555-10.35377778 35.95377778-4.89244445 9.44355555-10.35377778 16.61155555-16.49777778 22.07288889-5.34755555 4.77866667-10.92266667 8.41955555-16.72533333 10.80888889-2.27555555 8.64711111-4.77866667 17.18044445-7.73688889 25.82755555l-0.11377778 0.45511112c-3.52711111 9.10222222-7.50933333 17.86311111-11.7191111 25.94133333-4.89244445 9.32977778-10.24 16.61155555-16.49777778 22.07288889-5.80266667 5.12-11.60533333 9.78488889-17.408 13.88088888-5.00622222 3.41333333-8.98844445 6.71288889-12.17422222 10.01244445l-0.11377778 0.11377778c-3.18577778 3.18577778-5.68888889 6.82666667-7.85066667 11.264-2.16177778 4.66488889-3.86844445 10.58133333-5.00622222 17.408l-0.11377778 0.34133333c-1.82044445 8.87466667-2.38933333 17.97688889-1.82044445 27.07911111 0.56888889 8.87466667 2.84444445 17.63555555 6.94044445 26.73777778 3.98222222 8.87466667 10.69511111 17.29422222 19.79733333 25.25866667 9.44355555 8.30577778 22.64177778 15.92888889 39.25333334 22.75555555 15.36 6.25777778 32.88177778 11.83288889 51.88266666 16.72533333 19.11466667 4.89244445 38.22933333 10.92266667 56.88888889 17.86311112 18.88711111 7.28177778 35.84 16.384 50.40355556 27.19288888 15.70133333 11.49155555 26.96533333 26.96533333 33.45066667 45.96622223v0.11377777c0.56888889 1.70666667 1.13777778 3.18577778 1.82044444 4.89244445 2.95822222 7.73688889 6.03022222 15.70133333 6.03022222 35.95377778 0 2.95822222 0.11377778 7.28177778 0.34133334 12.17422222 1.25155555 35.49866667 3.52711111 101.48977778-26.73777778 124.58666667-18.20444445 13.88088889-64.05688889 25.14488889-136.192 33.22311111-66.67377778 7.50933333-153.03111111 12.17422222-249.856 13.312-10.69511111 0.91022222-21.39022222 1.024-32.08533334 1.024z m-126.74844444-324.26666667c-17.52177778 11.49155555-38.45688889 20.48-62.12266667 26.73777778-23.43822222 6.144-44.60088889 12.40177778-64.73955555 19.34222222-19.91111111 6.82666667-37.54666667 16.15644445-52.224 27.648-13.65333333 10.80888889-22.07288889 26.624-25.6 48.35555556-3.86844445 24.91733333-7.85066667 54.04444445-7.39555556 81.57866666 0.45511111 32.08533333 7.168 53.47555555 19.34222222 61.66755556 29.696 20.13866667 152.34844445 40.61866667 351.45955556 38.22933333 196.72177778-2.50311111 343.49511111-19.11466667 373.98755556-42.43911111 21.84533333-16.72533333 19.68355555-80.44088889 18.65955555-107.63377778-0.22755555-5.12-0.34133333-9.55733333-0.34133333-12.97066666 0-16.49777778-2.16177778-22.07288889-4.66488889-28.672-0.68266667-1.82044445-1.36533333-3.64088889-2.048-5.68888889-5.23377778-15.13244445-13.88088889-26.96533333-26.28266667-36.06755556-13.08444445-9.78488889-28.44444445-17.97688889-45.51111111-24.576-17.86311111-6.71288889-36.29511111-12.51555555-54.61333333-17.18044444-19.91111111-5.12-38.22933333-11.03644445-54.49955556-17.52177778-19.00088889-7.73688889-33.67822222-16.384-44.94222222-26.28266667-11.37777778-9.89866667-19.79733333-20.70755555-25.03111111-32.31288888-5.12-11.37777778-7.96444445-22.528-8.76088889-33.90577778-0.68266667-10.80888889 0-21.73155555 2.16177778-32.31288889 1.47911111-8.76088889 3.64088889-16.15644445 6.71288888-22.64177778s7.05422222-12.288 11.8328889-17.06666667c4.096-4.20977778 9.10222222-8.30577778 15.13244444-12.51555555 5.12-3.52711111 10.35377778-7.73688889 15.58755556-12.40177778 4.32355555-3.75466667 8.30577778-9.216 11.94666666-16.15644445 3.86844445-7.39555555 7.50933333-15.36 10.69511111-23.66577777 3.29955555-9.78488889 6.03022222-19.456 8.53333333-29.35466667l1.36533334-5.68888889 5.57511111-1.70666667c5.00622222-1.47911111 9.89866667-4.32355555 14.67733333-8.6471111 4.32355555-3.75466667 8.30577778-9.216 11.94666667-16.15644445 3.64088889-7.05422222 6.37155555-16.83911111 8.192-29.35466667 1.13777778-9.216 1.024-16.95288889-0.22755555-22.75555555-1.47911111-6.25777778-3.18577778-11.15022222-5.23377778-14.79111111l-0.22755556-0.45511112c-1.70666667-3.41333333-3.86844445-5.91644445-6.71288889-7.50933333l-5.34755555-3.072 0.11377778-6.144c0.68266667-25.37244445-1.024-51.08622222-4.77866667-76.45866667-3.18577778-21.73155555-8.87466667-44.94222222-16.72533333-69.29066666-7.85066667-23.89333333-19.56977778-46.08-35.04355556-65.87733334-6.71288889-8.41955555-15.58755555-16.83911111-26.39644444-24.91733333-10.92266667-8.192-23.89333333-15.92888889-38.34311112-22.86933333-14.336-6.82666667-30.03733333-12.51555555-46.53511111-16.95288889-16.27022222-4.32355555-33.67822222-6.48533333-51.65511111-6.48533333-14.44977778 0-29.46844445 1.25155555-44.82844444 3.75466666-15.13244445 2.38933333-30.26488889 6.71288889-45.16977778 12.97066667-14.90488889 6.144-29.80977778 14.67733333-44.25955556 25.6-14.44977778 10.69511111-27.30666667 24.23466667-39.36711111 41.18755555-12.288 17.86311111-21.84533333 38.22933333-28.33066667 60.52977778-6.59911111 22.64177778-11.264 44.48711111-13.88088888 64.85333334-3.18577778 24.23466667-4.43733333 48.69688889-3.86844445 72.81777778l0.11377778 3.64088888-2.27555555 2.84444445c-4.66488889 5.91644445-7.96444445 11.71911111-10.12622223 17.74933333l-0.11377777 0.34133334c-2.27555555 5.57511111-3.75466667 12.288-4.6648889 20.36622222-0.79644445 7.39555555 0.22755555 16.15644445 3.072 25.82755555 2.73066667 9.67111111 6.144 17.06666667 9.89866667 22.07288889 3.98222222 5.12 7.62311111 9.10222222 10.92266667 11.83288889 3.41333333 2.38933333 6.82666667 4.096 10.12622222 5.12l5.34755556 1.47911111 1.59288888 5.23377778c3.29955555 10.46755555 6.48533333 20.48 9.67111112 29.92355556 3.18577778 8.07822222 6.59911111 16.15644445 10.35377778 24.0071111 3.18577778 6.82666667 6.82666667 12.06044445 11.03644444 15.70133334 11.83288889 9.89866667 21.73155555 18.65955555 30.26488889 26.85155556 10.58133333 10.24 16.72533333 24.576 18.31822222 42.78044444v0.22755556c0.68266667 10.12622222 1.024 19.34222222 1.024 28.1031111 0 9.89866667-1.59288889 19.00088889-5.00622222 27.98933334-3.52711111 9.216-9.32977778 18.09066667-17.74933333 26.96533333-8.41955555 8.53333333-19.34222222 17.06666667-34.01955556 26.16888889z"
    fill="#EF4868"
    p-id="6681"
  ></path>
  <path
    d="M546.58844445 681.64266667l22.07288888-22.07288889c4.89244445-4.89244445 3.52711111-12.97066667-2.50311111-16.27022223l-34.58844444-17.8631111c-7.96444445-4.20977778-17.52177778-4.20977778-25.6 0l-34.58844445 17.8631111c-6.144 3.072-7.39555555 11.37777778-2.50311111 16.27022223l22.07288889 22.07288889c6.82666667 6.82666667 9.44355555 16.95288889 6.59911111 26.28266666l-50.63111111 165.54666667c-3.52711111 11.71911111-0.91022222 24.34844445 6.94044444 33.792l53.248 63.26044445c6.25777778 7.39555555 17.63555555 7.39555555 23.89333334 0l53.248-63.26044445c7.85066667-9.32977778 10.46755555-22.07288889 6.94044444-33.792l-50.63111111-165.54666667c-3.41333333-9.32977778-0.91022222-19.56977778 6.03022223-26.28266666zM619.17866667 405.84533333c16.15644445 0 27.76177778 15.70133333 22.86933333 31.06133334-15.01866667 49.03822222-64.62577778 84.992-123.56266667 84.992S410.05511111 485.83111111 394.92266667 436.90666667c-4.66488889-15.47377778 6.71288889-31.06133333 22.86933333-31.06133334h201.38666667z"
    fill="#FFC7C7"
    p-id="6682"
  ></path>
  <path
    d="M367.72977778 264.64711111c-11.264 0-20.48-9.10222222-20.48-20.48 0-3.98222222 0.91022222-99.55555555 100.80711111-153.25866666 10.01244445-5.34755555 22.41422222-1.59288889 27.76177778 8.30577777 5.34755555 9.89866667 1.59288889 22.41422222-8.30577778 27.76177778-78.50666667 42.21155555-79.30311111 116.28088889-79.30311111 117.07733333 0.11377778 11.37777778-9.10222222 20.59377778-20.48 20.59377778 0.11377778 0 0.11377778 0 0 0zM355.78311111 344.86044445c-11.15022222-1.36533333-19.22844445-11.49155555-17.86311111-22.75555556l1.36533333-11.83288889c1.36533333-11.15022222 11.49155555-19.22844445 22.75555556-17.86311111 11.15022222 1.36533333 19.22844445 11.49155555 17.86311111 22.75555556l-1.36533333 11.83288888c-1.25155555 11.15022222-11.37777778 19.11466667-22.75555556 17.86311112z"
    fill="#FFFFFF"
    p-id="6683"
  ></path>
</svg>