<svg
  t="1739123270772"
  class="icon"
  viewBox="0 0 1025 1024"
  version="1.1"
  xmlns="http://www.w3.org/2000/svg"
  p-id="8815"
  width="256"
  height="256"
>
  <path
    d="M1012.96877 417.7L579.46877 75.1c-37.3-29.6-95.9-29.5-133.2 0L12.96877 417.7c-14.8 11.7-17.3 33.3-5.6 48 11.7 14.8 32.7 17.3 47.6 5.6l13.5-11.1v414.3c0 58.7 61.9 102.6 116.3 102.6h684c53.8 0 88.9-41.3 88.9-102.6V462l12.5 9.5c6.3 5 14 7.4 21.4 7.4 10.1 0 20.2-4.4 27-13 11.6-14.9 9.2-36.4-5.6-48.2z"
    fill="#4F46A3"
    p-id="8816"
  ></path>
  <path
    d="M547.06877 908.8h-68.4v-0.1"
    fill="#272636"
    p-id="8817"
  ></path>
  <path
    d="M410.46877 907.3c0 0.5 0.9 0.9 0.9 1.4H184.56877c-21.4 0-47.9-18.5-47.9-34.2V406.3l351.5-277.4c12.6-10 35.4-10 48.1 0L889.06877 408l0.1 466.6c0 22.7-6.3 34.2-20.5 34.2H616.26877c0-0.5-0.7-0.9-0.7-1.4"
    fill="#FF4893"
    p-id="8818"
  ></path>
  <path
    d="M600.96877 910c0.1-53.8 0.5-156.9 2-217 2-84-66-74-114-80s-72 52-72 52l1.8 245H600.96877z"
    fill="#5ECEFF"
    p-id="8819"
  ></path>
  <path
    d="M457.06877 671.8c0-15.4 28.2-23.6 56.3-23.6 28.2 0 56.3 7.7 56.3 23.6v238.1h67.6c0-0.5-1-1-1-1.5V680.5c0-48.1-38.9-99.8-124.4-99.8s-124.4 51.7-124.4 99.8v227.8c0 0.5 1 1 1 1.5h67.6v-238h1z"
    fill="#4F46A3"
    p-id="8820"
  ></path>
</svg>
