<svg
  t="1743177526195"
  class="icon"
  viewBox="0 0 1024 1024"
  version="1.1"
  xmlns="http://www.w3.org/2000/svg"
  p-id="9308"
  width="256"
  height="256"
>
  <path
    d="M265.362286 38.180571h475.062857c49.883429 0 81.261714 53.686857 56.978286 97.133715L680.448 352.914286c-13.165714 24.429714 4.608 54.125714 32.329143 54.125714h109.714286c38.180571 0 55.808 47.542857 26.770285 72.265143l-571.757714 490.861714c-37.156571 31.890286-93.257143-2.413714-81.92-49.956571L274.285714 589.165714a35.328 35.328 0 0 0-34.962285-40.448H177.737143a35.254857 35.254857 0 0 1-35.254857-38.034285l28.745143-385.097143A94.354286 94.354286 0 0 1 265.362286 38.180571z"
    fill="#FEAC33"
    p-id="9309"
  ></path>
  <path
    d="M797.403429 135.314286A65.170286 65.170286 0 0 0 740.425143 38.180571H627.858286A473.234286 473.234286 0 0 1 796.525714 136.996571l0.950857-1.682285zM265.362286 38.180571A94.354286 94.354286 0 0 0 171.227429 125.586286l-0.146286 1.828571A471.04 471.04 0 0 1 328.777143 38.180571h-63.414857z m12.141714 931.986286l43.666286-37.449143a474.697143 474.697143 0 0 1-114.541715-59.099428l-11.117714 46.518857a49.005714 49.005714 0 0 0 4.681143 35.986286c14.116571 9.362286 28.598857 18.139429 43.593143 26.331428a48.420571 48.420571 0 0 0 33.645714-12.288z"
    fill="#FEAC33"
    p-id="9310"
  ></path>
  <path
    d="M457.581714 56.685714a406.674286 406.674286 0 0 1 307.126857 139.410286l31.744-59.099429A472.210286 472.210286 0 0 0 627.858286 38.180571h-299.154286c-58.514286 19.529143-111.908571 50.029714-157.769143 89.234286l-3.730286 50.761143A406.966857 406.966857 0 0 1 457.581714 56.685714z m-60.781714 811.154286a405.577143 405.577143 0 0 1-172.470857-68.900571l-17.846857 74.752a472.502857 472.502857 0 0 0 114.541714 59.099428l75.776-65.024z"
    fill="#FEB133"
    p-id="9311"
  ></path>
  <path
    d="M436.882286 99.474286a342.308571 342.308571 0 0 1 292.059428 163.254857l35.766857-66.56A406.674286 406.674286 0 0 0 457.581714 56.905143a406.454857 406.454857 0 0 0-290.304 121.417143l-4.315428 58.075428A341.869714 341.869714 0 0 1 436.882286 99.474286z m323.584 456.045714l88.795428-76.214857a41.106286 41.106286 0 0 0-26.770285-72.338286h-44.617143a342.162286 342.162286 0 0 1-17.408 148.553143z m-260.388572 223.597714a340.918857 340.918857 0 0 1-257.974857-54.857143l-17.773714 74.678858c50.468571 35.254857 108.982857 59.318857 172.470857 68.827428l103.350857-88.649143z"
    fill="#FEB633"
    p-id="9312"
  ></path>
  <path
    d="M142.482286 510.756571a35.254857 35.254857 0 0 0 27.209143 37.010286 279.405714 279.405714 0 0 1-24.868572-68.754286l-2.340571 31.744z m273.773714-368.64a278.016 278.016 0 0 1 267.849143 204.141715l44.909714-83.529143A342.674286 342.674286 0 0 0 162.962286 236.251429L156.672 321.097143a277.577143 277.577143 0 0 1 259.584-178.907429z m83.894857 637.001143l260.315429-223.597714a341.723429 341.723429 0 0 0 17.334857-148.48h-65.024c-7.314286 0-13.897143-2.194286-19.529143-5.705143a277.723429 277.723429 0 0 1-433.371429 247.954286L242.102857 724.187429c55.369143 38.253714 122.441143 60.708571 194.779429 60.708571 21.723429 0.073143 42.861714-1.974857 63.268571-5.705143z"
    fill="#FFBC34"
    p-id="9313"
  ></path>
  <path
    d="M693.979429 419.84c0-6.144-0.292571-12.288-0.585143-18.285714a36.644571 36.644571 0 0 1-12.8-48.493715l3.510857-6.656a277.869714 277.869714 0 0 0-527.36-25.380571L144.822857 479.085714c5.266286 24.210286 13.750857 47.323429 24.868572 68.754286a36.571429 36.571429 0 0 0 8.045714 0.950857h61.586286c2.633143 0 5.12 0.219429 7.606857 0.804572a212.626286 212.626286 0 1 1 25.014857 20.992 35.84 35.84 0 0 1 2.267428 18.578285l-14.262857 60.196572A277.650286 277.650286 0 0 0 693.979429 419.84z"
    fill="#FFC134"
    p-id="9314"
  ></path>
  <path
    d="M608.256 397.458286a212.626286 212.626286 0 1 0-361.398857 151.990857 35.620571 35.620571 0 0 1 25.234286 21.211428 212.699429 212.699429 0 0 0 336.091428-173.129142zM227.108571 375.222857a147.602286 147.602286 0 1 1 295.277715 0 147.602286 147.602286 0 1 1-295.277715 0z"
    fill="#FFC634"
    p-id="9315"
  ></path>
  <path
    d="M227.108571 375.222857a147.675429 147.675429 0 1 0 295.277715 0 147.675429 147.675429 0 0 0-295.277715 0z"
    fill="#FFCB34"
    p-id="9316"
  ></path>
  <path
    d="M244.662857 992.914286a60.050286 60.050286 0 0 1-31.744-9.142857 59.757714 59.757714 0 0 1-27.428571-65.974858l78.628571-330.605714a25.161143 25.161143 0 0 0-24.868571-28.233143H177.517714a46.08 46.08 0 0 1-45.568-49.005714l28.672-385.170286A104.521143 104.521143 0 0 1 265.142857 27.794286H740.205714c27.062857 0 51.419429 13.897143 65.097143 37.302857 13.750857 23.405714 14.043429 51.492571 0.731429 75.044571L689.517714 357.668571a26.185143 26.185143 0 0 0 0.512 26.038858c4.827429 8.045714 13.312 12.873143 22.674286 12.873142h109.714286c21.723429 0 40.667429 13.165714 48.274285 33.645715a50.761143 50.761143 0 0 1-14.921142 56.758857l-571.684572 491.008a60.342857 60.342857 0 0 1-39.424 14.848zM265.362286 48.493714A84.041143 84.041143 0 0 0 181.467429 126.317714L152.868571 511.561143a24.868571 24.868571 0 0 0 25.014858 26.843428h61.586285a45.494857 45.494857 0 0 1 45.202286 52.224l-0.219429 0.950858-78.774857 331.044571a39.058286 39.058286 0 0 0 18.139429 43.52c11.995429 7.314286 30.72 10.24 47.104-3.730286l571.757714-490.861714a30.134857 30.134857 0 0 0 8.923429-34.084571 30.134857 30.134857 0 0 0-28.891429-20.114286h-109.714286a46.665143 46.665143 0 0 1-40.374857-22.820572 46.665143 46.665143 0 0 1-1.024-46.445714L788.48 130.267429a54.564571 54.564571 0 0 0-0.512-54.637715 54.345143 54.345143 0 0 0-47.396571-27.136H265.362286z"
    fill="#FFA820"
    p-id="9317"
  ></path>
  <path
    d="M612.571429 341.723429l-43.666286 84.187428a11.702857 11.702857 0 0 0 10.386286 17.188572h71.533714c14.116571 0 21.065143 17.042286 10.971428 26.843428L501.174857 628.443429c-5.851429 5.705143-15.433143-0.438857-12.580571-8.045715l31.305143-84.114285a11.264 11.264 0 0 0-10.532572-15.140572h-58.294857a26.185143 26.185143 0 0 1-25.673143-30.939428l28.306286-151.698286a39.862857 39.862857 0 0 1 39.350857-32.475429l98.157714 0.365715a24.137143 24.137143 0 0 1 21.357715 35.328z"
    fill="#FFE3B4"
    p-id="9318"
  ></path>
  <path
    d="M242.468571 295.862857c-14.848-0.731429-26.038857-10.459429-25.161142-21.942857l12.288-141.458286c1.024-11.337143 13.750857-19.894857 28.745142-19.236571 14.921143 0.731429 26.038857 10.532571 25.088 21.942857l-12.214857 141.531429c-1.097143 11.410286-13.897143 19.968-28.745143 19.163428zM235.52 375.296c-14.848-0.731429-26.112-10.532571-25.161143-21.942857l1.024-11.995429c1.024-11.264 13.750857-19.894857 28.745143-19.163428 14.848 0.731429 26.038857 10.459429 25.161143 21.942857l-1.097143 11.995428c-1.024 11.264-13.897143 19.894857-28.672 19.163429z"
    fill="#FFFFFF"
    p-id="9319"
  ></path>
</svg>
