<?xml version="1.0" standalone="no"?><!DOCTYPE svg PUBLIC "-//W3C//DTD SVG 1.1//EN" "http://www.w3.org/Graphics/SVG/1.1/DTD/svg11.dtd"><svg t="1745597482515" class="icon" viewBox="0 0 1024 1024" version="1.1" xmlns="http://www.w3.org/2000/svg" p-id="11645" xmlns:xlink="http://www.w3.org/1999/xlink" width="256" height="256"><path d="M80.0643603 530.64135111l286.30008415-293.21291852a197.90901097 197.90901097 0 0 1 283.1931923 0l3.10689184 3.2234003a202.95771022 202.95771022 0 0 1 0 283.62038993l-286.30008414 293.17408236a197.90901097 197.90901097 0 0 1-283.1931923 0l-3.10689185-3.18456415a202.95771022 202.95771022 0 0 1 0-283.62038992z" fill="#12D2AC" p-id="11646"></path><path d="M649.79065363 237.42843259l283.19319229 290.02835438a207.5403757 207.5403757 0 0 1 0 289.98951821 197.90901097 197.90901097 0 0 1-283.19319229 0l-283.1931923-289.98951821a207.5403757 207.5403757 0 0 1 0-289.98951822 197.90901097 197.90901097 0 0 1 283.1931923 0z" fill="#165DFF" p-id="11647"></path><path d="M653.05289008 241.00135822l137.98483437 141.28590696-283.1931923 289.98951823-283.1931923-289.98951823 137.98483437-141.28590696a202.95771022 202.95771022 0 0 1 290.41671586 0z" fill="#165DFF" p-id="11648"></path></svg>