<svg
  t="1733731314981"
  class="icon"
  viewBox="0 0 1024 1024"
  version="1.1"
  xmlns="http://www.w3.org/2000/svg"
  p-id="5057"
  width="200"
  height="200"
>
  <path
    d="M902.637351 701.078887c-4.267232 234.258649-155.129219 98.627815-380.109139 181.437881-185.810225 68.413033-299.994702-99.441589-297.578808-232.281854 2.410808-132.84196 164.853828-237.623947 362.818119-234.019603 197.974464 3.597563 317.272159 152.01653 314.869828 284.863576z"
    fill="#C25252"
    p-id="5058"
  ></path>
  <path
    d="M280.616689 646.915391s-68.945377-106.345113-88.765881-185.125298c-19.817113-78.780185-158.036768 35.00249-95.755868 124.982251 62.269033 89.979762-82.174305 6.49494-66.824476 122.468027 15.348132 115.969695 340.108715 122.786755 251.346225-62.32498z"
    fill="#C25252"
    p-id="5059"
  ></path>
  <path
    d="M433.477032 358.740334a173.840954 191.711788 82.461 1 0-45.61622-344.67647 173.840954 191.711788 82.461 1 0 45.61622 344.67647Z"
    fill="#FF7878"
    p-id="5060"
  ></path>
  <path
    d="M245.822728 627.166093s-63.504954-97.954755-81.765721-170.519735c-18.248901-72.56498-145.560583 32.244132-88.197934 115.127099 57.359258 82.879576-75.698013 5.976159-61.555285 112.795973 14.141033 106.829987 313.284662 113.109616 231.51894-57.403337z"
    fill="#FF8C8C"
    p-id="5061"
  ></path>
  <path
    d="M919.870728 722.599841c-36.448636 231.444344-167.225642 76.355815-401.45886 127.433748-193.452927 42.202702-283.464901-139.762437-262.79502-271.01245 20.663099-131.250013 195.975629-212.685139 391.564715-181.887152 195.590781 30.794596 293.337007 194.222623 272.689165 325.465854z"
    fill="#FF7878"
    p-id="5062"
  ></path>
  <path
    d="M897.542781 689.353748c-27.956556 177.538543-121.496583 109.769748-301.179761 148.953007-148.402013 32.384848-224.223788-158.41653-208.368742-259.09743 15.84996-100.685987 150.331338-163.158464 300.365987-139.530173 150.054993 23.624901 225.024 148.983523 209.182516 249.674596z"
    fill="#C25252"
    opacity=".44"
    p-id="5063"
  ></path>
  <path
    d="M869.403126 658.101404c-22.334728 141.839258-68.163815 71.049325-234.455311 165.582834-105.500821 59.970119-185.305007-173.149245-172.640636-253.584106 12.664371-80.434861 120.106384-130.346384 239.973722-111.466807 119.875815 18.862623 179.776424 119.023046 167.122225 199.468079z"
    fill="#C25252"
    opacity=".44"
    p-id="5064"
  ></path>
  <path
    d="M450.223772 392.900521a173.839258 191.711788 82.461 1 0-45.615775-344.673109 173.839258 191.711788 82.461 1 0 45.615775 344.673109Z"
    fill="#C25252"
    opacity=".44"
    p-id="5065"
  ></path>
  <path
    d="M809.734781 319.708397s382.959046 132.580874 103.07306 212.951312c-279.891073 80.368742-13.708715 0.318728-13.708715 0.318728s-355.260185 108.506702-89.364345-213.27004z"
    fill="#FF7878"
    p-id="5066"
  ></path>
  <path
    d="M763.341139 294.801801s378.356132 155.22755 105.082066 239.936424c-273.272371 84.702093-13.45102 0.110199-13.45102 0.110199s-346.747762 114.764291-91.631046-240.046623z"
    fill="#C25252"
    opacity=".44"
    p-id="5067"
  ></path>
  <path
    d="M722.331974 289.656371s384.089854 154.469722 106.258649 239.785536c-277.834596 85.302252-13.664636 0.135629-13.664636 0.135629s-352.552689 115.527205-92.594013-239.921165z"
    fill="#C25252"
    opacity=".44"
    p-id="5068"
  ></path>
  <path
    d="M260.741934 241.469033S380.778808-36.263841 664.840477 53.276821c319.199788 100.613086 192.712053 471.01796 58.210331 524.286305-134.496636 53.261563-552.86506-107.79804-462.308874-336.094093z"
    fill="#FF7878"
    p-id="5069"
  ></path>
  <path
    d="M222.513166 288.825642S349.501033 4.44694 643.694199 93.390834c330.59094 99.945113 196.106172 478.926834 55.991099 534.416106-140.108291 55.479099-573.145007-105.283815-477.172132-338.981298z"
    fill="#C25252"
    opacity=".29"
    p-id="5070"
  ></path>
  <path
    d="M730.000106 247.728318s86.921325 140.337166-40.687046 306.889748c0 0-43.350464 7.635921-45.739232-121.822092-2.37351-129.456318 86.426278-185.067656 86.426278-185.067656z"
    fill="#C25252"
    p-id="5071"
  ></path>
  <path
    d="M336.841748 704.796821S101.155603 565.766781 126.728477 218.88c17.401219-235.989616 538.112-165.603179 411.671735 234.178967C435.008424 780.008265 336.841748 704.796821 336.841748 704.796821z"
    fill="#FF7878"
    p-id="5072"
  ></path>
  <path
    d="M206.61404 318.816636S331.280954 52.793642 611.270358 132.062093c314.635868 89.057483 181.69049 443.154649 47.183682 496.428079-134.496636 53.259868-546.285351-91.174993-451.84-309.673536z"
    fill="#C25252"
    opacity=".44"
    p-id="5073"
  ></path>
  <path
    d="M366.739497 738.912636S131.048265 599.87751 156.629616 252.995815c17.392742-235.998093 538.105219-165.60657 411.67004 234.175576-103.396874 326.947603-201.560159 251.741245-201.560159 251.741245z"
    fill="#C25252"
    opacity=".29"
    p-id="5074"
  ></path>
  <path
    d="M393.177007 762.90543S157.482384 623.870305 183.063735 276.988609c17.397828-235.994702 538.101828-165.60657 411.664954 234.180663-103.388397 326.928954-201.551682 251.736159-201.551682 251.736158z"
    fill="#C25252"
    opacity=".44"
    p-id="5075"
  ></path>
  <path
    d="M461.716119 594.176286a186.100132 239.12604 21.796 1 0 177.576439-444.062676 186.100132 239.12604 21.796 1 0-177.576439 444.062676Z"
    fill="#FF7878"
    p-id="5076"
  ></path>
  <path
    d="M284.351576 630.516132s-63.504954-97.949669-81.757245-170.511258c-18.257377-72.56498-145.56906 32.244132-88.20641 115.122013 57.355868 82.884662-75.701404 5.977854-61.560371 112.804451 14.142728 106.819815 313.293139 113.10453 231.524026-57.415206z"
    fill="#FF7878"
    p-id="5077"
  ></path>
  <path
    d="M497.4384 442.675502a161.966623 158.825113 82.461 1 0-42.500371-321.133097 161.966623 158.825113 82.461 1 0 42.500371 321.133097Z"
    fill="#FF7878"
    p-id="5078"
  ></path>
  <path
    d="M321.761483 625.562278s-63.508344-97.942887-81.757245-170.512953c-18.257377-72.561589-145.56906 32.247523-88.201324 115.127099 57.355868 82.888053-75.701404 5.981245-61.563762 112.806146 14.141033 106.823205 313.288053 113.107921 231.522331-57.420292z"
    fill="#C25252"
    p-id="5079"
  ></path>
  <path
    d="M139.170755 432.387391S143.899126 624.402649 315.147868 728.557351c171.250437 104.163179 38.328795-235.223311-175.977113-296.16996z"
    fill="#C25252"
    p-id="5080"
  ></path>
  <path
    d="M145.625007 152.284397c-10.882543 23.923285-14.374993 30.48604-18.891444 66.60408C83.598411 564.030728 336.845139 704.800212 336.845139 704.800212s5.633695 2.571868 14.993801 5.225113c-0.995179-11.762437-3.234755-25.386384-6.903523-41.017643-53.549775-228.301139-146.587974-407.607947-199.31041-516.723285z"
    fill="#FF7878"
    p-id="5081"
  ></path>
  <path
    d="M532.194815 465.577119a161.970013 158.820026 82.461 1 0-42.501261-321.139819 161.970013 158.820026 82.461 1 0 42.501261 321.139819Z"
    fill="#C25252"
    opacity=".44"
    p-id="5082"
  ></path>
  <path
    d="M127.850808 215.879205c-5.810013 20.746172-7.759682 26.457854-8.110623 57.46098-3.411073 296.334411 186.169642 409.952636 186.169643 409.952636s4.175682 2.044609 10.977483 4.062093c-1.617377-10.036556-4.265536-21.622675-8.069934-34.892291-55.624901-193.81743-135.261245-344.672636-180.966569-436.583418z"
    fill="#FFADAD"
    opacity=".64"
    p-id="5083"
  ></path>
  <path
    d="M690.562543 481.590252c-49.040106 122.620609-166.160954 191.086199-261.593007 152.932026-95.437139-38.172821-133.040318-168.514119-84.001907-291.138119 49.03502-122.627391 166.152477-191.098066 261.596397-152.930331 95.421881 38.162649 133.042013 168.509033 83.998517 291.136424z"
    fill="#C25252"
    opacity=".44"
    p-id="5084"
  ></path>
  <path
    d="M677.843921 845.490013s62.148662-1.790305 118.046516-154.056053c55.894464-152.275921 103.995338-147.337325 103.995338-147.337324S527.351523 789.417536 547.855258 849.231682c0 0 81.940344-18.888053 129.988663-3.741669z"
    fill="#C25252"
    p-id="5085"
  ></path>
  <path
    d="M622.312265 279.697801c8.666702 65.452927-37.270887 125.529854-102.603444 134.177908-65.334252 8.648053-125.309457-37.403126-133.977854-102.862835-8.668397-65.461404 43.453881-78.768318 108.788132-87.419761 65.334252-8.644662 119.129854-9.356715 127.793166 56.104688z"
    fill="#FF7878"
    p-id="5086"
  ></path>
  <path
    d="M644.499497 255.615152c8.663311 65.452927-37.270887 125.529854-102.603444 134.177908-65.329166 8.648053-125.309457-37.403126-133.976159-102.86453-8.663311-65.461404 43.457272-78.768318 108.788132-87.416371 65.332556-8.646358 119.128159-9.358411 127.791471 56.102993z"
    fill="#FF7878"
    p-id="5087"
  ></path>
  <path
    d="M623.127735 279.743576c9.638146 72.805722-41.451656 139.623417-114.116662 149.244609-72.663311 9.622887-139.377589-41.604238-149.015735-114.413351-9.643232-72.810808 48.331444-87.613033 120.994755-97.230834 72.666702-9.621192 132.497801-10.411232 142.137642 62.399576z"
    fill="#FF7878"
    p-id="5088"
  ></path>
  <path
    d="M613.969377 338.321801c10.395974 78.554702-44.732185 150.658543-123.127523 161.032477-78.408901 10.380715-150.38898-44.89494-160.791735-123.449642-10.395974-78.554702 52.151099-94.536901 130.558305-104.910835 78.398728-10.37902 142.959894-11.226702 153.360953 67.328z"
    fill="#C25252"
    p-id="5089"
  ></path>
  <path
    d="M336.841748 704.79343c54.931497-56.27253 157.845192-117.673536 350.642014-150.722966 42.680795-111.756715 14.776795-223.460874-233.909404-286.457219-132.245192-33.500397-260.479152-60.266808-182.194014 157.351841 78.264795 217.544053 65.468185 279.796132 65.461404 279.828344z"
    fill="#C25252"
    p-id="5090"
  ></path>
  <path
    d="M340.771603 686.710675c48.902781-53.159841 140.84747-110.842914 313.689854-140.888158 37.504848-106.050119 11.643762-212.563073-212.069722-274.326888-118.980662-32.845987-234.28747-59.241113-162.42098 148.430835 71.839364 207.604132 60.805934 266.753695 60.800848 266.784211z"
    fill="#FF7878"
    p-id="5091"
  ></path>
  <path
    d="M762.189987 544.768c-543.755868 19.01351-539.714119 289.547868-539.714119 289.547868a1086.016424 1086.016424 0 0 0 26.637562 6.640741c5.908344-44.096424 57.850914-237.479841 513.076557-296.188609z"
    fill="#C25252"
    p-id="5092"
  ></path>
  <path
    d="M232.863364 320.245828s86.985748 111.695682 126.341934 405.69049l-18.257377-15.512583c0-0.005086-43.974358-238.771709-108.084557-390.177907z"
    fill="#C25252"
    p-id="5093"
  ></path>
  <path
    d="M273.918305 827.505589s-1.608901-275.769642 658.642225-296.553112c0 0-46.951417-19.167788-134.379656 135.161218-87.421457 154.318834-235.053775 237.303523-524.262569 161.391894z"
    fill="#FF7878"
    p-id="5094"
  ></path>
  <path
    d="M358.088053 681.877192c-38.433907-18.537113-77.717192-32.484874-113.891179-41.365192-93.568848-22.982358-166.344053-12.096424-149.912583 40.837934 0 0 13.712106 60.449907 63.357457 120.998145 65.432583 79.795709 92.34649 141.490013 177.092663 129.025696 171.674278-25.250755 176.899391 45.710411 211.569589 22.450013 27.642914-18.555762 29.980821-55.629987 1.003656-108.749139-38.381351-70.337272-112.097483-125.996079-189.219603-163.197457z"
    fill="#C25252"
    p-id="5095"
  ></path>
  <path
    d="M333.418808 656.765457c-36.387603-16.845139-73.282119-29.151788-107.028344-36.604609-87.306172-19.272901-153.569483-6.032106-135.444345 45.33743 0 0 16.055099 58.841007 65.142676 116.522384 64.706967 76.037086 92.972079 135.630834 170.138278 120.423417 156.341404-30.801377 165.197987 38.656 195.738278 14.622517 24.340344-19.198305 24.352212-55.672371-5.323444-106.779126-39.279894-67.67894-110.224106-119.726623-183.223099-153.522013z"
    fill="#FF7878"
    p-id="5096"
  ></path>
  <path
    d="M356.419815 679.981775c-26.637563-13.478146-54.168583-24.043656-79.787232-31.264212-66.215841-18.671046-119.499444-14.851391-110.864954 19.632318 0 0 6.194861 39.122225 38.340662 79.89404 42.406146 53.698967 58.066225 94.192742 120.097908 89.88143 125.653616-8.736212 125.068715 36.731762 151.562172 23.404503 21.107285-10.665536 25.082914-34.197192 7.403655-69.326834-23.411285-46.510623-73.273642-85.186967-126.752211-112.221245z"
    fill="#FFC2C2"
    opacity=".45"
    p-id="5097"
  ></path>
  <path
    d="M863.32694 341.527735s8.736212 125.865536-45.001748 196.016318l-45.805351 6.059232s64.257695-45.028874 90.807099-202.07555z"
    fill="#C25252"
    p-id="5098"
  ></path>
  <path
    d="M603.976901 462.968371c-24.864212 54.049907-227.477192 218.802013-278.563603 33.476662-39.105272-141.851126-83.596715-162.327735-58.737589-216.377642 24.860821-54.049907 123.232636-22.477139 210.759205 12.438887 161.00196 64.237351 151.407894 116.412185 126.541987 170.462093z"
    fill="#FFADAD"
    opacity=".64"
    p-id="5099"
  ></path>
  <path
    d="M541.13653 421.791364c-9.565245 40.592106-157.699391 127.186225-197.538755 23.29261-36.153642-94.323285-73.805987-97.074861-64.237351-137.661881 9.556768-40.583629 51.957828-29.472212 111.621086-12.394808 125.821457 36.031576 159.71857 86.188927 150.15502 126.764079z"
    fill="#FFC2C2"
    opacity=".64"
    p-id="5100"
  ></path>
  <path
    d="M771.029616 585.056636c23.89955 50.386225-71.885139 156.682172-158.355497 197.706596-86.461881 41.043073-207.839788 0.674755-231.759682-49.713166-23.911417-50.391311 27.027497-73.794119 113.489378-114.820238 86.477139-41.022728 252.699126-83.559417 276.625801-33.173192z"
    fill="#FFADAD"
    opacity=".47"
    p-id="5101"
  ></path>
  <path
    d="M673.251179 597.015735c9.783947 20.64445-54.054993 75.852291-107.282649 101.108133-53.234437 25.266013-120.150464 16.892609-129.939497-3.734888-9.794119-20.635974 36.099391-29.563762 89.340609-54.819603 53.242914-25.266013 138.092503-63.177748 147.881537-42.553642z"
    fill="#FFC2C2"
    opacity=".47"
    p-id="5102"
  ></path>
  <path
    d="M356.346914 698.561272c-13.63751-6.898437-27.73955-12.315126-40.853192-16.00763-33.910675-9.565245-61.195868-7.607099-56.777748 10.043338 0 0 3.173722 20.034119 19.637403 40.924397 21.717616 27.493722 29.738384 48.22294 61.497643 46.022358 64.34755-4.475762 64.049166 18.810066 77.613775 11.976053 10.806252-5.462464 12.849166-17.49955 3.787443-35.499232-11.98453-23.816477-37.521801-43.61494-64.905324-57.459284z"
    fill="#FFC2C2"
    p-id="5103"
  ></path>
  <path
    d="M453.02506 395.447099c-5.601483 17.699603-74.248477 51.193219-88.469192 3.746755-12.901722-43.074119-29.521377-45.554437-23.914808-63.247258 5.589616-17.699603 24.03857-11.348768 49.960688-1.780132 54.646675 20.190093 68.016318 43.581033 62.423312 61.280635z"
    fill="#FFFFFF"
    opacity=".64"
    p-id="5104"
  ></path>
  <path
    d="M138.496 332.320212s7.430781 137.834808 90.449377 246.987444c83.01351 109.149245-90.449377-246.987444-90.449377-246.987444z"
    fill="#FFADAD"
    p-id="5105"
  ></path>
</svg>