<svg
  t="1743285578721"
  class="icon"
  viewBox="0 0 1024 1024"
  version="1.1"
  xmlns="http://www.w3.org/2000/svg"
  p-id="21145"
  width="256"
  height="256"
>
  <path
    d="M269.482667 235.306667A170.666667 170.666667 0 0 1 403.2 170.666667H768a170.666667 170.666667 0 0 1 170.666667 170.666666v341.333334a170.666667 170.666667 0 0 1-170.666667 170.666666H403.2a170.666667 170.666667 0 0 1-133.717333-64.64l-156.330667-197.162666a128 128 0 0 1 0-159.061334l156.330667-197.162666zM403.2 256a85.333333 85.333333 0 0 0-66.858667 32.298667L180.010667 485.546667a42.666667 42.666667 0 0 0 0 52.992l156.330666 197.162666A85.333333 85.333333 0 0 0 403.2 768H768a85.333333 85.333333 0 0 0 85.333333-85.333333V341.333333a85.333333 85.333333 0 0 0-85.333333-85.333333H403.2z"
    p-id="21146"
  ></path>
  <path
    d="M439.168 396.501333a42.666667 42.666667 0 0 1 60.330667 0L554.666667 451.669333l55.168-55.168a42.666667 42.666667 0 1 1 60.330666 60.330667L614.997333 512l55.168 55.168a42.666667 42.666667 0 0 1-60.330666 60.330667L554.666667 572.330667l-55.168 55.168a42.666667 42.666667 0 0 1-60.330667-60.330667L494.336 512l-55.168-55.168a42.666667 42.666667 0 0 1 0-60.330667z"
    p-id="21147"
  ></path>
</svg>
