<svg
  t="1734525901935"
  class="icon"
  viewBox="0 0 1024 1024"
  version="1.1"
  xmlns="http://www.w3.org/2000/svg"
  p-id="8028"
  width="256"
  height="256"
>
  <path
    d="M320.00912 16C196.29712 16 96.00912 116.288 96.00912 240s100.288 224 224 224 224-100.288 224-224S443.72112 16 320.00912 16z m-96 336a48 48 0 1 1 0-96 48 48 0 0 1 0 96z m96-176a48 48 0 1 1 0-96 48 48 0 0 1 0 96z m96 176a48 48 0 1 1 0-96 48 48 0 0 1 0 96zM832.00912 112c-97.2 0-176 78.8-176 176s78.8 176 176 176 176-78.8 176-176S929.20912 112 832.00912 112z m-64 256a32 32 0 1 1 0.016-64.016A32 32 0 0 1 768.00912 368z m64-128a32 32 0 1 1 0.016-64.016A32 32 0 0 1 832.00912 240z m64 128a32 32 0 1 1 0.016-64.016A32 32 0 0 1 896.00912 368z"
    fill="#515151"
    p-id="8029"
  ></path>
  <path
    d="M944.00912 560v48h-64v-80H224.00912v160H128.00912l-112-112v384l112-112h96v96h656V672h64v48h64V560z"
    fill="#515151"
    p-id="8030"
  ></path>
  <path
    d="M784.00912 624m-32 0a32 32 0 1 0 64 0 32 32 0 1 0-64 0Z"
    fill="#DAEEFB"
    p-id="8031"
  ></path>
  <path
    d="M224.00912 944h656v64H224.00912z"
    fill="#515151"
    p-id="8032"
  ></path>
  <path
    d="M832.00912 256a48 48 0 1 0 0-96 48 48 0 0 0 0 96z m0-64a16 16 0 1 1 0 32 16 16 0 1 1 0-32z m16 144a48 48 0 1 0 96 0 48 48 0 0 0-96 0z m48-16a16 16 0 1 1 0 32 16 16 0 1 1 0-32z m-128 64a48 48 0 1 0 0-96 48 48 0 0 0 0 96z m0-64a16 16 0 1 1 0 32 16 16 0 1 1 0-32zM320.00912 480h512c106.032 0 192-85.968 192-192 0-94.704-68.624-173.184-158.816-188.944-0.592-0.208-1.088-0.592-1.728-0.72L369.91312 5.264A240.8 240.8 0 0 0 320.00912 0C187.46512 0 80.00912 107.456 80.00912 240s107.456 240 240 240zM853.33712 129.584l4.544 0.864c0.336 0.064 0.624-0.064 0.944-0.016C934.39312 143.2 992.00912 208.8 992.00912 288c0 88.352-71.648 160-160 160s-160-71.648-160-160S743.65712 128 832.00912 128c7.248 0 14.336 0.656 21.328 1.584zM756.71312 111.36C688.10512 140.64 640.00912 208.688 640.00912 288c0 66.816 34.176 125.616 85.952 160h-286.56C511.40112 406.576 560.00912 329.024 560.00912 240c0-72.528-32.32-137.408-83.184-181.424L756.71312 111.36zM320.00912 32c13.024 0 25.712 1.344 38.08 3.648 0.848 0.32 1.568 0.848 2.464 1.008l11.408 2.144C461.65712 61.904 528.00912 143.088 528.00912 240c0 114.88-93.12 208-208 208S112.00912 354.88 112.00912 240 205.12912 32 320.00912 32z m32 272a64 64 0 1 0 128 0 64 64 0 0 0-128 0z m64-32a32 32 0 1 1-0.016 64.016A32 32 0 0 1 416.00912 272z m592 272h-64a16 16 0 0 0-16 16v32h-32v-48a32 32 0 0 0-32-32H240.00912a32 32 0 0 0-32 32v128H134.47312l-106.832-106.832a16.352 16.352 0 0 0-5.664-3.968 15.92 15.92 0 0 0-17.392 3.376 15.808 15.808 0 0 0-4.576 11.6V959.84a15.776 15.776 0 0 0 21.968 14.976c2.192-0.896 4.08-2.272 5.664-3.968L134.47312 864H208.00912v128a32 32 0 0 0 32 32h624a32 32 0 0 0 32-32V688h32v32a16 16 0 0 0 16 16h64a16 16 0 0 0 16-16V560a16 16 0 0 0-16-16zM112.00912 841.536l-80 80V614.464l80 80v147.072zM208.00912 832H144.00912v-128h64v128z m656 160H240.00912v-32h624v32z m0-64H240.00912V544h624v384z m64-272h-32v-32h32v32z m64 48h-32v-128h32v128z m-208-32a48 48 0 1 0 0-96 48 48 0 0 0 0 96z m0-64a16 16 0 1 1 0 32 16 16 0 0 1 0-32z m-496 0h256a16 16 0 1 0 0-32H288.00912a16 16 0 1 0 0 32z m32-416a64 64 0 1 0 0-128 64 64 0 0 0 0 128z m0-96a32 32 0 1 1-0.016 64.016A32 32 0 0 1 320.00912 96z m-96 272a64 64 0 1 0 0-128 64 64 0 0 0 0 128z m0-96a32 32 0 1 1-0.016 64.016A32 32 0 0 1 224.00912 272z m64 400h160a16 16 0 1 0 0-32H288.00912a16 16 0 1 0 0 32z"
    fill="#2B3139"
    p-id="8033"
  ></path>
</svg>