<svg t="1740076997026" class="icon" viewBox="0 0 1024 1024" version="1.1" xmlns="http://www.w3.org/2000/svg" p-id="9297" width="256" height="256"><path d="M881.59981531 749.59964094c-17.75999156 4.31999813-23.03998875 7.67999625-21.11998969 26.87998687 9.11999531 104.6399475-90.239955 176.15991188-191.99990343 138.23993063-18.23999063-6.71999625-25.43998687-7.19999625-37.43998125 10.55999531-59.51997 88.79995594-178.55991094 88.79995594-238.07988188 0.95999906-11.51999437-16.79999156-17.75999156-18.71999063-36.95998125-11.51999437-102.23994844 37.43998125-198.71990063-30.239985-192.47990344-135.83993157 1.43999906-21.11998969-4.79999719-24.95998781-23.51998875-29.75998499-102.71994844-26.39998687-140.15992969-135.8399325-74.3999625-216.47989219 13.43999344-16.31999156 14.8799925-23.51998781 0.48-40.79997938-65.75996719-77.27996156-29.759985-188.63990531 69.59996532-215.51989219 21.11998969-5.75999719 29.279985-9.59999531 27.83998593-34.55998312-6.71999625-99.35995031 91.67995406-168.47991562 188.63990532-133.43993344 21.59998875 7.67999625 30.239985 6.71999625 43.67997843-12.95999344 57.11997188-83.99995781 176.15991188-83.99995781 233.75988282 0 13.43999344 19.67999063 21.11998969 21.11998969 43.19997843 12.95999344 94.55995313-35.03998219 191.51990438 32.63998406 189.11990532 133.43993344-8.63999531 21.11998969 1.91999906 28.31998594 26.87998687 35.03998219 99.35995031 25.43998687 134.3999325 135.3599325 69.59996532 214.55989312-12.47999344 15.3599925-15.8399925 23.03998875-0.96 40.31998031 68.63996531 80.15995969 29.279985 191.51990438-75.83996157 217.91989032z" fill="#F5222D" p-id="9298"></path><path d="M287.8401125 445.27979375h75.35996156c-13.43999344-21.11998969-25.91998687-39.35998031-37.43998125-54.23997281l25.43998782-17.75999157c10.07999531 12.47999344 23.51998781 30.239985 39.83998031 52.79997375l-26.39998688 19.19999063h61.91996907c16.79999156-24.47998781 32.63998406-48.95997562 47.03997562-72.47996437l33.11998406 18.71999062c-15.3599925 19.67999063-29.759985 37.43998125-43.19997843 53.75997375h71.03996437v30.23998406h-246.71987625V445.27979375z m49.43997469 138.71993063l31.67998406 14.8799925c-16.79999156 35.51998219-33.59998313 67.19996625-49.91997469 95.51995218-9.11999531-5.75999719-19.19999063-11.03999438-30.719985-16.79999156 14.8799925-23.51998781 31.19998406-54.71997281 48.95997563-93.59995312z m-35.99998219-51.35997469h95.51995219V488.47977219h33.59998406v44.6399775h91.67995406v29.759985H430.40004125V685.27967375c0 33.11998312-15.8399925 49.91997469-47.99997656 49.91997469-13.43999344 0-28.79998594 0-45.5999775-0.48-1.43999906-10.07999531-2.87999812-22.07998875-5.27999719-35.51998219 18.23999063 1.91999906 32.15998406 2.87999812 42.71997844 2.87999906 14.8799925 0 22.07998875-8.15999625 22.07998969-23.99998875v-114.71994187H300.80010594v-30.719985z m1.44-196.31990156h101.27994938c-6.71999625-12.95999344-14.3999925-26.87998688-23.03998876-41.75997938l30.239985-13.91999344c9.59999531 15.8399925 18.71999063 32.15998406 27.35998594 48.47997657l-15.83999156 7.67999531h99.83994938v30.239985h-219.35989032v-30.71998406z m169.43991469 250.07987437c17.27999156 23.51998781 32.63998406 45.5999775 46.0799775 65.75996719l-30.239985 20.63998969c-13.91999344-23.99998781-28.31998594-46.55997656-43.67997844-68.15996532l27.83998594-18.23999156z m78.71996062-263.99986781c64.79996719-0.48 124.31993812-7.19999625 179.03991094-19.19999063l11.99999344 35.99998219c-61.91996906 8.15999625-114.71994281 13.43999344-157.91992031 15.8399925V464.47978344h170.87991375v31.67998406h-67.19996625v245.75987719h-34.55998219v-245.75987719H583.99996437v23.03998875c0 95.99995219-23.03998875 170.39991469-69.11996625 224.15988844-7.67999625-9.59999531-15.8399925-19.67999063-24.95998687-30.239985 40.31997938-44.1599775 60.47997-109.43994562 60.47997-195.3599025v-195.3599025z" fill="#FFFFFF" p-id="9299"></path></svg>
