<svg
  t="1743260867158"
  class="icon"
  viewBox="0 0 1706 1024"
  version="1.1"
  xmlns="http://www.w3.org/2000/svg"
  p-id="19712"
  width="256"
  height="256"
>
  <path
    d="M1614.99970333 26.54814777h-1514.60977778c-42.71976334 0-77.67229667 34.95253333-77.67229554 77.67229668v815.5591111c0 42.71976334 34.95253333 77.67229667 77.67229554 77.67229668h1514.60977778c42.71976334 0 77.67229667-34.95253333 77.67229668-77.67229668v-815.5591111c0-42.71976334-34.95253333-77.67229667-77.67229668-77.67229668zM624.67792555 356.65540779h-260.20219221l-11.65084445 85.43952554h240.7841189v100.97398557h-248.5513489l-7.76722888 85.43952555H624.67792555v100.97398556H185.82945224L232.43283001 255.68142222H624.67792555V356.65540779z m434.96486002 120.39205888H857.69481444l-3.88361443 46.60337778h205.83158556v205.83158556h-368.94340778l19.41807445-81.55591111H935.36711112v-42.71976335h-221.36604445l19.41807446-209.7152h326.22364444v81.55591112z m450.49931776 7.76723h-213.59881444l-15.53445888 155.34459222h229.13327332v89.32314112h-372.82702222L1168.38400001 395.49155555h341.75810332v89.32314112z"
    p-id="19713"
  ></path>
</svg>
