<svg
  t="1743285597514"
  class="icon"
  viewBox="0 0 1024 1024"
  version="1.1"
  xmlns="http://www.w3.org/2000/svg"
  p-id="21307"
  width="256"
  height="256"
>
  <path
    d="M512 170.666667a341.333333 341.333333 0 1 0 0 682.666666 341.333333 341.333333 0 0 0 0-682.666666zM85.333333 512C85.333333 276.352 276.352 85.333333 512 85.333333s426.666667 191.018667 426.666667 426.666667-191.018667 426.666667-426.666667 426.666667S85.333333 747.648 85.333333 512z"
    p-id="21308"
  ></path>
  <path
    d="M353.834667 353.834667a42.666667 42.666667 0 0 1 60.330666 0L512 451.669333l97.834667-97.834666a42.666667 42.666667 0 1 1 60.330666 60.330666L572.330667 512l97.834666 97.834667a42.666667 42.666667 0 0 1-60.330666 60.330666L512 572.330667l-97.834667 97.834666a42.666667 42.666667 0 0 1-60.330666-60.330666L451.669333 512 353.834667 414.165333a42.666667 42.666667 0 0 1 0-60.330666z"
    p-id="21309"
  ></path>
</svg>
