<svg
  t="1743286651903"
  class="icon"
  viewBox="0 0 1024 1024"
  version="1.1"
  xmlns="http://www.w3.org/2000/svg"
  p-id="19462"
  width="256"
  height="256"
>
  <path
    d="M821.12 678.058667l-122.624-122.453334a61.568 61.568 0 0 1 0-87.253333l122.624-122.410667c38.528-38.4 44.202667-101.589333 7.765333-141.952a100.693333 100.693333 0 0 0-145.92-3.925333L556.373333 326.4a61.866667 61.866667 0 0 1-87.424 0L346.282667 204.074667c-38.485333-38.4-101.802667-44.117333-142.250667-7.722667a100.266667 100.266667 0 0 0-3.925333 145.621333l126.634666 126.378667c24.149333 24.106667 24.149333 63.146667 0 87.253333l-122.624 122.453334c-38.485333 38.4-44.16 101.632-7.765333 141.994666a100.693333 100.693333 0 0 0 145.92 3.882667l126.634667-126.421333a61.866667 61.866667 0 0 1 87.424 0l126.677333 126.421333a100.693333 100.693333 0 0 0 145.92-3.925333c36.394667-40.362667 30.72-103.552-7.808-141.952"
    p-id="19463"
  ></path>
</svg>
