<svg
  t="1729926773803"
  class="icon"
  viewBox="0 0 1024 1024"
  version="1.1"
  xmlns="http://www.w3.org/2000/svg"
  p-id="1818"
  width="256"
  height="256"
>
  <path
    d="M163.0208 1.36533333h695.77386667c87.38133333 0 158.9248 71.54346667 158.9248 158.9248V856.064c0 87.38133333-71.54346667 158.9248-158.9248 158.9248H163.0208C75.63946667 1014.44266667 4.096 942.8992 4.096 855.51786667V160.29013333c0-87.38133333 71.54346667-158.9248 158.9248-158.9248z m546.67946667 322.21866667L653.99466667 383.11253333c-6.00746667 6.5536-5.46133333 16.384 1.09226666 21.84533334l116.3264 102.67306666-116.3264 102.67306667c-6.5536 6.00746667-7.09973333 15.83786667-1.09226666 21.84533333l55.7056 59.52853334c6.00746667 6.5536 15.29173333 6.5536 21.84533333 0.54613333l185.1392-173.6704c6.5536-6.00746667 6.5536-16.384 0-22.39146667l-185.1392-173.6704c-6.00746667-4.9152-15.83786667-4.9152-21.84533333 1.09226667z m-165.4784-133.25653333L368.91306667 794.35093333c-2.18453333 8.192 2.18453333 16.93013333 10.37653333 19.11466667l78.09706667 22.9376c8.192 2.18453333 16.93013333-2.18453333 19.11466666-10.37653333l175.3088-604.02346667c2.18453333-8.192-2.18453333-16.93013333-10.37653333-19.11466667l-78.09706667-22.9376c-8.192-2.18453333-16.93013333 2.18453333-19.11466666 10.37653334zM289.72373333 323.03786667L104.58453333 496.70826667c-6.5536 6.00746667-6.5536 16.384 0 22.39146666l185.1392 173.6704c6.5536 6.00746667 15.83786667 5.46133333 21.84533334-0.54613333l55.7056-60.07466667c6.00746667-6.5536 5.46133333-16.384-1.09226667-21.84533333L249.856 508.17706667l116.3264-102.12693334c6.5536-6.00746667 7.09973333-15.83786667 1.09226667-21.84533333l-55.7056-60.07466667c-6.00746667-6.5536-15.83786667-6.5536-21.84533334-1.09226666z"
    p-id="1819"
  ></path>
</svg>
