<svg
  t="1729763960221"
  class="icon"
  viewBox="0 0 1024 1024"
  version="1.1"
  xmlns="http://www.w3.org/2000/svg"
  p-id="2963"
  width="200"
  height="200"
>
  <path
    d="M1001.658076 440.239816a310.167035 310.167035 0 0 1-160.970605 36.061966c-87.822832 0-100.108928-21.614428-139.071777-43.285735-39.07661-21.614428-26.904274-33.673003-92.771398-33.673003s-63.421281 14.447538-100.108928 31.28404v310.337675c0 21.614428-17.064022 40.953652-41.408693 40.953653a40.953652 40.953652 0 0 1-41.522452-40.953653V38.495864c0-21.614428 17.064022-38.450929 39.076609-38.450929 17.064022 0 31.73908 9.669612 36.573887 24.060271 31.73908-16.836501 65.924004-26.449234 102.554771-24.060271 87.822832 0 90.211795 21.614428 131.734247 43.285735 39.07661 16.836501 36.630767 31.28404 104.943734 31.28404a225.870768 225.870768 0 0 0 124.453599-28.838196 44.707737 44.707737 0 0 1 39.07661 2.388963c12.172336 7.223769 19.509865 19.225464 19.509864 31.227159v327.174177c0 14.447538-9.783372 28.895077-22.012588 33.673003zM99.824527 779.472568c0 81.509144 170.526457 150.447792 372.450715 150.447792 205.337062 0 372.450715-67.516646 372.450714-150.504672 0-62.56808-99.141966-119.163752-246.745754-140.948819l-6.996249-1.080722V541.543225l9.271452 1.194482c167.454933 22.012588 346.342761 95.729162 346.342761 236.677981 0.682561 43.285735-16.267701 82.874266-50.509504 117.74175-76.674338 77.811939-238.156863 126.273761-421.481337 126.273761-235.59726 0-474.266044-84.637548-474.266045-246.404474 0-140.89194 178.944708-214.665394 346.342762-236.734861l9.328332-1.251362v95.899802l-6.939369 1.137602c-149.08267 24.003391-249.248478 81.622904-249.248478 143.394662z"
    p-id="2964"
  ></path>
</svg>
