<svg
  t="1745893695174"
  class="icon"
  viewBox="0 0 1024 1024"
  version="1.1"
  xmlns="http://www.w3.org/2000/svg"
  p-id="21636"
  width="200"
  height="200"
>
  <path
    d="M762.969087 237.858317a156.159592 156.159592 0 0 0-41.15669-32.614261Q697.928723 191.922384 667.446932 191.922384H154.223898a85.888403 85.888403 0 0 0-44.71917 12.757194 147.817868 147.817868 0 0 0-37.63184 32.150135A177.396494 177.396494 0 0 0 45.480424 279.203165Q35.319827 302.171132 35.319827 323.633825v568.617103q0 24.498328 13.208776 48.494898a167.62476 167.62476 0 0 0 33.028212 42.360908 178.124043 178.124043 0 0 0 42.649418 29.603714q22.867615 11.289552 42.172749 11.289552h501.06795a126.94474 126.94474 0 0 0 46.75129-9.182169 144.330651 144.330651 0 0 0 42.172749-25.514388 126.994916 126.994916 0 0 0 30.494334-39.814486q11.690958-23.482268 11.690958-53.085983V319.531954q0-17.360822-9.144537-39.814487a144.87004 144.87004 0 0 0-26.442639-41.85915zM652.707795 811.593351a62.381047 62.381047 0 0 1-45.220928 18.376882H226.376679A62.381047 62.381047 0 0 1 181.155751 811.593351a60.399103 60.399103 0 0 1-18.81592-44.919873 64.337903 64.337903 0 0 1 63.974128-64.312815h381.172908a64.337903 64.337903 0 0 1 63.974128 64.312815A60.399103 60.399103 0 0 1 652.707795 811.593351z m0-255.21914a62.381047 62.381047 0 0 1-45.220928 18.376882H226.376679a62.381047 62.381047 0 0 1-45.233472-18.376882 60.399103 60.399103 0 0 1-18.81592-44.919873 64.337903 64.337903 0 0 1 63.974128-64.312814h381.185452a64.337903 64.337903 0 0 1 63.974128 64.312814 60.399103 60.399103 0 0 1-18.7532 44.919873z"
    p-id="21637"
  ></path>
  <path
    d="M973.343616 173.031201A328.224909 328.224909 0 0 0 931.170868 90.316416a265.856406 265.856406 0 0 0-63.522546-64.312815Q831.057629 0 787.367063 0H365.614487a115.830804 115.830804 0 0 0-48.783408 11.289552 182.727671 182.727671 0 0 0-44.204869 28.587655 150.213762 150.213762 0 0 0-32.012151 38.798427q-12.20526 21.362341-12.205261 41.746254a17.636789 17.636789 0 0 1-1.016059 7.15005h495.95002q58.956549 11.226832 94.518638 48.996656t43.70311 108.216628v609.485281h4.064239q18.289074 0 39.638872-7.651807a168.226869 168.226869 0 0 0 39.638871-20.421545 126.480614 126.480614 0 0 0 30.996093-30.632318 66.33239 66.33239 0 0 0 12.707018-39.300185V254.190536q-0.025088-36.74122-15.265984-81.159335z"
    p-id="21638"
  ></path>
</svg>