<svg
  t="1736839436623"
  class="icon"
  viewBox="0 0 1024 1024"
  version="1.1"
  xmlns="http://www.w3.org/2000/svg"
  p-id="7928"
  width="200"
  height="200"
>
  <path
    d="M35.33937778 124.15431111h937.27857777V868.92088889H35.33937778z"
    fill="#999999"
    p-id="7929"
  ></path>
  <path
    d="M262.13262222 320.36408889L292.40888889 290.06506667a25.40657778 25.40657778 0 1 0-35.91964444-35.93102222L226.2016 284.44444445l-30.29902222-30.3104a25.40657778 25.40657778 0 1 0-35.93102223 35.93102222l30.3104 30.29902222-30.3104 30.3104a25.40657778 25.40657778 0 0 0 35.93102223 35.91964444l30.29902222-30.29902222 30.3104 30.29902222A25.3952 25.3952 0 1 0 292.40888889 350.67448889zM397.50542222 846.71146667l136.53333333-96.16497778L402.35235555 661.04888889a35.27111111 35.27111111 0 0 1-11.8784-44.60088889l103.74257778-213.02613333C347.20426667 378.27697778 180.41742222 574.30471111 38.75271111 752.07111111v102.21795556h352.85902222a34.75911111 34.75911111 0 0 1 5.89368889-7.5776z"
    fill="#DDDDDD"
    p-id="7930"
  ></path>
  <path
    d="M689.28853333 623.85493333c-39.2192-99.16871111-83.05777778-160.55182222-129.93422222-193.13777778l-92.09173333 189.12142223 142.01742222 96.60871111a35.27111111 35.27111111 0 0 1 4.84693333 54.36302222l-123.5968 83.52426667h485.75146667V713.8304c-156.88817778-302.47822222-286.99306667-89.97546667-286.99306667-89.97546667z"
    fill="#DDDDDD"
    p-id="7931"
  ></path>
  <path
    d="M1020.65493333 165.91075555v666.43057778c0 39.08266667-32.69973333 71.11111111-72.51057778 71.11111112H77.49404445c-39.82222222 0-72.52195555-32.02844445-72.52195556-71.31591112V165.91075555c0-39.08266667 32.71111111-71.11111111 72.52195556-71.1111111h870.6503111c39.81084445 0 72.51057778 32.02844445 72.51057778 71.1111111z m-72.51057778 666.99946667a2.46897778 2.46897778 0 0 0 1.96835556-0.9216V166.26346667a2.46897778 2.46897778 0 0 0-1.96835556-0.9216H77.49404445a2.46897778 2.46897778 0 0 0-1.96835556 0.9216V831.94311111a2.38933333 2.38933333 0 0 0 1.96835556 0.96711111z"
    fill="#CCCCCC"
    p-id="7932"
  ></path>
</svg>
