<svg height="1024" node-id="1" sillyvg="true" template-height="1024" template-width="1024" version="1.1" viewBox="0 0 1024 1024" width="1024" xmlns="http://www.w3.org/2000/svg" xmlns:xlink="http://www.w3.org/1999/xlink"><defs node-id="26"></defs><g node-id="28"><path d="M 936.10 795.00 L 935.80 800.00 L 934.90 805.10 L 933.30 810.10 L 931.20 815.20 L 928.30 820.40 L 925.10 825.10 L 921.30 829.80 L 916.80 834.70 L 911.50 839.60 L 905.50 844.60 L 897.90 850.10 L 889.30 855.60 L 879.60 861.20 L 868.60 866.80 L 857.70 871.80 L 845.70 876.80 L 832.70 881.70 L 818.40 886.60 L 789.40 895.00 L 757.20 902.70 L 723.80 909.20 L 688.00 914.60 L 663.80 917.60 L 638.80 920.00 L 613.00 922.00 L 587.10 923.40 L 560.90 924.20 L 534.20 924.50 L 507.50 924.20 L 481.20 923.40 L 455.40 922.00 L 429.60 920.00 L 404.60 917.60 L 380.40 914.60 L 344.60 909.20 L 311.20 902.70 L 279.00 895.00 L 250.00 886.60 L 235.70 881.70 L 222.70 876.80 L 210.70 871.80 L 199.80 866.80 L 188.80 861.20 L 179.10 855.60 L 170.50 850.10 L 162.90 844.60 L 156.90 839.60 L 151.60 834.70 L 147.10 829.80 L 143.30 825.10 L 140.10 820.40 L 137.20 815.20 L 135.10 810.10 L 133.50 805.10 L 132.60 800.00 L 132.30 795.00 L 132.60 790.00 L 133.50 784.90 L 135.10 779.90 L 137.20 774.80 L 140.10 769.60 L 143.30 764.90 L 147.10 760.10 L 151.60 755.30 L 156.90 750.40 L 162.90 745.40 L 170.50 739.90 L 179.10 734.40 L 188.80 728.80 L 199.80 723.10 L 210.70 718.10 L 222.70 713.20 L 235.70 708.30 L 250.00 703.40 L 279.00 695.00 L 311.20 687.30 L 344.60 680.80 L 380.40 675.40 L 404.60 672.40 L 429.60 670.00 L 455.40 668.00 L 481.20 666.60 L 507.50 665.80 L 534.20 665.50 L 560.90 665.80 L 587.10 666.60 L 613.00 668.00 L 638.80 670.00 L 663.80 672.40 L 688.00 675.40 L 723.80 680.80 L 757.20 687.30 L 789.40 695.00 L 818.40 703.40 L 832.70 708.30 L 845.70 713.20 L 857.70 718.10 L 868.60 723.10 L 879.60 728.80 L 889.30 734.40 L 897.90 739.90 L 905.50 745.40 L 911.50 750.40 L 916.80 755.30 L 921.30 760.10 L 925.10 764.90 L 928.30 769.60 L 931.20 774.80 L 933.30 779.90 L 934.90 784.90 L 935.80 790.00 L 936.10 795.00 Z" fill="#f2f4ff" fill-rule="evenodd" group-id="1" id="椭圆形备份-4" node-id="6" stroke="none" target-height="259" target-width="803.8" target-x="132.3" target-y="665.5"/><path d="M 376.60 849.20 L 375.80 853.60 L 374.90 855.60 L 372.10 858.90 L 368.40 861.10 L 364.00 861.90 L 361.50 861.60 L 359.10 860.90 L 356.90 859.80 L 355.00 858.20 L 353.40 856.20 L 352.30 854.10 L 351.50 851.70 L 351.30 849.20 L 351.50 846.70 L 352.30 844.40 L 353.40 842.20 L 355.00 840.30 L 356.90 838.70 L 359.10 837.50 L 361.50 836.80 L 364.00 836.50 L 368.40 837.30 L 372.10 839.50 L 374.90 842.80 L 375.80 844.80 L 376.60 849.20 Z" fill="#ffffff" fill-rule="evenodd" group-id="1" id="椭圆形备份-7" node-id="7" stroke="none" target-height="25.400024" target-width="25.300018" target-x="351.3" target-y="836.5"/><path d="M 498.70 635.60 L 483.20 698.80 L 456.50 795.00 L 676.00 795.00 L 656.10 698.80 L 625.00 512.00 Z" fill="#ffffff" fill-rule="evenodd" group-id="1" id="路径-16" node-id="8" stroke="none" target-height="283" target-width="219.5" target-x="456.5" target-y="512"/><path d="M 627.00 505.80 L 659.10 698.20 L 679.70 798.00 L 452.50 798.00 L 480.30 698.10 L 495.90 634.10 L 627.00 505.80 Z M 623.00 518.20 L 501.40 637.20 L 486.10 699.60 L 460.40 792.00 L 672.30 792.00 L 653.20 699.30 L 623.00 518.20 Z" fill="#000000" fill-rule="nonzero" group-id="1" id="路径-16" node-id="9" stroke="none" target-height="292.2" target-width="227.20001" target-x="452.5" target-y="505.8"/><g node-id="29"><path d="M 701.80 207.30 L 708.10 216.50 L 713.70 226.00 L 718.80 235.70 L 723.30 245.70 L 727.20 255.90 L 730.50 266.30 L 733.30 276.90 L 735.50 287.70 L 737.20 298.70 L 738.30 309.90 L 738.80 321.00 L 738.90 332.30 L 738.40 343.70 L 737.30 355.30 L 735.70 367.00 L 733.60 378.50 L 731.00 390.10 L 727.90 401.70 L 724.20 413.40 L 720.00 425.10 L 715.40 436.60 L 710.20 448.00 L 704.60 459.30 L 698.40 470.70 L 691.70 482.00 L 684.60 493.00 L 677.10 503.80 L 669.00 514.60 L 660.50 525.20 L 651.40 535.60 L 642.00 545.70 L 632.10 555.50 L 621.80 565.10 L 610.90 574.50 L 599.50 583.70 L 587.60 592.70 L 575.60 601.00 L 563.50 608.80 L 551.30 616.10 L 538.90 622.80 L 526.30 629.10 L 513.60 634.80 L 501.00 640.10 L 488.30 644.70 L 475.70 648.90 L 462.80 652.60 L 450.00 655.80 L 437.30 658.40 L 424.70 660.50 L 412.20 662.10 L 399.50 663.20 L 387.00 663.80 L 374.70 663.80 L 362.70 663.30 L 350.80 662.40 L 338.80 660.90 L 327.20 658.80 L 315.80 656.30 L 304.70 653.30 L 293.90 649.70 L 283.10 645.60 L 272.80 641.00 L 262.80 635.90 L 253.20 630.20 L 243.80 624.10 L 236.30 618.60 L 229.10 612.70 L 222.20 606.50 L 215.50 599.90 L 209.10 592.90 L 203.00 585.50 L 197.00 577.40 L 206.50 588.80 L 210.20 592.50 L 214.30 595.90 L 218.80 598.90 L 223.60 601.70 L 228.70 604.20 L 235.00 606.60 L 241.70 608.60 L 248.90 610.30 L 256.60 611.40 L 265.00 612.20 L 273.00 612.50 L 281.40 612.30 L 290.40 611.80 L 299.80 610.80 L 309.70 609.30 L 321.60 607.00 L 334.10 604.10 L 347.20 600.50 L 360.90 596.10 L 374.20 591.30 L 387.90 585.90 L 402.10 579.80 L 416.70 573.00 L 430.90 565.90 L 445.30 558.10 L 460.00 549.70 L 475.00 540.60 L 489.60 531.20 L 504.20 521.20 L 519.00 510.60 L 533.80 499.30 L 547.80 488.20 L 561.20 477.00 L 574.00 465.70 L 586.30 454.40 L 598.40 442.60 L 609.80 431.00 L 620.50 419.40 L 630.70 407.90 L 640.60 395.90 L 649.90 384.20 L 658.40 372.70 L 666.20 361.40 L 673.80 349.70 L 680.60 338.30 L 686.70 327.30 L 692.00 316.60 L 697.00 305.50 L 701.10 294.80 L 704.50 284.70 L 707.20 275.00 L 708.90 266.90 L 710.10 259.20 L 710.80 251.90 L 711.10 244.90 L 710.80 238.20 L 710.10 231.40 L 708.90 225.00 L 707.10 219.00 L 704.90 213.30 L 702.20 207.90 Z" fill="#0076fc" fill-rule="evenodd" group-id="1,2" id="形状结合" node-id="10" stroke="none" target-height="456.5" target-width="541.9" target-x="197" target-y="207.3"/></g><g node-id="30"><path d="M 701.80 207.30 L 708.10 216.50 L 713.70 226.00 L 718.80 235.70 L 723.30 245.70 L 727.20 255.90 L 730.50 266.30 L 733.30 276.90 L 735.50 287.70 L 737.20 298.70 L 738.30 309.90 L 738.80 321.00 L 738.90 332.30 L 738.40 343.70 L 737.30 355.30 L 735.70 367.00 L 733.60 378.50 L 731.00 390.10 L 727.90 401.70 L 724.20 413.40 L 720.00 425.10 L 715.40 436.60 L 710.20 448.00 L 704.60 459.30 L 698.40 470.70 L 691.70 482.00 L 684.60 493.00 L 677.10 503.80 L 669.00 514.60 L 660.50 525.20 L 651.40 535.60 L 642.00 545.70 L 632.10 555.50 L 621.80 565.10 L 610.90 574.50 L 599.50 583.70 L 587.60 592.70 L 575.60 601.00 L 563.50 608.80 L 551.30 616.10 L 538.90 622.80 L 526.30 629.10 L 513.60 634.80 L 501.00 640.10 L 488.30 644.70 L 475.70 648.90 L 462.80 652.60 L 450.00 655.80 L 437.30 658.40 L 424.70 660.50 L 412.20 662.10 L 399.50 663.20 L 387.00 663.80 L 374.70 663.80 L 362.70 663.30 L 350.80 662.40 L 338.80 660.90 L 327.20 658.80 L 315.80 656.30 L 304.70 653.30 L 293.90 649.70 L 283.10 645.60 L 272.80 641.00 L 262.80 635.90 L 253.20 630.20 L 243.80 624.10 L 236.30 618.60 L 229.10 612.70 L 222.20 606.50 L 215.50 599.90 L 209.10 592.90 L 203.00 585.50 L 197.00 577.40 L 206.50 588.80 L 210.20 592.50 L 214.30 595.90 L 218.80 598.90 L 223.60 601.70 L 228.70 604.20 L 235.00 606.60 L 241.70 608.60 L 248.90 610.30 L 256.60 611.40 L 265.00 612.20 L 273.00 612.50 L 281.40 612.30 L 290.40 611.80 L 299.80 610.80 L 309.70 609.30 L 321.60 607.00 L 334.10 604.10 L 347.20 600.50 L 360.90 596.10 L 374.20 591.30 L 387.90 585.90 L 402.10 579.80 L 416.70 573.00 L 430.90 565.90 L 445.30 558.10 L 460.00 549.70 L 475.00 540.60 L 489.60 531.20 L 504.20 521.20 L 519.00 510.60 L 533.80 499.30 L 547.80 488.20 L 561.20 477.00 L 574.00 465.70 L 586.30 454.40 L 598.40 442.60 L 609.80 431.00 L 620.50 419.40 L 630.70 407.90 L 640.60 395.90 L 649.90 384.20 L 658.40 372.70 L 666.20 361.40 L 673.80 349.70 L 680.60 338.30 L 686.70 327.30 L 692.00 316.60 L 697.00 305.50 L 701.10 294.80 L 704.50 284.70 L 707.20 275.00 L 708.90 266.90 L 710.10 259.20 L 710.80 251.90 L 711.10 244.90 L 710.80 238.20 L 710.10 231.40 L 708.90 225.00 L 707.10 219.00 L 704.90 213.30 L 701.80 207.30 Z M 717.00 246.40 L 716.50 255.80 L 715.60 263.00 L 712.50 278.30 L 710.20 286.40 L 707.00 296.20 L 703.10 306.30 L 698.50 316.90 L 693.10 327.80 L 687.50 338.30 L 681.20 349.10 L 674.20 360.20 L 666.50 371.60 L 650.10 393.70 L 641.00 405.00 L 631.20 416.50 L 610.70 438.70 L 587.90 461.10 L 576.10 471.90 L 550.90 493.40 L 537.50 504.10 L 523.60 514.60 L 496.00 534.10 L 482.30 543.10 L 454.40 559.90 L 427.40 574.40 L 413.60 581.20 L 400.10 587.30 L 387.00 592.80 L 374.30 597.70 L 361.10 602.40 L 348.50 606.30 L 336.30 609.70 L 324.60 612.50 L 312.50 614.90 L 301.10 616.70 L 290.20 617.80 L 279.90 618.40 L 271.40 618.40 L 263.30 618.10 L 255.70 617.30 L 248.50 616.20 L 241.10 614.60 L 252.50 622.70 L 261.80 628.40 L 271.40 633.60 L 281.40 638.30 L 291.80 642.60 L 302.30 646.20 L 313.10 649.40 L 324.10 652.10 L 335.50 654.20 L 347.10 655.90 L 358.70 657.10 L 370.50 657.70 L 382.50 657.80 L 394.70 657.50 L 407.20 656.60 L 419.40 655.20 L 431.80 653.30 L 444.20 650.90 L 456.80 648.00 L 469.50 644.50 L 482.00 640.60 L 494.40 636.20 L 506.90 631.20 L 519.40 625.70 L 531.90 619.70 L 544.00 613.20 L 556.10 606.30 L 568.10 598.80 L 580.00 590.70 L 595.90 579.00 L 607.40 569.60 L 618.50 560.00 L 629.00 550.20 L 638.90 540.20 L 648.40 529.90 L 657.60 519.20 L 666.20 508.40 L 674.30 497.40 L 681.80 486.40 L 688.80 475.20 L 695.50 463.60 L 701.60 452.00 L 707.10 440.40 L 712.10 428.80 L 716.50 417.10 L 720.60 405.10 L 724.00 393.30 L 726.90 381.50 L 729.20 369.80 L 730.90 358.10 L 732.20 346.20 L 732.80 334.60 L 732.90 323.10 L 732.40 311.70 L 731.40 300.50 L 729.70 289.30 L 727.50 278.40 L 724.60 267.60 L 721.20 257.10 L 717.00 246.40 Z" fill="#000000" fill-rule="nonzero" group-id="1,3" id="形状结合" node-id="11" stroke="none" target-height="456.5" target-width="541.9" target-x="197" target-y="207.3"/></g><g node-id="31"><path d="M 536.70 513.90 L 521.40 524.70 L 506.30 534.90 L 491.20 544.50 L 476.30 553.40 L 460.90 562.00 L 445.90 570.00 L 431.20 577.30 L 416.70 584.00 L 401.80 590.40 L 387.40 596.00 L 373.50 601.00 L 360.00 605.30 L 346.10 609.20 L 332.80 612.40 L 320.20 614.90 L 308.10 616.80 L 298.20 617.90 L 288.70 618.60 L 279.70 618.90 L 271.30 618.70 L 263.20 618.10 L 254.90 617.10 L 247.20 615.60 L 240.00 613.70 L 233.40 611.40 L 227.20 608.80 L 222.10 606.10 L 217.40 603.20 L 213.00 599.90 L 209.10 596.40 L 205.40 592.50 L 202.10 588.40 L 199.10 583.90 L 196.60 579.20 L 194.50 574.40 L 192.70 569.20 L 191.40 563.80 L 190.40 558.20 L 189.80 551.40 L 189.70 544.40 L 190.10 537.00 L 191.10 529.20 L 192.60 521.00 L 194.60 513.20 L 197.10 505.10 L 200.10 496.60 L 203.60 487.80 L 207.80 478.70 L 213.30 467.80 L 219.60 456.60 L 226.70 445.00 L 234.80 432.90 L 243.00 421.40 L 252.10 409.70 L 261.90 397.80 L 272.50 385.60 L 283.40 373.90 L 294.90 362.10 L 307.10 350.30 L 320.00 338.40 L 333.20 326.90 L 346.90 315.60 L 361.30 304.30 L 376.30 293.10 L 391.60 282.30 L 406.70 272.10 L 421.80 262.50 L 436.70 253.60 L 452.10 245.00 L 467.10 237.00 L 481.80 229.70 L 496.30 223.00 L 511.20 216.60 L 525.60 211.00 L 539.50 206.00 L 553.00 201.70 L 566.90 197.80 L 580.20 194.60 L 592.80 192.10 L 604.90 190.20 L 614.80 189.10 L 624.30 188.40 L 633.30 188.10 L 641.70 188.30 L 649.80 188.90 L 658.10 189.90 L 665.80 191.40 L 673.00 193.30 L 679.60 195.60 L 685.80 198.20 L 690.90 200.90 L 695.60 203.80 L 700.00 207.10 L 703.90 210.60 L 707.60 214.50 L 710.90 218.60 L 713.90 223.10 L 716.40 227.80 L 718.50 232.60 L 720.30 237.80 L 721.60 243.20 L 722.60 248.80 L 723.20 255.60 L 723.30 262.60 L 722.90 270.00 L 721.90 277.80 L 720.40 286.00 L 718.40 293.80 L 715.90 301.90 L 712.90 310.40 L 709.40 319.20 L 705.20 328.30 L 699.70 339.20 L 693.40 350.40 L 686.30 362.00 L 678.20 374.10 L 670.00 385.60 L 660.90 397.30 L 651.10 409.20 L 640.50 421.40 L 629.60 433.10 L 618.10 444.90 L 605.90 456.70 L 593.00 468.60 L 579.80 480.10 L 566.10 491.40 L 551.70 502.70 L 536.70 513.90 Z" fill="#ffffff" fill-rule="evenodd" group-id="1,4" id="椭圆形" node-id="12" stroke="none" target-height="430.80002" target-width="533.6" target-x="189.7" target-y="188.1"/></g><g node-id="32"><path d="M 710.90 218.60 L 713.90 223.10 L 716.40 227.80 L 718.50 232.60 L 720.30 237.80 L 721.60 243.20 L 722.60 248.80 L 723.20 255.60 L 723.30 262.60 L 722.90 270.00 L 721.90 277.80 L 720.40 286.00 L 718.40 293.80 L 715.90 301.90 L 712.90 310.40 L 709.40 319.20 L 705.20 328.30 L 699.70 339.20 L 693.40 350.40 L 686.30 362.00 L 678.20 374.10 L 670.00 385.60 L 660.90 397.30 L 651.10 409.20 L 640.50 421.40 L 629.60 433.10 L 618.10 444.90 L 605.90 456.70 L 593.00 468.60 L 579.80 480.10 L 566.10 491.40 L 551.70 502.70 L 536.70 513.90 L 521.40 524.70 L 506.30 534.90 L 491.20 544.50 L 476.30 553.40 L 460.90 562.00 L 445.90 570.00 L 431.20 577.30 L 416.70 584.00 L 401.80 590.40 L 387.40 596.00 L 373.50 601.00 L 360.00 605.30 L 346.10 609.20 L 332.80 612.40 L 320.20 614.90 L 308.10 616.80 L 298.20 617.90 L 288.70 618.60 L 279.70 618.90 L 271.30 618.70 L 263.20 618.10 L 254.90 617.10 L 247.20 615.60 L 240.00 613.70 L 233.40 611.40 L 227.20 608.80 L 222.10 606.10 L 217.40 603.20 L 213.00 599.90 L 209.10 596.40 L 205.40 592.50 L 202.10 588.40 L 199.10 583.90 L 196.60 579.20 L 194.50 574.40 L 192.70 569.20 L 191.40 563.80 L 190.40 558.20 L 189.80 551.40 L 189.70 544.40 L 190.10 537.00 L 191.10 529.20 L 192.60 521.00 L 194.60 513.20 L 197.10 505.10 L 200.10 496.60 L 203.60 487.80 L 207.80 478.70 L 213.30 467.80 L 219.60 456.60 L 226.70 445.00 L 234.80 432.90 L 243.00 421.40 L 252.10 409.70 L 261.90 397.80 L 272.50 385.60 L 283.40 373.90 L 294.90 362.10 L 307.10 350.30 L 320.00 338.40 L 333.20 326.90 L 346.90 315.60 L 361.30 304.30 L 376.30 293.10 L 391.60 282.30 L 406.70 272.10 L 421.80 262.50 L 436.70 253.60 L 452.10 245.00 L 467.10 237.00 L 481.80 229.70 L 496.30 223.00 L 511.20 216.60 L 525.60 211.00 L 539.50 206.00 L 553.00 201.70 L 566.90 197.80 L 580.20 194.60 L 592.80 192.10 L 604.90 190.20 L 614.80 189.10 L 624.30 188.40 L 633.30 188.10 L 641.70 188.30 L 649.80 188.90 L 658.10 189.90 L 665.80 191.40 L 673.00 193.30 L 679.60 195.60 L 685.80 198.20 L 690.90 200.90 L 695.60 203.80 L 700.00 207.10 L 703.90 210.60 L 707.60 214.50 L 710.90 218.60 Z M 706.10 222.20 L 702.30 217.50 L 698.00 213.30 L 693.30 209.50 L 688.00 206.10 L 682.20 203.10 L 676.20 200.60 L 669.80 198.60 L 662.90 196.80 L 655.40 195.50 L 647.40 194.60 L 639.60 194.20 L 622.60 194.40 L 603.70 196.40 L 592.00 198.30 L 579.70 200.80 L 566.70 204.10 L 553.10 208.00 L 539.90 212.30 L 526.30 217.20 L 512.20 222.70 L 497.60 229.00 L 483.40 235.60 L 469.00 242.80 L 454.20 250.60 L 439.20 259.10 L 424.50 267.90 L 409.70 277.30 L 394.80 287.30 L 379.80 297.90 L 365.00 308.90 L 350.90 320.00 L 337.40 331.20 L 324.50 342.40 L 311.80 354.10 L 299.80 365.70 L 288.50 377.20 L 277.80 388.70 L 267.40 400.60 L 257.70 412.30 L 248.80 423.70 L 240.70 435.00 L 232.80 446.70 L 225.70 458.00 L 219.50 468.90 L 214.00 479.50 L 209.90 488.40 L 203.30 505.10 L 198.90 520.50 L 197.20 528.40 L 196.20 536.00 L 195.70 543.10 L 195.70 549.80 L 196.20 556.20 L 197.20 562.70 L 198.80 568.80 L 201.00 574.40 L 203.70 579.80 L 206.90 584.80 L 210.70 589.50 L 215.00 593.70 L 219.70 597.50 L 225.00 600.90 L 230.80 603.90 L 236.80 606.40 L 243.20 608.40 L 250.10 610.20 L 257.60 611.50 L 265.60 612.40 L 281.60 612.90 L 290.40 612.60 L 309.30 610.60 L 321.00 608.70 L 333.30 606.20 L 346.30 602.90 L 359.90 599.00 L 373.10 594.70 L 386.70 589.80 L 400.80 584.30 L 415.40 578.00 L 429.60 571.40 L 444.00 564.20 L 458.80 556.40 L 473.80 547.90 L 488.50 539.10 L 503.30 529.70 L 518.20 519.70 L 533.20 509.10 L 548.00 498.10 L 562.10 487.00 L 575.60 475.80 L 588.50 464.60 L 601.20 452.90 L 613.20 441.30 L 624.50 429.80 L 635.20 418.30 L 645.60 406.40 L 655.30 394.70 L 664.20 383.30 L 672.30 372.00 L 680.20 360.30 L 687.30 349.00 L 693.50 338.10 L 699.00 327.50 L 706.70 310.10 L 712.20 294.10 L 714.10 286.50 L 715.80 278.60 L 716.80 271.00 L 717.30 263.90 L 717.30 257.20 L 716.80 250.80 L 715.80 244.30 L 714.20 238.20 L 712.00 232.60 L 709.30 227.20 L 706.10 222.20 Z" fill="#000000" fill-rule="nonzero" group-id="1,5" id="椭圆形" node-id="13" stroke="none" target-height="430.80002" target-width="533.6" target-x="189.7" target-y="188.1"/></g><path d="M 460.50 450.80 L 320.30 243.40 L 501.80 415.60 L 502.20 417.20 L 502.10 418.00 L 499.40 425.40 L 496.80 431.20 L 494.30 435.60 L 492.00 438.90 L 489.70 441.20 L 487.10 443.20 L 483.50 445.20 L 478.60 447.40 L 472.10 449.60 L 463.70 452.00 L 461.90 451.90 L 460.50 450.80 Z" fill="#ffffff" fill-rule="evenodd" group-id="1" id="路径-17" node-id="14" stroke="none" target-height="208.6" target-width="181.90002" target-x="320.3" target-y="243.4"/><path d="M 317.80 245.10 L 317.30 243.10 L 317.50 242.20 L 318.40 241.10 L 319.60 240.50 L 320.50 240.40 L 322.40 241.20 L 503.30 412.70 L 504.40 414.10 L 505.00 415.60 L 505.20 417.30 L 504.90 418.90 L 502.10 426.60 L 499.40 432.70 L 496.80 437.30 L 494.20 440.90 L 491.70 443.50 L 488.90 445.60 L 485.00 447.80 L 479.80 450.10 L 473.00 452.50 L 464.40 454.90 L 462.60 455.10 L 460.90 454.70 L 459.40 453.90 L 458.00 452.40 L 317.80 245.10 Z M 338.10 264.40 L 462.90 449.10 L 471.40 446.70 L 477.40 444.60 L 481.90 442.70 L 485.20 440.90 L 487.70 439.00 L 489.70 436.90 L 491.80 433.90 L 494.10 429.80 L 496.60 424.30 L 499.20 417.10 L 338.10 264.40 Z" fill="#000000" fill-rule="nonzero" group-id="1" id="路径-17" node-id="15" stroke="none" target-height="214.70001" target-width="187.90002" target-x="317.3" target-y="240.4"/><path d="M 336.00 236.00 L 335.80 239.20 L 334.20 245.00 L 332.90 247.60 L 329.30 252.30 L 324.60 255.90 L 322.00 257.20 L 316.20 258.80 L 313.00 259.00 L 306.80 258.20 L 304.00 257.20 L 298.90 254.20 L 294.80 250.10 L 293.10 247.60 L 290.80 242.20 L 290.20 239.20 L 290.00 236.00 L 290.80 229.80 L 291.80 227.00 L 294.80 221.90 L 298.90 217.80 L 304.00 214.80 L 309.80 213.20 L 313.00 213.00 L 316.20 213.20 L 322.00 214.80 L 324.60 216.10 L 329.30 219.70 L 332.90 224.40 L 334.20 227.00 L 335.80 232.80 L 336.00 236.00 Z" fill="#ffffff" fill-rule="evenodd" group-id="1" id="椭圆形" node-id="16" stroke="none" target-height="46" target-width="46" target-x="290" target-y="213"/><path d="M 313.00 213.00 L 316.20 213.20 L 322.00 214.80 L 324.60 216.10 L 329.30 219.70 L 332.90 224.40 L 334.20 227.00 L 335.80 232.80 L 336.00 236.00 L 335.20 242.20 L 334.20 245.00 L 331.20 250.10 L 327.10 254.20 L 324.60 255.90 L 319.20 258.20 L 316.20 258.80 L 313.00 259.00 L 306.80 258.20 L 304.00 257.20 L 298.90 254.20 L 294.80 250.10 L 291.80 245.00 L 290.20 239.20 L 290.00 236.00 L 290.20 232.80 L 291.80 227.00 L 293.10 224.40 L 296.70 219.70 L 301.40 216.10 L 304.00 214.80 L 309.80 213.20 L 313.00 213.00 Z M 313.00 219.00 L 309.90 219.30 L 307.10 220.10 L 304.40 221.30 L 302.00 223.00 L 300.00 225.00 L 298.30 227.40 L 297.10 230.10 L 296.30 232.90 L 296.00 236.00 L 296.30 239.10 L 297.10 241.90 L 298.30 244.60 L 300.00 247.00 L 302.00 249.00 L 304.40 250.70 L 307.10 251.90 L 309.90 252.70 L 313.00 253.00 L 316.10 252.70 L 318.90 251.90 L 321.60 250.70 L 324.00 249.00 L 326.00 247.00 L 327.70 244.60 L 328.90 241.90 L 329.70 239.10 L 330.00 236.00 L 329.70 232.90 L 328.90 230.10 L 327.70 227.40 L 326.00 225.00 L 324.00 223.00 L 321.60 221.30 L 318.90 220.10 L 316.10 219.30 L 313.00 219.00 Z" fill="#000000" fill-rule="nonzero" group-id="1" id="椭圆形" node-id="17" stroke="none" target-height="46" target-width="46" target-x="290" target-y="213"/><path d="M 624.20 761.80 L 625.30 762.00 L 626.30 762.60 L 626.90 763.60 L 627.20 764.80 L 626.90 765.90 L 626.30 766.90 L 625.30 767.50 L 624.20 767.80 L 507.70 767.80 L 506.50 767.50 L 505.50 766.90 L 504.90 765.90 L 504.70 764.80 L 504.90 763.60 L 505.50 762.60 L 506.50 762.00 L 507.70 761.80 L 624.20 761.80 Z" fill="#000000" fill-rule="nonzero" group-id="1" id="路径-18" node-id="18" stroke="none" target-height="6" target-width="122.5" target-x="504.7" target-y="761.8"/><path d="M 136.00 348.00 L 135.80 350.60 L 135.10 352.90 L 134.10 355.10 L 132.70 357.00 L 131.00 358.70 L 129.10 360.10 L 126.90 361.10 L 124.60 361.80 L 122.00 362.00 L 119.40 361.80 L 117.10 361.10 L 114.90 360.10 L 113.00 358.70 L 111.30 357.00 L 109.90 355.10 L 108.90 352.90 L 108.20 350.60 L 108.00 348.00 L 108.20 345.40 L 108.90 343.10 L 109.90 340.90 L 111.30 339.00 L 113.00 337.30 L 114.90 335.90 L 117.10 334.90 L 119.40 334.20 L 122.00 334.00 L 124.60 334.20 L 126.90 334.90 L 129.10 335.90 L 131.00 337.30 L 132.70 339.00 L 134.10 340.90 L 135.10 343.10 L 135.80 345.40 L 136.00 348.00 Z" fill="#0076fc" fill-rule="evenodd" group-id="1" id="椭圆形备份-2" node-id="19" stroke="none" target-height="28" target-width="28" target-x="108" target-y="334"/><path d="M 122.00 334.00 L 124.60 334.20 L 126.90 334.90 L 129.10 335.90 L 131.00 337.30 L 132.70 339.00 L 134.10 340.90 L 135.10 343.10 L 135.80 345.40 L 136.00 348.00 L 135.80 350.60 L 135.10 352.90 L 134.10 355.10 L 132.70 357.00 L 131.00 358.70 L 129.10 360.10 L 126.90 361.10 L 124.60 361.80 L 122.00 362.00 L 119.40 361.80 L 117.10 361.10 L 114.90 360.10 L 113.00 358.70 L 111.30 357.00 L 109.90 355.10 L 108.90 352.90 L 108.20 350.60 L 108.00 348.00 L 108.20 345.40 L 108.90 343.10 L 109.90 340.90 L 111.30 339.00 L 113.00 337.30 L 114.90 335.90 L 117.10 334.90 L 119.40 334.20 L 122.00 334.00 Z M 122.00 335.00 L 119.60 335.20 L 117.50 335.80 L 113.60 338.10 L 110.80 341.40 L 109.80 343.50 L 109.20 345.60 L 109.00 348.00 L 109.20 350.40 L 109.80 352.50 L 110.80 354.60 L 113.60 357.90 L 117.50 360.20 L 122.00 361.00 L 124.40 360.80 L 126.50 360.20 L 130.40 357.90 L 133.20 354.60 L 134.20 352.50 L 134.80 350.40 L 135.00 348.00 L 134.80 345.60 L 134.20 343.50 L 131.90 339.60 L 128.60 336.80 L 126.50 335.80 L 124.40 335.20 L 122.00 335.00 Z" fill="#0076fc" fill-rule="nonzero" group-id="1" id="椭圆形备份-2" node-id="20" stroke="none" target-height="28" target-width="28" target-x="108" target-y="334"/><path d="M 823.50 177.00 L 825.80 177.60 L 827.40 179.20 L 827.80 180.30 L 828.00 191.00 L 837.70 191.20 L 838.80 191.60 L 840.40 193.20 L 841.00 195.50 L 840.40 197.80 L 838.80 199.40 L 837.70 199.80 L 828.00 200.00 L 827.80 209.70 L 826.70 211.70 L 824.70 212.80 L 822.30 212.80 L 821.20 212.40 L 819.60 210.80 L 819.00 208.50 L 819.00 200.00 L 808.30 199.80 L 807.20 199.40 L 805.60 197.80 L 805.00 195.50 L 805.60 193.20 L 807.20 191.60 L 808.30 191.20 L 819.00 191.00 L 819.20 180.30 L 819.60 179.20 L 821.20 177.60 L 823.50 177.00 Z" fill="#0076fc" fill-rule="evenodd" group-id="1" id="形状结合备份-4" node-id="21" stroke="none" target-height="35.800003" target-width="36" target-x="805" target-y="177"/><path d="M 823.50 177.00 L 825.80 177.60 L 827.40 179.20 L 827.80 180.30 L 828.00 191.00 L 837.70 191.20 L 838.80 191.60 L 840.40 193.20 L 841.00 195.50 L 840.40 197.80 L 838.80 199.40 L 837.70 199.80 L 828.00 200.00 L 827.80 209.70 L 826.70 211.70 L 824.70 212.80 L 822.30 212.80 L 821.20 212.40 L 819.60 210.80 L 819.00 208.50 L 819.00 200.00 L 808.30 199.80 L 807.20 199.40 L 805.60 197.80 L 805.00 195.50 L 805.60 193.20 L 807.20 191.60 L 808.30 191.20 L 819.00 191.00 L 819.20 180.30 L 819.60 179.20 L 821.20 177.60 L 823.50 177.00 Z M 823.50 179.20 L 821.90 179.90 L 821.30 181.50 L 821.30 193.20 L 809.50 193.20 L 807.90 193.90 L 807.30 195.50 L 807.90 197.10 L 809.50 197.70 L 821.30 197.70 L 821.30 208.50 L 821.90 210.10 L 823.50 210.70 L 825.10 210.10 L 825.80 208.50 L 825.80 197.70 L 836.50 197.70 L 838.10 197.10 L 838.80 195.50 L 838.10 193.90 L 836.50 193.20 L 825.80 193.20 L 825.80 181.50 L 825.10 179.90 L 823.50 179.20 Z" fill="#0076fc" fill-rule="nonzero" group-id="1" id="形状结合备份-4" node-id="22" stroke="none" target-height="35.800003" target-width="36" target-x="805" target-y="177"/><path d="M 856.00 594.50 L 855.20 598.90 L 853.10 602.60 L 849.80 605.30 L 847.90 606.20 L 843.50 607.00 L 839.10 606.20 L 835.40 604.10 L 832.70 600.80 L 831.20 596.80 L 831.00 594.50 L 831.20 592.20 L 831.80 590.10 L 833.90 586.40 L 837.20 583.70 L 839.10 582.80 L 843.50 582.00 L 847.90 582.80 L 851.60 584.90 L 854.30 588.20 L 855.20 590.10 L 856.00 594.50 Z" fill="#ffffff" fill-rule="evenodd" group-id="1" id="椭圆形备份-2" node-id="23" stroke="none" target-height="25" target-width="25" target-x="831" target-y="582"/><path d="M 843.50 582.00 L 847.90 582.80 L 851.60 584.90 L 854.30 588.20 L 855.20 590.10 L 856.00 594.50 L 855.20 598.90 L 853.10 602.60 L 849.80 605.30 L 845.80 606.80 L 843.50 607.00 L 841.20 606.80 L 839.10 606.20 L 835.40 604.10 L 832.70 600.80 L 831.80 598.90 L 831.00 594.50 L 831.80 590.10 L 833.90 586.40 L 837.20 583.70 L 839.10 582.80 L 843.50 582.00 Z M 843.50 585.00 L 840.20 585.60 L 838.70 586.30 L 836.80 587.80 L 835.30 589.70 L 834.60 591.20 L 834.00 594.50 L 834.60 597.80 L 835.30 599.30 L 836.80 601.20 L 838.70 602.70 L 840.20 603.40 L 843.50 604.00 L 846.80 603.40 L 848.30 602.70 L 850.20 601.20 L 851.70 599.30 L 852.40 597.80 L 853.00 594.50 L 852.40 591.20 L 851.70 589.70 L 850.20 587.80 L 848.30 586.30 L 846.80 585.60 L 843.50 585.00 Z" fill="#000000" fill-rule="nonzero" group-id="1" id="椭圆形备份-2" node-id="24" stroke="none" target-height="25" target-width="25" target-x="831" target-y="582"/></g></svg>
