<svg
  t="1762973855716"
  class="icon"
  viewBox="0 0 2047 1024"
  version="1.1"
  xmlns="http://www.w3.org/2000/svg"
  p-id="12068"
  width="256"
  height="256"
>
  <path
    d="M790.687701 48.755136l-11.940033-11.940033c-15.493615-15.493615-35.8201-23.880067-57.283731-23.880067h-243.064964c-44.064409 0-81.021655 35.8201-81.021655 81.021655v838.076624c0 44.064409 35.8201 81.021655 81.021655 81.021654h1129.043864c44.064409 0 81.021655-35.8201 81.021655-81.021654V152.519711c0-44.064409-35.8201-81.021655-81.021655-81.021654H847.971433c-21.463631 1.137146-41.790117-7.249306-57.283732-22.742921z m0 0"
    fill="#F1ED7B"
    p-id="12069"
  ></path>
  <path
    d="M790.687701 48.755136l-11.940033-11.940033c-15.493615-15.493615-35.8201-23.880067-57.283731-23.880067h-243.064964c-44.064409 0-81.021655 35.8201-81.021655 81.021655v838.076624c0 44.064409 35.8201 81.021655 81.021655 81.021654h1129.043864c44.064409 0 81.021655-35.8201 81.021655-81.021654V152.519711c0-44.064409-35.8201-81.021655-81.021655-81.021654H847.971433c-21.463631 1.137146-41.790117-7.249306-57.283732-22.742921z m0 0"
    fill="#0E1115"
    p-id="12070"
  ></path>
  <path
    d="M1606.163548 1024H478.398973c-51.313715 0-92.961688-41.790117-92.961688-92.961688V92.961688c0-51.313715 41.790117-92.961688 92.961688-92.961688h243.207107c25.017213 0 47.61799 9.523598 65.52804 27.433648l11.940033 11.940033c13.077179 13.077179 29.850083 20.326485 48.89728 20.326486h759.471404c51.313715 0 92.961688 41.790117 92.961688 92.961688v778.5186c-1.279289 51.171571-42.927263 92.819545-94.240977 92.819545zM478.398973 25.017213c-38.094392 0-69.081621 30.987229-69.081622 69.081621v838.076624c0 38.094392 30.987229 69.081621 69.081622 69.081621h1129.043864c38.094392 0 69.081621-30.987229 69.081622-69.081621V152.519711c0-38.094392-30.987229-69.081621-69.081622-69.081621H847.971433c-25.017213 0-47.760133-9.523598-65.52804-27.433648l-11.940034-11.940033c-13.077179-13.077179-29.850083-20.326485-48.897279-20.326486H478.398973v1.27929z m0 0"
    fill="#6A576D"
    p-id="12071"
  ></path>
  <path
    d="M518.9098 132.193226h1048.02221c44.064409 0 81.021655 35.8201 81.021655 81.021655v670.063298c0 44.064409-35.8201 81.021655-81.021655 81.021654h-1048.02221c-44.064409 0-81.021655-35.8201-81.021655-81.021654V213.357024c0-44.206552 35.677957-81.163798 81.021655-81.163798z m0 0"
    fill="#FFFFFF"
    p-id="12072"
  ></path>
  <path
    d="M1566.789867 976.38201h-1048.02221c-51.313715 0-92.961688-41.790117-92.961688-92.961688V213.357024c0-51.313715 41.790117-92.961688 92.961688-92.961688h1048.02221c51.313715 0 92.961688 41.790117 92.961688 92.961688v670.063298c-1.137146 51.171571-42.785119 92.961688-92.961688 92.961688zM518.9098 144.133259c-38.094392 0-69.081621 30.987229-69.081621 69.081622v670.063298c0 38.094392 30.987229 69.081621 69.081621 69.081621h1048.02221c38.094392 0 69.081621-30.987229 69.081621-69.081621V213.357024c0-38.094392-30.987229-69.081621-69.081621-69.081621h-1048.02221z m0 0"
    fill="#6A576D"
    p-id="12073"
  ></path>
  <path
    d="M437.888145 996.566352l-57.283731-711.711271c-3.553581-46.480844 33.403665-86.991671 79.884509-86.991672h1048.02221c41.790117 0 77.468073 32.124375 79.884508 73.914492l58.420878 724.930594"
    fill="#FFFFFF"
    p-id="12074"
  ></path>
  <path
    d="M1646.674375 1008.506385c-5.970017 0-11.940033-4.832871-11.940033-10.660744l-58.420877-724.930594c-2.416435-35.8201-33.403665-63.253748-67.944476-63.253748h-1048.022209c-19.047196 0-36.957246 8.386452-50.034426 22.600778-13.077179 14.356469-19.047196 32.124375-17.91005 52.45086l57.283732 711.711272c0 5.970017-4.832871 11.940033-10.802888 13.077179-5.970017 0-11.940033-4.832871-13.077179-10.660744l-57.283731-711.711271c-2.416435-26.154359 7.107163-51.313715 23.880066-70.360911 17.91005-19.047196 41.790117-29.850083 67.944476-29.850083h1048.022209c47.760133 0 88.270961 36.957246 91.824542 84.717379l58.420878 724.930594c1.279289 4.832871-4.690727 10.802887-11.940034 11.940033 1.279289 0 0 0 0 0z m0 0"
    fill="#6A576D"
    p-id="12075"
  ></path>
  <path
    d="M437.888145 1012.059967l-96.657412-697.354803"
    fill="#0E1115"
    p-id="12076"
  ></path>
  <path
    d="M437.888145 996.566352l-126.365352-639.076069c-9.523598-50.034425 28.570794-95.378123 79.884508-95.378123h1044.326486c38.094392 0 71.498057 27.433648 78.747362 65.52804L1646.816519 997.703498"
    fill="#FFFFFF"
    p-id="12077"
  ></path>
  <path
    d="M1646.674375 1008.506385c-5.970017 0-10.660744-3.553581-11.940033-9.523598l-132.335369-670.063298c-5.970017-32.124375-34.540811-54.867296-67.944475-54.867296h-1043.18934c-20.326485 0-40.510827 9.523598-53.588006 25.017213-13.077179 15.493615-17.91005 36.957246-14.356469 57.283731l126.365353 637.79678c1.137146 5.970017-2.416435 13.077179-9.523598 14.356468-5.970017 1.137146-13.077179-2.416435-14.356469-9.523598l-126.365353-639.076069c-5.970017-27.433648 1.137146-54.867296 19.047196-76.330927 17.91005-21.463631 44.064409-33.403665 71.498057-33.403664h1044.326485c44.064409 0 82.300944 30.987229 90.545253 75.051638L1657.477263 995.429206c1.137146 5.970017-2.416435 13.077179-9.523598 14.356469 0-1.279289 0-1.279289-1.27929-1.27929z m0 0"
    fill="#6A576D"
    p-id="12078"
  ></path>
  <path
    d="M337.677152 302.76513h1144.537479c38.094392 0 70.360911 26.296502 78.747362 63.253748L1684.910911 914.407551c11.940033 50.034425-27.433648 98.931705-78.747363 98.931705h-1144.537479c-38.094392 0-70.360911-26.154359-78.747363-63.253748l-123.948917-548.388673c-11.79789-51.313715 26.296502-98.931705 78.747363-98.931705z m0 0"
    fill="#F1ED7B"
    p-id="12079"
  ></path>
  <path
    d="M1606.163548 1024h-1144.537479c-42.927263 0-81.021655-29.850083-90.545253-71.498057L247.131899 404.11327c-5.970017-27.433648 0-56.004442 17.91005-78.747362 17.91005-22.600777 44.064409-34.540811 72.777346-34.540811h1144.537479c42.927263 0 81.021655 29.850083 90.545253 71.498057l123.948917 548.388673c5.970017 27.433648 0 56.004442-17.91005 78.747362-17.91005 22.600777-44.064409 34.540811-72.777346 34.540811z m-1268.486396-709.294836c-21.463631 0-40.510827 9.523598-53.588007 26.154358-13.077179 16.630761-17.91005 38.094392-13.077179 58.420878l123.948917 548.388673c7.107163 30.987229 34.540811 53.588007 66.807329 53.588006h1144.537479c21.463631 0 40.510827-9.523598 53.588007-26.296502 13.077179-16.630761 17.91005-38.094392 13.077179-58.420877l-123.948917-548.388673c-7.107163-30.987229-34.540811-53.588007-66.807329-53.588006H337.677152z m0 0"
    fill="#6A576D"
    p-id="12080"
  ></path>
</svg>
