<svg
  t="1736693847001"
  class="icon"
  viewBox="0 0 1476 1024"
  version="1.1"
  xmlns="http://www.w3.org/2000/svg"
  p-id="8330"
  width="256"
  height="256"
>
  <path
    d="M343.236923 728.438154c-2.894769 15.36-4.194462 29.341538-8.172308 42.673231-14.237538 47.950769 0.118154 87.394462 34.658462 122.564923 14.434462 14.769231 28.868923 30.72 38.4 48.580923 16.699077 31.192615 7.325538 60.770462-27.372308 69.691077-38.656 9.846154-80.206769 12.012308-120.457846 12.051692-29.065846 0.059077-45.883077-21.307077-53.051077-48.364308L153.107692 770.363077l-11.047384-41.924923H343.236923z m790.587077-259.879385c6.774154 17.053538 9.531077 35.721846 7.857231 55.433846-4.548923 52.932923-49.782154 101.336615-111.025231 111.655385-28.081231 4.706462-26.505846 21.129846-26.308923 38.695385 0.905846 78.454154 3.485538 156.928 3.741538 235.382153 0.019692 22.705231-3.899077 45.843692-9.097846 68.056616-8.566154 36.745846-35.308308 52.696615-71.739077 39.975384-20.164923-7.049846-39.325538-20.775385-54.587077-35.682461-15.419077-15.202462-28.022154-34.363077-37.29723-53.819077-25.009231-52.519385-57.639385-94.818462-96.393847-128.393846l60.868924-51.081846c42.988308 38.065231 81.664 83.633231 115.968 137.058461l5.651692 8.920616V646.734769l212.361846-178.176z m259.544615-346.308923a39.384615 39.384615 0 0 1 50.609231 60.337231L538.899692 942.060308a39.384615 39.384615 0 0 1-50.628923-60.337231z m-21.602461 146.668308C1401.107692 340.322462 1417.846154 428.406154 1417.846154 521.846154c0 174.001231-57.974154 328.763077-146.766769 392.664615a19.692308 19.692308 0 1 1-23.000616-31.940923C1324.937846 827.234462 1378.461538 684.366769 1378.461538 521.846154c0-83.574154-14.139077-162.126769-38.478769-226.264616l31.783385-26.663384z m-101.435077 85.070769C1289.058462 401.683692 1299.692308 460.051692 1299.692308 521.846154c0 111.655385-34.599385 211.987692-89.284923 258.422154A19.692308 19.692308 0 1 1 1184.886154 750.276923C1229.469538 712.408615 1260.307692 623.005538 1260.307692 521.846154c0-51.830154-8.093538-100.608-21.996307-140.937846l32.019692-26.899693zM966.144 6.084923c23.04 6.577231 34.855385 21.110154 35.249231 45.016615 1.437538 86.843077 5.435077 173.764923 4.292923 260.608-0.689231 54.941538-3.387077 58.663385 39.187692 77.233231l-123.411692 103.561846V131.131077c-34.422154 43.421538-61.164308 82.412308-93.302154 116.637538-95.803077 101.927385-219.431385 151.788308-357.710769 170.338462-23.650462 3.150769-31.744 10.200615-31.035077 33.358769 1.614769 49.014154 0.531692 98.166154 0.531692 149.720616 96.886154 8.861538 183.788308 34.067692 260.391385 76.859076l-67.308308 56.516924c-44.366769-18.884923-92.987077-31.251692-144.718769-38.281847-101.769846-13.784615-205.981538-10.712615-309.051077-16.56123-33.319385-1.890462-67.347692-4.785231-99.249231-13.508923C26.348308 651.579077 0.886154 615.187692 0.196923 561.624615c-0.354462-29.006769-0.098462-57.993846-0.039385-87.000615 0.098462-74.968615 37.179077-118.488615 114.116924-126.326154 58.013538-5.907692 116.676923-5.907692 175.104-8.566154 76.583385-3.426462 186.722462-8.270769 276.873846-28.790154 112.64-25.6 197.651692-92.731077 257.102769-190.286769 22.016-36.214154 48.600615-69.828923 74.574769-103.581538 18.254769-23.630769 43.657846-17.939692 68.233846-10.988308zM336.856615 425.668923c-54.232615 1.792-109.154462 1.595077-162.422153 10.417231-17.073231 2.816-32.689231 28.888615-43.756308 47.241846-10.496 17.388308-0.590769 29.991385 21.070769 30.188308 19.790769 0.236308 39.620923 0.196923 59.431385 0.157538l29.735384-0.059077v1.063385c27.254154 0 54.606769-1.004308 81.841231 0.334769 20.342154 1.024 30.365538-6.045538 29.892923-26.092308-0.393846-15.616 0.827077-31.448615-1.496615-46.76923-0.945231-6.301538-9.452308-16.620308-14.296616-16.482462z m485.789539-73.629538l11.776 3.958153c0 34.185846 0.787692 68.450462-0.807385 102.616616-0.295385 5.454769-10.417231 13.154462-17.368615 15.143384-87.552 25.383385-176.974769 35.524923-269.154462 32.728616l-14.572307-0.551385V469.858462c112.206769-4.608 207.300923-47.025231 290.126769-117.83877z m375.729231-91.943385l-18.392616 15.458462a19.633231 19.633231 0 0 1 18.412308-15.458462z m88.024615-118.744615c8.408615 7.364923 16.521846 15.556923 24.260923 24.536615l-30.129231 25.324308c-6.459077-7.404308-13.154462-14.178462-20.066461-20.204308a19.692308 19.692308 0 0 1 25.934769-29.656615z"
    fill="#FFAC00"
    p-id="8331"
  ></path>
</svg>
