<?xml version="1.0" standalone="no"?><!DOCTYPE svg PUBLIC "-//W3C//DTD SVG 1.1//EN" "http://www.w3.org/Graphics/SVG/1.1/DTD/svg11.dtd">
<svg t="1729662362654" class="icon" viewBox="0 0 1024 1024" version="1.1" xmlns="http://www.w3.org/2000/svg" p-id="3405"
     width="200" height="200"><path d="M420.2 466.46L177.27 142.55c-13.4-17.85-38.83-21.55-56.66-8.09-17.91 13.4-21.55 38.79-8.11 56.68l225.73 300.99L111.2 832.69c-12.42 18.6-7.39 43.75 11.23 56.15 6.92 4.61 14.71 6.8 22.42 6.8 13.09 0 25.94-6.33 33.73-18.03l242.93-364.39c9.53-14.28 9.01-33.02-1.31-46.76z" p-id="3406"></path><path d="M663.13 466.46L420.2 142.55c-13.4-17.85-38.79-21.55-56.66-8.09-17.91 13.4-21.55 38.79-8.11 56.68l225.73 300.99-227.03 340.56c-12.42 18.6-7.39 43.75 11.23 56.15 6.92 4.61 14.71 6.8 22.42 6.8 13.09 0 25.94-6.33 33.73-18.03l242.93-364.39c9.53-14.28 9.01-33.02-1.31-46.76z" p-id="3407"></path><path d="M906.06 466.46L663.13 142.55c-13.4-17.85-38.79-21.55-56.66-8.09-17.91 13.4-21.55 38.79-8.11 56.68l225.74 301-227.04 340.55c-12.42 18.6-7.39 43.75 11.23 56.15 6.92 4.61 14.71 6.8 22.42 6.8 13.09 0 25.94-6.33 33.73-18.03l242.93-364.39c9.53-14.28 9.01-33.02-1.31-46.76z" p-id="3408"></path></svg>
