<svg
  t="1729926561742"
  class="icon"
  viewBox="0 0 1024 1024"
  version="1.1"
  xmlns="http://www.w3.org/2000/svg"
  p-id="1972"
  width="256"
  height="256"
>
  <path
    d="M350.09487189 709.64825429c1.28991459-1.9556773 0.6657627-5.86703189-1.9556773-8.44686222-3.24559189-2.62144-7.15694763-3.24559189-9.11262492-1.28991573-1.28991459 1.9556773-0.6657627 5.86703189 1.95567844 8.44686222 3.24559189 2.62144 7.15694763 3.24559189 9.11262378 1.28991573z m-18.18363904-26.67211207c-1.9556773-2.62144-5.20127033-3.91135459-7.78109952-2.62144-1.9556773 1.28991459-1.9556773 5.20127033 0 7.78109952 2.62144 3.24559189 5.86703189 4.53550763 7.78109952 3.24559303 1.9556773-1.28991459 1.9556773-5.20127033 0-8.44686222z m-26.67211207-26.00634937c0.6657627-1.28991459-0.6657627-3.91135459-3.24559189-5.20126919-1.9556773-0.6657627-4.53550763-0.6657627-5.20127033 1.2899146-1.28991459 1.9556773 0 3.91135459 2.62144 5.20126919 2.62144 0.6657627 5.20127033 0.6657627 5.86703303-1.2899146z m13.64813255 14.97965682c1.28991459-1.28991459 1.28991459-4.53550763-1.28991459-6.49118378-1.9556773-2.62144-5.20127033-3.24559189-6.49118493-1.95567844-1.9556773 1.9556773-1.28991459 4.53550763 0.6657627 7.15694762 1.9556773 1.9556773 5.20127033 3.24559189 7.1569465 1.2899146z m55.92405334 48.76710684c0.6657627-2.62144-1.9556773-5.86703189-5.8670319-7.15694762s-7.15694763 0-8.44686222 2.62144c-0.6657627 2.62144 1.9556773 5.86703189 5.8670319 7.15694762s7.15694763 0 8.44686222-2.62144z m27.29626396 1.9556773c0-2.62144-3.24559189-5.20127033-7.78109952-5.20127032-3.91135459 0-6.49118493 2.62144-6.49118492 5.20127032s3.24559189 5.20127033 7.15694762 5.2012692 7.15694763-2.62144 7.15694763-5.2012692z m25.38219748-4.5771173c-0.6657627-2.62144-4.53550763-3.91135459-8.44686222-3.24559302s-6.49118493 3.24559189-5.86703304 5.86703302 3.91135459 4.53550763 7.78109952 3.9113546 6.49118493-3.91135459 6.49118493-6.49118492zM844.88127033 512c0-184.00012174-148.88114745-332.88127033-332.88127033-332.88127033s-332.88127033 148.88114745-332.88127033 332.88127033c0 146.92547015 95.57853411 271.75594667 227.56595826 315.98754589 16.89372445 3.24559189 22.76075634-7.15694763 22.76075748-16.26957256 0-7.78109952 0-33.78744889-0.66576271-61.74947555 0 0-92.33294222 20.13931634-111.84810667-39.65448079 0 0-14.93804715-38.36456619-37.07465158-48.10134414 0 0-29.91770397-20.80507904 2.62144-20.80507904 0 0 32.49753429 2.62144 50.722783 34.4532116 29.25194126 51.34693603 78.01904811 36.40888889 96.86844985 27.96202666 3.24559189-21.47084174 11.69245411-36.40888889 21.47084174-44.85575111-74.10769237-8.44686222-152.12674048-37.07465159-152.12674048-164.4849573 0-36.40888889 13.02397952-65.66083015 34.45321159-89.08735033-3.24559189-8.44686222-14.93804715-42.27592078 3.24559303-88.42158762 27.96202667-8.44686222 91.66717952 34.45321159 91.66717952 34.45321159 26.67211207-7.78109952 54.63413874-11.06830222 83.2203173-11.06830223s56.54820523 3.24559189 83.2203173 11.06830223c0 0 63.70515285-42.90007381 91.66717952-34.45321159 18.22524985 46.14566571 6.49118493 79.97472541 3.24559303 88.42158762 21.47084174 23.38490937 34.45321159 52.67846144 34.45321159 89.08735033 0 128.07606841-78.01904811 156.03809507-152.12674048 164.4849573 11.69245411 10.40253952 22.76075634 30.54185699 22.76075634 61.74947555 0 44.18998841-0.6657627 79.97472541-0.66576271 91.0430265 0 9.11262493 5.86703189 19.51516445 22.76075748 16.26957254C749.30273507 783.83916715 844.88127033 659.00869063 844.88127033 512.04160967z m166.4406346-312.07619015v624.1523803c0 103.35963477-83.88608 187.24571477-187.24571478 187.24571478h-624.1523803A187.32893411 187.32893411 0 0 1 12.67809507 824.07619015v-624.1523803C12.67809507 96.56417507 96.56417507 12.67809507 199.92380985 12.67809507h624.1523803C927.43582493 12.67809507 1011.32190493 96.56417507 1011.32190493 199.92380985z"
    p-id="1973"
  ></path>
</svg>
