<svg
  t="1746639312621"
  class="icon"
  viewBox="0 0 1024 1024"
  version="1.1"
  xmlns="http://www.w3.org/2000/svg"
  p-id="45663"
  width="256"
  height="256"
>
  <path
    d="M974.02 350.79c-21.79-81.3-61.79-151.52-120-210.63-44.63-45.15-95.53-79.87-152.69-104.14C644.3 12.01 584.47 0 521.82 0h-18.99c-62.9 0.26-122.87 12.46-179.9 36.61-57.29 24.01-108.12 58.53-152.49 103.55-44.37 45.15-78.5 97.03-102.38 155.63-23.75 58.34-35.63 119.54-35.63 183.62 0 15.66 0.72 31.32 2.15 46.98 0 0.13 0.13 0.26 0.39 0.39h-0.59c4.44 47.11 15.53 92.66 33.28 136.64 24.01 58.47 58.2 110.34 102.58 155.63 3.26 3.39 6.59 6.72 9.98 9.98-13.7 19.71-20.55 41.5-20.55 65.38 0 35.89 14.75 66.43 44.24 91.61 0.13 0.26 0.33 0.52 0.59 0.78 29.23 24.8 64.6 37.19 106.1 37.19h402.47c41.89 0 77.58-12.66 107.08-37.98 29.49-25.19 44.24-55.73 44.24-91.61 0-23.88-6.79-45.74-20.36-65.58l9.79-9.79c58.07-59.25 98.07-129.46 120-210.63 2.61-9.14 4.89-18.4 6.85-27.8h0.39c4.18-19.71 7.18-39.35 9-58.92h-0.39c5.1-57.15-0.12-114.12-15.65-170.89M827.2 167.37c8.35 8.74 14.49 15.33 18.4 19.77-51.16 25.06-104.53 44.11-160.13 57.16-27.14-74.26-66.62-142.05-118.43-203.39 49.2 5.22 96.05 18.53 140.55 39.93 44.38 21.8 84.25 50.64 119.61 86.53m42.29 50.51c48.03 66.43 75.56 140.81 82.61 223.16H726c-2.61-53.51-12.01-106.95-28.19-160.32 59.25-13.97 116.47-34.92 171.68-62.84m81.82 308.9h-0.2c-8.35 78.82-35.63 150.41-81.83 214.74-55.2-27.93-112.49-48.94-171.87-63.03 10.05-32.5 17.42-65.12 22.12-97.88h0.39c2.48-16.31 4.24-32.76 5.29-49.33 0.2-2.48 0.39-4.96 0.59-7.44 0-0.78 0.07-1.5 0.2-2.15 0.78-13.96 1.17-28.06 1.17-42.28h226.49c0.13 14.09-0.39 28.19-1.57 42.28h-0.2c-0.38 1.83-0.58 3.52-0.58 5.09m-124.5 264.86l-9 9c-18.4-15.27-40.26-25.77-65.58-31.52-2.09-0.39-3.65-0.98-4.7-1.76l-0.2-0.2c-1.17-1.17-2.09-2.28-2.74-3.33v-0.2c-6.13-13.96-13.64-26.95-22.51-38.96a745.546 745.546 0 0 1 123.13 47.37c-3.78 4.46-9.92 10.98-18.4 19.6m-2.35 102.77c0 12.79-2.68 24.99-8.03 36.61h-0.39c-5.74 11.61-13.77 21.92-24.08 30.93-10.31 8.87-22.32 15.86-36.02 20.95v0.2c-13.83 4.7-28.12 6.92-42.87 6.66H310.6c-14.88 0-28.97-2.22-42.28-6.66l-0.2-0.2c-13.7-5.09-25.71-12.07-36.02-20.95-10.44-8.87-18.47-19.05-24.08-30.54-5.87-11.88-8.81-24.21-8.81-37 0-21.66 7.96-41.17 23.88-58.53 15.27-16.97 35.11-28.19 59.51-33.67l25.06-5.68 9.4-20.75c7.44-17.23 17.62-32.76 30.54-46.59 12.4-13.83 27.21-26.1 44.44-36.8h0.39c36.02-21.66 75.89-32.5 119.61-32.5 44.24 0 84.31 10.83 120.19 32.5 17.1 10.44 32.04 22.71 44.83 36.8 12.79 14.09 22.9 29.62 30.34 46.59l9.2 20.55 25.45 5.87c24.4 5.48 44.24 16.84 59.51 34.06 15.27 17.37 22.9 36.75 22.9 58.15M511.06 38.37h2.35c59.25 61.47 104.14 132.72 134.68 213.77-90.18 16.44-180.49 16.44-270.93 0 30.28-81.05 74.91-152.3 133.9-213.77M316.67 80.85c44.37-21.4 91.16-34.71 140.36-39.93-50.77 60.29-89.79 128.29-117.06 203.98-55.46-13.18-109.04-32.36-160.72-57.55 7.7-9.14 13.57-15.79 17.62-19.97 35.5-35.9 75.43-64.74 119.8-86.53m20.36 360.19c2.87-51.42 11.94-102.18 27.21-152.3 48.29 9.53 97.68 14.29 148.19 14.29 49.85 0 99.25-4.7 148.19-14.09 15.4 49.72 24.53 100.42 27.41 152.1h-351M154.78 218.27c55.33 27.67 112.95 48.74 172.85 63.23-15.66 52.85-24.99 106.03-27.99 159.54H72.17c3.26-40.33 11.94-79.41 26.04-117.26 13.96-37.85 32.82-73.02 56.57-105.51m180.88 261.14h353.73a656 656 0 0 1-1.37 42.28c-0.13 0.65-0.2 1.3-0.2 1.96-0.07 1.04-0.13 2.09-0.2 3.13h-0.59c-3.26 48.16-11.94 95.4-26.04 141.73-1.96-1.31-3.92-2.54-5.87-3.72-43.07-25.84-90.77-38.76-143.1-38.76s-99.77 12.92-142.31 38.76c-0.39 0.13-0.78 0.33-1.17 0.59-1.7 1.04-3.39 2.09-5.09 3.13-8.74-29.1-15.33-58.4-19.77-87.89a562.29 562.29 0 0 1-5.48-46.79h-0.2a634.854 634.854 0 0 1-2.34-54.42M80 573.57c-1.96-11.81-3.92-23.62-5.87-35.43-0.39-4.05-0.78-7.96-1.17-11.75h-0.39a470.656 470.656 0 0 1-2.35-46.98h228.06c0 34.06 2.48 67.8 7.44 101.21h0.2c4.57 32.5 11.68 64.93 21.34 97.29-59.77 14.49-117.32 35.5-172.66 63.03-23.75-32.5-42.61-67.67-56.57-105.51a393.122 393.122 0 0 1-16.25-54.81h0.2c-0.67-2.36-1.32-4.71-1.98-7.05m196.54 193.79c-1.04 0.78-2.41 1.37-4.11 1.76-25.84 5.87-47.96 16.51-66.36 31.91l-9.4-9.4c-4.31-4.05-10.24-10.7-17.81-19.97 40.33-19.58 81.7-35.43 124.11-47.57-9.14 12.27-16.83 25.45-23.1 39.54-0.26 0-0.39 0.07-0.39 0.2-0.65 1.04-1.44 2.15-2.35 3.33-0.26 0.01-0.46 0.07-0.59 0.2m-23.88 78.5c-0.13 1.31 0.07 2.68 0.59 4.11l27.21 99.05c1.04 3.78 3.26 6.66 6.66 8.61 3.13 1.96 6.53 2.35 10.18 1.17 3.92-1.31 6.79-3.72 8.61-7.24l28.78-59.71 28.78 59.71c1.7 3.39 4.31 5.74 7.83 7.05 3.65 1.17 7.11 0.91 10.38-0.78 3.52-1.83 5.87-4.76 7.05-8.81l27.41-99.05c0.39-1.31 0.59-2.68 0.59-4.11v-0.59H389.3l-17.23 60.88-25.25-52.27c-2.35-4.7-6.39-7.05-12.14-7.05-5.74 0-9.79 2.35-12.14 7.05l-25.45 52.27-16.64-60.88h-27.8v0.59m355.5-0.59v0.59c-0.26 1.31-0.13 2.68 0.39 4.11l27.21 99.05c1.04 3.78 3.26 6.66 6.66 8.61 3.26 1.96 6.66 2.35 10.18 1.17 4.05-1.31 6.92-3.72 8.61-7.24l28.97-59.71 28.58 59.71c1.7 3.39 4.31 5.74 7.83 7.05 3.65 1.17 7.18 0.91 10.57-0.78 3.39-1.83 5.68-4.76 6.85-8.81l27.41-99.05c0.26-0.91 0.39-2.28 0.39-4.11v-0.59h-27.21l-17.03 60.88-25.45-52.27c-2.35-4.7-6.33-7.05-11.94-7.05-5.87 0-9.98 2.35-12.33 7.05l-25.45 52.27-16.64-60.88h-27.6m-14.09 0h-27.21l-17.03 60.88-25.25-52.27c-2.35-4.7-6.46-7.05-12.33-7.05-5.74 0-9.79 2.35-12.14 7.05l-25.25 52.27-16.84-60.88h-27.8v0.59l0.59 4.11 27.21 99.05c1.17 3.78 3.39 6.66 6.66 8.61 3.26 1.83 6.72 2.22 10.38 1.17 4.18-1.31 6.98-3.72 8.42-7.24l28.78-59.71 28.97 59.71c1.57 3.39 4.18 5.74 7.83 7.05 3.65 1.17 7.18 0.91 10.57-0.78 3.39-1.96 5.68-4.89 6.85-8.81l27.41-99.05 0.18-4.7z"
    fill="#383838"
    p-id="45664"
  ></path>
  <path
    d="M272.43 769.13c1.7-0.39 3.07-0.98 4.11-1.76 0.13-0.13 0.33-0.2 0.59-0.2 0.91-1.17 1.7-2.28 2.35-3.33 0-0.13 0.13-0.2 0.39-0.2 6.26-14.09 13.96-27.28 23.1-39.54-42.41 12.14-83.78 27.99-124.11 47.57 7.57 9.27 13.51 15.92 17.81 19.97l9.4 9.4c18.4-15.41 40.52-26.04 66.36-31.91m-198.3-231c1.96 11.81 3.92 23.62 5.87 35.43 0.65 2.35 1.31 4.7 1.96 7.05h-0.2c4.05 18.53 9.46 36.8 16.25 54.81 13.96 37.85 32.82 73.02 56.57 105.51 55.33-27.54 112.89-48.55 172.66-63.03-9.66-32.37-16.77-64.8-21.34-97.29h-0.2c-4.96-33.41-7.44-67.14-7.44-101.21H70.22c0 15.66 0.78 31.32 2.35 46.98h0.39c0.39 3.79 0.78 7.71 1.17 11.75m615.26-58.72H335.66c0 18.14 0.78 36.28 2.35 54.42h0.2c1.17 15.66 3 31.26 5.48 46.79 4.44 29.49 11.03 58.79 19.77 87.89 1.7-1.04 3.39-2.09 5.09-3.13 0.39-0.26 0.78-0.46 1.17-0.59 42.54-25.84 89.98-38.76 142.31-38.76s100.03 12.92 143.1 38.76c1.96 1.17 3.92 2.41 5.87 3.72 14.09-46.33 22.77-93.57 26.04-141.73h0.59c0.07-1.04 0.13-2.09 0.2-3.13 0-0.65 0.07-1.31 0.2-1.96 0.9-14.09 1.36-28.19 1.36-42.28M327.63 281.5c-59.9-14.49-117.52-35.56-172.85-63.23-23.75 32.5-42.61 67.67-56.57 105.51-14.09 37.85-22.77 76.93-26.04 117.26h227.47c3-53.51 12.33-106.69 27.99-159.54m36.61 7.24c-15.27 50.11-24.34 100.88-27.21 152.3h350.99c-2.87-51.68-12.01-102.38-27.41-152.1-48.94 9.4-98.33 14.09-148.19 14.09-50.5 0-99.89-4.76-148.18-14.29m92.79-247.83c-49.2 5.22-95.99 18.53-140.36 39.93-44.37 21.79-84.31 50.64-119.8 86.52-4.05 4.18-9.92 10.83-17.62 19.97 51.68 25.19 105.25 44.37 160.72 57.55 27.27-75.68 66.29-143.67 117.06-203.97m56.38-2.54h-2.35c-58.99 61.47-103.62 132.72-133.9 213.77 90.44 16.44 180.75 16.44 270.93 0-30.54-81.05-75.43-152.3-134.68-213.77m304.4 762.27l9-9c8.48-8.61 14.62-15.14 18.4-19.58a743.772 743.772 0 0 0-123.13-47.37c8.87 12.01 16.38 24.99 22.51 38.96v0.2c0.65 1.04 1.57 2.15 2.74 3.33l0.2 0.2c1.04 0.78 2.61 1.37 4.7 1.76 25.32 5.73 47.18 16.23 65.58 31.5m133.31-273.86h0.2c0-1.57 0.2-3.26 0.59-5.09h0.2a459.55 459.55 0 0 0 1.57-42.28H727.17c0 14.22-0.39 28.32-1.17 42.28-0.13 0.65-0.2 1.37-0.2 2.15-0.2 2.48-0.39 4.96-0.59 7.44a562.43 562.43 0 0 1-5.29 49.33h-0.39c-4.7 32.76-12.07 65.38-22.12 97.88 59.38 14.09 116.67 35.11 171.87 63.03 46.21-64.33 73.49-135.92 81.84-214.74m0.98-85.74c-7.05-82.35-34.58-156.74-82.61-223.16-55.2 27.93-112.43 48.87-171.68 62.84 16.18 53.38 25.58 106.82 28.19 160.32h226.1m-106.5-253.9c-3.92-4.44-10.05-11.03-18.4-19.77-35.37-35.89-75.24-64.73-119.61-86.52-44.5-21.4-91.35-34.71-140.55-39.93 51.81 61.34 91.29 129.13 118.43 203.39 55.6-13.06 108.98-32.11 160.13-57.17z"
    fill="#2BB0AF"
    p-id="45665"
  ></path>
  <path
    d="M816.44 931.02c5.35-11.61 8.03-23.82 8.03-36.61 0-21.4-7.63-40.78-22.9-58.14-15.27-17.23-35.11-28.58-59.51-34.06l-25.45-5.87-9.2-20.55c-7.44-16.97-17.55-32.5-30.34-46.59-12.79-14.09-27.73-26.36-44.83-36.8-35.89-21.66-75.95-32.5-120.19-32.5-43.72 0-83.59 10.83-119.61 32.5h-0.39c-17.23 10.7-32.04 22.97-44.44 36.8-12.92 13.83-23.1 29.36-30.54 46.59l-9.4 20.75-25.06 5.68c-24.4 5.48-44.24 16.7-59.51 33.67-15.92 17.36-23.88 36.87-23.88 58.53 0 12.79 2.94 25.12 8.81 37 5.61 11.48 13.64 21.66 24.08 30.54 10.31 8.87 22.32 15.86 36.02 20.95l0.2 0.2c13.31 4.44 27.41 6.66 42.28 6.66h402.47c14.75 0.26 29.04-1.96 42.87-6.66v-0.2c13.7-5.09 25.71-12.07 36.02-20.95 10.31-9 18.34-19.31 24.08-30.93h0.39m-249.59-85.76h27.21l-0.2 4.7-27.41 99.05c-1.17 3.92-3.46 6.85-6.85 8.81-3.39 1.7-6.92 1.96-10.57 0.78-3.65-1.31-6.26-3.65-7.83-7.05l-28.97-59.71-28.78 59.71c-1.44 3.52-4.24 5.94-8.42 7.24-3.65 1.04-7.11 0.65-10.38-1.17-3.26-1.96-5.48-4.83-6.66-8.61l-27.21-99.05-0.59-4.11v-0.59h27.8l16.84 60.88 25.25-52.27c2.35-4.7 6.39-7.05 12.14-7.05 5.87 0 9.98 2.35 12.33 7.05l25.25 52.27 17.05-60.88m41.3 0.59v-0.59h27.6l16.64 60.88 25.45-52.27c2.35-4.7 6.46-7.05 12.33-7.05 5.61 0 9.59 2.35 11.94 7.05l25.45 52.27 17.03-60.88h27.21v0.59c0 1.83-0.13 3.2-0.39 4.11L744 949.02c-1.17 4.05-3.46 6.98-6.85 8.81-3.39 1.7-6.92 1.96-10.57 0.78-3.52-1.31-6.13-3.65-7.83-7.05l-28.58-59.71-28.97 59.71c-1.7 3.52-4.57 5.94-8.61 7.24-3.52 1.17-6.92 0.78-10.18-1.17-3.39-1.96-5.61-4.83-6.66-8.61l-27.21-99.05c-0.52-1.43-0.65-2.8-0.39-4.11m-354.9 4.11c-0.52-1.44-0.72-2.81-0.59-4.11v-0.59h27.8l16.64 60.88 25.45-52.27c2.35-4.7 6.39-7.05 12.14-7.05 5.74 0 9.79 2.35 12.14 7.05l25.25 52.27 17.23-60.88h27.41v0.59c0 1.44-0.2 2.81-0.59 4.11l-27.41 99.05c-1.17 4.05-3.52 6.98-7.05 8.81-3.26 1.7-6.72 1.96-10.38 0.78-3.52-1.31-6.13-3.65-7.83-7.05l-28.78-59.71-28.78 59.71c-1.83 3.52-4.7 5.94-8.61 7.24-3.65 1.17-7.05 0.78-10.18-1.17-3.39-1.96-5.61-4.83-6.66-8.61l-27.2-99.05z"
    fill="#E7E7E7"
    p-id="45666"
  ></path>
</svg>