<svg t="1740030984259" class="icon" viewBox="0 0 1024 1024" version="1.1" xmlns="http://www.w3.org/2000/svg" p-id="8893" width="200" height="200"><path d="M404.22968889 616.37214815V478.96500148c0-14.22373925 8.34977185-24.12695703 18.68989629-21.38415407 8.61677037 2.2816237 20.53461333 25.04931555 51.36080593 23.20459851S520.98085925 449.76507259 520.98085925 427.04592592s-15.87427555-51.89480297-46.70046814-53.73952-42.76830815 20.89870222-51.36080593 23.18032593c-10.34012445 2.74280297-18.6898963-6.96623408-18.68989629-21.16570074V247.79282963a10.04885333 10.04885333 0 0 0-10.04885334-10.07312593H76.76814222A50.29281185 50.29281185 0 0 0 26.54814815 288.06106075V616.37214815h140.95094518c13.15574518 0 22.13660445-7.76722963 19.61225482-17.3791763-2.11171555-8.00995555-23.15605333-19.10253037-21.45697185-47.79273482s28.69020445-43.44794075 49.73454222-43.44794073 48.03546075 14.7577363 49.75881481 43.44794073-19.41807408 39.78277925-21.48124444 47.79273482c-2.42725925 9.70903703 6.67496297 17.3791763 19.83070814 17.3791763z" fill="#FFD43B" p-id="8894"></path><path d="M406.00158815 616.37214815H268.32744297c-14.24801185 0-24.27259259-8.37404445-21.43269927-18.73844148 2.2816237-8.61677037 25.09786075-20.58315852 23.25314371-51.50644149s-31.09319111-46.82183111-53.88515556-46.8218311-51.99189333 15.89854815-53.83661037 46.8218311 20.94724741 42.86539852 23.22887111 51.50644149c2.74280297 10.36439703-6.99050667 18.73844148-21.21424592 18.73844148H26.54814815v328.3110874A50.41417482 50.41417482 0 0 0 77.01086815 995.02459259h328.99072V853.70955852c0-13.18001778-7.79150222-22.18514963-17.42772148-19.6608-8.03422815 2.11171555-19.15107555 23.22887111-47.88982519 21.50551703S297.13901037 826.81552592 297.13901037 805.69837037s14.78200889-48.1810963 43.54503111-49.88017778 39.87986963 19.41807408 47.88982519 21.52978963c9.70903703 2.42725925 17.42772148-6.67496297 17.42772148-19.87925333z" fill="#20C997" p-id="8895"></path><path d="M649.84405333 517.70405925a10.12167111 10.12167111 0 0 0 13.73828742 3.88361483l111.65392592-62.13783705c12.45184-6.94196148 25.2434963-4.46615703 27.91348148 5.9225126 2.23307852 8.66531555-11.86929778 30.19510518 4.85451852 56.3366874s50.09863111 25.77749333 70.02642963 14.68491852 37.6953363-39.22450963 24.27259259-67.1379911-39.49150815-27.25812148-45.63247407-33.69035853c-7.47595852-7.71868445-3.05834667-19.75789037 9.39349333-26.69985184l111.65392593-62.21065483a10.07312592 10.07312592 0 0 0 3.9078874-13.7140148l-155.70868148-278.13963853a50.58408297 50.58408297 0 0 0-68.73998222-19.41807407l-278.8435437 155.3445926a10.07312592 10.07312592 0 0 0-3.90788741 13.7140148L538.69985185 319.08143408c6.45650963 11.52948148 17.67044741 15.60727703 24.85513482 8.68958814 5.97105778-5.75260445 5.38851555-29.61256297 31.36018963-42.11294814s52.13752889 3.93216 62.45338073 22.37933037 10.63139555 49.29763555-13.66546962 64.78354963-44.37029925 2.42725925-52.40452741 4.51470222c-9.70903703 2.42725925-11.96638815 14.32082963-5.50987852 25.85031111z" fill="#F06595" p-id="8896"></path><path d="M404.39959703 616.37214815v137.40714667c0 14.22373925-8.37404445 24.12695703-18.76271406 21.38415407-8.64104297-2.2816237-20.6317037-25.04931555-51.60353186-23.20459852s-46.94319408 31.02037333-46.94319408 53.73952 15.94709333 51.89480297 46.91892149 53.73952 42.96248889-20.89870222 51.60353185-23.18032592c10.38866963-2.74280297 18.76271408 6.96623408 18.76271408 21.16570073V995.02459259h329.01499258A50.41417482 50.41417482 0 0 0 783.85303703 944.68323555V626.44527408a10.07312592 10.07312592 0 0 0-10.09739851-10.07312593H642.22245925c-13.20429037 0-22.23369482 7.76722963-19.68507258 17.3791763 2.11171555 8.00995555 23.2774163 19.10253037 21.55406222 47.7927348s-28.81156741 43.44794075-49.97726814 43.44794075-48.27818667-14.7577363-49.97726816-43.44794075 19.41807408-39.78277925 21.57833482-47.7927348c2.42725925-9.70903703-6.69923555-17.3791763-19.90352593-17.3791763z" fill="#9775FA" p-id="8897"></path></svg>
