<svg
  t="1745186356154"
  viewBox="0 0 40 40"
  version="1.1"
  xmlns="http://www.w3.org/2000/svg"
  p-id="29344"
  width="40"
  height="40"
>
  <path
    d="M240.246154 330.436923L150.055385 240.246154A63.803077 63.803077 0 0 1 240.246154 150.055385L330.830769 240.246154a64.039385 64.039385 0 0 1-90.584615 90.584615v-0.393846z"
    fill="#FE9E0E"
    fill-opacity=".2"
    p-id="29345"
  ></path>
  <path
    d="M256 511.606154a63.881846 63.881846 0 0 1-63.803077 64.196923H64.196923a64 64 0 1 1 0-128h128a63.803077 63.803077 0 0 1 63.803077 63.803077z"
    fill="#FE9E0E"
    fill-opacity=".3"
    p-id="29346"
  ></path>
  <path
    d="M240.246154 873.550769a63.803077 63.803077 0 0 1-90.190769-90.190769l90.190769-90.584615a64.039385 64.039385 0 0 1 90.584615 90.584615z"
    fill="#FE9E0E"
    fill-opacity=".4"
    p-id="29347"
  ></path>
  <path
    d="M512 1024a64.472615 64.472615 0 0 1-64.196923-64.196923v-128a64.196923 64.196923 0 0 1 128.393846 0v128A64.472615 64.472615 0 0 1 512 1024z"
    fill="#FE9E0E"
    fill-opacity=".4"
    p-id="29348"
  ></path>
  <path
    d="M783.753846 693.169231l89.796923 90.584615a63.645538 63.645538 0 0 1-89.796923 89.796923l-90.584615-89.796923a64.039385 64.039385 0 0 1 90.584615-90.584615z m0 0"
    fill="#FE9E0E"
    fill-opacity=".6"
    p-id="29349"
  ></path>
  <path
    d="M959.803077 576.196923h-128a64.196923 64.196923 0 0 1 0-128.393846h128a64.196923 64.196923 0 0 1 0 128.393846z"
    fill="#FE9E0E"
    fill-opacity=".7"
    p-id="29350"
  ></path>
  <path
    d="M783.753846 330.830769a64.039385 64.039385 0 0 1-90.584615-90.584615l90.584615-90.190769a63.724308 63.724308 0 0 1 89.796923 90.190769l-90.190769 90.584615h0.393846z"
    fill="#FE9E0E"
    fill-opacity=".8"
    p-id="29351"
  ></path>
  <path
    d="M512 256a64.393846 64.393846 0 0 1-64.196923-63.803077V64.196923a64.196923 64.196923 0 0 1 128.393846 0v128A64.393846 64.393846 0 0 1 512 256z m0 0a64.393846 64.393846 0 0 1-64.196923-63.803077V64.196923a64.196923 64.196923 0 0 1 128.393846 0v128A64.393846 64.393846 0 0 1 512 256z"
    fill="#FE9E0E"
    p-id="29352"
  ></path>
</svg>
