<svg
  t="1745265500273"
  class="icon"
  viewBox="0 0 1024 1024"
  version="1.1"
  xmlns="http://www.w3.org/2000/svg"
  p-id="10954"
  width="256"
  height="256"
>
  <path
    d="M512 224m-160 0a160 160 0 1 0 320 0 160 160 0 1 0-320 0Z"
    fill="#404040"
    fill-opacity=".5"
    p-id="10955"
  ></path>
  <path
    d="M224 512m-160 0a160 160 0 1 0 320 0 160 160 0 1 0-320 0Z"
    fill="#404040"
    fill-opacity=".25"
    p-id="10956"
  ></path>
  <path
    d="M512 800m-160 0a160 160 0 1 0 320 0 160 160 0 1 0-320 0Z"
    fill="#404040"
    p-id="10957"
  ></path>
  <path
    d="M800 512m-160 0a160 160 0 1 0 320 0 160 160 0 1 0-320 0Z"
    fill="#404040"
    fill-opacity=".75"
    p-id="10958"
  ></path>
</svg>
