<svg
  t="1745288571908"
  class="icon"
  viewBox="0 0 1024 1024"
  version="1.1"
  xmlns="http://www.w3.org/2000/svg"
  p-id="11106"
  width="200"
  height="200"
>
  <path
    d="M770.048 1001.472H253.952c-128 0-231.424-103.424-231.424-231.424V253.952c0-128 103.424-231.424 231.424-231.424h515.072c128 0 231.424 103.424 231.424 231.424v515.072c1.024 128-103.424 232.448-230.4 232.448zM253.952 115.712c-76.8 0-139.264 62.464-139.264 139.264v515.072c0 76.8 62.464 139.264 139.264 139.264h515.072c76.8 0 139.264-62.464 139.264-139.264V253.952c0-76.8-62.464-139.264-139.264-139.264H253.952z"
    fill="#FEC451"
    p-id="11107"
  ></path>
  <path
    d="M715.776 487.424H475.136c-24.576 0-45.056-20.48-45.056-45.056v-3.072c0-24.576 20.48-45.056 45.056-45.056h240.64c24.576 0 45.056 20.48 45.056 45.056v3.072c0 25.6-20.48 45.056-45.056 45.056zM713.728 739.328H575.488c-25.6 0-46.08-20.48-46.08-46.08s20.48-46.08 46.08-46.08h139.264c25.6 0 46.08 20.48 46.08 46.08s-21.504 46.08-47.104 46.08z"
    fill="#FEC451"
    p-id="11108"
  ></path>
  <path
    d="M667.648 693.248V441.344c0-25.6 20.48-46.08 46.08-46.08s46.08 20.48 46.08 46.08v251.904c0 25.6-20.48 46.08-46.08 46.08s-46.08-20.48-46.08-46.08z"
    fill="#FEC451"
    p-id="11109"
  ></path>
  <path
    d="M407.552 441.344c0-30.72 23.552-55.296 54.272-59.392v-61.44c0-27.648-30.72-45.056-54.272-31.744L197.632 409.6c-24.576 14.336-24.576 49.152 0 62.464l208.896 120.832c24.576 14.336 54.272-3.072 54.272-31.744v-61.44c-29.696-3.072-53.248-27.648-53.248-58.368z"
    fill="#EFD152"
    p-id="11110"
  ></path>
</svg>
