<svg t="1743222476232" class="icon" viewBox="0 0 1024 1024" version="1.1" xmlns="http://www.w3.org/2000/svg" p-id="9969" width="256" height="256"><path d="M982.19479381 578.57625429V450.41696541l-114.01183459-40.77795556c-7.48982841-27.46270493-18.30847033-53.26100366-32.45592463-77.39489508l52.4288-109.01861603-90.7101457-90.71014685-109.01861604 51.59659748c-24.13389255-13.31525063-49.93219015-24.13389255-77.39489507-32.45592348L571.08642589 37.64419015H442.92713699l-40.77795555 114.01183574c-27.46270493 7.48982841-53.26100366 18.30847033-77.39489621 31.62371982l-109.0186149-51.59659634-90.71014684 90.7101457 51.59659747 109.01861604c-13.31525063 24.13389255-24.13389255 49.93219015-32.45592462 77.39489508l-114.0118346 39.94575303v128.15928889l114.0118346 40.77795555c7.48982841 27.46270493 18.30847033 53.26100366 31.62372096 77.39489508l-51.59659634 109.01861603L214.90346667 894.81346048l109.01861603-51.59659747c24.13389255 13.31525063 49.93219015 24.13389255 77.39489508 32.45592462l39.94575189 114.01183459h128.15928889l40.77795555-114.01183459c27.46270493-7.48982841 53.26100366-18.30847033 77.39489622-31.62372096l109.0186149 51.59659634 90.71014684-90.71014571-51.59659748-109.01861604c13.31525063-24.13389255 24.13389255-49.93219015 32.45592463-77.39489507l114.01183459-39.9457519z m-482.67784192 138.97792968C364.70003826 717.55418397 295.62717411 656.80335189 295.62717411 522.81864078s73.23387904-211.37960619 207.2185913-211.37960619 203.88977778 77.39489507 203.05757411 211.37960619c0.83220366 133.98471111-72.40167651 195.56774571-206.38638763 194.73554319z" fill="#BADBD6" p-id="9970"></path><path d="M572.75083207 1010.48970126H444.59154318c-8.32203207 0-16.64406301-5.82542222-19.14067285-13.31525063l-36.61694066-104.02539634c-21.6372827-6.65762589-42.44236174-15.81186048-62.41523712-25.79829874l-99.86438144 47.43558144c-7.48982841 3.32881237-17.47626667 2.49660985-23.30168889-4.16101603l-90.71014571-91.54234937c-5.82542222-5.82542222-7.48982841-15.81186048-4.16101603-23.30168889l47.4355803-99.86438144c-9.98643826-19.97287651-19.14067285-40.77795555-25.7982976-62.41523825l-104.02539747-37.44914205c-8.32203207-3.32881237-13.31525063-10.81864078-13.31525064-19.14067285V448.75255922c0-8.32203207 5.82542222-16.64406301 13.31525064-19.14067399l104.02539747-36.61693952c6.65762589-21.6372827 15.81186048-42.44236174 25.7982976-62.41523826l-47.4355803-99.8643803c-3.32881237-7.48982841-1.66440619-17.47626667 4.16101603-23.30168889l91.54234938-89.87794319c5.82542222-5.82542222 15.81186048-7.48982841 23.30168888-4.16101603l99.8643803 47.43558144c19.97287651-9.98643826 40.77795555-19.14067285 62.41523826-25.79829874l37.44914318-104.02539633c2.49660985-8.32203207 10.81864078-13.31525063 19.14067286-13.31525064h128.15928889c8.32203207 0 16.64406301 5.82542222 19.14067285 13.31525064l36.61693952 104.02539633c21.6372827 6.65762589 42.44236174 15.81186048 62.41523826 25.79829874l99.86438144-47.43558144c7.48982841-3.32881237 17.47626667-1.66440619 23.30168889 4.16101603l90.71014571 90.71014571c5.82542222 5.82542222 7.48982841 15.81186048 4.16101603 23.30168889l-47.43558144 99.86438144c9.98643826 19.97287651 19.14067285 40.77795555 25.79829874 62.41523826l104.02539633 37.44914318c8.32203207 2.49660985 13.31525063 10.81864078 13.31525064 19.14067286V578.57625429c0 8.32203207-5.82542222 16.64406301-13.31525064 19.14067286l-104.02539633 36.61693952c-6.65762589 21.6372827-15.81186048 42.44236174-25.79829874 62.41523826l47.43558144 99.8643803c3.32881237 7.48982841 2.49660985 17.47626667-4.16101603 23.30168888l-90.71014571 90.71014685c-5.82542222 5.82542222-15.81186048 7.48982841-23.30168889 4.16101603l-99.86438144-47.43558144c-19.97287651 9.98643826-40.77795555 19.14067285-62.41523826 25.79829874l-37.44914318 104.02539634c-4.16101603 7.48982841-11.65084445 13.31525063-19.97287538 13.31525063z m-114.01183573-41.61015808h99.03217777l35.784737-99.86438144c2.49660985-5.82542222 7.48982841-10.81864078 13.31525063-12.48304697 24.96609507-7.48982841 49.93219015-17.47626667 73.23387904-29.95931477 5.82542222-3.32881237 12.48304811-3.32881237 18.30847033-0.83220366l95.7033654 45.77117525 69.90506667-69.90506666-44.10676907-96.53556794c-2.49660985-5.82542222-2.49660985-13.31525063 0.83220367-19.14067398 13.31525063-23.30168889 23.30168889-48.26778397 30.79151729-73.23387904 1.66440619-6.65762589 6.65762589-11.65084445 12.48304811-13.31525064l99.86438031-35.78473699V464.56441856l-99.86438031-35.78473586c-5.82542222-2.49660985-10.81864078-7.48982841-12.48304811-13.31525063-7.48982841-25.79829874-17.47626667-49.93219015-29.95931363-73.23388018-3.32881237-5.82542222-3.32881237-12.48304811-0.83220366-18.30846919l45.77117411-95.7033654-69.90506666-69.90506667L700.91012096 204.08482589c-5.82542222 2.49660985-12.48304811 2.49660985-18.30847033-0.83220367-23.30168889-13.31525063-48.26778397-23.30168889-73.23387904-30.79151729-6.65762589-1.66440619-11.65084445-6.65762589-13.31525063-12.48304811l-35.78473699-99.86438031H461.23560619l-35.78473586 99.86438031c-2.49660985 5.82542222-7.48982841 10.81864078-13.31525177 12.48304811-24.96609507 7.48982841-49.93219015 17.47626667-73.23387904 29.95931363-5.82542222 3.32881237-12.48304811 3.32881237-18.30846919 0.83220366l-95.7033654-45.77117411-69.90506667 69.90506666 45.77117411 95.70336427c2.49660985 5.82542222 2.49660985 13.31525063-0.83220252 18.30847033-12.48304811 23.30168889-23.30168889 47.43558144-30.7915173 73.23387904-1.66440619 6.65762589-6.65762589 11.65084445-12.4830481 13.31525063l-99.86438144 35.78473699v99.03217778l99.86438144 35.78473586c5.82542222 2.49660985 10.81864078 7.48982841 12.4830481 13.31525177 7.48982841 25.79829874 17.47626667 49.93219015 29.95931364 73.23387904 3.32881237 5.82542222 3.32881237 12.48304811 0.83220366 18.30846919L154.15263459 799.11009507l69.90506667 69.90506667 95.70336541-45.77117411c5.82542222-2.49660985 13.31525063-2.49660985 18.30847032 0.83220252 23.30168889 12.48304811 47.43558144 23.30168889 73.23387904 30.7915173 6.65762589 1.66440619 11.65084445 6.65762589 13.31525064 12.4830481l34.12032967 101.52878763z m44.10676907-230.52028017c-74.89828523 0-128.99149255-17.47626667-167.27283826-53.26100253s-57.42201856-90.71014571-57.4220197-163.11182222c0-147.29996174 83.2203173-232.18468523 227.19146666-232.18468637h0.83220367c72.40167651 0 128.15928889 20.80507904 167.27283825 61.58303574 38.28134571 39.94575189 56.58981603 97.36777159 56.58981604 169.76944696 0 142.30674318-79.05930126 217.20502841-227.19146666 217.20502842z m2.4966087-426.92022842v20.80508018c-121.50166301 0-186.41351111 65.74405063-186.4135111 191.40672968 0 60.75083207 14.14745429 104.8576 44.93897158 133.15250744 29.95931477 28.29490745 74.89828523 41.61015922 138.14572715 41.61015922 127.32708523 0 186.41351111-55.75761237 187.24571477-174.76266666 0-62.41523826-14.97965682-109.85081856-45.77117525-142.30674319s-76.56269255-49.09998763-137.31352348-49.09998649l-0.83220367-20.80508018z" fill="#263357" p-id="9971"></path><path d="M1671.23269565 708.32166643l112.18381129-39.73176676V376.44456411l-112.18381129-39.73176674V703.64734153c2.33716409 0 0 2.33716409 0 4.6743249zM1255.21773812-469.60833218l140.22976083 140.22976081c14.02297477 14.02297477 18.69730293 35.05744183 9.34864988 53.75474152l-135.55543588 285.13384985c30.38311369 58.42906646 56.09190557 119.19529698 74.78920535 182.29869161l119.19530022 42.06892757c-21.03446377-70.11488039-49.08041659-137.8926-84.13785839-200.99599136-7.01148898-14.02297477-7.01148898-30.38311369-2.33716412-44.40609166l130.88111101-275.78519674-205.67031633-208.00748039-46.74325257 25.70878879zM741.04194416 1528.66577405c-39.73176673 18.69730293-79.4635303 32.72027775-121.53246106 46.74325253l-84.13785523 231.37910826h105.17231904l100.49799725-278.12236079zM1509.96847107 1330.00694354l-130.88111094-275.78519679c-7.01148898-14.02297477-7.01148898-30.38311369 2.33716404-44.40609167 35.05744183-63.10339141 63.10339141-130.88111099 84.13785522-198.65883046l-119.19529702 42.0689276c-18.69730293 63.10339141-44.4060917 123.86962201-74.78920531 182.29869162l135.55543586 285.13384981c9.34864985 18.69730293 4.67432493 39.73176673-9.3486499 53.75474154l-140.22976402 140.22976078 49.08041667 23.37162789 203.3331554-208.00748032zM537.70878871-766.42799595l81.80069439 233.71627231c42.06892761 14.02297477 81.80069437 28.04595281 121.53246106 46.74325257l-98.16083317-280.45952488h-105.17232228z" fill="#95BCBA" p-id="9972"></path><path d="M509.805714 528.091429m-212.114285 0a212.114286 212.114286 0 1 0 424.228571 0 212.114286 212.114286 0 1 0-424.228571 0Z" fill="#FABF4D" p-id="9973"></path><path d="M509.50339015 788.29145429c-142.30674318 0-257.98298397-115.67624078-257.98298396-257.98298396s115.67624078-257.98298397 257.98298396-257.9829851 257.98298397 115.67624078 257.98298396 257.9829851-115.67624078 257.98298397-257.98298396 257.98298396z m0-482.67784192c-123.99827285 0-224.69485682 100.69658397-224.69485682 224.69485796s100.69658397 224.69485682 224.69485682 224.69485682 224.69485682-100.69658397 224.69485796-224.69485682-100.69658397-224.69485682-224.69485796-224.69485796z" fill="#263357" p-id="9974"></path><path d="M6132.82859556 1392.87612389c398.491584-3376.69180811-2495.81568445-6040.29343249-5809.58776051-6040.29343288h-251.67889676c2097.32410011 1237.42122997 3481.55801731 3523.50449552 3481.5580173 6019.32017952 0 1929.53818822-734.06343665 3984.91581024-3104.03968663 5306.22999578 0 20.97325361 5075.52432451-146.81268725 5683.7483266-5285.25674242z" fill="#F2B01F" p-id="9975"></path></svg>