<svg
  t="1729970844964"
  class="icon"
  viewBox="0 0 1024 1024"
  version="1.1"
  xmlns="http://www.w3.org/2000/svg"
  p-id="1720"
  width="256"
  height="256"
>
  <path
    d="M975.75822222 390.94044445l-65.08088889-9.10222223c-14.44977778-2.048-26.16888889-11.83288889-31.85777778-25.14488889-12.85688889-30.37866667-29.24088889-58.82311111-48.81066666-84.76444444-8.76088889-11.60533333-11.37777778-26.73777778-5.91644444-40.16355556l24.68977777-60.87111111c7.62311111-18.65955555 0.22755555-40.16355555-17.29422222-50.176L690.74488889 39.36711111c-17.52177778-10.12622222-39.70844445-5.80266667-52.11022222 10.12622222l-40.27733334 51.54133334c-8.98844445 11.60533333-23.552 16.95288889-38.11555555 15.13244444-15.92888889-2.048-32.19911111-3.18577778-48.69688889-3.18577778-16.49777778 0-32.768 1.13777778-48.69688889 3.18577778-14.56355555 1.82044445-29.12711111-3.52711111-38.11555555-15.13244444l-40.27733334-51.54133334c-12.40177778-15.92888889-34.58844445-20.25244445-52.11022222-10.12622222L191.60177778 120.60444445c-17.52177778 10.12622222-24.80355555 31.51644445-17.29422223 50.176l24.68977778 60.8711111c5.46133333 13.53955555 2.84444445 28.55822222-5.91644444 40.16355556-19.56977778 25.94133333-36.06755555 54.38577778-48.81066667 84.76444444-5.68888889 13.42577778-17.408 23.21066667-31.85777777 25.1448889l-65.0808889 9.10222222C27.30666667 393.67111111 12.40177778 410.73777778 12.40177778 430.99022222v162.58844445c0 20.13866667 14.90488889 37.20533333 34.816 40.04977778l65.08088889 9.10222222c14.44977778 2.048 26.16888889 11.83288889 31.85777778 25.14488888 12.85688889 30.37866667 29.24088889 58.82311111 48.81066666 84.76444445 8.76088889 11.60533333 11.37777778 26.73777778 5.91644444 40.16355555l-24.68977777 60.87111112c-7.62311111 18.65955555-0.22755555 40.16355555 17.29422222 50.176L332.23111111 985.088c17.52177778 10.12622222 39.70844445 5.80266667 52.11022222-10.12622222l40.27733334-51.54133333c8.98844445-11.60533333 23.552-16.95288889 38.11555555-15.13244445 15.92888889 2.048 32.19911111 3.18577778 48.69688889 3.18577778 16.49777778 0 32.768-1.13777778 48.69688889-3.18577778 14.56355555-1.82044445 29.12711111 3.52711111 38.11555555 15.13244445l40.27733334 51.54133333c12.40177778 15.92888889 34.58844445 20.25244445 52.11022222 10.12622222l140.74311111-81.23733333c17.52177778-10.12622222 24.80355555-31.51644445 17.29422223-50.176l-24.68977778-60.87111112c-5.46133333-13.42577778-2.84444445-28.55822222 5.91644444-40.16355555 19.56977778-25.94133333 36.06755555-54.38577778 48.81066667-84.76444445 5.68888889-13.42577778 17.408-23.21066667 31.85777777-25.14488888l65.0808889-9.10222222c20.02488889-2.84444445 34.816-19.91111111 34.816-40.04977778V430.99022222c0.22755555-20.25244445-14.67733333-37.31911111-34.70222223-40.04977777z m-464.21333333 279.32444444c-87.26755555 0-158.03733333-70.76977778-158.03733334-158.03733334s70.76977778-158.03733333 158.03733334-158.03733333 158.03733333 70.76977778 158.03733333 158.03733333-70.76977778 158.03733333-158.03733333 158.03733334z"
    fill=""
    p-id="1721"
  ></path>
</svg>
