<?xml version="1.0" standalone="no"?>
<!DOCTYPE
  svg
  PUBLIC "-//W3C//DTD SVG 1.1//EN" "http://www.w3.org/Graphics/SVG/1.1/DTD/svg11.dtd"
>
<svg
  t="1729662593989"
  class="icon"
  viewBox="0 0 1024 1024"
  version="1.1"
  xmlns="http://www.w3.org/2000/svg"
  p-id="5145"
  width="200"
  height="200"
>
  <path
    d="M883.174 647.753c24.932 0 48.898-3.575 72.17-9.024-10.077 34.586-24.19 67.37-41.766 97.991-78.054 135.985-224.377 227.791-392.412 227.791-249.913 0-452.511-202.598-452.511-452.511S271.253 59.489 521.165 59.489c18.88 0 37.369 1.52 55.642 3.765-13.838 15.819-25.975 33.02-37.233 50.844 11.3-17.793 23.413-35.042 37.233-50.844 36.25 4.457 71.067 13.304 104.14 25.81-69.427 58.103-114.53 144.311-114.53 241.93 0 174.942 141.816 316.759 316.757 316.759z m-37.952 88.588c12.49 1.232 25.137 1.915 37.953 1.915-12.811-0.001-25.44-0.761-37.953-1.915zM475.914 330.996c0-72.348 19.815-139.677 52.98-198.48-3.322 5.922-7.173 11.497-10.205 17.602C319.91 151.467 159.156 312.905 159.156 512c0 199.933 162.075 362.009 362.009 362.009 117.445 0 221.513-56.174 287.652-142.849-189.366-34.988-332.903-200.67-332.903-400.164z"
    p-id="5146"
  ></path>
</svg>
