<?xml version="1.0" encoding="UTF-8"?>
<svg
  id="_图层_1"
  data-name="图层_1"
  xmlns="http://www.w3.org/2000/svg"
  version="1.1"
  viewBox="0 0 256 256"
>
  <!-- Generator: Adobe Illustrator 30.0.0, SVG Export Plug-In . SVG Version: 2.1.1 Build 123)  -->
  <path
    d="M85.25,90.73c2.13,0,4.11.28,5.94.84,1.83.56,3.4,1.32,4.7,2.27,1.31.95,2.33,2.04,3.08,3.28.75,1.23,1.12,2.5,1.12,3.81,0,.82-.1,1.56-.31,2.21-.21.65-.42,1.22-.64,1.71-.26.56-.56,1.06-.9,1.51-.71-.75-1.59-1.44-2.63-2.07-.9-.52-2.04-1.01-3.44-1.46-1.4-.45-3.05-.67-4.96-.67-3.1,0-6.04.69-8.82,2.07-2.78,1.38-5.43,3.21-7.95,5.49-2.52,2.28-4.95,4.86-7.28,7.76-2.33,2.89-4.62,5.85-6.86,8.88-2.24,3.02-4.44,5.98-6.61,8.88-2.17,2.89-4.34,5.48-6.52,7.76-2.18,2.28-4.41,4.11-6.66,5.49-2.26,1.38-4.58,2.07-6.97,2.07-.04,0-.08-.02-.11-.06-.08.04-.19.06-.34.06-.52,0-1.06-.1-1.62-.31-.56-.21-1.08-.55-1.57-1.04-.49-.49-.88-1.13-1.18-1.93-.3-.8-.45-1.78-.45-2.94s.27-2.5.81-4.03c.54-1.53,1.22-3.17,2.04-4.93-1.2,1.38-2.44,2.67-3.72,3.86-1.29,1.19-2.58,2.22-3.86,3.08-1.29.86-2.57,1.54-3.84,2.04-1.27.5-2.48.76-3.64.76-.52,0-1.06-.1-1.62-.31s-1.08-.55-1.57-1.04c-.49-.49-.88-1.12-1.18-1.9-.3-.78-.45-1.77-.45-2.97,0-1.12.23-2.39.7-3.81.47-1.42,1.04-2.91,1.74-4.48.69-1.57,1.45-3.19,2.27-4.87.82-1.68,1.58-3.36,2.27-5.04.69-1.68,1.27-3.32,1.74-4.93.47-1.6.7-3.14.7-4.59,0-2.35-.78-4.24-2.32-5.66-1.55-1.42-3.67-2.13-6.36-2.13-.6,0-1.14.04-1.62.11-.48.08-.93.17-1.34.28v-.06c.52-1.38,1.27-2.61,2.24-3.7.86-.93,2.01-1.78,3.44-2.55,1.44-.77,3.28-1.15,5.52-1.15s4.02.48,5.46,1.43c1.44.95,2.58,2.13,3.42,3.53.84,1.4,1.43,2.88,1.76,4.45.34,1.57.5,2.99.5,4.26,0,1.9-.4,3.97-1.2,6.19-.8,2.22-1.76,4.44-2.86,6.66-1.1,2.22-2.24,4.36-3.42,6.41-1.18,2.05-2.12,3.87-2.83,5.46-.71,1.59-1.08,2.86-1.12,3.81-.04.95.52,1.43,1.68,1.43.52,0,1.29-.36,2.3-1.09,1.01-.73,2.12-1.71,3.33-2.94,1.21-1.23,2.47-2.66,3.78-4.28,1.31-1.62,2.52-3.31,3.64-5.07,1.12-1.75,2.07-3.54,2.86-5.35.78-1.81,1.29-3.52,1.51-5.12.04-.26.06-.51.08-.76.02-.24.03-.48.03-.7,0-.52-.17-.95-.5-1.29.37-.37.78-.71,1.23-1.01.41-.26.9-.5,1.48-.73.58-.22,1.24-.34,1.99-.34,1.16,0,2.09.44,2.8,1.32.71.88,1.06,1.9,1.06,3.05,0,1.9-.37,3.97-1.12,6.19-.75,2.22-1.63,4.43-2.66,6.64-1.03,2.2-2.06,4.32-3.11,6.36-1.05,2.04-1.89,3.84-2.52,5.4-.64,1.57-.94,2.82-.92,3.75.02.93.61,1.4,1.76,1.4,1.64,0,3.24-.78,4.79-2.35,1.55-1.57,3.12-3.63,4.7-6.19,1.59-2.56,3.21-5.47,4.87-8.74,1.66-3.27,3.43-6.61,5.32-10.02,1.88-3.42,3.9-6.77,6.05-10.05,2.15-3.28,4.48-6.21,7-8.76,2.52-2.56,5.25-4.62,8.2-6.19,2.95-1.57,6.18-2.35,9.69-2.35Z"
  />
  <path
    d="M85.19,124.67c.26-.48.54-.79.84-.92.3-.13.55-.14.76-.03s.35.33.42.64c.07.32.02.7-.17,1.15-.45.97-.96,2.09-1.54,3.36-.58,1.27-1.23,2.58-1.96,3.92-.73,1.34-1.57,2.66-2.52,3.95-.95,1.29-2.04,2.44-3.25,3.44-1.21,1.01-2.58,1.82-4.09,2.44-1.51.62-3.2.92-5.07.92-1.12,0-2.18-.22-3.16-.67-.99-.45-1.86-1.05-2.6-1.82-.75-.76-1.33-1.67-1.76-2.72-.43-1.04-.64-2.17-.64-3.36,0-2.2.49-4.51,1.46-6.92.97-2.41,2.24-4.61,3.81-6.61,1.57-2,3.33-3.65,5.29-4.96,1.96-1.31,3.93-1.96,5.91-1.96.97,0,1.74.17,2.3.5.56.34.98.73,1.26,1.18.28.45.45.92.5,1.4.05.49.08.88.08,1.18,0,1.12-.26,2.37-.79,3.75-.52,1.38-1.2,2.68-2.04,3.89-.84,1.21-1.77,2.23-2.8,3.05-1.03.82-2.06,1.23-3.11,1.23-.67,0-1.27-.11-1.79-.34-.52-.22-.99-.5-1.4-.84-.04.22-.07.45-.08.67-.02.22-.03.43-.03.62,0,1.34.51,2.35,1.54,3.02,1.03.67,2.33.84,3.92.5,1.59-.34,3.33-1.27,5.23-2.8,1.9-1.53,3.73-3.83,5.49-6.89ZM76.79,118.79c-.22,0-.57.18-1.04.53-.47.35-.98.84-1.54,1.46-.56.62-1.14,1.32-1.74,2.1-.6.78-1.14,1.61-1.62,2.46.15.04.28.07.39.08.11.02.24.03.39.03.75,0,1.51-.34,2.3-1.04.78-.69,1.46-1.46,2.04-2.3.58-.84.97-1.6,1.18-2.3.2-.69.08-1.04-.36-1.04Z"
  />
  <path
    d="M98.24,124.67c.26-.48.54-.79.84-.92.3-.13.56-.14.78-.03.22.11.36.33.42.64.06.32,0,.7-.2,1.15-.45.97-.93,2.09-1.46,3.36-.52,1.27-1.09,2.58-1.71,3.92-.62,1.34-1.28,2.66-1.99,3.95-.71,1.29-1.48,2.44-2.3,3.44-.82,1.01-1.7,1.82-2.63,2.44-.93.62-1.94.92-3.02.92-.97,0-1.77-.29-2.41-.87-.63-.58-1.14-1.29-1.51-2.13-.37-.84-.62-1.72-.76-2.63-.13-.91-.2-1.73-.2-2.44,0-1.08.19-2.34.56-3.78.37-1.44.85-2.91,1.43-4.42.58-1.51,1.23-3,1.96-4.45.73-1.46,1.46-2.75,2.18-3.89.73-1.14,1.41-2.05,2.04-2.74.63-.69,1.16-1.04,1.57-1.04.97,0,1.46.5,1.46,1.51,0,.19-.1.56-.31,1.12s-.46,1.25-.76,2.07c-.3.82-.62,1.73-.95,2.72-.34.99-.65,1.99-.95,3-.3,1.01-.55,1.99-.76,2.94-.21.95-.31,1.78-.31,2.49,0,1.08.21,1.79.62,2.13.41.34.88.5,1.4.5,1.08,0,2.12-.77,3.11-2.32.99-1.55,2.27-3.76,3.84-6.64ZM93.7,112.57c-.49,0-.8-.34-.95-1.01-.15-.67-.17-1.52-.06-2.55.11-1.03.34-2.13.7-3.3.35-1.18.8-2.28,1.34-3.3.54-1.03,1.16-1.88,1.85-2.55.69-.67,1.43-1.01,2.21-1.01,1.6,0,2.66.34,3.16,1.01.5.67.65,1.52.45,2.55-.21,1.03-.69,2.13-1.46,3.3-.77,1.18-1.61,2.28-2.52,3.3-.92,1.03-1.81,1.88-2.69,2.55-.88.67-1.56,1.01-2.04,1.01Z"
  />
  <path
    d="M119.07,135.08c0-.75-.41-1.56-1.23-2.44-.82-.88-1.84-1.81-3.05-2.8-1.21-.99-2.53-2.07-3.95-3.25s-2.73-2.45-3.95-3.81c-1.21-1.36-2.23-2.83-3.05-4.4s-1.23-3.27-1.23-5.1c0-3.36.72-6.33,2.16-8.89,1.44-2.56,3.28-4.71,5.54-6.45,2.26-1.74,4.76-3.05,7.5-3.95,2.74-.9,5.42-1.35,8.04-1.35,1.94,0,3.71.44,5.32,1.3,1.61.87,2.97,2,4.09,3.39,1.12,1.39,1.99,2.97,2.6,4.74.62,1.77.92,3.56.92,5.35s-.27,3.46-.81,5.01c-.54,1.55-1.26,2.89-2.16,4.03-.9,1.14-1.92,2.04-3.08,2.69-1.16.65-2.33.98-3.53.98-.82,0-1.56-.13-2.21-.39-.65-.26-1.22-.56-1.71-.9-.56-.37-1.06-.8-1.51-1.29.22-.11.74-.54,1.54-1.29.8-.75,1.64-1.77,2.52-3.08.88-1.31,1.65-2.88,2.32-4.73.67-1.85,1.01-3.91,1.01-6.19,0-.67-.04-1.31-.11-1.9-.08-.6-.22-1.11-.45-1.54-.22-.43-.55-.77-.98-1.04-.43-.26-1-.39-1.71-.39-1.01,0-2.29.43-3.84,1.29-1.55.86-3.06,2.04-4.54,3.53-1.47,1.49-2.74,3.23-3.81,5.21-1.06,1.98-1.6,4.11-1.6,6.38,0,1.16.29,2.23.87,3.22.58.99,1.31,1.97,2.18,2.94.88.97,1.82,1.94,2.83,2.91,1.01.97,1.95,2.01,2.83,3.11.88,1.1,1.6,2.29,2.18,3.56.58,1.27.87,2.67.87,4.2,0,2.05-.46,4.02-1.37,5.91-.92,1.88-2.21,3.56-3.89,5.01-1.68,1.46-3.72,2.62-6.13,3.5-2.41.88-5.12,1.32-8.15,1.32-2.5,0-4.83-.29-6.97-.87-2.15-.58-4.01-1.4-5.6-2.46-1.59-1.06-2.84-2.37-3.75-3.92-.91-1.55-1.37-3.31-1.37-5.29,0-2.39.43-4.26,1.29-5.6.86-1.34,1.83-2.31,2.91-2.91,1.08-.6,2.12-.88,3.11-.84.99.04,1.62.24,1.88.62-.49.97-.73,2.05-.73,3.25,0,1.49.36,2.86,1.09,4.09.73,1.23,1.69,2.28,2.88,3.14,1.19.86,2.57,1.53,4.12,2.02,1.55.49,3.15.73,4.79.73s3.03-.21,4.17-.62,2.07-.93,2.8-1.57c.73-.64,1.26-1.33,1.6-2.07s.5-1.44.5-2.07Z"
  />
  <path
    d="M162.75,124.67c.26-.48.53-.79.81-.92.28-.13.53-.14.76-.03s.36.33.42.64c.06.32,0,.7-.2,1.15-.45.97-.99,2.09-1.62,3.36-.63,1.27-1.34,2.58-2.13,3.92-.78,1.34-1.62,2.65-2.52,3.92-.9,1.27-1.84,2.41-2.83,3.42-.99,1.01-2.01,1.82-3.05,2.44-1.05.62-2.11.92-3.19.92-.97,0-1.79-.23-2.46-.7-.67-.47-1.21-1.04-1.62-1.74-.41-.69-.71-1.45-.9-2.27-.19-.82-.28-1.59-.28-2.3,0-1.01.17-2.14.5-3.39.34-1.25.75-2.52,1.23-3.81.49-1.29,1-2.53,1.54-3.72.54-1.19,1.02-2.27,1.43-3.22.41-.95.7-1.71.87-2.27s.12-.84-.14-.84c-.52,0-1.21.36-2.07,1.09s-1.73,1.64-2.6,2.74c-.88,1.1-1.71,2.3-2.49,3.58s-1.34,2.51-1.68,3.67c-.41,1.57-.73,3.01-.95,4.34s-.34,2.49-.34,3.5c0,.75.06,1.34.2,1.79.13.45.29.8.48,1.06.22.41.19.73-.11.95-.3.22-.69.44-1.18.64s-1.1.31-1.85.31c-.67,0-1.34-.15-1.99-.45-.65-.3-1.23-.75-1.74-1.34-.5-.6-.9-1.34-1.2-2.24-.3-.9-.45-1.94-.45-3.14,0-1.75.39-3.89,1.18-6.41.78-2.52,1.78-5.15,3-7.9s2.55-5.47,4-8.18c1.46-2.71,2.86-5.14,4.2-7.31,1.34-2.17,2.55-3.92,3.61-5.26,1.06-1.34,1.8-2.02,2.21-2.02,1.01,0,1.51.5,1.51,1.51,0,.15-.22.8-.67,1.96-.45,1.16-1.03,2.64-1.74,4.45-.71,1.81-1.5,3.86-2.38,6.16-.88,2.3-1.73,4.66-2.55,7.08.34-.34.87-.8,1.6-1.4.73-.6,1.55-1.19,2.46-1.79.92-.6,1.9-1.11,2.97-1.54,1.06-.43,2.14-.64,3.22-.64.97,0,1.86.34,2.66,1.01.8.67,1.2,1.55,1.2,2.63,0,.56-.2,1.34-.59,2.32-.39.99-.86,2.05-1.4,3.19-.54,1.14-1.08,2.3-1.62,3.47-.54,1.18-.98,2.24-1.32,3.19s-.49,1.74-.45,2.35c.04.62.37.92,1.01.92.56,0,1.2-.2,1.93-.59.73-.39,1.5-.96,2.32-1.71.82-.75,1.66-1.68,2.52-2.8.86-1.12,1.68-2.39,2.46-3.81Z"
  />
  <path
    d="M188.96,124.67c.26-.48.54-.79.84-.92.3-.13.56-.14.78-.03s.36.33.42.64c.06.32,0,.7-.2,1.15-.45.97-.97,2.09-1.57,3.36-.6,1.27-1.24,2.58-1.93,3.92s-1.44,2.66-2.24,3.95c-.8,1.29-1.65,2.44-2.55,3.44-.9,1.01-1.84,1.82-2.83,2.44-.99.62-2.03.92-3.11.92-.97,0-1.76-.23-2.38-.7-.62-.47-1.09-1.07-1.43-1.82s-.56-1.57-.67-2.46c-.11-.9-.17-1.77-.17-2.63,0-.63.08-1.32.22-2.07.15-.75.37-1.51.67-2.3-.45.82-.88,1.8-1.29,2.94-.41,1.14-.73,2.42-.95,3.84-.97,1.23-2.08,2.33-3.33,3.3-1.25.97-2.57,1.46-3.95,1.46-.86,0-1.58-.19-2.16-.56s-1.05-.84-1.43-1.4c-.37-.56-.64-1.18-.81-1.85s-.25-1.29-.25-1.85c0-2.91.59-5.7,1.76-8.37s2.63-5.04,4.37-7.11c1.74-2.07,3.6-3.72,5.6-4.96,2-1.23,3.84-1.85,5.52-1.85s2.88.29,3.72.87c.84.58,1.38,1.22,1.62,1.93.24.71.27,1.35.08,1.93-.19.58-.47.87-.84.87-.22,0-.39-.09-.5-.28-.11-.19-.25-.4-.42-.64-.17-.24-.43-.46-.78-.64-.36-.19-.91-.28-1.65-.28-.67,0-1.45.32-2.32.95-.88.64-1.76,1.42-2.63,2.35-.88.93-1.7,1.96-2.46,3.08-.77,1.12-1.34,2.15-1.74,3.08-.39.93-.54,1.72-.45,2.35.09.64.55.95,1.37.95.52,0,1.12-.24,1.79-.73s1.34-1.06,2.02-1.74,1.3-1.37,1.88-2.1,1.04-1.33,1.37-1.82l.5-.67s0-.06.03-.06.03-.02.03-.06l.06-.06v.06c.56-.75,1.11-1.34,1.65-1.79.54-.45,1.02-.67,1.43-.67.67,0,1.01.36,1.01,1.06,0,.19-.08.55-.25,1.09-.17.54-.35,1.19-.53,1.93-.19.75-.36,1.55-.53,2.41-.17.86-.25,1.68-.25,2.46,0,1.08.21,1.79.64,2.13.43.34.9.5,1.43.5,1.08,0,2.25-.77,3.5-2.32,1.25-1.55,2.68-3.76,4.28-6.64Z"
  />
  <path
    d="M214.49,124.67c.26-.48.55-.81.87-.98.32-.17.59-.22.81-.17.22.06.36.23.42.53.06.3-.03.67-.25,1.12-.97,1.83-2.2,3.27-3.7,4.31-1.49,1.04-3.02,1.66-4.59,1.85-1.57.19-3.04-.06-4.42-.73-1.38-.67-2.43-1.79-3.14-3.36-.52-1.19-.66-2.18-.42-2.97.24-.78.65-1.35,1.23-1.71.58-.35,1.23-.48,1.96-.39.73.09,1.32.44,1.76,1.04.22-1.12.2-2.05-.06-2.8-.26-.75-.88-1.12-1.85-1.12-.82,0-1.68.33-2.58.98-.9.65-1.72,1.48-2.46,2.46-.75.99-1.4,2.06-1.96,3.22-.56,1.16-.92,2.23-1.09,3.22-.17.99-.09,1.81.22,2.46.32.65.94.98,1.88.98.63,0,1.26-.18,1.88-.53.62-.35,1.22-.79,1.82-1.32.75.3,1.55.77,2.41,1.4.86.64,1.53,1.51,2.02,2.63-1.68,2.61-3.65,4.72-5.91,6.33-2.26,1.61-4.56,2.41-6.92,2.41-1.31,0-2.41-.26-3.3-.78-.9-.52-1.6-1.18-2.13-1.99-.52-.8-.9-1.68-1.12-2.63s-.34-1.88-.34-2.77c0-1.53.24-3.11.73-4.73.49-1.62,1.15-3.21,1.99-4.76.84-1.55,1.85-3,3.02-4.37,1.18-1.36,2.44-2.57,3.81-3.61,1.36-1.04,2.8-1.87,4.31-2.46,1.51-.6,3.03-.9,4.56-.9,1.08,0,1.96.23,2.63.7.67.47,1.2,1.06,1.6,1.76.39.71.65,1.49.78,2.35.13.86.2,1.68.2,2.46,0,1.01-.08,2.01-.22,3-.15.99-.36,1.97-.62,2.94.97.34,2.02.26,3.16-.22,1.14-.48,2.14-1.44,3-2.86Z"
  />
  <path
    d="M246.58,111.28c1.08,0,1.91.19,2.49.58.58.39,1.02.82,1.32,1.3.34.55.54,1.18.62,1.88-1.01,0-1.93.62-2.77,1.85s-1.65,2.87-2.44,4.9c-.78,2.04-1.6,4.35-2.44,6.94s-1.75,5.25-2.72,7.95c-.97,2.71-2.05,5.36-3.25,7.95-1.2,2.59-2.57,4.91-4.12,6.94-1.55,2.03-3.3,3.67-5.26,4.9-1.96,1.23-4.19,1.85-6.69,1.85-1.05,0-2.18-.22-3.42-.64-1.23-.43-2.38-1.06-3.44-1.9-1.06-.84-1.96-1.88-2.69-3.11-.73-1.23-1.09-2.63-1.09-4.2,0-.75.09-1.4.28-1.96.08-.3.17-.58.28-.84.93.97,1.98,1.73,3.14,2.27,1.16.54,2.48.81,3.98.81,2.16,0,4.06-.55,5.68-1.65s3.04-2.55,4.26-4.34,2.29-3.83,3.22-6.1c.93-2.28,1.81-4.59,2.63-6.94-2.2,2.65-4.54,4.88-7,6.69s-4.84,2.85-7.11,3.11c-.37.08-.69.11-.95.11-.52,0-1.06-.1-1.62-.31-.56-.21-1.08-.55-1.57-1.04-.49-.49-.88-1.13-1.18-1.93-.3-.8-.45-1.78-.45-2.94s.23-2.39.7-3.81c.47-1.42,1.04-2.91,1.74-4.48.69-1.57,1.45-3.19,2.27-4.87.82-1.68,1.58-3.36,2.27-5.04.69-1.68,1.27-3.32,1.74-4.93.47-1.6.7-3.14.7-4.59,0-2.35-.77-4.24-2.32-5.66-1.55-1.42-3.67-2.13-6.36-2.13-.6,0-1.14.04-1.62.11-.48.08-.93.15-1.34.22.52-1.38,1.27-2.61,2.24-3.7.86-.93,2.01-1.78,3.44-2.55,1.44-.76,3.28-1.15,5.52-1.15s4.02.48,5.46,1.43c1.44.95,2.58,2.13,3.42,3.53s1.43,2.88,1.76,4.45c.34,1.57.5,2.99.5,4.26,0,1.9-.4,3.97-1.2,6.19-.8,2.22-1.75,4.44-2.86,6.66-1.1,2.22-2.24,4.36-3.42,6.41-1.18,2.05-2.12,3.87-2.83,5.46-.71,1.59-1.08,2.86-1.12,3.81-.04.95.52,1.43,1.68,1.43.49,0,1.2-.34,2.16-1.03.95-.69,2-1.61,3.14-2.76,1.14-1.16,2.31-2.5,3.53-4.02,1.21-1.53,2.36-3.13,3.44-4.8.6-1.49,1.22-2.88,1.88-4.16.65-1.28,1.36-2.4,2.13-3.35.76-.95,1.61-1.69,2.55-2.23.93-.54,1.98-.81,3.14-.81Z"
  />
</svg>
