<svg xmlns="http://www.w3.org/2000/svg" viewBox="0 0 160 80" aria-label="weiShaoY" aria-disabled="false" class="anticon     cursor-pointer " role="img" style="height: 80px; width: 160px;">
  <title>weiShaoY</title>
  <path d="M24.25,23.51c-.21-.26-.31-.4-.31-.43s.01-.04.04-.04c.1,0,.64.25,1.6.74.68.34,1.38.86,2.13,1.56.74.7,1.11,1.2,1.11,1.48,0,.13.2.34.58.62.39.29.84.94,1.37,1.95.47.91.94,1.53,1.4,1.87.34.23.68.77,1.01,1.6.34.83.51,1.55.51,2.15v.27c-.1.49-.58,1.36-1.44,2.61s-1.72,2.33-2.57,3.24c-.88.94-1.33,1.48-1.33,1.64s-1.03,1.27-3.08,3.33c-2.05,2.07-3.41,3.35-4.06,3.84-.75.6-1.39,1.01-1.91,1.25-.47.21-.74.31-.82.31-.13,0-.23-.08-.31-.23-.16-.18-.23-.44-.23-.78,0-.23-.12-.47-.35-.70-.13-.1-.19-.31-.19-.62,0-.39.06-.95.19-1.68.13-.75.19-1.94.19-3.55,0-1.87-.09-2.9-.27-3.08-.03-.03-.05-.04-.08-.04-.26,0-.95,1.24-2.07,3.71-.81,1.64-1.26,2.87-1.36,3.71-.03.44-.12.82-.29,1.13-.17.31-.4.63-.68.96-.29.33-.49.58-.62.76-.31.47-.69.7-1.13.7-1.09,0-1.94-.9-2.54-2.69-.34-.99-.62-1.75-.86-2.30-.6-1.17-1.01-2.16-1.25-2.96-.18-.6-.65-1.58-1.4-2.94-.75-1.36-1.29-2.18-1.6-2.44-.39-.39-.58-.69-.58-.9,0-.39-.16-.58-.47-.58-.13,0-.25.05-.35.16-.18.18-.42.27-.70.27-.31,0-.47-.09-.47-.27s-.08-.22-.23-.12h-.04c-.13,0-.19-.39-.19-1.17v-.43c.03-.86.08-1.38.16-1.58.08-.19.36-.47.86-.84.78-.55,1.83-.82,3.16-.82.78,0,1.48.12,2.11.35.99.36,1.78.94,2.38,1.72s.9,1.59.9,2.42c0,.31-.04.61-.12.90-.05.13-.09.26-.12.39-.03.13-.03.23-.02.31s.03.12.06.12c.16,0,.41.4.76,1.21.35.81.53,1.39.53,1.76,0,.49.12.74.35.74.29,0,.61-.39.98-1.17.57-1.22,1.25-2.43,2.05-3.63.79-1.20,1.42-1.99,1.89-2.38.55-.44,1.01-.66,1.40-.66.23,0,.43.01.58.04,1.07.18,1.74.55,2.03,1.09s.47,1.89.55,4.02c.10,1.85.18,2.83.23,2.96.05.05.09.08.12.08.23,0,.62-.32,1.17-.96.55-.64.82-1.07.82-1.31,0-.05-.01-.08-.04-.08-.05-.03-.08-.09-.08-.20,0-.21.17-.56.51-1.05.96-1.40,1.70-3.34,2.22-5.81.18-.96.27-1.56.27-1.79,0-.49-.22-1.59-.66-3.28-.03-.08-.10-.40-.23-.96-.13-.56-.24-1.03-.33-1.42-.09-.39-.21-.80-.37-1.23-.16-.43-.30-.71-.43-.84Z"/>
  <path d="M37.31,36.3c1.46-.94,2.85-1.4,4.17-1.40.73,0,1.44.10,2.14.31.42.10.86.36,1.35.76.48.40.88.83,1.19,1.27.31.47.47.98.47,1.52,0,.42-.08.79-.23,1.13-.23.49-.83,1.02-1.79,1.58-.96.56-1.82.89-2.57,1-.36.05-.55.05-.55,0,0-.03.04-.09.12-.20.10-.13.14-.20.12-.21-.03-.01-.14,0-.35.06-.08.03-.19.05-.35.06-.16.01-.36.03-.62.06-.26.03-.47.05-.62.08-.21.03-.46.04-.74.04s-.55-.12-.78-.35l-.43-.43.51-.08c2.57-.44,4.41-.91,5.50-1.40.39-.18.65-.33.78-.45.13-.12.23-.31.31-.57.10-.31.16-.62.16-.94,0-.65-.53-1.08-1.60-1.29-.49-.13-.88-.10-1.17.08-.21.16-.40.23-.58.23-.23,0-.64.15-1.23.45-.58.30-1.09.62-1.50.96-.91.73-1.38,1.62-1.40,2.69,0,.10-.02.36-.06.78-.04.42-.06.73-.06.94,0,.91.29,1.56.86,1.95.36.26.68.43.96.51s.84.16,1.70.23c.10,0,.24,0,.41.02.17.01.29.02.37.02.57,0,1.06-.08,1.46-.25.40-.17.92-.50,1.54-1.00.57-.47.91-.70,1.01-.70.13,0,.50-.28,1.11-.84.61-.56,1.08-1.03,1.42-1.42.26-.31.58-.62.96-.94.38-.31.63-.47.76-.47.03,0,.04.01.04.04,0,.08-.26.66-.78,1.76-1.25,2.57-1.87,4.07-1.87,4.48,0,.16-.38.61-1.13,1.37-.81.81-1.55,1.37-2.24,1.70-.69.33-1.51.50-2.48.53h-.35c-2.21,0-4.11-.73-5.69-2.18-1.17-1.09-1.75-2.59-1.75-4.49,0-1.56.31-2.98.94-4.25.31-.62.62-1.09.92-1.40.30-.31.86-.75,1.70-1.33Z"/>
  <path d="M54.12,35.60c.81-.47,1.35-.70,1.64-.70.39,0,.83.14,1.33.43.39.21.58.39.58.55,0,.18-.21.43-.62.74-1.69,1.25-2.79,3.00-3.31,5.27-.31,1.25-.47,2.33-.47,3.24,0,.86.13,1.33.39,1.40h.04c.21,0,.65-.30,1.33-.90,1.14-1.01,1.95-1.52,2.42-1.52.05,0,.09.01.12.04.05.05.01.30-.12.74l-.58,1.75c-.31,1.01-.88,1.86-1.72,2.54-.52.44-1.18.66-1.99.66-.16,0-.34-.03-.55-.08-.26-.05-.60-.31-1.03-.78s-.76-.94-.99-1.40c-.31-.62-.47-1.48-.47-2.57,0-2.39.52-4.39,1.56-6.01.29-.49.43-.83.43-1.01,0-.21-.08-.32-.23-.35-.21-.08-.48-.29-.82-.64-.34-.35-.51-.59-.51-.72,0-.18.25-.29.74-.31h1.21c.08,0,.20,0,.37.02.17.01.28.02.33.02.18,0,.49-.13.94-.39ZM52.88,31.55c.68-.21,1.13-.31,1.36-.31.10,0,.36.03.78.08.52.10,1.09.31,1.72.62s.94.55.94.70c0,.60-.35,1.07-1.05,1.40-.39.21-.73.31-1.01.31-.05,0-.31-.03-.78-.08-.57-.05-.99-.08-1.25-.08h-.31l-.55.08.08-.47c.05-.34.16-.58.31-.74.08-.08.12-.20.12-.35,0-.31-.12-.58-.35-.82-.13-.21-.13-.33,0-.35ZM58.10,42.51c.13-.26.22-.29.27-.08.05.13,0,.33-.16.58-.16.26-.23.26-.23,0,0-.21.04-.38.12-.51Z"/>
  <path d="M66.92,26.36c.88-.21,1.40-.31,1.56-.31.18,0,.73.10,1.64.31,3.17.75,4.90,2.21,5.19,4.37.10.78.10,1.17,0,1.17-.13,0-.68-.18-1.64-.55-2.16-.83-3.57-1.25-4.25-1.25-.23,0-.42.01-.55.04-.62.10-1.10.34-1.42.70-.33.36-.58.99-.76,1.87-.10.52-.16.87-.16,1.05,0,.96.56,1.83,1.68,2.61.55.39,1.00.62,1.36.68.36.06,1.34.11,2.92.14,1.64.05,2.64.11,3.00.18.36.06,.79.27,1.29.60.68.49,1.16.94,1.44,1.33.62.83.94,2.04.94,3.63,0,.91-.11,1.64-.31,2.18-.44,1.25-1.27,2.60-2.50,4.06s-2.25,2.31-3.08,2.57c-.52.16-1.52.32-2.98.49-1.47.17-2.65.25-3.53.25h-.39c-.94-.03-1.94-.24-3.02-.64-1.08-.40-1.85-.84-2.32-1.31-.52-.52-1.09-1.63-1.70-3.33-.61-1.70-.92-2.98-.92-3.84,0-.18.03-.35.08-.51.10-.26.18-.87.23-1.83.03-.91.17-2.28.43-4.11s.45-2.93.59-3.30c.05-.13.09-.19.12-.19.08,0,.17.61.27,1.83.26,3.74,1.25,6.82,2.96,9.24.47.62,1.23,1.12,2.30,1.50,1.07.38,2.26.57,3.59.57.70,0,1.23-.03,1.60-.08.62-.08,1.07-.18,1.33-.31.26-.13.61-.42,1.05-.86.49-.55.79-.92.90-1.13s.17-.66.20-1.37l.04-.86-3.20-.23c-2.11-.13-3.37-.35-3.78-.66-.42-.26-.73-.39-.94-.39-.47-.03-1.03-.44-1.68-1.23-.65-.79-1.12-1.64-1.40-2.55-.16-.57-.33-1.00-.51-1.29-.10-.21-.27-.96-.51-2.26-.16-.91-.23-1.47-.23-1.68s.10-.34.31-.39c.29-.10.66-.62,1.13-1.56.88-1.87,2.09-2.99,3.63-3.35Z"/>
  <path d="M86.61,29.01c.10-.03.25-.04.43-.04.65,0,1.28.22,1.89.66.61.44,1.11,1.03,1.50,1.75.08.13.12.34.12.62,0,.75-.19,1.59-.58,2.50-.21.47-.31.75-.31.86,0,.13.14.20.43.20s.53-.01.74-.04c.05,0,.14,0,.27-.02.13-.01.23-.02.31-.02,1.46,0,2.46.61,3.00,1.83.13.31.20.57.20.78,0,.57-.35,1.44-1.05,2.61-.10.18-.22.40-.35.64-.13.25-.23.43-.29.55-.07.12-.10.19-.10.21,0,.08-.14.29-.43.62-.39.47-.75,1.02-1.07,1.66-.33.64-.49,1.11-.49,1.42,0,.44.16.66.47.66.23,0,.66-.20,1.29-.58.52-.34,1.51-1.21,2.96-2.63,1.46-1.42,2.60-2.63,3.43-3.65.65-.75,1.01-1.13,1.09-1.13.10,0,.16.05.16.16,0,.23-.18.56-.55.97-.31.36-.66.82-1.05,1.37s-.58.87-.58.98c0,.08-.26.61-.78,1.60-.44.86-.75,1.61-.94,2.26-.16.62-.58,1.33-1.27,2.11-.69.78-1.41,1.38-2.16,1.79-.44.26-.98.42-1.60.47-.08,0-.17,0-.27.02-.10.01-.18.02-.23.02-.31,0-.72-.16-1.21-.47-.52-.34-.94-.82-1.25-1.44-.31-.62-.47-1.29-.47-1.99,0-.39.06-.78.19-1.17.18-.57.50-1.31.96-2.20.45-.90.86-1.61,1.23-2.13.39-.60.58-.94.58-1.01s.10-.31.31-.70.31-.68.31-.86-.09-.29-.27-.31h-.16c-.75,0-1.22.12-1.40.35-.08.13-.35.35-.82.66-.81.55-1.39,1.14-1.75,1.79-1.79,3.02-2.87,4.76-3.24,5.23-.18.26-.36.70-.55,1.33-.10.34-.40,1.03-.88,2.07-.48,1.04-.76,1.72-.84,2.03-.10.39-.22.58-.35.58-.08.03-.12-.08-.12-.31,0-.16-.17-.40-.51-.74-.75-.75-1.20-1.70-1.33-2.85v-.27c0-.47.12-.95.35-1.44.26-.55.64-1.18,1.15-1.89.51-.71.89-1.15,1.15-1.31.73-.44,1.60-1.68,2.63-3.73,1.03-2.04,1.59-3.66,1.70-4.86v-.47c0-1.09-.40-1.64-1.21-1.64-.31,0-.75.10-1.33.31-.47.16-.77.23-.90.23-.16,0-.25-.05-.27-.16-.08-.18-.21-.27-.39-.27-.13,0-.19-.04-.19-.12,0-.10.32-.57.97-1.40.42-.52.73-.86.94-1.01.21-.16.60-.34,1.17-.55.78-.29,1.31-.45,1.60-.51Z"/>
  <path d="M109.19,33.42c.36-.05.66-.08.90-.08.86,0,1.66.16,2.42.47.31.13.52.20.62.20.08,0,.12.04.12.12,0,.13.17.20.51.20.39,0,.84.16,1.37.49.52.33.84.64.97.96.05.21.08.38.08.51,0,.78-.43,2.20-1.29,4.27-.86,2.07-1.29,3.24-1.29,3.53,0,.16.05.23.16.23.21,0,.52-.20.94-.58.42-.39.78-.83,1.09-1.33.96-1.46,1.57-2.18,1.83-2.18.03,0,.04.01.04.04,0,.13-.19.81-.58,2.03-.36,1.17-.62,2.09-.78,2.77-.13.65-.33,1.25-.58,1.79-.29.60-.70,1.17-1.25,1.72s-1.03.90-1.44,1.05c-.29.13-.53.20-.74.20-.16,0-.35-.05-.58-.16-.42-.21-.71-.44-.90-.70-.18-.29-.35-.43-.51-.43-.21,0-.64.22-1.29.66-.86.57-1.65.86-2.38.86-.29,0-.51-.01-.66-.04-1.64-.13-2.96-.70-3.98-1.72-.55-.55-.90-.98-1.05-1.31-.16-.32-.34-1.01-.55-2.05-.08-.39-.12-.74-.12-1.05,0-.34.04-.75.12-1.25.42-2.55,1.23-4.47,2.46-5.77.31-.34.86-.81,1.64-1.40.78-.60,1.38-1.01,1.79-1.25.49-.29,1.47-.55,2.92-.78ZM112.78,36.03c-.10-.23-.39-.35-.86-.35-.31,0-.79.07-1.44.20-.94.18-1.94.60-3.02,1.25s-1.88,1.34-2.40,2.07c-.94,1.30-1.40,2.59-1.40,3.86,0,1.20.42,1.98,1.25,2.34.55.23,1.08.35,1.60.35s.95-.10,1.29-.31c.39-.23.84-.67,1.36-1.31.52-.64.88-1.20,1.09-1.70.52-1.14.79-1.74.82-1.79,1.17-2.60,1.75-4.06,1.75-4.37,0-.13-.01-.21-.04-.23Z"/>
  <path d="M121.01,35.88c.08,0,.46-.14,1.13-.43.68-.29,1.05-.43,1.13-.43.13,0,.27-.05.43-.16.21-.10.48-.16.82-.16.60,0,1.23.09,1.91.27.60.18.99.25,1.17.19h.08c.23,0,.62.23,1.15.68.53.46,1.07,1.02,1.62,1.70.91,1.17,1.37,2.68,1.37,4.52,0,.55-.05.99-.16,1.33-.83,2.63-2.73,4.51-5.69,5.66-.96.39-1.91.58-2.85.58-1.33,0-2.26-.21-2.81-.62-.78-.60-1.20-1.03-1.25-1.29-.05-.29-.13-.45-.23-.51-.13-.08-.42-.74-.86-1.99-.18-.52-.27-.95-.27-1.29,0-.03.03-.45.08-1.29.21-2.42.73-4.26,1.56-5.54.18-.26.46-.53.84-.80s.66-.42.84-.45ZM125.80,37.63c-.55-.08-1.01-.12-1.40-.12-.94,0-1.83.29-2.69.86-.39.26-.83.68-1.33,1.27-.50.58-.74.99-.74,1.23,0,.26-.07.43-.20.51-.13.08-.20.21-.20.39,0,.21-.03.35-.08.43-.08.21-.09.60-.04,1.17.05.60.19,1.07.43,1.40.23.34.66.66,1.29.97.57.26,1.34.39,2.30.39.68,0,1.13-.03,1.37-.08.23-.05.60-.21,1.09-.47.57-.29,1.11-.68,1.62-1.19.51-.51.88-1.01,1.11-1.50.18-.42.27-.82.27-1.21,0-.65-.18-1.30-.55-1.95-.18-.34-.55-.76-1.11-1.27-.56-.51-.94-.79-1.15-.84Z"/>
  <path d="M157.90,23.79c.62-.31,1.03-.47,1.21-.47.23,0,.35.18.35.55s-.09.69-.27.98c-.55.96-.87,2.31-.97,4.06-.03.31-.19.65-.49,1.01-.30.36-.96.99-1.97,1.87-1.43,1.27-2.72,2.25-3.86,2.92-1.72,1.04-2.60,1.57-2.65,1.60-1.09.68-1.72,1.05-1.87,1.13l-.66.31.74,1.21c.60.99.90,2.13.90,3.43,0,.91-.14,2.37-.43,4.37-.31,2.31-.57,3.76-.76,4.35-.20.58-.62,1.18-1.27,1.77-.73.62-1.21,1.22-1.44,1.79-.18.44-.36.66-.55.66-.16,0-.23-.21-.23-.62,0-.26-.21-.70-.62-1.33-.65-.91-.98-2.24-.98-3.98,0-.34.01-.58.04-.74.05-.36.29-1.87.72-4.50s.67-4.23.72-4.78c.03-.18.04-.42.04-.70,0-.31-.07-.58-.20-.82-.13-.23-.43-.65-.90-1.25-.49-.62-.89-1.05-1.19-1.27-.30-.22-.79-.45-1.46-.68-1.01-.34-1.82-.73-2.42-1.17-.60-.44-1.35-1.20-2.26-2.26-1.01-1.22-1.72-1.95-2.11-2.18-.36-.26-.55-.45-.55-.58,0-.18-.13-.36-.39-.55-.18-.16-.27-.30-.27-.43,0-.34.40-.70,1.21-1.09.62-.29,1.07-.43,1.33-.43.10,0,.47.05,1.09.16,1.09.21,2.05.55,2.87,1.01.82.47,1.74,1.22,2.75,2.26.99,1.01,1.68,1.90,2.07,2.67.39.77.71,1.83.98,3.18.18,1.04.34,1.56.47,1.56.29,0,1.48-1.43,3.59-4.29,1.74-2.39,4.15-4.74,7.21-7.06.88-.75,1.72-1.31,2.50-1.68Z"/>
</svg>