<?xml version="1.0" standalone="no"?>
<!DOCTYPE
  svg
  PUBLIC "-//W3C//DTD SVG 1.1//EN" "http://www.w3.org/Graphics/SVG/1.1/DTD/svg11.dtd"
>
<svg
  t="1729662359413"
  class="icon"
  viewBox="0 0 4263 1024"
  version="1.1"
  xmlns="http://www.w3.org/2000/svg"
  p-id="3262"
  width="832.6171875"
  height="200"
>
  <path
    d="M1403.06944588 63.2889595c83.05344107-9.11932679 161.86245135 4.00800135 236.42703447 39.40450699a549.3213326 549.3213326 0 0 0 95.69665823 95.69665816c-6.87890034 74.71094454-42.53435061 132.87199441-106.9550877 174.50566852a94.96485827 94.96485827 0 0 1-45.03372174 5.62921481c1.64373225-45.25888817 5.39278895-90.29260988 11.25842949-135.10116157-108.61007578-21.62744555-206.18689198 2.75831581-292.71918568 73.17979552L1161.01319299 457.33402183A7658.82867748 7658.82867748 0 0 1 851.40635934 845.74986581c-48.39999122 42.97342762-104.69214239 67.35918897-168.87645369 73.1797991-57.6431642 6.20339382-87.65813675-20.07378138-90.06744338-78.80901387 9.5133735-30.3189511 15.14258827-60.33392722 16.88764785-90.06744347-55.72923155 73.86656144-128.90902711 105.77295133-219.53939378 95.69665824-46.03572207-43.48005749-55.41399351-94.14299394-28.14607382-151.98880946A2493.35952604 2493.35952604 0 0 0 491.13658927 361.63736366c-16.61744385-85.40645075-69.16053835-124.81095776-157.61802416-118.21351725 0.49537047-40.41776304 19.25191703-68.56384051 56.29215123-84.43822866 195.33376491-41.1720782 279.77199355 39.51709019 253.31468239 242.05625285a1504.46404266 1504.46404266 0 0 1-146.35959467 315.23604841c-9.09681164 23.40627617-7.21665362 45.92313887 5.62921472 67.55058077 141.23700981-94.84101567 225.67523484-226.19312417 253.31468246-394.04506227 64.25186054-41.03697982 107.40542413-26.02948993 129.47195034 45.03372167a437.06352395 437.06352395 0 0 0-16.88764792 78.80901396 5906.65665209 5906.65665209 0 0 1-140.73037624 315.23604837c3.7490567 11.25842956 11.25842956 18.76780235 22.51685903 22.51685902 39.46079677-11.23591435 71.35593087-33.75277334 95.69665821-67.55058075a6743.23683221 6743.23683221 0 0 1 326.49447791-551.66308652c63.11476177-77.30038371 140.04361397-133.59253494 230.79782331-168.87645376zM3193.15986327 637.46890506a118.38239388 118.38239388 0 0 0 28.14607742 33.77529228c-8.81535184 76.61361783-51.98017125 127.27655423-129.47195031 151.98880939-33.7752922 7.50937281-67.55058076 7.50937281-101.32587299 0-29.66596341-22.07778201-50.31392381-50.22385579-61.92136601-84.43822869-29.78980606 67.59561476-80.45274254 95.74169222-151.98880943 84.43822869-23.9579401-18.76780235-38.9654263-43.16482308-45.0337217-73.17979916a624.64023082 624.64023082 0 0 1-78.80901034 61.92136965c-54.95239764 18.91416379-92.47674657 2.02651589-112.58430248-50.66293649a624.64023082 624.64023082 0 0 1-78.80901385 61.921366c-84.87730576 20.24265791-126.16197071-13.53263424-123.84273203-101.32587297a732.21453163 732.21453163 0 0 1 78.80901029-236.42703806l-11.25842955-5.62921485c-103.08218839 86.01440804-142.48669536 194.84965387-118.21351723 326.49447796-89.84227342 28.51760526-132.995837-5.2576869-129.47195038-101.32586932 41.72374206-194.14037277 124.28181267-368.64604122 247.68546761-523.51701268a94.96485827 94.96485827 0 0 1 45.03372172-5.62921474 3661.73690512 3661.73690512 0 0 1-90.06744344 264.57311185l5.62921476 16.88764791c50.37021724-57.81204087 108.54252649-69.07047044 174.5056721-33.77529217 4.85238447 8.92793498 8.61270061 18.3174659 11.25842955 28.14607743a1254.88715755 1254.88715755 0 0 1-73.17979918 174.50566849c-8.98422843 19.80357728-7.10407035 38.57138325 5.6292184 56.29215124 68.01217662-38.30117917 114.92605635-94.59333049 140.73037633-168.87645368 60.59287187-88.98663451 141.2820402-117.13270828 242.05625282-84.43822875l22.5168591 45.03372173a1078.79405024 1078.79405024 0 0 0-45.03372176 163.24723894c21.36850091 51.64242162 49.51457474 51.64242162 84.43822869 0 46.28340729-102.56429908 119.46320275-179.50441438 219.53939022-230.79781968 42.97342762-11.51737418 82.37793455-5.88815941 118.21352085 16.88764428a1823.78690093 1823.78690093 0 0 1 28.14607383 168.87645372c31.5461215-10.9094205 54.06298053-31.5461215 67.55058073-61.92136598a115.45520142 115.45520142 0 0 0 45.03372175-16.88764426c53.42125227-86.94885558 77.81826935-180.77661513 73.1797991-281.46075988-9.37827147-24.39701713-26.26591936-41.28466499-50.66293646-50.66293645-37.23162965-17.30420615-74.75597855-21.05326647-112.5843025-11.25842955 63.9929195-95.29135578 150.31130256-121.55727146 258.94389353-78.80901032 67.25786158 62.94588515 91.65488226 139.8747374 73.17979923 230.79781973a3692.69759168 3692.69759168 0 0 1-163.24723904 349.01134067 41.05949497 41.05949497 0 0 0 11.25842955 16.88764421c43.52509152-9.2431731 79.18054175-33.62893077 106.95508775-73.17979551 52.58812854-60.02995217 93.86153413-127.58053294 123.84273191-202.6517459 53.48880144-67.46051273 111.66111074-73.08973109 174.50567219-16.88764428-40.4627971 30.13881867-68.60887451 69.54332565-84.43822875 118.21351728-42.66945262 150.71660507-102.72191628 293.31588362-180.13488322 427.82035082-98.83776126 109.7246629-203.91269092 117.23403571-315.23604839 22.51686273-18.6439597-36.62367234-20.52411778-74.15928065-5.62921476-112.58430616 93.6476235 64.66842241 174.33679184 49.64967676 242.05624925-45.03372172 28.91164832-46.29466669 47.67945066-95.07744508 56.29215127-146.35959103-46.03572207 55.57161076-104.19677194 89.34690291-174.50566852 101.32587295-56.8438151 1.33975362-86.87004701-26.80632384-90.06744342-84.43822866 8.46633916-24.25065932 10.34649723-48.63642065 5.62921477-73.17979554-48.12979077 42.10652934-102.54178389 53.36495879-163.24723898 33.77528853z m-382.78662907-168.87645367c19.09429621 2.08280929 34.10178607 11.47234016 45.03372161 28.14607743a3038.6390827 3038.6390827 0 0 1-157.61802415 151.98880581c-12.73328515-17.72076801-14.61344322-36.48857403-5.62921477-56.29215125 29.50834621-52.18282613 68.91285321-93.4562317 118.21351731-123.84273199z m382.78662907 168.87645367c-28.92290771-10.3577566-55.20008293-2.84838383-78.80901027 22.51686272-17.40553353-8.0160027-28.66396306-21.14333084-33.7752922-39.40450696 17.16910777-66.42473783 54.69345302-117.0876743 112.58430247-151.98880943 20.07378138 9.54714811 25.70299607 24.55463797 16.8876443 45.03372175-38.06475335-11.76505939-58.70145431 3.24242677-61.92136597 45.03372164 5.3364955 31.64744896 20.34398545 57.92462409 45.03372167 78.80901028z"
    p-id="3263"
  ></path>
  <path
    d="M1988.507821 85.80582222c168.39234268-26.75003045 262.20884282 44.56086646 281.46075614 213.91017545-15.59292469 157.05510454-94.40193862 207.71803738-236.42703449 151.98880942 86.30712729-73.20231438 120.08241582-165.13865641 101.32587302-275.83154502-23.63144622-26.08578338-49.89736197-27.95468198-78.80901395-5.62921481-96.3383864 58.39747931-143.25226622 142.83570438-140.73037626 253.3146824a1675.25442899 1675.25442899 0 0 0 146.35959104 180.13488687c37.16407685 160.09488018-24.75728919 259.54059507-185.76409803 298.34840053-93.74895093 14.80483498-183.81639075 3.54640548-270.20232666-33.77528864-32.01897679-45.72048401-77.0526985-60.72797386-135.10116512-45.03372169-21.81883733-27.8083242-34.94616917-59.71471411-39.40450695-95.69665822-59.6584207 84.93359909-140.33633319 116.83998905-242.05624929 95.69665822-28.14607743-13.13858755-48.78277847-33.7752922-61.9213696-61.921366-18.37375931-145.24501116 32.28917721-259.70947167 151.98880941-343.38212583 49.25563373-23.47382897 96.16951348-21.59367099 140.73037989 5.62921476 12.21539586 90.02240943-19.69099408 159.45314828-95.69665817 208.28096068l-78.80901026 11.25842954c24.1605913 52.97091584 61.68494015 64.22934535 112.58430245 33.77529219a390.73508262 390.73508262 0 0 0 84.43822868-73.17979554A955.5029785 955.5029785 0 0 1 1560.68747009 417.9295149c23.72151426-9.61470089 38.74025984-2.11658389 45.03372172 22.51685902-30.98320181 62.77700858-47.8708461 128.44743121-50.66293649 197.02253114 25.83809809-28.87787373 57.73323225-47.6344203 95.69665821-56.29215123 5.76431683-32.08652593 24.53211917-47.10527163 56.29215128-45.03372167-77.79575415 148.35233591-32.76203245 234.67072262 135.10116147 258.94389714 47.37547567-2.62321377 86.77998261-21.39101609 118.21351728-56.29215126 7.50937281-18.76780235 7.50937281-37.52434894 0-56.29215122a1293.00820433 1293.00820433 0 0 1-202.65174226-202.65174597c-52.34044331-145.0873903-12.93593638-259.55185082 118.21351717-343.38212214a2653.94977669 2653.94977669 0 0 1 112.58430253-50.66293649z m-698.02267753 472.85407256c12.06903805-35.23888838 32.71699847-65.25386083 61.92136597-90.06744339-1.41856221 29.24940155-12.67699172 55.51532094-33.7752922 78.80901392-7.55440679 8.46633916-16.93267827 12.22665525-28.14607377 11.25842947z"
    p-id="3264"
  ></path>
</svg>
