<svg
  width="387.205536"
  height="64.912949"
  viewBox="0 0 387.206 64.9129"
  fill="none"
  xmlns="http://www.w3.org/2000/svg"
>
  <desc>
    Created with Pixso.
  </desc>
  <defs />
  <path
    id="WeiShaoY"
    d="M185.315 7.45973Q184.286 8.4442 182.315 8.4442L160.94 8.4442Q160.443 8.4442 159.96 8.52473Q157.889 8.86987 156.065 10.6942Q155.384 11.4177 154.877 12.2474Q153.15 15.0733 153.44 19.1317Q153.568 22.2585 155.107 24.3428Q158.09 28.383 166.377 28.5067L171.065 28.5067Q176.44 28.5067 180.531 30.798Q182.292 31.784 183.815 33.1942Q185.544 34.8119 186.726 36.7616Q189.516 41.3651 189.252 47.8192Q188.972 55.6827 184.905 59.8656Q183.541 61.268 181.752 62.2567Q179.127 63.9442 175.377 64.5067Q172.752 64.8817 169.377 64.8817L153.627 64.8817Q151.657 64.8817 150.627 63.8972Q149.502 62.8212 149.502 60.5692Q149.502 58.5067 150.534 57.4754Q151.565 56.4442 153.627 56.4442L166.565 56.4442Q176.174 56.3107 179.134 51.8073Q180.332 49.9839 180.44 47.4442Q180.692 42.8996 178.565 40.3099Q177.533 39.0531 175.94 38.2567Q174.44 37.3192 172.377 37.1317L171.065 36.9442L164.877 36.7567Q161.877 36.7567 159.252 36.1942Q155.502 35.4442 152.69 33.9442Q149.804 32.325 147.948 29.9128Q144.862 25.9005 144.627 19.6942Q144.391 13.8955 146.768 9.51597Q148.158 6.95649 150.44 4.8817Q153.734 1.7057 157.618 0.595982Q159.925 -0.0631714 162.44 0.00669861L182.315 0.00669861Q184.377 0.00669861 185.409 1.03795Q186.44 2.0692 186.44 4.1317Q186.44 6.38373 185.315 7.45973ZM121.799 1.36607Q122.971 0.194199 125.315 0.194199Q127.659 0.194199 128.831 1.36607Q130.002 2.53795 130.002 4.8817Q130.002 7.0399 128.924 8.16303Q127.754 9.3817 125.315 9.3817Q122.876 9.3817 121.706 8.16303Q120.627 7.0399 120.627 4.8817Q120.627 2.53795 121.799 1.36607ZM208.571 1.32133Q209.6 2.35045 209.69 4.3192L209.69 27.3817L210.815 26.4442L212.877 25.5067Q215.69 24.3817 219.627 24.3817Q220.668 24.3344 221.673 24.5019Q224.651 24.9983 227.315 27.3817Q229.069 29.0522 230.042 31.0948Q231.252 33.6375 231.252 36.7567L231.252 60.7567Q231.163 62.7254 230.134 63.7546Q229.007 64.8817 226.752 64.8817Q224.407 64.8817 223.284 63.7099Q222.252 62.6337 222.252 60.5692L222.065 35.4442L221.69 33.7567Q221.026 32.2967 219.893 31.5884Q219.425 31.296 218.877 31.1317Q218.795 31.1042 218.712 31.0792Q216.524 30.423 213.815 31.5067Q211.491 32.5026 210.049 34.2332Q209.862 34.4575 209.69 34.6942L209.69 60.7567Q209.6 62.7254 208.571 63.7546Q207.444 64.8817 205.19 64.8817Q202.844 64.8817 201.721 63.7099Q200.69 62.6337 200.69 60.5692L200.69 4.3192Q200.69 2.43571 201.628 1.41223Q202.745 0.194199 205.19 0.194199Q207.444 0.194199 208.571 1.32133ZM346.404 0.494776Q347.832 1.10665 348.627 3.1942L367.002 34.1317Q367.651 35.0404 367.851 36.0389Q367.94 36.4827 367.94 36.9442L367.94 60.7567Q367.94 62.8192 366.909 63.8504Q365.877 64.8817 363.815 64.8817Q361.752 64.8817 360.721 63.8504Q359.69 62.8192 359.69 60.7567L359.69 37.8817L340.752 5.8192Q340.096 3.85045 340.752 2.53795Q341.409 1.22545 343.377 0.569199Q345.139 -0.047451 346.404 0.494776ZM58.1799 1.08464Q59.3289 0.303335 61.1899 0.569199Q63.3462 0.850449 64.2837 2.0692Q65.2212 3.28795 64.9399 5.4442L57.0649 61.3192Q57.0505 61.4202 57.0305 61.52Q56.7909 62.7182 55.7524 63.7567L54.4399 64.5067L54.4399 64.6942L54.2524 64.6942L52.9399 64.8817L52.3774 64.8817L52.0024 64.6942L50.8774 64.3192L50.5024 64.1317L49.3774 63.0067L49.0024 62.2567L32.5024 19.6942L16.1899 62.2567L16.0024 62.2567Q15.8811 62.6813 15.6616 63.0471Q15.2028 63.8118 14.3149 64.3192L14.1274 64.3192L13.0024 64.6942L12.6274 64.8817L12.0649 64.8817Q10.0941 64.8817 9.05548 63.8977Q8.11783 63.0094 7.93991 61.3192L0.0649109 5.4442Q-0.216339 3.28795 0.721161 2.0692Q1.65866 0.850449 3.81491 0.569199Q5.67596 0.303335 6.82494 1.08464Q8.1069 1.95637 8.50241 4.1317L14.1274 43.8817L28.5649 6.5692Q28.8462 5.6317 29.4555 5.02232Q30.0649 4.41295 31.0024 4.1317L32.5024 3.7567L34.0024 4.1317Q34.8627 4.38979 35.4862 4.92418Q36.2215 5.55449 36.6274 6.5692L51.0649 43.8817L56.5024 4.1317Q56.8979 1.95637 58.1799 1.08464ZM380.971 0.944199Q382.284 0.287949 384.252 0.944199Q386.252 1.706 386.898 3.09652Q387.523 4.44394 386.877 6.3817L374.69 27.0067Q374.034 28.9754 372.721 29.6317Q371.409 30.2879 369.44 29.6317Q367.44 28.8699 366.795 27.4794Q366.169 26.132 366.815 24.1942L379.002 3.5692Q379.659 1.60045 380.971 0.944199ZM128.266 20.1607Q129.346 21.192 129.44 23.2567L129.44 60.7567Q129.346 62.8214 128.266 63.8527Q127.188 64.8817 125.127 64.8817Q123.065 64.8817 122.034 63.8504Q121.002 62.8192 121.002 60.7567L121.002 23.4442Q121.002 21.1922 122.127 20.1162Q123.157 19.1317 125.127 19.1317Q127.188 19.1317 128.266 20.1607ZM317.265 62.9758Q315.683 63.7249 313.94 64.1317Q310.377 65.0692 307.377 64.8817Q304.165 64.7746 301.382 63.6283Q299.29 62.7671 297.44 61.3192Q295.062 59.5357 293.646 57.1753Q291.935 54.3243 291.627 50.6317L291.44 45.9442Q291.929 38.2768 295.683 32.8804Q296.244 32.0745 296.877 31.3192Q299.343 28.3843 302.47 26.6254Q304.337 25.5751 306.44 24.9442Q308.127 24.3817 310.565 24.3817L312.065 24.1942L313.002 24.3817Q316.169 24.3817 318.92 25.4515Q321.055 26.2818 322.94 27.7567Q324.994 29.3547 326.339 31.4159Q328.307 34.4336 328.752 38.4442L328.94 43.1317Q328.426 51.3505 324.316 56.9112Q323.926 57.4397 323.502 57.9442Q320.785 61.3082 317.265 62.9758ZM246.886 56.0393Q246.326 54.4527 246.252 52.6942Q246.159 48.1047 248.264 45.0124Q250.373 41.9144 254.69 40.3192L261.627 38.8192L264.44 38.4442L266.69 38.2567Q266.35 35.6207 264.969 33.756Q263.304 31.5089 260.127 30.3817Q255.897 28.7771 253.823 30.2366Q253.231 30.6531 252.815 31.3192Q253.95 31.7319 254.517 32.5422Q254.981 33.2043 255.065 34.1317Q255.348 35.8313 254.633 36.7701Q253.928 37.6955 252.252 37.8817Q250.746 38.1475 249.826 37.5341Q248.799 36.8494 248.502 35.0692L248.502 33.1942Q248.703 31.4872 249.469 30.0893Q251.562 26.2669 257.877 24.7567Q263.026 23.5982 266.783 25.3779Q273.971 28.7829 276.065 42.9442Q277.002 49.5067 276.065 53.6317L276.815 57.5692L278.127 60.3817Q278.405 60.6041 278.7 60.6287Q279.399 60.6869 280.19 59.6317Q281.315 58.3192 281.315 57.0067L282.065 56.8192Q282.861 58.7725 282.317 60.2234Q281.451 62.5328 277.19 63.5692Q275.075 64.2199 273.807 63.4591Q273.614 63.3431 273.44 63.1942L271.752 60.5692L268.377 62.8192L265.002 64.1317L262.752 64.6942Q258.166 65.3494 254.439 63.8583Q253.899 63.6425 253.377 63.3817L252.252 62.6317L249.815 60.5692Q247.759 58.513 246.886 56.0393ZM97.0024 64.1317Q93.6274 65.0692 91.0024 64.8817Q88.3757 64.7911 86.0115 63.9567Q83.4816 63.0638 81.2524 61.3192Q79.3779 59.9307 78.069 58.1309Q75.8428 55.0699 75.2524 50.8192L74.6899 46.1317Q74.6899 37.3192 78.8149 31.5067Q80.9006 28.6099 83.7023 26.8588Q85.4343 25.7764 87.4399 25.1317Q89.1274 24.7567 91.1899 24.5692L93.4399 24.5692Q96.5324 24.5692 99.275 25.5487Q101.022 26.1727 102.627 27.1942Q104.805 28.6748 106.254 30.6813Q107.925 32.9945 108.627 36.0067Q109.002 37.5067 109.002 39.7567L109.002 39.9442Q109.002 42.4993 107.858 44.3439Q105.474 48.1842 98.1274 48.9442Q94.3774 49.3192 89.6899 48.7567L86.3149 48.3817L84.0649 48.0067L84.6274 51.1942Q85.9738 56.5796 89.1327 58.0376Q89.4933 58.204 89.8774 58.3192Q91.1899 58.6942 92.6899 58.5067Q100.565 58.1317 102.815 54.3817Q103.925 53.1487 104.953 53.213Q105.489 53.2465 106.002 53.6317Q106.559 54.0491 106.754 54.5956Q107.085 55.522 106.377 56.8192Q103.81 61.008 100.074 62.9571Q98.6261 63.7127 97.0024 64.1317ZM301.565 41.8192L301.19 46.1317L301.565 51.1942Q302.432 55.674 305.081 57.3694Q305.869 57.8738 306.815 58.1317Q307.94 58.5536 309.065 58.5536Q309.44 58.5536 309.815 58.5067Q313.072 57.9978 315.168 56.1633Q316.934 54.6179 317.877 52.1317L318.815 47.4442L319.19 42.9442L318.815 38.0692L318.252 35.6317L317.315 33.5692Q316.601 32.2441 315.5 31.4731Q314.575 30.8259 313.377 30.5692L310.565 30.5692Q307.308 31.078 305.212 32.9126Q303.445 34.458 302.502 36.9442L301.565 41.8192ZM96.4886 31.7142Q95.5632 31.0532 94.3774 30.7567L91.5649 30.7567Q88.949 31.2116 87.2299 32.7015Q86.115 33.6677 85.3774 35.0692Q84.0649 37.5067 83.8774 42.0067L85.1899 42.9442L87.6274 44.0692Q91.1899 45.1942 95.6899 44.6317Q97.7323 44.4908 98.7959 43.3977Q100.564 41.5805 99.6274 37.1317Q98.8774 34.5067 97.9399 33.1942Q97.3191 32.3074 96.4886 31.7142ZM260.69 43.5067Q256.377 45.1942 254.315 48.0067Q253.816 48.7051 253.583 49.4831Q252.939 51.6294 254.315 54.3817Q255.306 56.1831 256.816 57.2489Q258.449 58.4019 260.69 58.6942L263.315 58.5067Q265.62 57.6424 266.941 55.991Q268.199 54.4183 268.565 52.1317L268.752 48.0067L268.19 44.0692Q268.022 42.394 267.705 42.3652Q267.667 42.3617 267.627 42.3817Q265.798 42.3817 264.018 42.6784Q262.332 42.9594 260.69 43.5067Z"
    fill="#D1D3D7"
    fill-opacity="1.000000"
    fill-rule="evenodd"
  />
</svg>
