<svg
  t="1730427818766"
  class="icon"
  viewBox="0 0 1024 1024"
  version="1.1"
  xmlns="http://www.w3.org/2000/svg"
  p-id="2173"
  width="200"
  height="200"
>
  <path
    d="M25.48622222 307.54133333h991.232v706.44622222H25.48622222z"
    fill="#FCE3C3"
    p-id="2174"
  ></path>
  <path
    d="M1016.71822222 1013.98755555h-1009.20888889V334.16533333h1009.20888889v679.82222222zM36.40888889 985.088h951.296V363.06488889H36.40888889v622.02311111z m0 0"
    fill="#300604"
    p-id="2175"
  ></path>
  <path
    d="M1021.952 1019.22133333H2.27555555V328.93155555h1019.67644445v690.28977778z m-1009.20888889-10.35377778H1011.48444445V339.39911111H12.74311111v669.46844444z m980.19555556-18.54577777H31.28888889V357.83111111h961.76355556v632.49066667z m-951.296-10.46755556h940.82844444V368.29866667H41.64266667v611.55555555z m0 0"
    fill="#300604"
    p-id="2176"
  ></path>
  <path
    d="M21.95911111 142.79111111h980.30933334v205.824H21.95911111z"
    fill="#300604"
    p-id="2177"
  ></path>
  <path
    d="M1007.50222222 353.84888889H16.72533333V137.55733333h990.66311112V353.84888889z m-980.30933333-10.46755556h969.84177778V148.02488889H27.19288889v195.35644444z m0 0"
    fill="#300604"
    p-id="2178"
  ></path>
  <path
    d="M1016.71822222 363.06488889h-1009.20888889V128.34133333h1009.20888889v234.72355556zM36.40888889 334.16533333h951.296V157.24088889H36.40888889v176.92444444z m0 0"
    fill="#300604"
    p-id="2179"
  ></path>
  <path
    d="M1021.952 368.29866667H2.27555555V123.10755555h1019.67644445v245.19111112z m-1009.20888889-10.46755556H1011.48444445V133.57511111H12.74311111v224.256z m980.19555556-18.432H31.28888889V152.12088889h961.76355556v187.27822222z m-951.296-10.46755556h940.82844444V162.47466667H41.64266667v166.45688888z m0 0"
    fill="#300604"
    p-id="2180"
  ></path>
  <path
    d="M756.16711111 19.00088889h94.54933334v242.80177778h-94.54933334z"
    fill="#ED8F27"
    p-id="2181"
  ></path>
  <path
    d="M865.16622222 276.25244445H741.71733333V4.55111111h123.44888889v271.70133334z m-94.54933333-28.89955556H836.26666667v-213.90222222h-65.64977778v213.90222222z m0 0"
    fill="#300604"
    p-id="2182"
  ></path>
  <path
    d="M173.51111111 19.00088889h94.54933334v242.80177778h-94.54933334z"
    fill="#ED8F27"
    p-id="2183"
  ></path>
  <path
    d="M282.51022222 276.25244445H159.06133333V4.55111111h123.56266667v271.70133334z m-94.54933333-28.89955556h65.64977778v-213.90222222h-65.64977778v213.90222222z m0 0"
    fill="#300604"
    p-id="2184"
  ></path>
  <path
    d="M779.83288889 433.72088889h99.328v99.328h-99.328z"
    fill="#B12800"
    p-id="2185"
  ></path>
  <path
    d="M779.83288889 624.41244445h99.328v99.328h-99.328v-99.328z m0 190.80533333h99.328v99.328h-99.328v-99.328z m-211.62666667-381.49688889h99.328v99.328h-99.328v-99.328z m0 0"
    fill="#228E9D"
    p-id="2186"
  ></path>
  <path
    d="M568.20622222 624.41244445h99.328v99.328h-99.328z"
    fill="#B12800"
    p-id="2187"
  ></path>
  <path
    d="M568.20622222 815.21777778h99.328v99.328h-99.328v-99.328zM356.69333333 433.72088889h99.328v99.328h-99.328v-99.328z m0 0"
    fill="#228E9D"
    p-id="2188"
  ></path>
  <path
    d="M356.69333333 624.41244445h99.328v99.328h-99.328z"
    fill="#B12800"
    p-id="2189"
  ></path>
  <path
    d="M356.69333333 815.21777778h99.328v99.328h-99.328v-99.328zM145.18044445 624.41244445h99.328v99.328h-99.328v-99.328z m0 0"
    fill="#228E9D"
    p-id="2190"
  ></path>
  <path
    d="M145.18044445 815.21777778h99.328v99.328h-99.328z"
    fill="#B12800"
    p-id="2191"
  ></path>
</svg>
