<svg
  t="1730427870919"
  class="icon"
  viewBox="0 0 1024 1024"
  version="1.1"
  xmlns="http://www.w3.org/2000/svg"
  p-id="2794"
  width="200"
  height="200"
>
  <path
    d="M512 512m-512 0a512 512 0 1 0 1024 0 512 512 0 1 0-1024 0Z"
    fill="#5940BF"
    p-id="2795"
  ></path>
  <path
    d="M512 512m-443.728 0a443.728 443.728 0 1 0 887.456 0 443.728 443.728 0 1 0-887.456 0Z"
    fill="#9B82FF"
    p-id="2796"
  ></path>
  <path
    d="M494.928 258.08L512 221.856l17.072 36.192v271.008h-34.144z"
    fill="#FFFFFF"
    p-id="2797"
  ></path>
  <path
    d="M724.384 494.928L750.944 512l-26.56 17.072H512v-34.144z"
    fill="#FFFFFF"
    p-id="2798"
  ></path>
  <path
    d="M512 512m-51.2 0a51.2 51.2 0 1 0 102.4 0 51.2 51.2 0 1 0-102.4 0Z"
    fill="#FFCC66"
    p-id="2799"
  ></path>
  <path
    d="M512 512m-68.272 0a68.272 68.272 0 1 0 136.544 0 68.272 68.272 0 1 0-136.544 0Z"
    fill="#FFCC66"
    opacity=".4"
    p-id="2800"
  ></path>
  <path
    d="M494.928 68.272h34.128v102.4h-34.128zM814.208 185.664l24.128 24.128-48.272 48.272-24.128-24.128zM233.92 765.92l24.16 24.144-48.288 48.272-24.128-24.128zM782.992 772.992l24.128-24.128 48.272 48.272-24.128 24.144zM185.664 209.792l24.128-24.128 48.272 48.272-24.128 24.128zM494.928 870.4h34.128v102.4h-34.128zM853.328 494.928h102.4v34.128h-102.4zM68.272 494.928h102.4v34.128h-102.4z"
    fill="#FFFFFF"
    p-id="2801"
  ></path>
</svg>
