<svg
  t="1730714795965"
  class="icon"
  viewBox="0 0 1024 1024"
  version="1.1"
  xmlns="http://www.w3.org/2000/svg"
  p-id="7680"
  width="200"
  height="200"
>
  <path
    d="M938.666667 341.333333v349.44c0 155.306667-92.586667 247.893333-247.893334 247.893334H333.226667C177.92 938.666667 85.333333 846.08 85.333333 690.773333V341.76L938.666667 341.333333z"
    fill="#292D32"
    opacity=".4"
    p-id="7681"
  ></path>
  <path
    d="M384 757.333333c-4.693333 0-9.813333-1.28-14.08-3.413333-32.853333-16.64-61.013333-41.386667-81.493333-72.106667-17.066667-25.6-17.066667-58.453333 0-84.053333a209.493333 209.493333 0 0 1 81.493333-71.68c15.786667-8.106667 34.986667-1.28 43.093333 14.506667 8.106667 15.786667 1.706667 34.986667-14.506666 43.093333-23.04 11.52-42.666667 29.013333-56.746667 50.346667a12.373333 12.373333 0 0 0 0 13.226666c14.08 21.333333 33.706667 38.826667 56.746667 50.346667 15.786667 8.106667 22.186667 27.306667 14.506666 43.093333-5.973333 10.24-17.493333 16.64-29.013333 16.64zM648.96 757.333333c-11.946667 0-23.04-6.4-28.586667-17.493333a31.786667 31.786667 0 0 1 14.506667-43.093333c23.04-11.52 42.666667-29.013333 56.746667-50.346667a12.373333 12.373333 0 0 0 0-13.226667c-14.08-21.333333-33.706667-38.826667-56.746667-50.346666a32.554667 32.554667 0 0 1-14.506667-43.093334c8.106667-15.786667 27.306667-22.186667 43.093334-14.506666 32.853333 16.64 61.013333 41.386667 81.493333 72.106666 17.066667 25.6 17.066667 58.453333 0 84.053334a209.493333 209.493333 0 0 1-81.493333 71.68 28.16 28.16 0 0 1-14.506667 4.266666zM938.666667 333.226667V341.333333L85.333333 341.76v-8.533333C85.333333 177.92 177.92 85.333333 333.226667 85.333333h357.546666C846.08 85.333333 938.666667 177.92 938.666667 333.226667z"
    fill="#292D32"
    p-id="7682"
  ></path>
</svg>
