<svg
  t="1730428354833"
  class="icon"
  viewBox="0 0 1024 1024"
  version="1.1"
  xmlns="http://www.w3.org/2000/svg"
  p-id="2508"
  width="200"
  height="200"
>
  <path
    d="M119.862657 37.175681h786.612624v945.042984H119.862657z"
    fill="#F0F0FF"
    p-id="2509"
  ></path>
  <path
    d="M119.862657 37.175681h786.612624v189.005292H119.862657z"
    fill="#FFDE94"
    p-id="2510"
  ></path>
  <path
    d="M906.475281 244.768814H119.862657a18.58784 18.58784 0 0 1-18.587841-18.587841V37.175681a18.58784 18.58784 0 0 1 18.587841-18.587841h786.612624c10.260488 0 18.58784 8.323222 18.58784 18.587841v189.005292c0 10.264619-8.327353 18.58784-18.58784 18.587841z m-768.024784-37.175681h749.436943V55.763521H138.450497v151.829612zM256.355234 393.934168h358.505744v37.175681H256.355234zM256.355234 573.876856h484.242159v37.17568H256.355234zM256.355234 770.697302h232.777592v37.175681H256.355234zM537.213373 766.843423h77.651736v37.175681h-77.651736zM677.729185 393.934168h110.940494v37.175681h-110.940494z"
    fill="#6E6E96"
    p-id="2511"
  ></path>
  <path
    d="M908.544727 971.247709H121.927972l-2.065315-110.890926h786.616754z"
    fill="#FFFFFF"
    opacity=".6"
    p-id="2512"
  ></path>
  <path
    d="M138.450497 244.768814h749.436943v44.181231H138.450497z"
    fill="#6E6E96"
    opacity=".2"
    p-id="2513"
  ></path>
  <path
    d="M906.475281 1000.806506H119.862657a18.591971 18.591971 0 0 1-18.587841-18.587841V37.175681a18.58784 18.58784 0 0 1 18.587841-18.587841h786.612624c10.260488 0 18.58784 8.323222 18.58784 18.587841v945.047115a18.58784 18.58784 0 0 1-18.58784 18.58371z m-768.024784-37.175681h749.436943V55.763521H138.450497v907.867304z"
    fill="#6E6E96"
    p-id="2514"
  ></path>
  <path
    d="M138.450497 154.704531h749.436943v52.888602H138.450497z"
    fill="#FBB03B"
    opacity=".4"
    p-id="2515"
  ></path>
</svg>
