<svg
  t="1730427361190"
  class="icon"
  viewBox="0 0 1024 1024"
  version="1.1"
  xmlns="http://www.w3.org/2000/svg"
  p-id="2527"
  width="200"
  height="200"
>
  <path
    d="M273.456137 635.632684c-0.179419-1.094017 152.864821 46.61388 152.055248 319.73306a3222.274188 3222.274188 0 0 1 128.175042-0.905847c-0.166291 0.988991 32.487932-236.338325 197.658257-318.827213"
    fill="#FFBF00"
    p-id="2528"
  ></path>
  <path
    d="M538.834051 1021.947624a3259.645812 3259.645812 0 0 0-76.673094 0.284444c-35.542427 0.538256-64.153162-22.908718-63.925607-53.212991 0.231932-30.282393 29.000205-55.93053 64.258188-56.473162 25.385573-0.393846 50.784274-0.485744 76.165471-0.275693 35.262359 0.275692 63.995624 25.718154 64.183794 55.996171 0.192547 30.299897-28.461949 53.956923-64.008752 53.681231z"
    fill="#666666"
    p-id="2529"
  ></path>
  <path
    d="M512.393846 2.157402c210.182564-0.472615 384.157538 179.943932 389.710769 371.681367 5.723897 192.586393-168.224821 322.284308-389.715145 322.634393-221.494701-0.350085-395.434667-130.056752-389.710769-322.634393C128.231932 182.101333 302.206906 1.684786 512.38947 2.157402z"
    fill="#FFBF00"
    p-id="2530"
  ></path>
  <path
    d="M626.644239 832.258188a3204.848684 3204.848684 0 0 0-241.147624 0.481368c-35.113573 1.378462-63.24294-21.407726-62.866598-51.716377 0.380718-30.282393 28.899556-56.617573 63.724308-57.987282a3184.00547 3184.00547 0 0 1 239.510974-0.476991c34.833504 1.234051 63.34359 27.455453 63.693675 57.737846 0.358838 30.30865-27.801162 53.208615-62.914735 51.961436z"
    fill="#E69E57"
    p-id="2531"
  ></path>
  <path
    d="M627.357538 933.721709a3224.803556 3224.803556 0 0 0-242.652991 0.481368c-35.323624 1.387214-63.636786-21.385846-63.260444-51.694496 0.376342-30.282393 29.070222-56.626325 64.118153-58.004786a3201.461607 3201.461607 0 0 1 241.020718-0.481368c35.052308 1.242803 63.73306 27.468581 64.091898 57.750975 0.350085 30.30865-27.984957 53.195487-63.317334 51.943931z"
    fill="#E69E57"
    p-id="2532"
  ></path>
</svg>
