<svg
  t="1730712229264"
  class="icon"
  viewBox="0 0 1180 1024"
  version="1.1"
  xmlns="http://www.w3.org/2000/svg"
  p-id="13699"
  width="200"
  height="200"
>
  <path
    d="M1118.177521 483.689412c-34.478682 0-62.427859-27.708235-62.427859-61.873694 0-34.165459 27.949176-61.861647 62.427859-61.861647 34.490729 0 62.439906 27.696188 62.439906 61.861647s-27.949176 61.861647-62.439906 61.861647zM981.961427 202.462871a62.439906 62.439906 0 0 1-57.681318-38.189177 61.452047 61.452047 0 0 1 13.528847-67.427388 62.861553 62.861553 0 0 1 68.041788-13.408377 61.861647 61.861647 0 0 1 38.550589 57.151247c0 34.177506-27.961224 61.873694-62.439906 61.873695z m51.079529 317.921882c0 20.118588-21.877459 39.3216-56.380235 56.488659a112.760471 112.760471 0 0 1 44.369318 89.268706c0 27.672094-48.368941 53.151624-112.664095 72.451011l33.539012-13.348141-59.343812-9.854494s-11.203765 2.481694-29.274352 5.662118c42.164706-10.360471 68.065882-27.4432 68.836894-54.910494a75.101365 75.101365 0 0 0-24.021836-58.500518c-20.732988 5.866918-41.670776 11.035106-62.765176 15.480471a931.767718 931.767718 0 0 0 61.994165-16.167153 132.276706 132.276706 0 0 0-41.706918-25.142212c-11.769976 2.794918-34.538918 7.673976-65.957647 12.131388a362.435765 362.435765 0 0 0 61.801412-13.817976c-36.117082-13.613176-89.232565-22.3232-166.731294-22.3232-89.545788 0-144.359906 19.877647-177.742306 41.755106 32.430682 1.975718 77.486682 3.541835 139.806117 3.541835-18.8416 0.228894-38.213271 0.228894-58.102964 0-31.225976-0.337318-58.693271-1.180612-83.004236-2.698541a138.468894 138.468894 0 0 0-39.128847 37.839811l1.999812 0.421647s7.830588 1.445647 21.082353 3.312942c-7.7824-1.048094-15.540706-2.180518-23.286965-3.409318-3.806871 5.505506-6.866824 11.4688-9.107576 17.733271 0 38.671059 19.070494 59.030588 68.860988 69.318776l-28.117835 28.009412c-81.016471-19.166871-148.564329-51.6096-149.528094-97.340235a159.454871 159.454871 0 0 1 24.708517-37.15313c-86.979765-23.564047-155.768471-60.367812-156.828612-110.579953a218.244518 218.244518 0 0 1 49.248377-64.933647c-36.261647-22.299106-60.765365-51.079529-61.247247-86.329223a261.927153 261.927153 0 0 1 97.099294-124.301553c-22.287059-14.046871-36.683294-31.286212-37.056753-51.778259 0 0 21.877459-60.403953 100.882071-96.207812C377.572533 59.560659 417.098933 0 517.812344 0c121.506635 0 162.671435 45.381271 166.526495 94.870588 43.851294 24.576 60.464188 59.090824 60.464188 94.448941 0 12.119341-9.758118 23.744753-25.768659 34.370259 46.248659 24.828988 77.534871 70.065694 84.076424 121.53073C975.251215 374.663529 1033.040956 446.343529 1033.040956 520.3968zM513.379027 22.491859c-49.682071 0-77.727624 17.648941-93.352659 35.105129a364.869271 364.869271 0 0 1 67.740612-6.083764c46.019765-0.927624 91.943153 4.445365 136.6016 15.9744-11.227859-24.600094-41.056376-44.995765-110.989553-44.995765z m125.409882 126.373647c-7.433035 4.023718-15.143153 7.589647-23.082165 10.6496l15.323859-7.794447-28.346729-6.047624s-4.397176 1.108329-11.203765 2.614212a50.621741 50.621741 0 0 0 23.817035-15.191341c-25.575906-12.432565-64.981835-20.552282-125.012329-20.552282a261.951247 261.951247 0 0 0-88.702494 13.492705c4.071906 13.432471 16.046682 23.479718 30.756141 25.816847l-13.408376 17.167059a154.262588 154.262588 0 0 1-52.224-25.624094c-17.516424 11.011012-30.683859 27.105882-37.466353 45.814965-0.240941 8.360659 1.264941 16.685176 4.409223 24.503718a368.242447 368.242447 0 0 1 147.889694-28.105789c59.006494-1.4336 117.856376 6.433129 174.08 23.274918 1.650447-3.830965 2.578071-7.914918 2.722636-12.047059 0.951718-17.853741-6.144-35.249694-19.552377-47.983435z m-12.227765 117.796141c-10.336376 2.300988-25.732518 5.493459-44.248847 8.673882a693.404612 693.404612 0 0 0 42.730918-9.191905 307.838494 307.838494 0 0 0-59.440188-13.661365c-15.817788 1.493835-31.683765 2.445553-47.585883 2.879247a690.055529 690.055529 0 0 0 43.200753-3.541835 603.352847 603.352847 0 0 0-75.69167-4.336942 378.229459 378.229459 0 0 0-67.608094 5.782589c14.709459 1.108329 31.635576 2.072094 49.633882 2.505788h-4.252612a1002.435765 1002.435765 0 0 1-49.417035-1.626353c-20.202918 3.734588-39.7312 9.854494-58.054776 18.154918 0.734871 0.168659 1.445647 0.361412 2.180517 0.505976l-2.517835-0.361412c-40.237176 17.456188-70.294588 48.766494-82.919906 86.377412a82.907859 82.907859 0 0 0 11.251953 46.116141c63.271153-36.839906 162.671435-70.378918 315.030588-70.378917 37.948235 0 72.776282 1.096282 104.978071 3.19247-8.023341-27.768471-29.708047-54.091294-77.269836-71.077647z m156.250353 142.781741a141.010824 141.010824 0 0 1-23.768847 21.058259 8.071529 8.071529 0 0 0-7.90287 0h-72.451012c-10.24 4.674259-20.865506 8.469082-31.731953 11.348329 28.551529-9.517176 49.152-23.696565 58.307765-44.501835-28.912941-2.529882-57.934306-3.734588-86.955671-3.650259-119.097224 0-188.054588 29.334588-227.496659 59.319718 16.408094 2.2528 38.646965 4.469459 66.800942 5.577788-22.720753-0.361412-45.417412-1.927529-67.969506-4.698353-13.372235 10.119529-25.178353 22.226824-35.0208 35.912283 23.949553 6.517459 48.308706 11.396518 72.884706 14.601035a641.6384 641.6384 0 0 1-74.3424-12.480753 94.653741 94.653741 0 0 0-12.601224 24.419388c0 41.152753 17.227294 65.560094 60.114824 79.811765 48.152094-39.333647 130.915388-79.811765 268.071152-79.811765 104.713035 0 180.742024 12.360282 234.58033 32.370447 2.963576-6.288565 4.601976-13.131294 4.794729-20.094494 1.204706-45.224659-22.9376-94.593506-125.325553-119.181553z m-113.037553 74.233977c-22.287059 4.457412-45.043953 8.204047-68.11407 11.251953 23.033976-3.120188 45.778824-6.866824 68.11407-11.251953z m22.768942-22.503906a473.557835 473.557835 0 0 0 68.017694-22.479812c1.132424 2.433506-25.479529 11.974776-68.07793 22.491859h0.072283z m-45.4656-11.239906c-29.551435 6.457224-60.042541 10.24-90.822777 11.251953a632.289882 632.289882 0 0 0 90.750494-11.251953h0.072283z m-102.171106 10.167718c-9.481035 0.8192-19.492141 1.445647-30.214024 1.770917a845.498729 845.498729 0 0 1-60.596706-0.32527c3.999624 0.108424 7.890824 0.240941 12.0832 0.32527 27.876894 0.457788 54.332235 0 78.667294-1.770917h0.060236z m-11.360377 56.127247a361.158776 361.158776 0 0 1-45.863153 3.2768 414.527247 414.527247 0 0 1-56.295906-4.156236c33.912471 4.385129 68.186353 4.674259 102.159059 0.879436z m-11.227859 1.2288c-0.650541 0.132518-1.313129 0.192753-1.96367 0.313223l3.6864-0.698729c-0.578259 0.120471-1.144471 0.277082-1.72273 0.385506z m-45.537882-234.736942a480.737882 480.737882 0 0 0 45.417412-3.023811c-2.228706 0.265035-4.433318 0.542118-6.686118 0.795106-12.854212 1.409506-25.780706 2.156424-38.719247 2.240753v-0.012048z m11.444706-1.770917c3.662306 0.228894 7.408941 0.361412 11.276047 0.313223-1.2288 0-2.541929 0.2048-3.758682 0.2048-2.385318 0-5.059765-0.361412-7.589647-0.493929l0.060235-0.024094z m90.738447-10.986918a356.1472 356.1472 0 0 1-45.417412 11.251953 468.690824 468.690824 0 0 0 45.369224-11.239906l0.048188-0.012047z m-79.450353-33.430588c3.782776-0.120471 7.553506-0.349365 11.324235-0.698729a82.642824 82.642824 0 0 1-5.156141 0.674635c-2.096188 0.228894-4.108047-0.036141-6.180141 0.036141l0.012047-0.012047z m-34.069082 44.670494a649.673788 649.673788 0 0 1-90.822777-11.239906l39.273412 5.3248c16.986353 2.927435 34.189553 4.903153 51.489129 5.927153l0.060236-0.012047z m113.555576-123.723294a392.661835 392.661835 0 0 0 45.369224-11.251953l-8.3968 3.493647s-14.938353 3.830965-37.008565 7.758306h0.036141z m-58.849882 0.421647c1.361318-0.240941 2.758776-0.566212 4.144188-0.843294-0.879435 0.2048-1.698635 0.433694-2.57807 0.626447-0.566212 0.108424-1.084235 0.120471-1.602259 0.216847h0.036141z m58.813741 10.830306a105.953882 105.953882 0 0 1-22.708706 11.239906 133.722353 133.722353 0 0 0 22.684612-11.227859l0.024094-0.012047zM590.311544 134.975247a209.859765 209.859765 0 0 1-68.11407 11.251953A377.831906 377.831906 0 0 0 590.311544 134.975247z m-90.834823 22.407529h-2.855153a169.984 169.984 0 0 1-65.234824-10.745976l0.180706-0.4096c22.467765 6.168094 45.164424 9.890635 67.933365 11.143529h-0.024094z m19.757176-11.119435c-6.698165 0.518024-13.336094 0.433694-19.733082 0 7.854682 0.180706 15.444329 0 22.696659-0.421647-0.975812 0.108424-1.963671 0.313224-2.963577 0.397553v0.024094z m-8.3968 33.370353c-3.867106 0.2048-7.637835 0.337318-11.227858 0.337318a310.332235 310.332235 0 0 1-79.582871-11.239906l25.6 4.746541c21.323294 5.023624 43.285082 7.107765 65.222776 6.144h-0.012047z m-79.450353-22.576188l0.795106-0.8192c3.493647 0.855341 6.987294 1.710682 10.553224 2.469647l-11.34833-1.650447z m111.230495 641.578165a565.6576 565.6576 0 0 1-43.128471-11.251953l45.417412 9.264188c-0.758965 0.674635-1.505882 1.325176-2.288941 1.987765zM602.358603 903.529412c-6.023529 6.9632-11.420612 19.998118-15.661176 28.166023-56.042918-14.926306-101.725365-39.333647-102.4-73.282259a170.586353 170.586353 0 0 1 69.535623-72.944941c29.599624 4.626071 59.452235 7.469176 89.389177 8.529318-68.583906 20.973929-80.365929 64.415624-80.36593 64.415623-0.024094 26.624 11.288094 36.502588 39.502306 45.116236z m-15.721411 14.576941l13.673411 2.108235c11.179671 2.517835 22.431624 4.698353 33.731765 6.505412 1.036047 21.431718 10.998965 33.069176 35.032847 39.080659l-14.336 17.263435C613.321427 971.233882 578.746368 951.211671 578.264486 922.973365c0.963765-2.529882 2.048-4.987482 3.2768-7.396894 1.975718 0.542118 4.035765 0.987859 6.047623 1.505882l-0.963765 1.024z m151.250823 71.643859h-3.337035a228.315859 228.315859 0 0 1-76.137412-10.721883l0.228894-0.421647c26.262588 6.168094 52.717929 9.878588 79.245553 11.107389v0.036141z m136.469082-43.489883a74.631529 74.631529 0 0 0-1.132423-14.793788c13.914353-3.505694 22.190682-6.023529 22.190682-5.999435l12.890353-6.276518c3.228612-1.204706 6.505412-2.361224 9.601506-3.614117a95.653647 95.653647 0 0 1 4.854965 30.659764c0 18.335624-23.371294 35.201506-54.4768 48.067765l15.709364-8.541365-29.045458-6.589741s-4.397176 1.204706-11.649506 2.915388c19.130729-7.023435 30.659765-18.275388 31.057317-35.852047v0.024094z m64.427671-28.250353l-20.612518-3.361129a74.462871 74.462871 0 0 0-12.300047-14.528753c10.396612-6.228329 16.865882-16.781553 17.311624-28.2624 0.987859-35.153318-23.323106-74.258071-137.70993-82.835576 7.348706-1.084235 14.697412-2.264847 22.058165-3.517742 45.863153-7.348706 76.655435-14.5408 76.667482-14.5408l9.517177-3.565929c79.281694 22.624376 107.447718 62.909741 107.447718 104.448 0 19.937882-32.527059 38.430118-77.474636 53.031153-0.120471-0.252988-0.265035-0.518024-0.373459-0.771012l15.468424-6.095812z m-30.611576-165.647058l-9.577412 2.590117-1.782965-0.361411c3.806871-0.758965 7.5776-1.493835 11.288094-2.264848l0.072283 0.024095z m-102.171106-7.734212c8.541365-1.686588 16.227388-3.385224 22.696658-4.939294-6.119906 2.035953-12.613271 3.867106-19.600564 5.409129l-3.096094-0.481882zM638.644344 618.664659h-14.275764c45.694494-0.927624 87.991718-4.192376 124.867764-11.251953a578.740706 578.740706 0 0 1-110.592 11.251953z m31.1296 40.309459l-1.650447 0.228894a692.513129 692.513129 0 0 1-202.679717-6.794541c42.791153 7.204141 85.919624 10.962824 129.120376 11.251953 22.9376 0 48.441224-1.662494 75.209788-4.698353z m0-6.565647c45.706541-2.638306 91.160094-6.384941 136.228142-11.251953-44.959624 5.180235-90.449318 8.926871-136.228142 11.251953z m-56.753694 100.713411c-0.493929 0.168659-0.939671 0.361412-1.445647 0.518024a487.942024 487.942024 0 0 1-100.725459-10.806212l0.361412-0.433694c33.611294 7.143906 67.680376 10.721882 101.797647 10.721882z m69.451294 8.818447c7.336659 0 14.817882 0 22.7328-0.060235 12.408471-0.120471 24.816941-0.566212 37.225412-1.325176 26.346918-0.963765 52.6336-3.252706 78.703436-6.915012 25.612047 2.529882 50.947012 7.107765 75.679623 13.63727-28.672 7.469176-57.765647 13.613176-87.136376 18.419953-7.408941 1.120376-15.239529 2.325082-23.467671 3.4816a706.921412 706.921412 0 0 0-49.718212-1.722729 350.063435 350.063435 0 0 0-93.316517 11.179671 665.419294 665.419294 0 0 1-90.485459-8.8064l-7.7824-1.024a305.874824 305.874824 0 0 1 72.788329-27.346824c21.612424 0.445741 43.2128 0.602353 64.813177 0.481882h-0.036142z m-1.421552 36.406212a396.649412 396.649412 0 0 1-45.333083 0.120471l0.6144-0.240941c14.083012 0.746918 29.129788 0.855341 44.790965 0.144564l-0.072282-0.024094z m64.295152 45.284894c86.738824 0 136.746165 17.950118 162.828048 43.357365a109.628235 109.628235 0 0 1-33.852236 14.914259c-3.626165 0.650541-7.252329 1.276988-10.890541 1.879341-16.745412-16.673129-50.019388-29.045459-112.748423-29.045459-59.910024 0-91.099859 19.275294-107.001977 36.382118a916.745035 916.745035 0 0 1-41.273223-4.493553l-0.301177 0.32527c-3.975529-0.843294-7.902871-1.855247-11.794071-3.011764 23.262871-26.864941 69.270588-60.307576 155.0336-60.307577z m-112.001505 83.606589l-38.213271-3.674353c-4.830871-0.698729-9.649694-1.445647-14.456471-2.216659L602.358603 903.529412c14.323953 1.867294 33.611294-0.662588 48.188236 0-7.107765 4.867012-14.179388 15.685271-17.335718 21.997929 0.012047 0.602353 0.120471 1.132424 0.132518 1.698635z m8.336564 18.817505c27.961224 6.9632 56.380235 10.276141 84.859483 9.902683-1.614306 0-3.373176 0.156612-4.903153 0.156612a427.791059 427.791059 0 0 1-85.919624-9.613553v-1.6384l5.963294 1.192658z m221.075577-11.4688c-6.023529 3.023812-13.757741 6.637929-22.696659 10.276142 7.625788-3.252706 15.203388-7.071624 22.600282-11.239906 0 0.361412 0.048188 0.686682 0.072283 1.011953l0.024094-0.048189zM855.346839 896.132518c3.855059-0.602353 7.589647-1.2288 11.167623-1.915483 13.287906-1.602259 21.323294-2.734682 21.323294-2.734682L927.629192 879.435294c2.240753 2.481694 22.455718 33.466729 24.094117 36.141177l-36.141176 12.047058c-13.552941 2.915388-27.370918 9.601506-42.164706 12.047059 0-12.047059-10.890541-38.586729-18.070588-43.53807z m-106.110495 26.238494a733.991153 733.991153 0 0 0 90.172236-11.251953l0.650541 0.73487c-29.9008 6.625882-60.307576 10.143624-90.822777 10.517083z m-11.348329 0.313223a690.079624 690.079624 0 0 0 22.708706-0.698729c-3.445459 0.277082-6.878871 0.518024-10.324329 0.686682-4.204424 0.2048-8.228141-0.060235-12.384377 0.012047z m-27.262494 1.602259c-24.515765-0.289129-45.453553-1.084235-63.548235-2.566023 0.385506-0.433694 0.746918-0.867388 1.204706-1.289036 18.432 1.6384 41.682824 3.252706 66.897317 3.879153l-4.553788-0.024094z m-29.503247-124.349741c7.589647-0.518024 15.1552-1.385412 22.708706-2.602165l-1.10833 0.2048c-7.360753 1.276988-14.576941 1.999812-21.600376 2.409412z m101.255529-12.553035h0.915577c-22.600282 4.698353-45.321035 8.457035-68.114071 11.251953a1047.949553 1047.949553 0 0 0 67.222588-11.251953h-0.024094z m-94.135717-25.6c-23.503812 0-43.947671-0.313224-61.789365-0.783059a508.903906 508.903906 0 0 1 106.652612-10.456847 963.668329 963.668329 0 0 1 86.329223 3.674353 1105.438118 1105.438118 0 0 1-72.704 6.360847c-18.552471 0.722824-38.128941 1.084235-58.512564 1.192659h0.024094z m72.402823 194.319058a1009.543529 1009.543529 0 0 0 68.065883-11.239905 781.962541 781.962541 0 0 1-68.114071 11.239905h0.036141z m4.601977-0.710776c-12.854212 1.409506-25.780706 2.144376-38.7072 2.228706 13.974588-0.2048 29.310494-1.204706 45.405364-3.011765-2.264847 0.240941-4.469459 0.518024-6.734306 0.771012l0.036142 0.012047zM817.398603 1001.110588a393.071435 393.071435 0 0 0 45.369224-11.251953l-8.384753 3.493647s-14.902212 3.830965-37.020612 7.746259h0.036141zM781.088768 1024c1.457694-0.216847 2.963576-0.530071 4.457412-0.795106l-2.770824 0.602353a10.661647 10.661647 0 0 0-1.722729 0.096377l0.036141 0.096376z m36.261647-11.625412a331.920565 331.920565 0 0 1-45.417412 11.227859 446.8736 446.8736 0 0 0 45.381271-11.251953l0.036141 0.024094z m-56.717553-11.264c22.877365-1.831153 45.622212-5.589835 68.065882-11.251953-22.202729 7.348706-45.092141 11.119435-68.102023 11.239906h0.036141z m-4.674259-11.155576c-6.107859 0.481882-12.203671 0.4096-18.070588 0 7.878776 0.2048 15.480471 0 22.708706-0.530071-1.566118 0.2048-3.132235 0.385506-4.674259 0.518024l0.036141 0.012047z m4.638118 33.310117c-3.867106 0.216847-7.649882 0.337318-11.239906 0.337318a310.404518 310.404518 0 0 1-79.582871-11.251953l25.6 4.806777c21.407624 5.023624 43.297129 7.071624 65.174589 6.095811h0.048188zM658.425615 1011.952941l0.783059-0.758965c3.493647 0.807153 6.999341 1.602259 10.56527 2.325083l-11.348329-1.566118zM488.140439 775.505318l0.795105-1.204706c3.4816 1.289035 6.999341 2.505788 10.565271 3.674353l-11.360376-2.469647zM85.142227 292.4544c-34.478682 0-62.427859-27.696188-62.427859-61.861647s27.949176-61.861647 62.427859-61.861647c34.490729 0 62.439906 27.696188 62.439906 61.861647a61.584565 61.584565 0 0 1-18.287436 43.742871 62.729035 62.729035 0 0 1-44.15247 18.118776z m39.7312 230.592753a61.861647 61.861647 0 0 1-38.538541 57.163294 62.861553 62.861553 0 0 1-68.041789-13.420423 61.452047 61.452047 0 0 1-13.528847-67.415342 62.439906 62.439906 0 0 1 57.681318-38.189176c34.478682 0 62.427859 27.708235 62.427859 61.861647z m62.439906 230.592753c34.478682 0 62.439906 27.708235 62.439906 61.873694 0 34.165459-27.949176 61.861647-62.439906 61.861647-34.478682 0-62.439906-27.708235-62.439906-61.861647 0-34.177506 27.949176-61.873694 62.439906-61.873694z m181.633506 146.2272a62.439906 62.439906 0 0 1 57.681317 38.189176 61.452047 61.452047 0 0 1-13.528847 67.427389 62.861553 62.861553 0 0 1-68.041788 13.408376 61.861647 61.861647 0 0 1-38.550588-57.151247c0-34.165459 27.949176-61.873694 62.439906-61.873694z m737.882353-89.99153a62.439906 62.439906 0 0 1 57.681317 38.189177 61.452047 61.452047 0 0 1-13.528847 67.427388 62.861553 62.861553 0 0 1-68.041788 13.408377 61.861647 61.861647 0 0 1-38.550588-57.151247c0-34.165459 27.949176-61.861647 62.439906-61.861647z"
    fill="#00ECFC"
    p-id="13700"
  ></path>
</svg>
