<svg
  t="1730430864792"
  class="icon"
  viewBox="0 0 1706 1024"
  version="1.1"
  xmlns="http://www.w3.org/2000/svg"
  p-id="2466"
  width="200"
  height="200"
>
  <path
    d="M867.54216199 0q-321.441898 0-401.770984 321.416787 120.531295-160.683283 281.239689-120.531295c61.119411 15.267297 104.812005 59.61277 153.225409 108.729272 78.798904 79.952426 169.950696 172.510416 369.07687 172.510417q321.441898 0 401.770984-321.416787-120.531295 160.683283-281.239689 120.531295c-61.119411-15.267297-104.812005-59.61277-153.225409-108.729273C1157.87348899 92.55799 1066.72169699 0 867.54216199 0z m-401.770984 482.125181q-321.440328 0-401.770984 321.416787 120.531295-160.683283 281.239689-120.531295c61.119411 15.267297 104.812005 59.61277 153.225409 108.729272 78.798904 79.952426 169.950696 172.510416 369.07687 172.510416q321.441898 0 401.770984-321.416787-120.531295 160.683283-281.239689 120.531295c-61.119411-15.267297-104.812005-59.61277-153.225409-108.729272-78.745543-79.952426-169.897335-172.510416-369.07687-172.510416z"
    fill="#38B2AC"
    p-id="2467"
  ></path>
</svg>
