<svg
  t="1730429374417"
  class="icon"
  viewBox="0 0 1228 1024"
  version="1.1"
  xmlns="http://www.w3.org/2000/svg"
  p-id="2405"
  width="200"
  height="200"
>
  <path
    d="M873.813333 1010.346667h-546.133333c-61.44 0-102.4-47.786667-102.4-109.226667V368.64h102.4v532.48l546.133333 6.826667V348.16h102.4v552.96c0 61.44-47.786667 109.226667-102.4 109.226667z"
    fill="#00B38A"
    p-id="2406"
  ></path>
  <path
    d="M464.213333 716.8h273.066667c27.306667 0 47.786667 20.48 47.786667 47.786667v6.826666c0 27.306667-20.48 47.786667-47.786667 47.786667h-273.066667c-27.306667 0-47.786667-20.48-47.786666-47.786667v-6.826666c0-27.306667 20.48-47.786667 47.786666-47.786667z"
    fill="#FFAE16"
    p-id="2407"
  ></path>
  <path
    d="M95.573333 593.92c-13.653333 0-27.306667-6.826667-40.96-13.653333-20.48-20.48-20.48-54.613333 0-75.093334l477.866667-450.56C573.44 13.653333 641.706667 13.653333 682.666667 54.613333l477.866666 443.733334c20.48 20.48 20.48 54.613333 0 75.093333s-54.613333 20.48-75.093333 0L614.4 129.706667h-6.826667l-477.866666 450.56c-6.826667 6.826667-20.48 13.653333-34.133334 13.653333z"
    fill="#00B38A"
    p-id="2408"
  ></path>
</svg>
