<svg
  t="1732284144054"
  class="icon"
  viewBox="0 0 1024 1024"
  version="1.1"
  xmlns="http://www.w3.org/2000/svg"
  p-id="2965"
  width="256"
  height="256"
>
  <path
    d="M356.42026667 720.21333333c16.72533333 0.4096 32.52906667-5.12 42.32533333-14.67733333 3.85706667-3.72053333 8.43093333-9.79626667 8.43093333-17.44213333v-134.0416c0-14.9504 6.2464-29.184 17.57866667-40.10666667 13.55093333-13.0048 32.80213333-19.89973333 52.97493333-19.08053333 35.97653333 1.50186667 64.03413333 28.22826667 64.03413334 60.85973333v27.37493333c0 32.63146667 38.74133333 60.17706667 84.65066666 60.17706667 42.66666667 0 79.53066667-23.552 84.13866667-53.72586667V456.704a64.17066667 64.17066667 0 0 0-64.06826667-64.03413333h-269.07306666a64.17066667 64.17066667 0 0 0-64.03413334 64.03413333v241.0496c6.38293333 11.02506667 21.1968 21.94773333 43.04213334 22.45973333z"
    fill="#EE4646"
    p-id="2966"
  ></path>
  <path
    d="M527.70133333 669.55946667c-28.7744-22.69866667-44.68053333-53.38453333-44.68053333-86.45973334v-26.4192c-0.7168-0.78506667-3.1744-2.73066667-7.74826667-2.90133333a15.2576 15.2576 0 0 0-9.38666666 2.3552v132.096c0 22.016-9.25013333 43.17866667-26.14613334 59.63093333-21.16266667 20.71893333-52.15573333 32.0512-84.7872 31.40266667a126.29333333 126.29333333 0 0 1-41.50613333-8.192v183.6032a10.58133333 10.58133333 0 0 0 10.37653333 10.41066667H710.656v-285.3888a164.79573333 164.79573333 0 0 1-84.00213333 22.39146666c-37.13706667-0.03413333-72.26026667-11.50293333-98.95253334-32.52906666z"
    fill="#EE4646"
    p-id="2967"
  ></path>
  <path
    d="M507.22133333 68.77866667c-9.1136 13.4144-20.8896 31.81226667-31.5392 51.88266666-27.10186667 51.06346667-30.0032 80.7936-23.79093333 91.71626667 4.26666667 7.4752 10.78613333 13.55093333 21.16266667 19.93386667 2.9696 1.8432 6.2464 2.8672 9.38666666 4.23253333 18.46613333 7.85066667 39.6288 7.95306667 58.94826667-0.64853333 0.4096-0.17066667 0.8192-0.2048 1.2288-0.4096a58.9824 58.9824 0 0 0 33.62133333-61.16693334c-5.632-42.5984-28.7744-77.99466667-69.0176-105.54026666z"
    fill="#F1C937"
    p-id="2968"
  ></path>
  <path
    d="M646.51946667 333.68746667h-105.13066667V297.60853333a135.50933333 135.50933333 0 0 0 26.14613333-9.0112A117.76 117.76 0 0 0 634.53866667 166.57066667c-6.28053333-47.7184-32.39253333-114.96106667-121.51466667-163.08906667a29.55946667 29.55946667 0 0 0-37.34186667 8.02133333c-1.26293333 1.536-28.50133333 37.20533333-51.74613333 80.93013334-35.39626667 66.2528-42.87146667 115.0976-23.10826667 149.4016 9.25013333 15.90613333 22.69866667 29.04746667 41.23306667 40.5504 12.5952 7.74826667 26.28266667 12.86826667 40.37973333 15.94026666v35.39626667h-104.99413333a123.15306667 123.15306667 0 0 0-122.9824 122.9824v504.79786667c0 34.44053333 31.1296 62.53226667 69.29066667 62.53226666h416.1536c15.80373333 0 28.4672-12.62933333 29.32053333-28.19413333 0-0.44373333 0.27306667-0.78506667 0.27306667-1.26293333V456.66986667a123.11893333 123.11893333 0 0 0-122.9824-122.9824z m-194.62826667-121.30986667c-6.21226667-10.92266667-3.31093333-40.6528 23.79093333-91.71626667a579.24266667 579.24266667 0 0 1 31.5392-51.88266666c40.2432 27.5456 63.3856 62.94186667 69.05173334 105.54026666a59.05066667 59.05066667 0 0 1-33.62133334 61.16693334l-1.2288 0.4096a73.38666667 73.38666667 0 0 1-58.94826666 0.64853333c-3.1744-1.36533333-6.41706667-2.38933333-9.38666667-4.23253333-10.41066667-6.38293333-16.93013333-12.45866667-21.1968-19.93386667z m-138.47893333 244.29226667a64.17066667 64.17066667 0 0 1 64.03413333-64.03413334h269.07306667a64.17066667 64.17066667 0 0 1 64.06826666 64.03413334v132.84693333c-4.608 30.17386667-41.472 53.72586667-84.13866666 53.72586667-45.94346667 0-84.65066667-27.5456-84.65066667-60.17706667v-27.37493333c0-32.6656-28.0576-59.35786667-64.03413333-60.85973334-20.1728-0.8192-39.424 6.07573333-52.97493334 19.08053334-11.33226667 10.92266667-17.57866667 25.15626667-17.57866666 40.10666666v134.0416c0 7.64586667-4.57386667 13.68746667-8.43093334 17.44213334-9.8304 9.5232-25.6 15.0528-42.32533333 14.67733333-21.84533333-0.512-36.69333333-11.43466667-43.008-22.45973333v-241.0496z m0 498.00533333V771.072c12.8 4.9152 26.79466667 7.81653333 41.50613333 8.192 32.6656 0.68266667 63.62453333-10.68373333 84.7872-31.40266667 16.896-16.45226667 26.14613333-37.64906667 26.14613333-59.63093333v-132.096a15.32586667 15.32586667 0 0 1 9.38666667-2.3552c4.57386667 0.17066667 7.0656 2.11626667 7.74826667 2.90133333v26.4192c0 33.0752 15.90613333 63.76106667 44.68053333 86.45973334 26.69226667 21.02613333 61.8496 32.49493333 98.88426667 32.49493333 31.1296 0 60.34773333-8.2944 84.00213333-22.39146667v285.3888H323.7888a10.58133333 10.58133333 0 0 1-10.37653333-10.37653333z"
    fill="#B10D0D"
    p-id="2969"
  ></path>
</svg>