<svg
  t="1734501420108"
  class="icon"
  viewBox="0 0 1024 1024"
  version="1.1"
  xmlns="http://www.w3.org/2000/svg"
  p-id="7736"
  width="200"
  height="200"
>
  <path
    d="M27.317017 68.368424m47.698901 0l860.233774 0q47.698901 0 47.698901 47.698901l0 860.233774q0 47.698901-47.698901 47.698901l-860.233774 0q-47.698901 0-47.698901-47.698901l0-860.233774q0-47.698901 47.698901-47.698901Z"
    fill="#F1709B"
    opacity=".7"
    p-id="7737"
  ></path>
  <path
    d="M935.186094 116.003726v860.265574H75.015918v-860.170176h860.170176m0-47.6989H75.015918a47.698901 47.698901 0 0 0-47.698901 47.6989v860.170176a47.698901 47.698901 0 0 0 47.698901 47.698901h860.170176a47.698901 47.698901 0 0 0 47.6989-47.698901v-860.170176a47.698901 47.698901 0 0 0-47.6989-47.6989z"
    fill="#ED4C82"
    p-id="7738"
  ></path>
  <path
    d="M250.881765 0h508.50208a47.698901 47.698901 0 0 1 47.698901 47.698901v69.195205H203.182864V47.698901a47.698901 47.698901 0 0 1 47.698901-47.698901z"
    fill="#FFD133"
    p-id="7739"
  ></path>
  <path
    d="M324.926358 744.929632l0.190796 101.391963 4.722191 2.416744 79.927458-60.211912-84.840445-43.596795zM646.862139 328.947519a47.698901 47.698901 0 0 0-20.669524-64.23452 47.698901 47.698901 0 0 0-64.234519 20.669524l-18.348178 35.726476 84.840445 43.612695zM332.637681 729.952177l203.305434-395.592423 84.848395 43.606335-203.305435 395.590833z"
    fill="#FFFFFF"
    p-id="7740"
  ></path>
</svg>