<svg
  t="1733556455334"
  class="icon"
  viewBox="0 0 1024 1024"
  version="1.1"
  xmlns="http://www.w3.org/2000/svg"
  p-id="4176"
  width="256"
  height="256"
>
  <path
    d="M0 0m256 0l512 0q256 0 256 256l0 512q0 256-256 256l-512 0q-256 0-256-256l0-512q0-256 256-256Z"
    fill="#FBECD8"
    p-id="4177"
  ></path>
  <path
    d="M64 64m204.8 0l486.4 0q204.8 0 204.8 204.8l0 486.4q0 204.8-204.8 204.8l-486.4 0q-204.8 0-204.8-204.8l0-486.4q0-204.8 204.8-204.8Z"
    fill="#FDF6EC"
    p-id="4178"
  ></path>
  <path
    d="M590.336 748.032H433.664a24.512 24.512 0 0 0-24.96 23.936v1.92c0 13.312 11.2 24 24.96 24h156.672c13.76 0 24.96-10.688 24.96-24v-1.92a24.512 24.512 0 0 0-24.96-23.936zM564.48 846.08H459.456a24.512 24.512 0 0 0-24.96 24v1.92c0 13.248 11.2 24 24.96 24h105.088c13.76 0 24.96-10.752 24.96-24v-1.92a24.512 24.512 0 0 0-24.96-24zM296 388.864c-36.288 83.904-16.512 180.608 50.176 244.928s167.168 83.648 254.4 48.896c87.296-34.688 144.192-116.608 144.192-207.488a219.776 219.776 0 0 0-67.968-158.72A237.44 237.44 0 0 0 512 250.56c-94.464-0.192-179.712 54.4-216 138.24zM535.68 201.856c0 9.536-10.88 17.664-23.68 17.664-12.8 0-23.68-8-23.68-17.664v-56C488.32 136 498.944 128 512 128s23.68 8 23.68 17.664v56.192z m-140.928 24.256c4.928 7.936 0 20.48-11.392 26.688-11.392 6.144-24.96 4.416-29.568-3.84l-29.12-48.96c-4.864-8 0-20.416 11.392-26.688 11.392-6.4 24.96-4.48 29.632 3.84l29.056 48.96zM285.312 315.136c8.32 4.8 10.368 17.92 3.968 28.608-6.4 10.752-19.136 16-27.712 10.944L211.2 326.72c-8.32-4.8-10.56-17.728-3.968-28.672 6.528-10.944 19.136-16 27.648-10.944l50.432 28.096z m-48.832 130.048c9.92 0 18.304 10.496 18.304 22.912 0 12.416-8.32 22.848-18.304 22.848h-58.24c-9.856 0-18.24-10.24-18.24-22.848 0-12.672 8.32-22.912 18.304-22.912h58.24z m25.088 136.192c8.32-4.8 21.312 0 27.712 10.944 6.4 10.944 4.544 24-3.968 28.608l-50.432 28.16c-8.32 4.736-21.12 0-27.648-11.008-6.592-10.944-4.608-24 3.968-28.672l50.368-28.032z m477.12 39.616c-8.32-4.8-10.368-17.92-3.968-28.672 6.4-10.752 19.136-16 27.712-10.944l50.368 28.032c8.32 4.8 10.56 17.728 3.968 28.672-6.528 10.944-19.136 16-27.648 10.944l-50.432-28.032z m48.832-130.048c-9.92 0-18.304-10.432-18.304-22.848 0-12.416 8.32-22.912 18.304-22.912h58.24c9.856 0 18.24 10.24 18.24 22.912 0 12.608-8.32 22.848-18.304 22.848h-58.24z m-25.088-136.192c-8.32 4.736-21.312 0-27.712-11.008-6.4-10.944-4.544-24 3.968-28.608l50.432-28.096c8.32-4.8 21.12 0 27.648 10.944 6.592 10.944 4.608 24-3.968 28.672l-50.368 28.096zM669.952 248.96c-4.928 8-18.56 9.984-29.568 3.84-11.072-6.144-16.64-18.496-11.392-26.688l29.056-48.64c4.928-8.064 18.304-10.24 29.632-3.84 11.264 6.272 16.64 18.432 11.392 26.688l-29.12 48.64z"
    fill="#E6A23C"
    p-id="4179"
  ></path>
</svg>