<svg
  t="1734526037646"
  class="icon"
  viewBox="0 0 1024 1024"
  version="1.1"
  xmlns="http://www.w3.org/2000/svg"
  p-id="7710"
  width="256"
  height="256"
>
  <path
    d="M182.857143 204.19047633m85.333333 0l487.619048 0q85.333333 0 85.333333 85.333333l0 487.619048q0 85.333333-85.333333 85.333333l-487.619048 0q-85.333333 0-85.333333-85.333333l0-487.619048q0-85.333333 85.333333-85.333333Z"
    fill="#ffffff"
    p-id="7711"
  ></path>
  <path
    d="M17.98489822 11.55240929m108.06580311 0l771.89859734 0q108.06580311 0 108.06580311 108.06580438l0 771.89859607q0 108.06580311-108.06580311 108.06580438l-771.89859734 0q-108.06580311 0-108.06580311-108.06580438l0-771.89859607q0-108.06580311 108.06580311-108.06580438Z"
    fill="#f4ea2a"
    p-id="7712"
  ></path>
  <path
    d="M715.53422237 262.8572056l-9.15574687 10.01204003a300.69052505 300.69052505 0 0 0-418.94127392 22.52708807c-111.23573422 119.81512971-109.73722087 307.12918829 3.39223691 425.13292978L230.77367018 785.08057059c-144.77935963-147.13416484-152.6177317-382.68056485-17.94921532-539.34922154 134.70145082-156.66865533 366.01578861-181.10593617 529.68299208-55.93897723A476.98804763 476.98804763 0 0 0 857.81057133 153.97627789l-130.53525742 132.29724333-11.75755941-23.41631562zM336.64110591 773.02660151l7.97011103 15.28153396 14.19469996-15.14979633c123.56964371 68.33875551 278.11403469 44.65896464 375.17153548-57.47042365a304.92258858 304.92258858 0 0 0 35.89843063-375.07273228L832.41819548 274.59829849a392.92314437 392.92314437 0 0 1-14.22763571 479.67219685c-113.17886005 138.40656387-305.69654507 184.51464095-470.00596736 112.5531077L215.59093946 916.81793039a703.69157826 703.69157826 0 0 0 121.06663435-143.9230665v0.13173762zM561.40151077 686.2775504v-95.70719293c27.17083099-15.80848306 43.93440909-45.2847183 43.93440911-77.19809272 0-31.91337578-16.76357946-61.37314316-43.93440911-77.19809412V340.46697906c77.49450239 20.12288194 131.73736114 91.31045735 131.7373598 172.90528567s-54.24285879 152.78240373-131.7373598 172.90528567z m-98.80302154-250.10337977c-27.17083099 15.80848306-43.93440909 45.2847183-43.93440911 77.19809412 0 31.91337578 16.76357946 61.37314316 43.93440911 77.19809272V686.2775504c-77.49450239-20.12288194-131.73736114-91.31045735-131.7373598-172.90528565s54.24285879-152.78240373 131.7373598-172.90528569v95.70719157z"
    fill="#2c2c2c"
    p-id="7713"
  ></path>
</svg>