<svg
  t="1734515836041"
  class="icon"
  viewBox="0 0 1024 1024"
  version="1.1"
  xmlns="http://www.w3.org/2000/svg"
  p-id="7506"
  width="200"
  height="200"
>
  <path
    d="M1013.76 399.36c-102.4 5.12-133.12-20.48-92.16-81.92-71.68-10.24-71.68-46.08-5.12-122.88-87.04 46.08-128 35.84-117.76-30.72-66.56 20.48-81.92-10.24-56.32-107.52-61.44 81.92-97.28 87.04-122.88 20.48-51.2 51.2-81.92 25.6-102.4-71.68C491.52 97.28 460.8 122.88 409.6 71.68 389.12 138.24 348.16 133.12 291.84 51.2c25.6 97.28 10.24 133.12-56.32 107.52 5.12 71.68-30.72 81.92-117.76 30.72C179.2 271.36 174.08 307.2 107.52 317.44c35.84 61.44 5.12 87.04-92.16 81.92 92.16 40.96 107.52 76.8 51.2 112.64 56.32 35.84 40.96 71.68-51.2 112.64 102.4-5.12 133.12 20.48 92.16 81.92 71.68 10.24 71.68 46.08 5.12 122.88 87.04-46.08 128-35.84 117.76 30.72 66.56-20.48 81.92 10.24 56.32 107.52 61.44-81.92 97.28-87.04 122.88-20.48 51.2-51.2 81.92-25.6 102.4 71.68 20.48-97.28 51.2-122.88 102.4-71.68 25.6-66.56 61.44-56.32 122.88 20.48-25.6-97.28-10.24-133.12 56.32-107.52-5.12-71.68 30.72-81.92 117.76-30.72-66.56-76.8-66.56-117.76 5.12-122.88-35.84-61.44-5.12-87.04 92.16-81.92-92.16-40.96-107.52-76.8-51.2-112.64-56.32-35.84-40.96-71.68 56.32-112.64zM512 926.72C312.32 870.4 153.6 711.68 97.28 512 153.6 312.32 312.32 153.6 512 97.28c199.68 56.32 358.4 215.04 414.72 414.72-56.32 199.68-215.04 358.4-414.72 414.72z m0 0"
    fill="#F9A433"
    p-id="7507"
  ></path>
  <path
    d="M936.96 512c0-5.12-15.36-35.84-15.36-40.96 0-25.6-5.12-25.6-10.24-51.2l5.12-5.12h-5.12c-15.36-56.32-40.96-107.52-76.8-153.6V256h-5.12c-35.84-46.08-87.04-81.92-138.24-112.64v-5.12h-5.12c-51.2-25.6-81.92-40.96-143.36-40.96l-30.72-25.6c0 10.24-30.72 30.72-35.84 30.72-61.44 0-87.04 15.36-138.24 40.96h-5.12v5.12c-51.2 25.6-102.4 61.44-138.24 112.64h-5.12v5.12C153.6 307.2 128 358.4 112.64 419.84h-5.12l5.12 5.12-10.24 51.2c0 5.12-15.36 30.72-15.36 35.84 0 5.12 15.36 35.84 15.36 35.84 0 25.6 5.12 25.6 10.24 51.2l-5.12 5.12h5.12c15.36 61.44 40.96 112.64 76.8 158.72v5.12h5.12c35.84 46.08 81.92 81.92 138.24 112.64v5.12h5.12c51.2 20.48 71.68 35.84 133.12 35.84l40.96 25.6 35.84-25.6c61.44 0 87.04-15.36 138.24-40.96h5.12v-5.12c51.2-25.6 102.4-61.44 138.24-112.64h5.12v-5.12c35.84-46.08 61.44-102.4 76.8-158.72h5.12l-5.12-5.12c5.12-25.6 10.24-25.6 10.24-51.2 0 5.12 15.36-25.6 15.36-30.72zM512 875.52c-199.68 0-363.52-163.84-363.52-363.52S312.32 148.48 512 148.48c199.68 0 363.52 163.84 363.52 363.52s-163.84 363.52-363.52 363.52z m0 0"
    fill="#F9A433"
    p-id="7508"
  ></path>
  <path
    d="M189.44 512c0 179.2 143.36 322.56 322.56 322.56s322.56-143.36 322.56-322.56-143.36-322.56-322.56-322.56S189.44 332.8 189.44 512z m0 0"
    fill="#F58A33"
    p-id="7509"
  ></path>
  <path
    d="M512 189.44c-153.6 0-276.48 102.4-312.32 245.76 35.84 138.24 163.84 245.76 312.32 245.76 153.6 0 276.48-102.4 312.32-245.76-35.84-143.36-158.72-245.76-312.32-245.76z m0 0"
    fill="#F79A4D"
    p-id="7510"
  ></path>
  <path
    d="M384 322.56c0 66.56 61.44 117.76 143.36 117.76 76.8 0 143.36-51.2 143.36-117.76S604.16 204.8 527.36 204.8C450.56 204.8 384 256 384 322.56z m0 0"
    fill="#F4B04E"
    p-id="7511"
  ></path>
  <path
    d="M476.16 261.12c0 20.48 25.6 40.96 56.32 40.96 30.72 0 56.32-15.36 56.32-40.96 0-20.48-25.6-40.96-56.32-40.96-30.72 5.12-56.32 20.48-56.32 40.96z m0 0"
    fill="#FFEEC5"
    p-id="7512"
  ></path>
</svg>