<svg
  t="1733555654339"
  class="icon"
  viewBox="0 0 1024 1024"
  version="1.1"
  xmlns="http://www.w3.org/2000/svg"
  p-id="3979"
  width="256"
  height="256"
>
  <path
    d="M319.488 64H226.56A162.56 162.56 0 0 0 64 226.56v92.928a162.688 162.688 0 0 0 162.56 162.688h185.92a69.76 69.76 0 0 0 69.76-69.76V226.56C482.176 136.832 409.216 64 319.424 64z"
    fill="#337AFF"
    p-id="3980"
  ></path>
  <path
    d="M412.48 541.824H226.56A162.56 162.56 0 0 0 64 704.512v92.928A162.56 162.56 0 0 0 226.56 960h92.928a162.752 162.752 0 0 0 162.688-162.688V611.52a69.76 69.76 0 0 0-69.76-69.76z"
    fill="#F0940A"
    p-id="3981"
  ></path>
  <path
    d="M797.312 541.824H611.52a69.76 69.76 0 0 0-69.76 69.76v185.728A162.752 162.752 0 0 0 704.576 960h92.8A162.624 162.624 0 0 0 960 797.312v-92.928a162.56 162.56 0 0 0-162.688-162.56z"
    fill="#E56D39"
    p-id="3982"
  ></path>
  <path
    d="M797.312 64h-92.8a162.56 162.56 0 0 0-162.688 162.56v185.92c0 38.464 31.232 69.76 69.76 69.76h185.728A162.752 162.752 0 0 0 960 319.424V226.56A162.56 162.56 0 0 0 797.312 64z"
    fill="#25B86F"
    p-id="3983"
  ></path>
</svg>