<svg
  t="1732303168264"
  class="icon"
  viewBox="0 0 1024 1024"
  version="1.1"
  xmlns="http://www.w3.org/2000/svg"
  p-id="5595"
  width="256"
  height="256"
>
  <path
    d="M650.07757012 511.99890879l318.96481495-318.96918077c23.9764736-23.9753824 28.07515629-58.77215894 9.15245014-77.69486403l-69.54552639-69.5444352c-18.92270507-18.92270507-53.67145495-14.77708693-77.69486402 9.19938668L512.01255253 373.94153066 193.04009707 54.9887232c-23.9753824-23.99939521-58.77215894-28.12318293-77.694864-9.17537279l-69.5444352 69.54443519c-18.92270507 18.89978347-14.8240224 53.69546881 9.19938666 77.67194242l318.96154027 318.96699838L55.00018453 830.9669984c-23.9764736 23.9764736-28.12318293 58.74814508-9.19938666 77.6719424l69.5444352 69.5564416c18.92270507 18.92379733 53.71948267 14.8240224 77.694864-9.15245013l318.980096-318.98555414 318.93316053 318.93861867c24.02340906 24.02340906 58.77215894 28.12318293 77.694864 9.19938668l69.54552639-69.55644161c18.92270507-18.92379733 14.8240224-53.69546881-9.15245014-77.69595628L650.07757012 511.99890879z"
    p-id="5596"
  ></path>
</svg>
