<svg
  t="1763027643698"
  class="icon"
  viewBox="0 0 1085 1024"
  version="1.1"
  xmlns="http://www.w3.org/2000/svg"
  p-id="12391"
  width="256"
  height="256"
>
  <path
    d="M819.198644 253.428627l-48.665266-32.443511c0-10.819911-5.401845-16.221755-16.221755-16.221755a106.106502 106.106502 0 0 0-48.665266-48.665266l-32.443511-16.221756c0-10.819911-5.401845-16.221755-16.221755-16.221755v-16.221755c57.311462-2.855029 105.976728-24.494851 145.995797-64.887021a1359.383096 1359.383096 0 0 1 16.221756 210.882819z"
    fill="#B9262D"
    p-id="12392"
  ></path>
  <path
    d="M251.437208 156.098095c16.059538 135.01367 91.750248 210.720602 227.104574 227.104574 135.776092-16.82196 211.483024-92.528892 227.104575-227.104574a106.106502 106.106502 0 0 1 48.665266 48.665266c-35.087657 66.833632-83.752923 123.609776-145.995798 170.328431-192.357575 63.313511-322.131617 1.135523-389.322128-186.550187 5.401845-16.221755 16.221755-27.041666 32.443511-32.44351z"
    fill="#EF786C"
    p-id="12393"
  ></path>
  <path
    d="M624.53758 123.654584c-23.148445 107.193359-88.035466 153.149592-194.661064 137.88492a661.734065 661.734065 0 0 1-97.330532-137.88492c98.758046-42.987652 196.088578-42.987652 291.991596 0z"
    fill="#F5A097"
    p-id="12394"
  ></path>
  <path
    d="M656.981091 107.432829v16.221755h-32.443511c-95.903017-42.987652-193.233549-42.987652-291.991596 0-18.655019 4.720531-29.458708 18.233253-32.443511 40.554388 39.224204 146.693333 131.152892 195.358599 275.769841 145.995798 55.624399-43.668965 88.06791-100.445109 97.330532-170.328431l32.443511 16.221756c-15.62155 134.575682-91.328482 210.282614-227.104575 227.104574-135.354326-16.383973-211.045037-92.090905-227.104574-227.104574l32.44351-48.665266c126.075482-63.946159 250.44768-63.946159 373.100373 0z"
    fill="#EC7E75"
    p-id="12395"
  ></path>
  <path
    d="M218.993697 188.541605c67.190511 187.685709 196.964553 249.863697 389.322128 186.550187 62.242875-46.718655 110.908141-103.494799 145.995798-170.328431 10.819911 0 16.221755 5.401845 16.221755 16.221755-40.229953 148.104626-137.560485 212.991647-291.991596 194.661064-138.890669 6.878024-236.221201-52.607153-291.991596-178.439309-1.184188-24.77062 9.635723-40.992376 32.443511-48.665266z"
    fill="#EF6E62"
    p-id="12396"
  ></path>
  <path
    d="M332.545984 123.654584a661.734065 661.734065 0 0 0 97.330532 137.88492c106.625598 15.264672 171.512619-30.691561 194.661064-137.88492h32.443511c10.819911 0 16.221755 5.401845 16.221755 16.221755-9.262622 69.883322-41.706133 126.659466-97.330532 170.328431-144.616949 49.362801-236.545636 0.697535-275.769841-145.995798 2.984803-22.321135 13.788492-35.833858 32.443511-40.554388z"
    fill="#F29086"
    p-id="12397"
  ></path>
  <path
    d="M186.550186 383.202669l48.665266 32.443511c-7.867551 75.577158 21.866926 97.200758 89.219654 64.887021 7.835108-15.378224 10.544141-31.599979 8.110878-48.665266 38.088681 1.492401 65.114126 17.714157 81.108777 48.665266a190.459629 190.459629 0 0 1-48.665266 81.108777c-46.913316 14.648245-95.578582 20.05009-145.995798 16.221755a317.427308 317.427308 0 0 0-56.776144-64.887021l-8.110877-64.887021c1.378849-29.734478 12.19876-51.358077 32.44351-64.887022z"
    fill="#FAF3F2"
    p-id="12398"
  ></path>
  <path
    d="M819.198644 415.64618c1.735728 83.412266-36.125849 137.479376-113.552287 162.217553-76.128698 15.572885-130.195808-11.468781-162.217554-81.108776v-48.665266a335.417235 335.417235 0 0 0 81.108777-16.221756c3.244351 62.453758 32.99505 78.675513 89.219654 48.665266a136.814284 136.814284 0 0 0 8.110878-64.887021c33.481703-40.19751 65.925214-40.19751 97.330532 0z"
    fill="#FBEFED"
    p-id="12399"
  ></path>
  <path
    d="M770.533378 220.985116l48.665266 32.443511c28.258298 77.9942 39.078209 159.102976 32.44351 243.32633-8.727304-37.407368-19.547215-64.432812-32.44351-81.108777-31.405318-40.19751-63.848829-40.19751-97.330532 0-34.390121-2.838807-66.833632 2.579259-97.330532 16.221755a335.417235 335.417235 0 0 1-81.108777 16.221756v48.665266c-14.664467-11.501225-20.066311-27.72298-16.221755-48.665266-43.960957-5.109853-81.822534 5.710058-113.552287 32.44351-15.994651-30.951109-43.020095-47.172864-81.108777-48.665266l-97.330532-16.221755-48.665266-32.443511c33.935912-12.734078 28.550289-28.955833-16.221755-48.665266-15.070011-19.287667-20.471855-40.911267-16.221755-64.887021 0-21.6236 10.819911-32.443511 32.44351-32.443511 55.770395 125.832156 153.100927 185.317333 291.991596 178.439309 154.431111 18.330584 251.761643-46.556438 291.991596-194.661064z"
    fill="#ED6355"
    p-id="12400"
  ></path>
  <path
    d="M721.868112 415.64618a136.814284 136.814284 0 0 1-8.110878 64.887021c-56.224604 30.010247-85.975303 13.788492-89.219654-48.665266 30.4969-13.642496 62.940411-19.060563 97.330532-16.221755z"
    fill="#7E3527"
    p-id="12401"
  ></path>
  <path
    d="M235.215452 415.64618l97.330532 16.221755a80.005697 80.005697 0 0 1-8.110878 48.665266c-67.352728 32.313737-97.087206 10.690137-89.219654-64.887021z"
    fill="#803526"
    p-id="12402"
  ></path>
  <path
    d="M154.106676 269.650382c-4.2501 23.975754 1.151745 45.599354 16.221755 64.887021 44.772045 19.709433 50.157667 35.931188 16.221755 48.665266-20.244751 13.528944-31.064661 35.152544-32.44351 64.887022l8.110877 64.887021a317.427308 317.427308 0 0 1 56.776144 64.887021c-20.082533 5.028744-20.082533 13.139622 0 24.332633-45.242476 2.027719-72.26792 15.556663-81.108777 40.554389-34.811887-55.348629-51.033642-117.526617-48.665266-186.550187-3.033468-72.024594 18.606353-134.218804 64.887022-186.550186z"
    fill="#E84335"
    p-id="12403"
  ></path>
  <path
    d="M543.428803 496.754957c32.021745 69.639996 86.088855 96.681662 162.217554 81.108776-17.973705 12.815187-39.613526 20.926064-64.887022 24.332633-12.19876 10.868576-17.616826 24.39752-16.221755 40.554389h-16.221755c-13.756049-18.249475-29.977804-18.249475-48.665266 0-1.784393-10.008823-7.202459-18.119701-16.221756-24.332633l-194.661064-16.221756c24.316411-13.593831 29.718256-27.122775 16.221756-40.554388a190.459629 190.459629 0 0 0 48.665266-81.108777c31.729753-26.733453 69.59133-37.553364 113.552287-32.44351-3.844556 20.942286 1.557289 37.164041 16.221755 48.665266z"
    fill="#E84436"
    p-id="12404"
  ></path>
  <path
    d="M364.989495 561.641978c13.4965 13.431613 8.094656 26.960557-16.221756 40.554388l194.661064 16.221756c9.019296 6.212932 14.437362 14.32381 16.221756 24.332633-20.569186 30.610452-50.303663 46.832208-89.219655 48.665265a394.529311 394.529311 0 0 1-89.219654-32.44351c-71.975928 9.943936-142.264794 20.763847-210.882819 32.44351-14.615802-12.815187-25.435712-29.036942-32.443511-48.665265 8.840857-24.997725 35.866301-38.526669 81.108777-40.554389-20.082533-11.193011-20.082533-19.303889 0-24.332633 50.417216 3.828334 99.082482-1.57351 145.995798-16.221755z"
    fill="#E83A2E"
    p-id="12405"
  ></path>
  <path
    d="M851.642154 496.754957a493.855119 493.855119 0 0 1-24.332633 145.995798c-6.115602 23.391771-19.628324 39.613526-40.554388 48.665265-58.706533-6.180489-112.773643-22.402244-162.217553-48.665265-1.395071-16.156868 4.022995-29.685812 16.221755-40.554389 25.273495-3.406569 46.913316-11.517446 64.887022-24.332633 77.426438-24.738177 115.288015-78.805287 113.552287-162.217553 12.896295 16.675964 23.716206 43.701409 32.44351 81.108777z"
    fill="#E8382B"
    p-id="12406"
  ></path>
  <path
    d="M283.880718 107.432829l-32.44351 48.665266c-16.221755 5.401845-27.041666 16.221755-32.443511 32.44351-22.807788 7.67289-33.627699 23.894646-32.443511 48.665266-21.6236 0-32.443511 10.819911-32.44351 32.443511-46.280668 52.331383-67.92049 114.525593-64.887022 186.550186-2.368376 69.023569 13.853379 131.201557 48.665266 186.550187 7.007798 19.628324 17.827709 35.850079 32.443511 48.665265 27.382323 59.825834 70.645744 103.089255 129.774042 129.774043l81.108777 32.443511c72.511246 15.994651 148.218178 21.412717 227.104575 16.221755-265.177034 68.747799-446.309154-28.582733-543.428804-291.991596-28.047415-138.452682 1.687063-262.808658 89.219655-373.100372-20.390746-53.904893-20.390746-107.972003 0-162.217553 35.412092 37.050489 78.675513 58.690311 129.774042 64.887021z"
    fill="#BD262C"
    opacity=".416"
    p-id="12407"
  ></path>
  <path
    d="M608.315825 642.750755c-47.286417 67.174289-112.173438 91.506922-194.661064 72.997898-21.461382-13.236952-32.281293-32.167741-32.443511-56.776143a394.529311 394.529311 0 0 0 89.219654 32.44351c38.915991-1.833058 68.650469-18.054814 89.219655-48.665265 18.687462-18.249475 34.909217-18.249475 48.665266 0z"
    fill="#612316"
    p-id="12408"
  ></path>
  <path
    d="M608.315825 642.750755h16.221755c49.44391 26.263022 103.511021 42.484777 162.217553 48.665265-15.864877 48.308387-48.308387 80.751898-97.330532 97.330532-137.722703-18.768571-278.316656-21.477604-421.765638-8.110877 14.275145 11.485003 25.095055 25.013947 32.44351 40.554388-59.128298-26.684788-102.39172-69.948209-129.774042-129.774043 68.618025-11.679664 138.906891-22.499575 210.882819-32.44351 0.162218 24.608403 10.982128 43.539191 32.443511 56.776143 82.487626 18.509023 147.374647-5.82361 194.661064-72.997898z"
    fill="#E63027"
    p-id="12409"
  ></path>
  <path
    d="M689.424601 788.746552c-28.761172 22.580683-61.204683 41.511472-97.330532 56.776144-70.077983 8.094656-140.383071 10.803689-210.882819 8.110878l-81.108777-32.443511c-7.348455-15.540442-18.168366-29.069386-32.44351-40.554388 143.448982-13.366726 284.042936-10.657693 421.765638 8.110877z"
    fill="#E52C24"
    p-id="12410"
  ></path>
  <path
    d="M819.198644 253.428627c140.366849 234.290812 97.119649 431.660909-129.774043 592.094069-24.738177 16.367751-51.779843 24.478629-81.108776 24.332633-78.886396 5.190962-154.593328-0.227105-227.104575-16.221755 70.499749 2.692811 140.804836-0.016222 210.882819-8.110878 36.125849-15.264672 68.56936-34.19546 97.330532-56.776144 49.022145-16.578634 81.465655-49.022145 97.330532-97.330532 20.926064-9.051739 34.438787-25.273495 40.554388-48.665265a493.855119 493.855119 0 0 0 24.332633-145.995798c6.634698-84.223354-4.185213-165.33213-32.44351-243.32633z"
    fill="#C4292C"
    p-id="12411"
  ></path>
</svg>
