<svg
  t="1763027075909"
  class="icon"
  viewBox="0 0 1024 1024"
  version="1.1"
  xmlns="http://www.w3.org/2000/svg"
  p-id="31986"
  width="256"
  height="256"
>
  <path
    d="M380.095143 886.717615a401.736 385.664 20 1 0 263.809714-724.81123 401.736 385.664 20 1 0-263.809714 724.81123Z"
    fill="#702593"
    p-id="31987"
  ></path>
  <path
    d="M725.208 732.056c-216.48 184.92-509.136 45.432-509.136 45.432a413.072 413.072 0 0 0 164 109.232c208.488 75.888 436.568-24.856 509.416-225.008 46.208-126.968 18.856-263.448-60.552-365.648 0.024 0 103.432 259.04-103.728 435.992z"
    fill="#511268"
    p-id="31988"
  ></path>
  <path
    d="M792.72 514.296s-68 65.2-13.008 77.6c54.12 12.104 80.472-147.376 13.008-77.6zM362.08 773.2c5.936-23.544-40.8-43.424-65.784-23.008 0 0-31.2 23.568 5.352 41.208 24.544 11.8 54.504 5.352 60.432-18.2z"
    fill="#511268"
    p-id="31989"
  ></path>
  <path
    d="M684.04 644.904S620.64 721.6 515.648 721.6s-168.392-76.72-168.392-76.72 38.656 114.4 168.392 114.456a174.12 174.12 0 0 0 168.392-114.432z"
    fill="#FF4C3D"
    p-id="31990"
  ></path>
  <path
    d="M283.824 236.672S199.024 217.984 178.44 112c0 0-52.36 123.28 26.44 225.92 0 0 86.536-3.72 78.944-101.248zM845.6 112c-20.584 105.984-109.888 130.712-109.888 130.712 5.752 87.608 76.528 101.032 76.528 101.032C899.08 244.968 845.6 112 845.6 112z"
    fill="#E9F4FF"
    p-id="31991"
  ></path>
  <path
    d="M754.152 302.28a97.808 97.808 0 0 0 58.048 41.464C899.08 244.968 845.6 112 845.6 112s22.336 157.672-91.448 190.28z"
    fill="#CBE2FF"
    p-id="31992"
  ></path>
  <path
    d="M762.12 452.976a119.688 119.688 0 0 0-25.456-74.728l-0.168 0.056a405.864 405.864 0 0 1-174.328 60.44 126.312 126.312 0 0 0-0.8 14.232c0 62.016 44.936 112.288 100.376 112.288s100.376-50.272 100.376-112.288z"
    fill="#FF4C3D"
    p-id="31993"
  ></path>
  <path
    d="M709.056 452a54.264 54.264 0 0 0-24.704-45.536A414.6 414.6 0 0 1 604.248 432a54.32 54.32 0 1 0 104.8 20z"
    fill="#FFC700"
    p-id="31994"
  ></path>
  <path
    d="M462.632 452.976a126.312 126.312 0 0 0-0.8-14.232 405.864 405.864 0 0 1-174.328-60.44l-0.168-0.056a119.688 119.688 0 0 0-25.456 74.728c0 62.016 44.944 112.288 100.376 112.288s100.376-50.272 100.376-112.288z"
    fill="#FF4C3D"
    p-id="31995"
  ></path>
  <path
    d="M423.56 452a54.28 54.28 0 0 0-3.808-20 414.6 414.6 0 0 1-80.104-25.504A54.312 54.312 0 1 0 423.56 452z"
    fill="#FFC700"
    p-id="31996"
  ></path>
  <path
    d="M590.688 386.056a3.888 3.888 0 0 0 1.512-0.296c2.536-1.032 62.4-25.72 96.24-61.6a4 4 0 1 0-5.816-5.496c-32.632 34.592-92.84 59.432-93.44 59.672a4 4 0 0 0 1.504 7.704zM450.608 386.056a4 4 0 0 0 0.944-7.888c-0.672-0.16-67.312-16.744-107-56.424a4 4 0 0 0-5.656 5.656c41.256 41.256 107.944 57.856 110.768 58.544a3.808 3.808 0 0 0 0.944 0.112zM680.888 647.376a82.304 82.304 0 0 1 16.216 40.112 4 4 0 0 0 4 3.704h0.288a4 4 0 0 0 3.704-4.264A89.064 89.064 0 0 0 687.2 642.4a69.128 69.128 0 0 0-37.44-24 4 4 0 0 0-1.6 7.848 62.032 62.032 0 0 1 32.728 21.128zM378.672 621.544a4 4 0 0 0-3.744-7.064 96.048 96.048 0 0 0-30.976 28.168 76.128 76.128 0 0 0-12.184 44.872 4 4 0 0 0 4 3.672h0.32a4 4 0 0 0 3.672-4.304 69.112 69.112 0 0 1 10.816-39.728 89.488 89.488 0 0 1 28.096-25.616zM764.624 362.864a4 4 0 0 0-5.016-6.232c-98.056 78.912-222.56 79.888-223.8 79.888a4 4 0 0 0 0 8c1.272 0 128.504-0.928 228.816-81.656zM492.192 440.52a4 4 0 0 0-4-4c-1.24 0-125.744-0.976-223.8-79.888a4 4 0 1 0-5.016 6.232c100.312 80.728 227.544 81.656 228.8 81.656a4 4 0 0 0 4.016-4z"
    p-id="31997"
  ></path>
  <path
    d="M166.568 449.008s-34.456 37.984-3.2 80.752 59.424-145.44 3.2-80.752z"
    fill="#D4A0F9"
    p-id="31998"
  ></path>
  <path
    d="M201.32 276.296c24.376-13-23.056-84.504-20.744-42.672 0-0.024 3.776 51.72 20.744 42.672z"
    fill="#CBE2FF"
    p-id="31999"
  ></path>
  <path
    d="M654.744 446.968m-12.928 0a12.928 12.928 0 1 0 25.856 0 12.928 12.928 0 1 0-25.856 0Z"
    fill="#E9F4FF"
    p-id="32000"
  ></path>
  <path
    d="M382.184 446.968a12.928 12.928 0 1 0-12.928 12.928 12.936 12.936 0 0 0 12.928-12.928z"
    fill="#E9F4FF"
    p-id="32001"
  ></path>
  <path
    d="M112.24 504.856a4 4 0 0 0 4-3.856 367.6 367.6 0 0 1 22.016-112.72 4 4 0 1 0-7.512-2.736 375.376 375.376 0 0 0-22.496 115.2 4 4 0 0 0 3.856 4.136zM621.704 903.72a4.12 4.12 0 0 0 0.976-0.12 386.112 386.112 0 0 0 270.584-240.52 4 4 0 0 0-7.512-2.736 378.136 378.136 0 0 1-265.024 235.496 4 4 0 0 0 0.976 7.88zM911.064 561.136h0.248a4 4 0 0 0 4-3.76 380.568 380.568 0 0 0-13.096-124.408 4 4 0 1 0-7.704 2.128 372.984 372.984 0 0 1 12.8 121.792 4 4 0 0 0 3.752 4.248zM302.592 193.504a393.928 393.928 0 0 1 152.8-50.232 4 4 0 1 0-0.912-7.944 401.88 401.88 0 0 0-155.864 51.248 4 4 0 1 0 4 6.928zM180 108.32a4 4 0 0 0-5.24 2.12c-0.464 1.096-46.136 111.368 13.408 210.096a4 4 0 1 0 6.848-4.136C137.6 221.248 181.672 114.632 182.128 113.6a4 4 0 0 0-2.128-5.28zM735.672 246.712a4.056 4.056 0 0 0 1.064-0.144 166.4 166.4 0 0 0 93.888-80 4 4 0 1 0-7.048-3.784 161.36 161.36 0 0 1-88.976 76.064 4 4 0 0 0 1.072 7.856z"
    p-id="32002"
  ></path>
</svg>
