<?xml version="1.0" encoding="UTF-8"?><svg
  id="_图层_1"
  xmlns="http://www.w3.org/2000/svg"
  viewBox="0 0 256 256"
>
  <defs>
    <style>
      .cls-1 {
        fill: #f4b80f;
        fill-rule: evenodd;
      }

      .cls-1,
      .cls-2 {
        stroke-width: 0px;
      }

      .cls-2 {
        fill: #fff;
      }
    </style>
  </defs>
  <path
    class="cls-1"
    d="M52.36,0h151.27c28.92,0,52.36,22.82,52.36,50.97v154.07c0,28.15-23.44,50.97-52.36,50.97H52.36c-28.92,0-52.36-22.82-52.36-50.97V50.97C0,22.82,23.44,0,52.36,0Z"
  />
  <path
    class="cls-2"
    d="M40.21,204.52c4.79-1.04,8.81-2.15,12.08-3.32s6.82-2.52,10.64-4.05c3.82-1.53,6.42-2.69,7.79-3.47l3.03-1.71c.68-.39,1.17-.42,1.46-.07s.21.76-.24,1.25l-3.17,3.47c-.81.88-2.51,2.41-5.08,4.59l-7.57,6.4-7.91,5.76-3.76,2.78-7.28-11.62ZM62.97,165.11c.46-.75.83-1.48,1.12-2.2.29-.72.54-1.9.73-3.56s.38-2.55.56-2.69c.18-.13.69.11,1.54.73,1.17.94,2,1.64,2.49,2.1l2.98,3.17c1.14,1.07,1.86,1.82,2.15,2.22.29.41.42.81.39,1.2-.07.42-.43.97-1.1,1.64-.67.67-1.28,1.33-1.83,1.98l-3.76,4.83c-1.37,1.73-3.79,4.57-7.28,8.54,2.02-.59,3.84-1.1,5.47-1.54,1.63-.44,2.82-.81,3.56-1.1l3.81-1.46c.81-.29,1.38-.24,1.71.17.32.41.1.9-.68,1.49l-3.32,2.44c-4.79,3.52-8.64,6.25-11.57,8.2s-6.77,4.38-11.52,7.28l-6.05-10.84c3.71-1.63,6.5-3.05,8.37-4.27,1.87-1.22,3.57-2.89,5.1-5l3.47-4.59c-1.46.59-3.65,1.56-6.54,2.93-2.9,1.37-5,2.43-6.3,3.17l-5.42-10.21c1.33-.94,2.4-1.78,3.2-2.51.8-.73,2.08-2.37,3.83-4.91s3.35-5.57,4.79-9.11c1.43-3.53,2.29-6.01,2.56-7.42.28-1.42.48-2.89.61-4.42.1-1.5,0-2.69-.27-3.56-.28-.88-.34-1.39-.2-1.54s.42-.2.81-.17c.39.07.98.34,1.76.83l3.52,1.95c2.51,1.43,4.32,2.69,5.44,3.76s1.71,1.74,1.76,2c.05.26-.14.68-.56,1.27l-1.76,2.39c-1.01,1.4-2.61,3.78-4.81,7.15s-3.43,5.23-3.69,5.59l-4.64,6.54c3.19-.62,6.38-1.45,9.57-2.49ZM93.36,154.57c-.11-1.76-.32-3.92-.61-6.49-.29-2.57-.7-4.72-1.22-6.45-.52-1.73-1.09-3.11-1.71-4.15-.62-1.04-.97-1.77-1.05-2.2-.08-.42-.07-.73.03-.93s.7-.11,1.81.24l4.69,1.03c.49.13,1.85.55,4.08,1.27,2.23.72,3.68,1.25,4.35,1.61.67.36,1.05.68,1.15.98s.08.77-.05,1.42c-.29,1.27-.59,3.3-.88,6.1l-.83,7.57-.34,4.1c1.43-.23,2.99-.54,4.66-.93s5.28-1.77,10.82-4.15l1.66,12.55c-2.61-.1-4.92-.15-6.93-.17-2.02-.02-5.6.24-10.74.76-.07,2.18-.1,3.47-.1,3.86l-.24,4.1c4.17-.81,8.61-2.25,13.33-4.3l1.9,12.4c-1.76-.33-3.73-.61-5.91-.85-2.18-.24-6.07.05-11.67.88-5.6.83-11.04,2.29-16.31,4.37l-2.59-12.5c6.38.62,9.94.9,10.69.83l2.25-.1c.1-2.25.15-3.65.15-4.2v-3.27c-4.82.78-9.91,2.2-15.28,4.25l-2.73-13.33c6.96.72,11.41.99,13.33.83l4.64-.24c-.1-1.5-.21-3.12-.32-4.88ZM87.43,193.09l18.55-3.32c1.14-.2,1.89-.86,2.25-2l.78-2.49,12.35,7.47c-1.21,2.41-2.98,6.23-5.32,11.45s-3.83,8.37-4.47,9.45-1.31,1.64-2.03,1.68c-.72.05-2.21-.84-4.49-2.66l-13.13,2.15c-1.66,1.79-2.73,2.69-3.22,2.71s-.99-.19-1.51-.61c-.95-.68-1.64-1.46-2.08-2.32s-.8-1.9-1.1-3.12-.63-3.06-1-5.52c-.38-2.46-.74-4.31-1.1-5.57-.36-1.25-.89-2.7-1.59-4.35-.7-1.64-1.36-2.86-1.98-3.64-.62-.78-.9-1.27-.83-1.46.06-.2.49-.34,1.27-.44,1.86-.16,4.74.7,8.64,2.59ZM90.31,200.17l1.12,7.32,13.09-2,2.1-8.2-16.31,2.88Z"
  />
  <path
    class="cls-2"
    d="M162.6,187.6c-2.46.73-6.05,2.09-10.77,4.08l-2.93-14.7c2.18.42,5.28.91,9.3,1.46,4.02.55,10.34.24,18.97-.93l.2-5.81-8.89,1.66c-1.46,2.57-3.11,2.85-4.93.83-1.04-1.11-1.78-2.99-2.22-5.64-.44-2.65-1.01-5.57-1.71-8.76-.7-3.19-1.37-5.84-2-7.96-.63-2.12-1.35-3.92-2.15-5.42-.8-1.5-1.77-2.7-2.91-3.61-1.14-.91-1.72-1.58-1.73-2-.02-.42.92-.78,2.81-1.07.81-.1,2.98.26,6.49,1.07l5.22,1.42,29.49-4.3c1.5-.2,2.42-.96,2.78-2.29l.54-2.15,15.77,8.74c-1.01,1.46-1.74,2.62-2.2,3.47-.46.85-1.14,2.44-2.05,4.79l-2.78,6.93-3.32,8.54c-1.04,2.47-2,4.15-2.88,5.03s-1.73,1.39-2.56,1.54-2.03-.77-3.59-2.76l-8.45.98-.15,5.76c5.86-.52,10.82-1.29,14.87-2.32s6.68-1.88,7.89-2.56l4.44-2.34,2.49,14.31c-2.73-.1-5.5-.23-8.3-.39-2.8-.16-4.87-.24-6.2-.24l-7.08.34-6.45.29c6.58,5.01,11.82,8.68,15.72,10.99,3.91,2.31,8.05,4.59,12.43,6.84,4.38,2.25,7.49,3.73,9.33,4.44,1.84.72,2.74,1.3,2.71,1.76-.13,1.04-1.43,1.92-3.91,2.64-2.47.72-4.07,1.16-4.79,1.32l-5.96,1.17c-2.87.62-4.79.78-5.76.49-1.17-.33-2.43-1.2-3.76-2.64-1.33-1.43-3.3-3.67-5.88-6.71-2.59-3.04-4.71-5.59-6.37-7.64s-2.67-3.27-3.03-3.66l-2.88-2.88c.23,3.03.41,5.75.54,8.15.13,2.41.15,5.16.05,8.25-.13,2.96-.38,5.69-.73,8.18-.36,2.49-.96,4.56-1.81,6.2-.85,1.64-1.47,2.47-1.88,2.49-.41.02-.95-.66-1.64-2.03-1.24-2.38-2.11-4.73-2.61-7.06-.5-2.33-.77-4.84-.81-7.54l.34-8.54.15-3.32c-5.11,4.66-9.07,8.02-11.87,10.11-2.8,2.08-6.22,4.28-10.25,6.59-4.04,2.31-7.88,3.76-11.52,4.35l-3.96.63c-.88.16-1.37.08-1.46-.24s.18-.73.83-1.22l2.93-2.1,7.57-5.32c3.35-2.38,6.77-5.05,10.25-8.03,3.48-2.98,5.89-5.33,7.23-7.06l5.76-7.08c-4.2.94-7.53,1.78-9.99,2.51ZM167.51,154.08l9.72-.98-.2-5.18-10.01,1.71.49,4.44ZM168.34,161.01l.15,5.13,8.89-1.37.2-4.93c-3.19.46-6.27.85-9.23,1.17ZM186.65,146.8l-.34,4.3c1.76-.23,2.77-.42,3.03-.59l4.2-1.9.98,10.74c-2.9-.26-5.58-.37-8.06-.34l-.34,4.79,8.35-.93,2.25-17.53-10.06,1.46Z"
  />
  <path
    class="cls-2"
    d="M123.84,85.06c-6.51,4.07-11.74,6.74-15.67,8.01l-2.73.88c-1.37.46-2.15.36-2.34-.29-.2-.65.06-1.25.78-1.81l3.08-2.39,3.96-2.93c2.08-1.56,5.04-4.06,8.86-7.5,3.82-3.43,6.83-6.54,9.01-9.33,2.18-2.78,3.69-4.87,4.54-6.27.85-1.4,1.33-2.36,1.46-2.88l.29-1.27c-5.99,4.85-10.51,8.16-13.55,9.94-3.04,1.77-6.07,3.28-9.08,4.52-3.01,1.24-5.33,2.07-6.96,2.49l-2.98.83c-.68.2-1.12.07-1.29-.39-.18-.46.09-.94.81-1.46l2.29-1.61c1.04-.72,2.76-1.88,5.15-3.49,2.39-1.61,4.63-3.18,6.71-4.71,2.08-1.53,3.74-2.98,4.98-4.35l3.27-3.47-1.61-1.81-4.98-4.93c-1.6,1.53-3.47,2.99-5.62,4.37-2.15,1.38-3.96,2.38-5.42,3l-2.05.88c-1.21.52-1.94.46-2.2-.17-.26-.63-.05-1.26.63-1.88l2.44-2.25c1.53-1.43,3.47-3.59,5.81-6.47s4.25-5.91,5.71-9.08,2.36-5.48,2.69-6.93c.33-1.45.39-2.77.2-3.96-.2-1.19-.19-1.88.02-2.08.21-.2.85-.15,1.93.15,1.2.39,2.46.87,3.76,1.44,1.3.57,3.56,1.85,6.79,3.83-.68,1.56-1.35,2.91-2,4.05,1.92.2,4,.15,6.25-.15s3.47-.49,3.66-.59.94-1.12,2.25-3.08l1.71-2.59,9.52,10.79c-1.56,1.73-2.73,3-3.52,3.81l-6.01,6.01-3.37,3.47-3.32,3.42c2.73,1.76,4.6,3.07,5.59,3.93.99.86,1.95,1.75,2.88,2.66.93.91,1.42,1.55,1.49,1.93.06.37-.72,1.2-2.34,2.47l-1.56,1.17c6.48,0,9.87-.09,10.18-.27.31-.18.97-1.05,1.98-2.61l1.32-2,9.28,11.28c-5.66,5.63-11.38,10.84-17.14,15.62s-12.01,9.18-18.75,13.18-11.37,6.58-13.89,7.74c-2.52,1.16-5.16,2.21-7.91,3.17-2.75.96-4.79,1.59-6.13,1.88l-2.98.68c-1.76.42-2.67.31-2.73-.34-.07-.65.5-1.32,1.71-2l3.66-2c.52-.26,2.02-1.14,4.49-2.64l7.23-4.3c1.07-.68,3.37-2.24,6.88-4.66s5.79-4,6.81-4.74,2.22-1.72,3.59-2.95l-7.52-8.98ZM124.47,43.8c-1.5,1.63-2.91,3.14-4.25,4.54h.78c4.69,0,7.21.22,7.57.66.36.44.57,1.16.63,2.17l.1,2c2.6-3.25,4.18-5.31,4.74-6.15l3.12-4.79c-3.97.1-8.2.62-12.7,1.56ZM128.52,81.7c3.03,1.24,5.07,2.03,6.13,2.37,1.06.34,1.73.76,2.03,1.25.36.68.31,1.61-.15,2.78l-.68,1.9c3.03-2.73,7.67-7.6,13.92-14.6-5.34.46-10.6,1.12-15.77,2-2.57,2.08-4.39,3.52-5.47,4.3Z"
  />
</svg>