<?xml version="1.0" standalone="no"?><!DOCTYPE svg PUBLIC "-//W3C//DTD SVG 1.1//EN" "http://www.w3.org/Graphics/SVG/1.1/DTD/svg11.dtd"><svg t="1739788845551" class="icon" viewBox="0 0 1024 1024" version="1.1" xmlns="http://www.w3.org/2000/svg" p-id="8558" xmlns:xlink="http://www.w3.org/1999/xlink" width="200" height="200"><path d="M665.40278518 348.28136297l-240.29866666 240.29866666h88.71632593l151.58234073-151.58234074zM665.40278518 296.82346667v-45.38974815c0-10.07312592-8.13131852-18.20444445-18.20444443-18.20444444H376.80165925c-10.07312592 0-18.20444445 8.13131852-18.20444443 18.20444444v337.14631111H373.64622222l291.75656296-291.75656296z m-237.75004443-21.35988149c22.20942222 0 40.17114075 17.96171852 40.17114073 40.17114074s-17.96171852 40.17114075-40.17114073 40.17114075-40.17114075-17.96171852-40.17114075-40.17114075 17.96171852-40.17114075 40.17114075-40.17114074zM665.40278518 488.45558518l-100.12444443 100.12444445H653.99466667l11.40811851-11.40811852zM389.90885925 98.63774815h242.96865186c13.71401482 0 25.00077037-11.16539259 25.00077037-25.00077037v-12.01493333c0-13.71401482-11.16539259-25.00077037-25.00077037-25.00077037H389.90885925c-13.71401482 0-25.00077037 11.16539259-25.00077036 25.00077037v12.01493333c0 13.83537778 11.16539259 25.00077037 25.00077036 25.00077037z" fill="#FFBC00" p-id="8559"></path><path d="M389.90885925 135.04663703h242.96865186c33.86026667 0 61.40965925-27.54939259 61.40965926-61.40965925v-12.01493333c0-33.86026667-27.54939259-61.40965925-61.40965926-61.40965927H389.90885925c-33.86026667 0-61.40965925 27.54939259-61.40965925 61.40965927v12.01493333c0 33.86026667 27.54939259 61.40965925 61.40965925 61.40965925z m-25.00077036-73.42459258c0-13.71401482 11.16539259-25.00077037 25.00077036-25.00077037h242.96865186c13.71401482 0 25.00077037 11.16539259 25.00077037 25.00077037v12.01493333c0 13.71401482-11.16539259 25.00077037-25.00077037 25.00077037H389.90885925c-13.71401482 0-25.00077037-11.16539259-25.00077036-25.00077037v-12.01493333z" fill="#46287C" p-id="8560"></path><path d="M427.65274075 315.63472592m-40.17114075 0a40.17114075 40.17114075 0 1 0 80.34228148 0 40.17114075 40.17114075 0 1 0-80.34228148 0Z" fill="#FFFFFF" p-id="8561"></path><path d="M204.83034075 624.98891852l296.97517036 341.15128889c2.79134815 3.2768 6.43223703 5.09724445 10.19448889 5.09724444 3.76225185 0 7.28177778-1.82044445 10.19448889-5.09724444l296.97517036-341.15128889H204.83034075z" fill="#FFBC00" p-id="8562"></path><path d="M858.00580741 607.39128889c-2.54862222-5.5826963-11.16539259-18.6898963-35.31662223-18.6898963h-120.8775111V251.43371852c0-30.09801482-24.51531852-54.61333333-54.61333333-54.61333334H376.80165925c-30.09801482 0-54.61333333 24.51531852-54.61333333 54.61333334v337.14631111H201.31081482c-24.15122963 0-32.64663703 13.1072-35.31662223 18.68989629-2.54862222 5.5826963-6.79632592 20.75306667 8.98085926 38.83614816L474.37748148 990.04871111c9.70903703 11.16539259 23.42305185 17.59762963 37.62251852 17.59762964s27.91348148-6.43223703 37.62251852-17.59762964l299.28106666-343.82127408c15.89854815-18.20444445 11.65084445-33.25345185 9.10222223-38.83614814zM512 971.23745185c-3.76225185 0-7.28177778-1.82044445-10.19448889-5.09724444L204.83034075 624.98891852H819.0482963L522.19448889 966.14020741c-2.91271111 3.2768-6.43223703 5.09724445-10.19448889 5.09724444z m-86.89588148-382.65742222l240.29866666-240.29866666v88.71632592L513.82044445 588.58002963h-88.71632593z m140.17422223 0l100.12444443-100.12444445v88.71632593l-11.40811851 11.40811852h-88.71632592zM358.59721482 251.43371852c0-10.07312592 8.13131852-18.20444445 18.20444443-18.20444444h270.3966815c10.07312592 0 18.20444445 8.13131852 18.20444443 18.20444444v45.38974815L373.64622222 588.58002963h-14.92764444V251.43371852z" fill="#46287C" p-id="8563"></path></svg>