<svg t="1740112012555" class="icon" viewBox="0 0 1117 1024" version="1.1" xmlns="http://www.w3.org/2000/svg" p-id="9198" width="200" height="200"><path d="M136.6874643 305.81535903a467.16355652 467.16355652 0 0 1 863.15104483 0h70.61117945a533.36859777 533.36859777 0 0 0-1000.5321543 0h66.65695202z m860.77850934 369.43768599a468.40631327 468.40631327 0 0 1-860.21361937 0H65.73735207a533.93348654 533.93348654 0 0 0 502.29967926 351.47420164c71.74095698 0 142.69106919-14.34819091 209.00908844-41.91479519a533.36859777 533.36859777 0 0 0 292.16081206-309.55940645h-71.85393618z" fill="#000000" p-id="9199"></path><path d="M934.08537987 847.20538602a703.06138127 703.06138127 0 0 0-163.93091178-54.00342862 1016.12310194 1016.12310194 0 0 0-202.00445877-20.22304185 855.01663763 855.01663763 0 0 0-367.06515049 74.22647047l-29.3742498-60.33019032a920.5438109 920.5438109 0 0 1 396.55237829-80.55323216 926.9835506 926.9835506 0 0 1 398.13406781 81.11812092l-32.31167526 59.87827955zM568.15000932 275.87621925a929.24310809 929.24310809 0 0 1-396.3264223-80.55323215l29.3742498-57.50574406a857.27619513 857.27619513 0 0 0 366.9521725 70.72415622 978.16253296 978.16253296 0 0 0 204.82890623-20.11006384c56.71489809-11.07183267 111.84810667-29.37424979 164.04388978-54.11640661l29.3742498 57.61872206a924.61101511 924.61101511 0 0 1-398.24704581 83.94256838z" fill="#000000" p-id="9200"></path><path d="M717.16784022 675.25304502c-7.68249644 55.24618657-21.46579858 109.58854917-41.34990643 161.5583763-31.06891852 78.97154143-71.96691297 126.0833208-108.79770321 126.08331958-36.83079024 0-77.6158079-47.11177815-108.68472642-126.53523157a771.63895801 771.63895801 0 0 1-42.02777319-158.16904006h-67.33482c9.03823118 61.45997027 24.74215682 121.79016059 46.65986739 179.97377142 15.70392564 43.49648592 39.31630372 83.60363562 69.59437747 118.62678034 25.64597957 30.50402853 63.04165979 48.80644688 102.92285349 49.93622563 39.54225971-1.69466873 76.37305117-19.88410785 101.90605275-50.04920362 30.50402853-34.79718875 54.5683186-75.01731643 70.72415622-118.51380235a841.68524747 841.68524747 0 0 0 46.09497741-183.02417367h-69.70735548z m-300.86010925-369.43768599a771.63895801 771.63895801 0 0 1 42.02777319-159.29881881c31.06891852-78.85856464 71.28904621-126.0833208 108.68472642-126.08331958 37.39568022 0 77.72878469 47.22475615 108.79770321 125.97034159 19.65815186 51.06600436 33.554432 104.16561023 41.34990643 158.28201806h67.33481999a841.68524747 841.68524747 0 0 0-43.72244192-181.89439613 378.02400517 378.02400517 0 0 0-69.59437748-115.01148691A141.56129044 141.56129044 0 0 0 568.15000932-44.98097584c-39.54225971 1.46871274-76.48602795 19.65815186-101.79307474 50.04920362a367.1781285 367.1781285 0 0 0-70.72415622 117.94891237 875.12670147 875.12670147 0 0 0-46.65986739 183.02417487h67.33482z" fill="#000000" p-id="9201"></path><path d="M133.10545499 371.991273v94.859636h105.19272701V371.991273h60.78836299v245.573818h-60.69527199v-98.676364h-105.19272801v98.676364H72.875636V371.991273h60.136728z m433.803636 0v50.269091h-80.98909099v195.304727h-60.788364V422.260364h-80.989091v-50.269091h222.76654599z m244.64290901 0v50.269091h-80.989091v195.304727H669.774545V422.260364h-81.547636v-50.269091h223.418182z m148.945455 0c78.661818 0 105.658182 37.888 105.65818099 82.478545 0 44.590545-26.530909 82.478545-105.751272 82.478546H917.39636399v80.616727h-60.22981899V371.991273h103.33091z m-43.194182 115.246545h36.491636c36.026182 0 52.130909-10.984727 52.13090899-32.768 0-21.783273-16.570182-32.209455-51.665454-32.209454h-36.95709099v64.977454z" fill="#FC6002" p-id="9202"></path></svg>
