<svg
  t="1747709699474"
  class="icon"
  viewBox="0 0 1024 1024"
  version="1.1"
  xmlns="http://www.w3.org/2000/svg"
  p-id="11795"
  width="200"
  height="200"
>
  <path
    d="M1023.99908 853.500153v6.099995c0 90.799918-73.599934 164.399852-164.399852 164.399852H163.799853C73.299934 1023.7 0 950.200066 0 859.600148V164.401772C0 73.801854 73.299934 0.30192 163.799853 0.00192h695.298375c90.799918-0.3 164.599852 73.099934 164.899852 163.799853V853.500153z"
    fill="#82C651"
    p-id="11796"
  ></path>
  <path
    d="M413.999628 596.000385c-11.39999 5.799995-25.399977 1.599999-31.699971-9.599992l-1.599999-3.399997-65.399941-143.499871c-0.699999-1.599999-1.099999-3.299997-1.099999-5.099995 0-6.599994 5.399995-11.999989 11.999989-11.99999 2.599998 0 5.099995 0.799999 7.199993 2.399998l77.199931 54.799951c9.499991 6.199994 21.299981 7.599993 31.899971 3.599997l362.999674-161.499855C740.298335 245.0007 633.098431 194.900745 511.69954 194.900745c-198.199822 0-359.099677 134.199879-359.099677 299.499731 0 90.099919 48.399957 171.399846 124.099888 226.299796 6.299994 4.499996 10.099991 11.799989 10.099991 19.599983-0.1 2.699998-0.5 5.299995-1.299999 7.799993l-16.199985 60.399946c-0.999999 2.799997-1.599999 5.799995-1.899998 8.799992 0 6.599994 5.399995 11.899989 11.999989 11.899989 2.499998-0.1 4.899996-0.899999 6.899994-2.199998l78.699929-45.399959c5.699995-3.499997 12.299989-5.399995 19.099983-5.499995 3.599997 0 7.099994 0.5 10.59999 1.599998 38.199966 10.89999 77.69993 16.499985 117.499895 16.399986 198.399822 0 359.199677-133.99988 359.199677-299.399731-0.2-49.199956-14.399987-97.299913-40.899963-138.699876L416.799626 594.800386l-2.599998 1.499998-0.2-0.299999z"
    fill="#FFFFFF"
    p-id="11797"
  ></path>
</svg>