<svg
  t="1746462527723"
  class="icon"
  viewBox="0 0 1024 1024"
  version="1.1"
  xmlns="http://www.w3.org/2000/svg"
  p-id="11491"
  width="256"
  height="256"
>
  <path
    d="M891.84 792c0 52.24-170.8 94.56-381.36 94.56S129.12 844.32 129.12 792s170.72-94.4 381.36-94.4 381.36 42.32 381.36 94.4z"
    fill="#B8CBCD"
    p-id="11492"
  ></path>
  <path
    d="M980 779.6H60l39.84-498h840l40.16 498z"
    fill="#B2EDA6"
    p-id="11493"
  ></path>
  <path
    d="M980.16 803.6H60a24 24 0 0 1-24-25.92L75.92 280a24 24 0 0 1 24-22.08h840a24 24 0 0 1 24 22.08l40 495.2a23.04 23.04 0 0 1 0.48 4.72 24 24 0 0 1-24.24 23.68z m-894.16-48h868l-36.32-450H122z"
    fill="#3C663E"
    p-id="11494"
  ></path>
  <path
    d="M219.84 179.6s112.96-14.96 172.8-14.96 123.36 33.6 123.36 70.96v464S527.2 613.6 377.68 613.6s-187.52 36.88-187.52 36.88z"
    fill="#FFFFFF"
    p-id="11495"
  ></path>
  <path
    d="M515.84 713.6h-1.12a16 16 0 0 1-14.88-16v-8c-1.84-18.64-17.68-60.16-122.16-60.16-138.08 0-176 32-176.64 32.64a16 16 0 0 1-17.76 2.48 16 16 0 0 1-9.12-15.2l29.68-470.96a16 16 0 0 1 13.84-14.8c4.72-0.64 114.72-15.12 174.96-15.12 65.84 0 139.2 34.88 139.2 84.96v454.96a58.72 58.72 0 0 1 0 11.36 16 16 0 0 1-16 13.84zM377.68 597.6c62.56 0 100.08 12.32 122.32 30v-392c0-23.36-50.64-54.96-107.36-54.96-46.32 0-126.4 9.28-157.68 13.12L208 622.24c27.92-11.52 79.52-24.64 169.68-24.64z"
    fill="#3C663E"
    p-id="11496"
  ></path>
  <path
    d="M132.8 713.6l57.36-70.56 29.68-463.44-56.96 74.8-30.08 459.2z"
    fill="#FFFFFF"
    p-id="11497"
  ></path>
  <path
    d="M132.8 729.6a15.12 15.12 0 0 1-5.84-1.12 16 16 0 0 1-10.08-16l30.08-459.2a16.48 16.48 0 0 1 3.2-8.64l56.88-74.8a16 16 0 0 1 18.4-5.36 16 16 0 0 1 10.32 16L206.08 644a16 16 0 0 1-3.52 9.12l-57.36 70.56a16 16 0 0 1-12.4 5.92z m45.76-469.36L152 664.56l22.4-27.68 26-405.44z"
    fill="#3C663E"
    p-id="11498"
  ></path>
  <path
    d="M132 715.6h384c-1.12 16 12.32-102-153.28-102-185.92 0-230.72 102-230.72 102z"
    fill="#FFFFFF"
    p-id="11499"
  ></path>
  <path
    d="M516 731.6c-2.4 0-4.8 0.96-6.88 0H132a18 18 0 0 1-13.36-9.2 16 16 0 0 1-1.28-15.2c2-4.56 51.2-112 245.36-112 152 0 167.52 96 168.96 115.12a13.36 13.36 0 0 1 0 4v1.04a16.4 16.4 0 0 1-15.68 16.24z m-352-32h336c-8-26.16-38.4-72-137.28-72-119.04 0-174.32 44.4-198.72 72z"
    fill="#3C663E"
    p-id="11500"
  ></path>
  <path
    d="M816.8 179.6s-110-14.96-169.84-14.96-131.12 32-131.12 68.96v472S512 613.6 661.92 613.6s187.44 36.88 187.44 36.88z"
    fill="#FFFFFF"
    p-id="11501"
  ></path>
  <path
    d="M500 235.6c0-52.64 85.52-86.96 146.96-86.96 60.24 0 167.44 14.48 172 15.12a16 16 0 0 1 13.84 14.72l32.56 470.88a16 16 0 0 1-9.2 16 16 16 0 0 1-17.92-3.04s-38.32-32-176-32C537.68 629.6 532 696 531.84 704.64v0.96a16 16 0 0 1-16 16 14.64 14.64 0 0 1-16-14v-472m146.96-54.96c-58.24 0-115.12 30.32-115.12 52.96v403.52c22.96-21.36 62.4-39.52 130.08-39.52 89.92 0 141.44 13.04 169.44 24.56l-29.6-428.4a1537.04 1537.04 0 0 0-154.64-13.12z"
    fill="#3C663E"
    p-id="11502"
  ></path>
  <path
    d="M906.8 713.6l-57.44-70.56-32.56-463.44 59.36 74.8 30.64 459.2z"
    fill="#FFFFFF"
    p-id="11503"
  ></path>
  <path
    d="M906.8 729.6a16 16 0 0 1-12.4-5.92l-57.44-70.56a16 16 0 0 1-3.52-8.96l-32.56-463.44a16 16 0 0 1 28.48-11.04l59.28 74.72a16.48 16.48 0 0 1 3.44 8.88l30.56 457.04a14.72 14.72 0 0 1 0 3.28 16 16 0 0 1-16 16z m-41.76-92.8l22.48 27.68-27.04-404.08-24-30.4z"
    fill="#3C663E"
    p-id="11504"
  ></path>
  <path
    d="M908 715.6h-392S512 613.6 676.88 613.6c185.84 0 231.12 102 231.12 102z"
    fill="#FFFFFF"
    p-id="11505"
  ></path>
  <path
    d="M908.16 731.6h-392a16 16 0 0 1-16-15.44 104 104 0 0 1 30.32-70.8c30.48-32 80-48 146.56-48 180.32 0 236 92.4 244.56 109.12a15.52 15.52 0 0 1 2.72 8.88 16 16 0 0 1-16.16 16.24z m-373.68-32h343.04C853.04 672 795.84 629.6 676.88 629.6c-56.48 0-99.04 12.96-123.04 37.36a77.2 77.2 0 0 0-19.36 32.64zM520 246.96a24 24 0 0 1-24-24c0-16-48-43.36-103.12-43.36-57.6 0-168.56 14.64-169.68 14.8a24 24 0 1 1-6.32-47.6c4.72-0.64 115.28-15.2 176-15.2C466.16 131.6 544 168 544 222.96a24 24 0 0 1-24 24z"
    fill="#3C663E"
    p-id="11506"
  ></path>
  <path
    d="M136 296.48a24 24 0 0 1-15.2-5.44 24 24 0 0 1-3.28-33.84l84-101.92a24 24 0 0 1 37.04 30.56L154.88 288A24 24 0 0 1 136 296.48zM520.4 246.96a24 24 0 0 1-24-24c0-54.64 78.16-91.36 151.12-91.36 60.72 0 168.56 14.56 173.12 15.2a24 24 0 1 1-6.48 47.6c-1.12 0-109.12-14.8-166.64-14.8-54.96 0-103.12 27.04-103.12 43.36a24 24 0 0 1-24 24z"
    fill="#3C663E"
    p-id="11507"
  ></path>
  <path
    d="M907.76 300.48a24 24 0 0 1-18.24-8.4l-90.4-105.92a24 24 0 1 1 36.48-31.2l90.4 105.92a24 24 0 0 1-18.24 40zM466.48 570.96a16 16 0 0 1-13.68-8c-11.2-18.48-112-30.96-195.28-11.04a16 16 0 0 1-7.44-31.12C324.72 503.2 454.56 504 480 546.72a16 16 0 0 1-5.44 21.92 15.52 15.52 0 0 1-8.08 2.32zM466.48 491.6a16 16 0 0 1-13.68-8c-11.12-18.4-103.28-31.2-187.28-11.04a16 16 0 1 1-7.44-31.12C333.44 424 454.4 424.72 480 467.36a16 16 0 0 1-5.44 21.92 15.52 15.52 0 0 1-8.08 2.32zM466.48 415.44a16 16 0 0 1-13.68-8c-11.28-18.64-96-31.04-179.28-11.04a16 16 0 0 1-7.44-31.2c72.72-17.04 187.6-17.84 213.92 26a16 16 0 0 1-5.44 21.92 15.52 15.52 0 0 1-8.08 2.32zM571.76 490.96a16 16 0 0 1-13.04-25.2c32.64-46.56 100.24-40 144.96-36.4a16 16 0 0 1 14.88 17.44 16 16 0 0 1-17.04 14.56c-38.16-3.52-94.56-8.64-116.64 22.8a16 16 0 0 1-13.12 6.8zM571.76 411.6a16 16 0 0 1-8-2.32 16 16 0 0 1-5.44-21.92C584 344.72 704.8 344 780.24 361.76a16 16 0 0 1-7.52 31.12c-84-20.16-176-7.36-187.2 11.04a16 16 0 0 1-13.76 7.68zM571.76 335.44a16 16 0 0 1-8-2.32 16 16 0 0 1-5.44-21.92c26.56-43.84 141.36-43.04 214.16-25.68a16 16 0 0 1-7.52 31.2c-83.12-19.92-168-8-179.2 11.04a16 16 0 0 1-14 7.68z"
    fill="#3C663E"
    p-id="11508"
  ></path>
  <path
    d="M395.84 305.6l-46-40-50 40 0.16-142h96l-0.16 142z"
    fill="#B2EDA6"
    p-id="11509"
  ></path>
  <path
    d="M395.84 321.6a16 16 0 0 1-10.56-3.92l-35.92-31.2-39.52 31.6a16 16 0 0 1-16.96 1.92 13.12 13.12 0 0 1-8.88-12.4v-144a16 16 0 0 1 16-16h96a16 16 0 0 1 16 16V305.6a16 16 0 0 1-9.6 14.4 16 16 0 0 1-6.56 1.6z m-80-142v96l24-22.48a16 16 0 0 1 20.48 0.4l19.68 22.08v-96z"
    fill="#3C663E"
    p-id="11510"
  ></path>
</svg>