<svg
  t="1753427955126"
  class="icon"
  viewBox="0 0 1024 1024"
  version="1.1"
  xmlns="http://www.w3.org/2000/svg"
  p-id="11894"
  width="200"
  height="200"
>
  <path
    d="M227.541333 85.333333h568.917334A142.208 142.208 0 0 1 938.666667 227.541333v568.917334A142.208 142.208 0 0 1 796.458667 938.666667H227.541333A142.208 142.208 0 0 1 85.333333 796.458667V227.541333A142.208 142.208 0 0 1 227.541333 85.333333"
    fill="#8662FA"
    p-id="11895"
  ></path>
  <path
    d="M590.250667 450.474667c0.085333 5.205333 0.128 10.453333 0 15.658666l0.426666-0.896h145.92c15.061333 0 35.882667 13.312 45.226667 25.258667 34.986667 44.8 3.072 107.776-52.352 109.098667h-139.648c20.394667 97.109333-43.008 193.28-139.221333 214.613333-160.938667 35.413333-283.776-144.128-191.146667-281.130667a183.893333 183.893333 0 0 1 201.344-73.173333c-2.218667-55.424 4.437333-111.274667 34.133333-159.146667 50.986667-82.944 144.085333-100.224 235.008-94.464 53.632 3.541333 83.797333 62.506667 51.413334 106.410667-20.693333 28.16-48.810667 27.605333-77.909334 27.008-13.952-0.298667-28.16-0.597333-41.813333 2.261333-32.341333 7.082667-58.069333 29.269333-67.413333 61.653334-4.266667 15.274667-4.096 31.061333-3.968 46.805333z m-132.565334 212.949333c21.76-38.144-8.874667-84.693333-52.309333-80.682667-38.144 3.541333-59.861333 45.226667-42.581333 78.933334a53.802667 53.802667 0 0 0 94.890666 1.749333z"
    fill="#FFFFFF"
    p-id="11896"
  ></path>
</svg>
