<svg
  t="1733737463003"
  class="icon"
  viewBox="0 0 1152 1024"
  version="1.1"
  xmlns="http://www.w3.org/2000/svg"
  p-id="5213"
  width="200"
  height="200"
>
  <path
    d="M0 0m125.92716 0l881.490122 0q125.92716 0 125.92716 125.92716l0 755.562962q0 125.92716-125.92716 125.92716l-881.490122 0q-125.92716 0-125.92716-125.92716l0-755.562962q0-125.92716 125.92716-125.92716Z"
    fill="#FDB000"
    opacity=".6"
    p-id="5214"
  ></path>
  <path
    d="M453.652595 572.779688a54.904242 54.904242 0 0 1-52.259772 35.889241h-220.37253c-30.411409 0-55.093133-23.548379-55.093133-52.511626 0-28.963247 24.681723-52.448662 55.093133-52.448662h180.705475l97.593549-278.92866c17.440912-49.804192 92.367572-47.096758 105.715851 3.840778l101.623218 387.100091 43.570798-82.985999A55.407951 55.407951 0 0 1 759.529667 503.708641h192.794482c30.411409 0 55.093133 23.485415 55.093133 52.448662 0 28.963247-24.681723 52.511626-55.093133 52.511626h-158.794149l-94.949079 180.831402c-22.85578 43.570797-90.289774 36.518876-102.693599-10.703809l-91.926827-349.888614-50.3079 143.87178z"
    fill="#131313"
    p-id="5215"
  ></path>
</svg>