<svg
  t="1734460773297"
  class="icon"
  viewBox="0 0 1024 1024"
  version="1.1"
  xmlns="http://www.w3.org/2000/svg"
  p-id="6906"
  width="256"
  height="256"
>
  <path
    d="M845.73843911 998.13148445H177.03822222c-83.65306311 0-151.46097778-67.80791467-151.46097777-151.46097778V177.97028978c0-83.65306311 67.80791467-151.46097778 151.46097777-151.46097778h668.70021689c83.65306311 0 151.46097778 67.80791467 151.46097778 151.46097778v668.70021689c0 83.65306311-67.80791467 151.46097778-151.46097778 151.46097778z"
    fill="#4B26D3"
    p-id="6907"
  ></path>
  <path
    d="M802.51380622 954.84859733H208.20423111c-83.65306311 0-151.46097778-67.80791467-151.46097778-151.46097778V209.13629867c0-83.65306311 67.80791467-151.46097778 151.46097778-151.46097778h594.30957511c83.65306311 0 151.46097778 67.80791467 151.46097778 151.46097778v594.30957511c0 83.59480889-67.80791467 151.40272355-151.46097778 151.40272355z"
    fill="#5935DB"
    p-id="6908"
  ></path>
  <path
    d="M753.34724267 905.68203378H247.99186489c-83.65306311 0-151.46097778-67.80791467-151.46097778-151.46097778V248.86567822c0-83.65306311 67.80791467-151.46097778 151.46097778-151.46097777h505.35537778c83.65306311 0 151.46097778 67.80791467 151.46097778 151.46097777v505.35537778c0 83.65306311-67.80791467 151.46097778-151.46097778 151.46097778z"
    fill="#6241EF"
    p-id="6909"
  ></path>
  <path
    d="M725.96775822 867.991552h-461.95598222c-74.79842133 0-135.44106667-60.64264533-135.44106667-135.44106667v-461.95598222c0-74.79842133 60.64264533-135.44106667 135.44106667-135.44106666h461.95598222c74.79842133 0 135.44106667 60.64264533 135.44106667 135.44106666v461.95598222c0 74.79842133-60.64264533 135.44106667-135.44106667 135.44106667z"
    fill="#6A5BF1"
    p-id="6910"
  ></path>
  <path
    d="M288.71156622 296.10985245m-114.17827555 0a114.17827555 114.17827555 0 1 0 228.35655111 0 114.17827555 114.17827555 0 1 0-228.35655111 0Z"
    fill="#5935DB"
    p-id="6911"
  ></path>
  <path
    d="M288.71156622 296.10985245m-76.42953955 0a76.42953955 76.42953955 0 1 0 152.85907911 0 76.42953955 76.42953955 0 1 0-152.85907911 0Z"
    fill="#F7BD2D"
    p-id="6912"
  ></path>
  <path
    d="M284.459008 291.39126045m-61.39995022 0a61.39995022 61.39995022 0 1 0 122.79990044 0 61.39995022 61.39995022 0 1 0-122.79990044 0Z"
    fill="#FCD430"
    p-id="6913"
  ></path>
  <path
    d="M608.64375467 684.84027733l-147.20841956-98.33312711a67.66227911 67.66227911 0 0 0-70.42935466-2.91271111L25.57724445 785.96960711v64.487424c0 81.55591111 66.11854222 147.61619911 147.6161991 147.61619911h676.38977423c81.55591111 0 147.61619911-66.11854222 147.61619911-147.61619911V450.658304L686.76266667 682.80137955a67.60985031 67.60985031 0 0 1-78.118912 2.03889778z"
    fill="#F2942F"
    p-id="6914"
  ></path>
  <path
    d="M955.37288533 823.77659733V481.94082133L686.76266667 682.80137955a67.79626382 67.79626382 0 0 1-78.17716622 2.097152L461.37708089 586.56540445a67.66227911 67.66227911 0 0 0-70.42935467-2.91271112l-334.26272711 185.13191822v55.05024c0 76.08001422 61.10867911 137.77123555 136.54789689 137.77123556h625.53383822c75.497472-0.11650845 136.60615111-61.74947555 136.60615111-137.82948978z"
    fill="#FAB001"
    p-id="6915"
  ></path>
  <path
    d="M686.76266667 682.80137955a67.79626382 67.79626382 0 0 1-78.17716622 2.097152L461.37708089 586.56540445a67.66227911 67.66227911 0 0 0-70.42935467-2.91271112l-294.53334755 163.11182222v48.58402134c0 78.35192889 54.99198578 141.84903111 122.79990044 141.84903111h562.67753244c67.80791467 0 122.79990045-63.49710222 122.79990045-141.84903111v-275.54247111L686.76266667 682.80137955z"
    fill="#F7BD2D"
    p-id="6916"
  ></path>
  <path
    d="M861.40882489 766.86222222V552.19541333L686.76266667 682.80137955a67.79626382 67.79626382 0 0 1-78.17716622 2.097152L461.37708089 586.56540445a67.66227911 67.66227911 0 0 0-70.42935467-2.91271112l-262.49352533 145.40253867v37.86524445c0 75.43921778 49.86561422 136.54789689 111.32381866 136.54789688h510.19047823c61.57471289-0.05825422 111.44032711-61.22518755 111.44032711-136.60615111z"
    fill="#FCD430"
    p-id="6917"
  ></path>
</svg>