<svg
  t="1746767802808"
  class="icon"
  viewBox="0 0 1735 1024"
  version="1.1"
  xmlns="http://www.w3.org/2000/svg"
  p-id="11394"
  width="200"
  height="200"
>
  <path
    d="M1450.66260142 1370.02462036H281.31931266c-151.86276461 0-273.352976-121.49021135-273.35297599-273.35297598V-72.67164438c0-151.86276461 121.49021135-273.352976 273.35297599-273.35297598h1169.34328876c151.86276461 0 273.352976 121.49021135 273.352976 273.35297598v1169.34328876c5.06209222 151.86276461-121.49021135 273.352976-273.352976 273.35297598z"
    fill="#6BC839"
    p-id="11395"
  ></path>
  <path
    d="M1091.25405787 306.98526802c15.18627664 0 30.37255325 0 45.55882989 5.0620922C1096.31615008 129.81204235 903.95664778-1.80235345 686.2866861-1.80235345 438.24416947-1.80235345 240.82257667 165.24668781 240.82257667 377.85455729c0 121.49021135 65.80719873 222.73205554 177.17322567 303.72552923L372.43697245 818.25657618l156.92485682-80.99347535c55.68301429 10.12418442 101.24184252 20.24836883 156.92485683 20.24836884h40.49673769c-10.12418442-30.37255325-15.18627664-60.74510653-15.18627664-96.17975031 0-197.42159451 167.04904125-354.34645134 379.65691072-354.34645134z m-237.91833051-121.49021136c35.43464547 0 55.68301429 20.24836883 55.68301264 55.68301263 0 35.43464547-20.24836883 55.68301429-55.68301264 55.68301429-35.43464547 0-65.80719873-20.24836883-65.80719873-55.68301429-5.06209222-35.43464547 30.37255325-55.68301429 65.80719873-55.68301263zM539.48601369 296.86108358c-35.43464547 0-65.80719873-20.24836883-65.80719873-55.68301429 0-35.43464547 35.43464547-55.68301429 65.80719873-55.68301263 30.37255325 0 55.68301429 20.24836883 55.68301264 55.68301263 0 35.43464547-25.31046105 55.68301429-55.68301264 55.68301429z"
    fill="#FFFFFF"
    p-id="11396"
  ></path>
  <path
    d="M1501.28352353 656.26962713c0-177.17322566-177.17322566-323.97389808-379.65691239-323.97389807-212.60787113 0-379.65691239 146.80067241-379.65691239 323.97389807 0 177.17322566 167.04904125 323.97389808 379.65691239 323.97389643 45.55882989 0 91.1176581-10.12418442 136.67648799-20.24836719l121.49021137 65.80719708-35.4346438-111.36602695c91.1176581-65.80719873 156.92485683-156.92485683 156.92485683-258.16669937z m-506.20921598-55.68301429c-20.24836883 0-45.55882989-20.24836883-45.55882988-45.55882989 0-20.24836883 20.24836883-45.55882989 45.55882988-45.55882821 35.43464547 0 55.68301429 20.24836883 55.68301264 45.55882821s-20.24836883 45.55882989-55.68301264 45.55882989z m248.04251495 0c-20.24836883 0-45.55882989-20.24836883-45.55882821-45.55882989 0-20.24836883 20.24836883-45.55882989 45.55882821-45.55882821 35.43464547 0 55.68301429 20.24836883 55.68301431 45.55882821s-20.24836883 45.55882989-55.68301431 45.55882989z"
    fill="#FFFFFF"
    p-id="11397"
  ></path>
</svg>