<?xml version="1.0" standalone="no"?>
<!DOCTYPE
  svg
  PUBLIC "-//W3C//DTD SVG 1.1//EN" "http://www.w3.org/Graphics/SVG/1.1/DTD/svg11.dtd"
><svg
  t="1732629282320"
  class="icon"
  viewBox="0 0 1024 1024"
  version="1.1"
  xmlns="http://www.w3.org/2000/svg"
  p-id="3262"
  xmlns:xlink="http://www.w3.org/1999/xlink"
  width="256"
  height="256"
>
  <path
    d="M510.22506667 34.13333333h2.21866666a355.60106667 355.60106667 0 0 1 33.1776 18.0224l370.61973334 213.1968a27.0336 27.0336 0 0 1 14.1312 26.89706667c-0.27306667 149.8112 0 299.58826667-0.17066667 449.3312a27.7504 27.7504 0 0 1-12.15146667 17.3056q-197.05173333 113.4592-394.1376 226.78186667a20.03626667 20.03626667 0 0 1-22.4256 1.26293333q-197.29066667-113.11786667-394.20586666-226.64533333a23.89333333 23.89333333 0 0 1-13.65333334-22.7328V288.256a23.6544 23.6544 0 0 1 13.2096-22.86933333q185.07093333-106.42773333 370.14186667-212.992c10.99093333-6.28053333 21.77706667-12.93653333 33.24586667-18.26133334"
    fill="#019639"
    p-id="3263"
  ></path>
  <path
    d="M265.1136 325.56373333v370.65386667a51.5072 51.5072 0 0 0 14.57493333 37.10293333 56.2176 56.2176 0 0 0 70.31466667 7.03146667 53.38453333 53.38453333 0 0 0 23.38133333-44.1344c0-89.42933333-0.17066667-178.85866667 0-268.288q122.29973333 146.432 245.11146667 292.4544a96.69973333 96.69973333 0 0 0 88.74666667 26.69226667 53.28213333 53.28213333 0 0 0 42.7008-46.7968q0.27306667-189.1328 0-378.23146667a53.99893333 53.99893333 0 0 0-107.58826667 0c0 90.86293333-0.54613333 181.62346667 0 272.45226667-80.0768-94.4128-159.16373333-189.6448-238.93333333-284.39893334a96.1536 96.1536 0 0 0-90.4192-35.90826666 53.89653333 53.89653333 0 0 0-47.88906667 51.37066666z"
    fill="#FFFFFF"
    p-id="3264"
  ></path>
</svg>