<?xml version="1.0" encoding="UTF-8" standalone="no"?>
<!-- Created with Inkscape (http://www.inkscape.org/) -->

<svg
  xmlns:dc="http://purl.org/dc/elements/1.1/"
  xmlns:cc="http://creativecommons.org/ns#"
  xmlns:rdf="http://www.w3.org/1999/02/22-rdf-syntax-ns#"
  xmlns:svg="http://www.w3.org/2000/svg"
  xmlns="http://www.w3.org/2000/svg"
  xmlns:sodipodi="http://sodipodi.sourceforge.net/DTD/sodipodi-0.dtd"
  xmlns:inkscape="http://www.inkscape.org/namespaces/inkscape"
  width="300"
  height="300"
  id="svg2"
  version="1.1"
  inkscape:version="0.48.5 r10040"
  sodipodi:docname="New document 1"
>
  <defs id="defs4" />
  <sodipodi:namedview
    id="base"
    pagecolor="#ffffff"
    bordercolor="#666666"
    borderopacity="1.0"
    inkscape:pageopacity="0.0"
    inkscape:pageshadow="2"
    inkscape:zoom="0.77929688"
    inkscape:cx="178.5087"
    inkscape:cy="177.16539"
    inkscape:document-units="px"
    inkscape:current-layer="layer1"
    showgrid="false"
    fit-margin-top="0"
    fit-margin-left="0"
    fit-margin-right="0"
    fit-margin-bottom="0"
    inkscape:window-width="1366"
    inkscape:window-height="715"
    inkscape:window-x="-8"
    inkscape:window-y="-8"
    inkscape:window-maximized="1"
  />
  <metadata id="metadata7">
    <rdf:RDF>
      <cc:Work rdf:about="">
        <dc:format>image/svg+xml</dc:format>
        <dc:type rdf:resource="http://purl.org/dc/dcmitype/StillImage" />
        <dc:title></dc:title>
      </cc:Work>
    </rdf:RDF>
  </metadata>
  <g
    inkscape:label="Layer 1"
    inkscape:groupmode="layer"
    id="layer1"
    transform="translate(-196.4913,-409.52756)"
  >
    <path
      inkscape:connector-curvature="0"
      d="m 386.51794,454.99165 c 0,0 0.95302,-0.36322 1.21888,-1.30313 0.26606,-0.9399 0.19526,-1.52494 0.62071,-1.48949 0.42566,0.0353 0.83365,0.26575 0.83365,0.26575 0,0 0.20373,-2.69399 2.37035,-6.17485 2.16651,-3.48065 2.15159,-3.11732 2.27573,-4.09268 0.12393,-0.97525 -0.23071,-1.1703 0.39,-1.79091 0.62072,-0.62072 0.58536,-0.46112 0.72717,-0.95769 0.14193,-0.49646 0.46112,-0.76252 0.74465,-1.06405 0.28384,-0.30151 0.53224,-0.49646 0.81566,-0.38999 0.28384,0.10615 0.53223,0.35454 0.60304,-0.0711 0.0711,-0.42535 -0.32279,-0.4845 -0.50938,-0.93843 -0.18658,-0.45391 -0.0448,-0.80094 0.20426,-0.90772 0.24903,-0.10679 0.63097,0.008 0.66664,-0.16024 0.0356,-0.16923 -0.0978,-0.57869 0.12446,-0.92583 0.22204,-0.34703 0.49773,-0.36512 0.65765,-0.29369 0.15991,0.0711 0.21325,0.35581 0.44429,0.28469 0.23125,-0.0711 0.60452,-0.32035 0.50673,-0.84571 -0.0979,-0.52493 -0.87091,-0.87238 -0.48006,-1.12141 0.39126,-0.24924 0.70231,-0.48958 0.87122,-0.73882 0.16891,-0.24935 0.40894,-0.89016 0.79978,-0.7566 0.39116,0.13345 0.52441,0.27601 0.65765,0.1869 0.13346,-0.0891 0.70231,-1.3263 0.97769,-1.66444 0.2757,-0.33835 0.12446,-0.46292 0.0801,-0.86339 -0.0444,-0.40079 0.28437,-0.65013 0.42651,-0.81026 0.14224,-0.16023 0.64897,-1.12141 1.11125,-1.63777 0.46196,-0.51625 3.64024,-2.86978 4.52701,-3.3309 0.88647,-0.46111 0.78,-0.76231 1.15264,-1.09949 0.37221,-0.33688 0.6206,-0.1596 0.83333,0.0888 0.21272,0.24839 0.58537,0.28384 0.79798,-0.10647 0.21273,-0.38999 -0.14181,-0.86878 0.39,-1.4007 0.53223,-0.53224 0.9399,-0.37264 1.33022,-0.99335 0.39,-0.62061 1.52495,-1.4006 2.44708,-2.12789 0.92223,-0.72718 1.40102,-1.47172 2.07485,-1.24132 0.67374,0.23061 1.43638,0.63839 1.01072,0.97526 -0.42545,0.33686 -1.02839,1.57829 -0.93959,2.09253 0.0885,0.51446 0.21262,1.20597 -0.17759,1.45437 -0.3901,0.24807 -0.6205,0.0531 -0.6205,-0.0711 0,-0.12415 0.10626,-1.25911 -0.35486,-0.97526 -0.46112,0.28374 -0.74464,1.01071 -0.60272,1.68476 0.1416,0.67384 0.40778,1.4895 0.0885,1.82636 -0.3192,0.33698 -0.63839,0.4081 -0.95758,0.44344 -0.3192,0.0355 -0.63839,0.19506 -0.63839,0.53192 0,0.33687 -1.35869,1.66953 -1.99802,2.20229 -0.63924,0.53277 -1.4205,2.23774 -1.17211,2.77051 0.24871,0.53276 0.46175,1.70486 -0.10647,2.20197 -0.56822,0.49741 -1.58221,2.84458 -1.56453,3.35882 0.0178,0.51425 -0.12415,1.50749 -0.49647,2.02174 -0.37253,0.51414 -0.92223,0.9399 -1.34789,1.68444 -0.42534,0.74496 -1.84764,3.12875 -2.45163,4.01669 -0.60357,0.88805 -0.2487,2.45068 -0.39052,3.37418 -0.14224,0.9234 -0.50948,2.46899 -0.79323,2.36241 -0.28352,-0.10614 -0.53191,-0.67373 -0.53191,-0.24807 0,0.42566 -0.0177,1.3299 0.12424,1.95062 0.14182,0.62071 0,1.3299 -0.60303,1.80869 -0.60304,0.47879 -0.88646,0.92223 -0.63839,1.40102 0.24839,0.47879 0.83333,0.90445 0.31919,1.22364 -0.51424,0.3192 -2.25213,0.90456 -2.00374,1.54294 0.24818,0.63839 1.50728,0.97526 1.50728,1.27678 0,0.3012 -1.43648,0.21272 -1.63142,0.53192 -0.19505,0.31919 0.0177,0.26606 0.0885,0.81566 0.0711,0.5497 -0.17726,0.88688 0.30153,1.08183 0.47879,0.19504 1.20596,0.38999 0.74485,0.6207 -0.46112,0.23041 -1.45405,0.44313 -1.22364,0.78032 0.23071,0.33686 1.72021,2.00374 2.07475,2.67747 0.35465,0.67416 1.1883,0.92223 1.73789,1.43637 0.54991,0.51456 1.3299,0.99335 1.91527,1.68487 0.58526,0.69151 0.65606,1.0995 1.1703,1.70243 0.51445,0.60273 1.40091,0.76232 1.95082,1.15264 0.5496,0.38999 2.37628,2.16333 3.0678,2.67779 0.69151,0.51424 0.90392,0.41645 1.23275,0.64801 0.32882,0.23136 0.1779,0.70316 0.43561,0.97917 0.2577,0.2757 0.55107,0.48959 1.08415,0.71195 0.5334,0.22256 0.68432,0.53403 0.8001,0.73893 0.11557,0.20457 1.05812,1.21316 1.90924,1.40843 0.85111,0.19504 2.12788,1.36535 2.51819,1.63141 0.39,0.26607 -0.47879,0.99304 -0.26606,1.4187 0.21294,0.42545 4.49241,4.66227 7.689,8.92439 3.1968,4.26245 4.15554,5.82518 6.25104,9.23492 2.09582,3.40952 3.68702,6.54335 3.95277,7.39436 0.26617,0.85111 0.70951,0.9399 0.95769,1.6492 0.24839,0.7094 0.21293,0.85132 0.6206,1.38324 0.4081,0.53192 0.60304,0.79798 0.76264,1.38335 0.15959,0.58494 1.12977,1.8996 1.44928,3.0009 0.31983,1.10099 0.63934,2.13085 1.42082,3.37408 0.78126,1.24322 2.02438,3.69749 2.18397,4.67275 0.1596,0.97536 0.0531,1.50728 0.37232,2.2698 0.3192,0.76264 1.96829,4.52195 2.34093,5.16033 0.37232,0.63839 0,0.69183 -0.12425,1.24143 -0.12414,0.54991 0.21272,0.92212 0.53192,1.50749 0.31919,0.58493 0.31919,1.13484 0.51456,1.22332 0.19494,0.0889 0.58494,0.14193 0.58494,0.51456 0,0.37232 -0.14192,0.53192 0.17727,1.04606 0.31919,0.51425 -0.31919,1.0287 -0.17727,1.38335 0.14192,0.35454 1.54294,1.11718 1.20597,1.80869 -0.33686,0.69152 -0.97525,1.11718 -0.56758,1.54294 0.40798,0.42535 0.28385,3.15659 0.37264,3.74153 0.0885,0.58536 -0.018,2.74859 -0.018,3.22738 0,0.47879 -0.12393,2.87285 0.0533,3.24549 0.17738,0.37222 1.66688,2.12788 1.18809,1.95051 -0.4789,-0.17727 -1.08183,-0.12414 -1.08183,0.12425 0,0.24807 0.0179,0.70919 0.0179,0.70919 0,0 -0.68463,9.2058 -0.96869,12.61564 -0.28417,3.40974 -1.49194,7.6362 -2.34421,9.9096 -0.85228,2.27309 -1.13676,2.73473 -1.13676,2.73473 0,0 -0.0708,1.49162 -0.81682,2.23774 -0.7458,0.74582 -1.24291,0.78116 -1.24291,1.02987 0,0.24871 0.46165,1.24322 -0.0711,2.06015 -0.53276,0.81682 -1.70486,2.66372 -1.49193,3.16103 0.21336,0.4971 -0.74125,3.048 -1.14892,3.65104 -0.4081,0.60272 -1.01103,1.73757 -1.25911,1.5603 -0.24849,-0.17727 -0.67383,-0.56727 -0.95768,-0.26586 -0.28374,0.30153 0,1.20577 -0.54991,1.40071 -0.54959,0.19537 -1.93283,-0.0885 -1.9505,0.42577 -0.0178,0.51413 1.31212,0.85111 1.52516,1.54283 0.21272,0.69152 0,1.08183 -0.85143,2.128 -0.85111,1.04637 -1.70222,1.66708 -2.6598,2.00395 -0.95758,0.33687 -1.7379,0.76232 -1.87981,1.3299 -0.14182,0.56759 -0.0419,0.93895 0.24246,1.17063 0.28437,0.23156 0.57742,0.32935 0.88857,0.11578 0.31115,-0.21357 0.51573,-0.49859 0.52441,-0.37413 0.008,0.12478 -0.0798,0.42747 -0.47996,0.65014 -0.39994,0.22225 -1.07558,0.25802 -1.42208,0.33803 -0.34649,0.0801 -1.29772,1.02362 -1.53744,1.28196 -0.24003,0.25802 -2.72648,3.14399 -3.79201,4.45833 -1.06563,1.31393 -1.95357,3.05456 -2.30886,3.8715 -0.35517,0.81682 -0.81682,1.42049 -1.42049,1.88245 -0.60389,0.46175 -0.67501,1.42049 -1.38536,2.05984 -0.71046,0.63923 -1.31403,0.88794 -1.74032,1.63374 -0.4263,0.74613 -0.21294,2.69939 -1.34969,3.80037 -1.13644,1.10131 -2.30855,1.1721 -2.45068,1.88257 -0.14224,0.71035 -0.10647,2.20228 -0.56822,3.62277 -0.46165,1.42082 -1.13665,1.66953 -1.10098,3.01922 0.0353,1.34969 -0.31983,3.30295 -0.31983,3.94229 0,0.63955 0.85947,1.34853 1.01906,2.43025 0.1596,1.08183 -0.88317,1.9249 -1.16755,2.94841 -0.28437,1.02362 -0.53488,2.63769 -0.53488,3.38254 0,0.74486 0.018,1.3299 0.018,1.3299 0,0 0.91684,0.26374 1.28133,0.83312 0.36417,0.5697 0.48863,0.98816 0.48863,1.70042 0,0.71184 -0.39984,1.05029 -0.85312,1.38832 -0.45339,0.33846 -1.27148,0.53859 -1.827,0.38281 -0.55563,-0.15569 -1.1466,-0.4806 -1.42653,-0.86784 -0.28024,-0.38735 -0.37349,-1.30831 -0.26225,-1.74001 0.11101,-0.43201 0.79597,-1.30862 0.86709,-1.86933 0.071,-0.56102 0.24892,-1.81588 0.2757,-2.6526 0.0263,-0.83704 -0.0891,-1.62899 -0.31115,-1.88733 -0.22225,-0.25791 -1.07009,-0.87355 -0.85736,-2.2389 0.21262,-1.36557 0.72718,-1.24132 0.90445,-2.32315 0.17727,-1.08183 0.37232,-2.28748 -0.0888,-2.6778 -0.46112,-0.38999 -1.43637,-1.06383 -1.87981,-1.63141 -0.44313,-0.56727 -0.58495,-0.44345 -1.09919,-0.0177 -0.51446,0.42566 -0.0888,1.06405 -0.56759,1.34758 -0.47879,0.28385 -0.85111,0.12425 -1.38334,0.49678 -0.53192,0.37232 -0.88646,0.67384 -0.99293,1.73768 -0.10658,1.06404 0.30142,1.36557 -0.62071,2.1989 -0.92224,0.83343 -1.96829,1.04648 -2.53598,2.1282 -0.56727,1.08151 -0.77068,2.45618 -0.73522,4.3743 0.0353,1.91791 -0.24003,3.7119 -0.27538,5.25484 -0.0355,1.54294 -0.42577,2.50052 -0.42577,4.53961 0,2.03941 0.0262,8.5326 0.0262,11.19664 0,2.66361 -0.13229,6.51891 -0.11462,7.29921 0.0177,0.78032 0.0177,2.37639 0.0708,3.01477 0.0533,0.63839 0.24839,0.99293 0.24839,2.03941 0,1.04606 -0.21421,2.52508 -0.09,3.28168 0.12446,0.75661 1.40219,1.66593 1.57945,2.48158 0.17728,0.81566 0.10647,1.61375 -0.40767,2.14556 -0.51456,0.53223 -1.50749,1.08183 -1.68486,1.89748 -0.17727,0.81577 0.15959,3.33397 -0.53181,3.61771 -0.69184,0.28384 -1.40102,0.0532 -1.47214,-0.81566 -0.0708,-0.86911 0.26606,-2.00395 -0.0532,-3.08547 -0.3192,-1.08183 -1.36525,-2.64244 -1.04606,-3.58234 0.31919,-0.93991 1.54263,-1.59597 1.63142,-2.32283 0.0885,-0.72729 -0.39032,-1.5076 -0.3192,-2.07487 0.0708,-0.56758 0.37794,-9.20792 0.34259,-12.7599 -0.0355,-3.55166 -0.28417,-15.73434 -0.53287,-17.75872 -0.24871,-2.02481 -1.13633,-4.86601 -2.02438,-5.64759 -0.88795,-0.78115 -1.24322,-0.78115 -2.37987,0.17759 -1.13644,0.95917 -11.89768,4.72472 -12.83727,5.32744 -0.9399,0.60303 -1.61406,1.22375 -1.89759,1.66708 -0.28374,0.44344 -0.72718,0.90456 -1.29445,1.04617 -0.56758,0.14182 -0.83365,-0.37232 -0.76263,-0.69152 0.0708,-0.31919 -0.21294,-0.83344 -0.69173,-1.0995 -0.47879,-0.26586 -1.24111,-0.24808 -1.08151,0.33687 0.15959,0.58526 0.51414,1.11718 0.14192,1.56062 -0.37264,0.44333 -1.53786,1.69143 -1.21804,2.4729 0.31983,0.78147 0.49742,2.23763 0.0711,3.16113 -0.42629,0.9234 -0.78157,0.63923 -0.71045,1.45616 0.0711,0.81693 0.53287,3.09002 0.24871,4.191 -0.28406,1.10131 -0.4263,2.55746 -0.46165,4.04908 -0.0357,1.49193 0.2613,2.68679 0.24352,3.55557 -0.0177,0.86911 0.17738,1.59608 -0.0177,2.5182 -0.19495,0.92223 -0.19495,2.50053 0.37232,3.51124 0.56758,1.01102 1.12564,2.13687 1.21443,2.78669 0.089,0.64982 0.08,2.4837 -0.36428,3.06208 -0.44429,0.5787 -1.79546,0.61415 -2.59524,0.40058 -0.79978,-0.21368 -1.89336,-0.90784 -2.2044,-1.44188 -0.31084,-0.53424 0.0533,-2.31446 0.43561,-3.14219 0.38216,-0.82793 0.54239,-1.56654 0.66654,-2.11857 0.12456,-0.55203 0.54208,-4.61846 0.50673,-6.2322 -0.0356,-1.61375 0.14403,-3.39662 -0.1758,-7.83633 -0.3195,-4.44003 -0.88773,-5.78971 -0.71014,-6.57087 0.17738,-0.78148 -0.10678,-0.92339 -0.24871,-2.06015 -0.14213,-1.13665 0.63935,-3.16103 -0.42629,-3.08991 -1.06553,0.071 -1.45616,0.60388 -3.40974,1.02986 -1.95336,0.4263 -1.45627,2.0247 -2.27309,1.38536 -0.81692,-0.63955 -1.20756,-0.675 -2.0955,-0.24871 -0.88804,0.4263 -1.84679,1.13644 -2.8413,1.38515 -0.99452,0.24871 -1.74065,0.31983 -2.13127,0.67501 -0.39053,0.35517 -2.06005,0.53276 -2.59282,0.99451 -0.53286,0.46164 -1.38514,1.6692 -2.20207,0.67469 -0.81682,-0.99452 -1.34969,-0.56822 -1.34969,-0.31952 0,0.2484 -0.17759,0.6747 -0.63924,0.14193 -0.46174,-0.53287 -0.0357,-1.17211 -0.81692,-0.21305 -0.78147,0.95885 -0.31983,2.30855 -1.49194,3.33873 -1.1721,1.02986 -1.81133,1.31403 -2.16662,2.06004 -0.35517,0.74581 -1.34968,1.06532 -1.42049,1.70466 -0.0711,0.63934 -0.39084,0.8526 -1.06553,1.03019 -0.67501,0.17758 -1.24322,0.14191 -1.95368,1.20755 -0.71036,1.06553 -1.21137,1.95771 -2.41978,4.30371 -1.2084,2.34569 -2.55926,6.39784 -2.55926,7.10851 0,0.71099 -0.45899,6.88234 -0.45899,8.62023 0,1.73789 0.0885,9.36328 0.10614,10.79965 0.0177,1.43648 -0.56398,4.22402 -0.35094,5.11207 0.21326,0.88795 1.45616,2.66372 0.85259,3.62278 -0.60388,0.95906 -1.34969,1.20746 -1.77598,0.67501 -0.4263,-0.53277 -0.85238,-1.52728 -0.49711,-2.87698 0.35487,-1.34969 0.60358,-1.42081 0.53246,-2.80595 -0.0708,-1.38536 -0.0353,-2.55747 0.0356,-3.76503 0.0711,-1.20744 -0.071,-1.27856 -0.14213,-2.62826 -0.0711,-1.34969 -0.17759,-7.63651 -0.24839,-8.87942 -0.0711,-1.24322 -0.0376,-2.32166 -0.39211,-2.03792 -0.35465,0.28384 -0.78032,1.6492 -1.09951,1.40102 -0.31919,-0.24839 -0.54991,-1.29444 -0.97536,-0.76253 -0.42566,0.53181 0.0531,1.11718 -0.44333,1.84404 -0.49647,0.72718 -0.5496,0.56758 -0.92223,0.69183 -0.37232,0.12415 -0.69152,-0.0177 -0.51414,0.31919 0.17727,0.33688 0.97525,0.56727 0.40798,0.81567 -0.56758,0.24817 -1.95093,0.33697 -1.87981,0.54958 0.0708,0.21305 0.44334,0.58537 -0.19504,0.62072 -0.63839,0.0355 -0.95758,0.0178 -1.29477,0.46111 -0.33687,0.44344 -0.62039,1.22376 -0.81566,0.79799 -0.19505,-0.42567 -0.21273,-1.86204 -0.17738,-2.71315 0.0355,-0.85111 -0.44333,-1.41869 -0.46111,-2.00373 -0.0177,-0.58526 0.35497,-0.69184 0.46111,-1.3479 0.10658,-0.65606 0.70951,-5.3376 0.78032,-6.18903 0.0711,-0.85111 0.16858,-4.48765 0.13324,-7.89717 -0.0357,-3.40974 0.95874,-4.26244 0.78116,-5.2923 -0.17759,-1.02987 -0.71004,-1.45617 -0.46165,-2.16662 0.24871,-0.71036 0.50483,-1.5438 0.52261,-2.07572 0.0177,-0.5318 -0.60304,1.0287 -1.08183,1.15264 -0.47879,0.12425 -0.4608,-0.5496 -0.53192,-1.18798 -0.0708,-0.63839 -0.39,-0.53192 -0.39,-1.0995 0,-0.56759 -0.0888,-0.2484 -0.40798,-0.7092 -0.3192,-0.46111 -0.0708,-0.9399 -0.60304,-1.33021 -0.53192,-0.39 -0.92192,0 -1.3299,-0.5496 -0.408,-0.54991 -0.1596,-0.9399 -0.58526,-1.0287 -0.42545,-0.0885 -1.70223,-1.3299 -2.09254,-1.98595 -0.39,-0.65617 -0.51414,-1.4895 -0.90414,-1.22376 -0.39031,0.26607 -0.81607,0.67385 -1.29486,0.21305 -0.47879,-0.46112 -1.03284,-1.68275 -2.27606,-2.18017 -1.24322,-0.4971 -1.48325,-0.42683 -1.5186,-0.79915 -0.0356,-0.37232 -0.46111,-1.04637 -1.17062,-1.61375 -0.70919,-0.56758 -2.979,-2.21667 -3.49346,-1.9686 -0.51424,0.24839 0.0888,0.49688 -0.51424,0.76264 -0.60303,0.26606 -1.48949,0.79798 -1.48949,1.68475 0,0.88657 0.17726,2.69558 0.0355,4.34467 -0.14192,1.6491 -0.37359,3.0642 -0.0891,3.49134 0.28438,0.42757 1.45468,0.69363 1.88002,1.97041 0.42577,1.27687 -0.0885,3.35163 -0.7803,4.00769 -0.69142,0.65617 -1.75557,1.04648 -2.48243,0.97536 -0.72718,-0.0708 -1.84446,-0.92192 -2.30558,-1.43648 -0.4608,-0.51414 -0.851,-2.71314 -0.19495,-3.90112 0.65607,-1.18798 1.91516,-1.11728 2.09254,-3.95467 0.17727,-2.83739 -0.0178,-3.35153 -0.0886,-4.04305 -0.071,-0.69151 -0.95758,-2.00406 -1.29445,-2.28748 -0.33686,-0.28384 -0.62071,-0.35496 -0.63839,-1.15295 -0.0177,-0.79798 -0.92223,-1.63141 -1.06415,-2.09242 -0.14181,-0.46112 -0.69151,-0.74465 -0.99292,-1.31224 -0.30153,-0.56757 -0.3192,-1.40102 -1.45415,-2.14566 -1.13486,-0.74485 -2.09254,-0.46101 -2.32316,-1.0995 -0.23039,-0.63838 -0.46111,-1.47204 -0.83343,-1.89749 -0.37232,-0.42566 -0.60304,-0.69172 -0.83344,-0.47879 -0.23072,0.21273 -0.39031,0.1596 -0.69173,-0.58526 -0.30151,-0.74495 -1.29455,-1.54294 -2.74859,-2.76627 -1.45415,-1.22374 -3.05012,-1.89759 -3.44012,-2.32325 -0.39031,-0.42534 -0.91503,-0.62939 -1.41213,-1.51744 -0.49741,-0.88794 -1.13665,-0.56811 -1.98903,-1.31392 -0.85259,-0.74581 -1.1013,-1.70497 -2.23764,-2.62837 -1.13675,-0.92371 -1.38514,-0.56843 -2.62836,-1.63374 -1.24312,-1.06564 -2.62827,-2.5218 -3.51632,-1.98904 -0.88794,0.53256 -0.88794,1.45627 -0.88794,2.27309 0,0.81693 0.17759,1.31403 -0.21304,2.66372 -0.39085,1.34969 0.31951,4.40436 -0.21326,5.43422 -0.53276,1.03019 -0.49709,3.33872 -0.46174,4.36891 0.0358,1.02986 0.20976,1.88214 0.42333,2.34505 0.21336,0.46292 0.71967,2.12736 0.23971,2.84851 -0.47974,0.72093 -0.85323,0.76527 -1.02214,1.38842 -0.16859,0.62305 -0.30384,1.66349 -0.17971,2.26653 0.12425,0.60293 0.51425,0.99293 0.12425,1.47172 -0.38999,0.4789 -0.51424,0.54991 -0.49646,1.34789 0.0177,0.79809 0.26607,4.4866 0.28374,5.37306 0.0177,0.88677 -0.10647,1.36556 0.15959,1.9686 0.26586,0.60303 1.34758,1.36525 1.32991,2.21668 -0.0177,0.85111 -0.30152,1.54263 -0.81566,1.93294 -0.51425,0.38999 -1.38335,0.60293 -1.80869,0.62071 -0.42577,0.0177 -1.43648,-0.62071 -1.77366,-1.40102 -0.33687,-0.78031 -0.1596,-2.21668 0.21304,-2.60668 0.37233,-0.39031 0.69152,-0.018 0.97525,-0.8691 0.28385,-0.85111 0.47879,-0.76264 0.62072,-1.52495 0.14192,-0.76263 -0.1596,-5.60398 -0.23072,-6.43742 -0.0708,-0.83333 -0.19494,-1.47172 -0.14181,-2.02141 0.0533,-0.54981 -0.0816,-2.27511 -0.41042,-2.85391 -0.32883,-0.57838 -1.11993,-1.71778 -0.73777,-2.68795 0.38227,-0.97049 1.07559,-1.45108 1.19972,-2.13625 0.12446,-0.68559 0.0945,-4.29609 -0.0478,-5.61033 -0.14214,-1.31402 0.94382,-3.68194 -0.0512,-7.52041 -0.99516,-3.83879 -1.27953,-4.97607 -3.1278,-8.03285 -1.84838,-3.057 -1.89272,-3.9116 -2.64816,-4.95321 -0.75534,-1.0413 -1.10184,-1.28164 -1.27075,-1.86934 -0.16891,-0.58737 0.062,-0.60515 -0.68463,-1.20152 -0.74644,-0.59638 -1.67312,-0.90626 -2.27605,-1.98808 -0.60272,-1.08183 -1.04617,-1.54294 -1.8796,-2.39395 -0.83365,-0.85112 -1.13517,-1.2591 -1.84436,-2.25214 -0.70919,-0.99303 -1.36556,-1.22374 -1.66677,-2.23445 -0.30152,-1.01071 -0.67415,-1.75556 -1.27677,-2.41163 -0.60304,-0.65617 -1.79133,-1.64909 -2.23446,-2.87284 -0.44333,-1.22365 -0.95758,-3.56426 -1.61396,-3.54659 -0.65617,0.0177 -0.62039,0.3192 -0.56737,0.78032 0.0531,0.4608 0.0531,0.95758 -0.46101,0.4608 -0.51425,-0.49647 -0.33697,-0.63839 -0.74496,-1.8087 -0.40767,-1.1703 -1.31223,-2.76627 -1.4895,-4.04315 -0.17727,-1.27677 -0.42566,-1.80901 -1.18798,-3.03234 -0.76263,-1.22374 -2.03909,-1.19549 -2.92713,-3.18452 -0.88795,-1.98903 0.67468,-2.59292 0,-3.6939 -0.67501,-1.10099 -0.31973,-1.56273 -0.63924,-2.87697 -0.31983,-1.31435 -0.85259,-1.63386 -0.74612,-2.84131 0.10678,-1.20787 -0.88773,-1.03018 -0.95885,-1.95357 -0.071,-0.92351 -1.3497,-1.88257 -1.42082,-2.52191 -0.071,-0.63923 0.81693,-1.45616 -0.0354,-3.37407 -0.85259,-1.91812 -1.34969,-4.08474 -1.27889,-6.42864 0.0711,-2.34421 -0.11546,-6.35729 -0.47042,-7.51024 -0.35455,-1.15264 -0.78,-0.88646 -0.30121,-1.82637 0.47879,-0.9399 0.4608,-0.58536 0.53192,-1.31223 0.0708,-0.72718 0.79799,-1.34789 0.56727,-1.96861 -0.2304,-0.6207 -0.2304,-1.15262 -0.19495,-2.09253 0.0354,-0.9399 0.25824,-4.82515 0.43593,-5.96159 0.17759,-1.13665 0.39052,-2.62827 0.46164,-3.48086 0.0711,-0.85227 0.71047,-0.92339 0.85228,-2.80585 0.14224,-1.88257 0.17759,-2.30854 0.67501,-3.33872 0.49709,-1.02997 1.1721,-3.94229 1.77577,-5.57647 0.60389,-1.63375 1.59841,-5.00782 3.12568,-7.84913 1.52729,-2.84162 4.12433,-7.85579 5.26172,-10.48596 1.1376,-2.63038 1.98384,-4.28964 2.62319,-5.17769 0.63923,-0.88794 0.60388,-0.78115 1.10098,-1.95326 0.49741,-1.1721 0.88794,-1.52727 1.38535,-1.31434 0.49711,0.21304 0.85228,-0.35517 1.66921,-0.56822 0.81693,-0.21325 0.81693,-1.24312 0.74612,-1.95357 -0.0711,-0.71036 0.71014,-0.31952 1.02987,-1.66921 0.31951,-1.34969 1.55585,-3.4236 2.42496,-3.51239 0.86878,-0.0885 1.40102,0.35496 2.32315,-0.72687 0.92191,-1.08183 -0.018,-1.73789 0.72696,-2.53587 0.74486,-0.79809 2.05709,-0.99303 2.23435,-1.8088 0.17728,-0.81566 2.87486,-3.3147 3.76291,-3.74099 0.88805,-0.42599 0.56822,-0.31941 1.27857,-1.52729 0.71046,-1.20745 0.9234,-1.91791 1.74032,-2.23742 0.81694,-0.31972 1.42082,-0.42629 1.20777,-1.49182 -0.21325,-1.06564 -0.81682,-0.67469 -2.45067,-2.73485 -1.63407,-2.06004 -1.46008,-1.83355 -1.83271,-2.54306 -0.37233,-0.70919 -0.95758,-1.01071 -0.69152,-1.87981 0.26617,-0.86879 0.81576,-1.24111 0.33697,-1.98597 -0.47879,-0.74495 -0.39,-1.91526 -1.40102,-3.26284 -1.01071,-1.34789 -1.27677,-1.24142 -2.21668,-2.46507 -0.93959,-1.22375 -1.52283,-1.25825 -1.73609,-1.73016 -0.21336,-0.4716 -0.38227,-0.72983 -0.77343,-1.11262 -0.39095,-0.38281 -0.73564,-0.43773 -0.96605,-1.05845 -0.23071,-0.62071 -0.15959,-0.65605 -0.95758,-1.50749 -0.79798,-0.85111 -2.76658,-2.57132 -3.21002,-3.08546 -0.44302,-0.51424 -0.81566,-1.82679 -1.75557,-2.07486 -0.93958,-0.24839 -2.51788,-0.90445 -2.51788,-1.31223 0,-0.40798 0.62072,-0.90445 0.24807,-1.63163 -0.37232,-0.72697 0.10647,-0.88657 0.37265,-0.69151 0.26574,0.19494 0.86878,1.0287 1.06372,0.46111 0.19506,-0.56758 0.46112,-1.01071 1.09951,-0.67384 0.63849,0.33686 0.60304,0.46111 1.38334,0.74464 0.78032,0.28374 0.99304,0.47879 1.5783,0.70951 0.58505,0.2304 0.33686,0.33686 0.92191,0.46111 0.58526,0.12415 0.74485,0.23041 1.04638,0.5496 0.30151,0.31919 0.47879,0.23061 1.1703,0.35454 0.69183,0.12425 3.89159,1.30471 4.6737,1.52707 0.78211,0.22257 1.24408,0.1869 1.88426,0.81893 0.63998,0.63215 1.38631,1.11274 2.14207,1.2372 0.75533,0.12478 1.03081,0.0981 1.2174,0.44524 0.18658,0.34702 0.25802,0.48059 0.5334,0.55203 0.27538,0.071 0.51541,-0.008 0.6132,0.40047 0.0978,0.40915 -0.10647,0.52493 0.16891,0.66749 0.27538,0.14245 1.27106,0.59637 1.58221,0.87239 0.31072,0.27601 0.29304,0.32035 0.6842,0.48958 0.39095,0.16891 0.12457,0.14224 0.79111,0.74761 0.66664,0.60536 0.63098,0.81004 1.14639,1.11273 0.51562,0.30268 0.96901,1.04129 1.22661,1.63766 0.2577,0.59637 0.41762,1.04161 0.7021,1.41542 0.28437,0.3738 0.8001,0.91683 0.84444,0.43624 0.0444,-0.48069 -0.12446,-1.88701 0.19558,-1.73588 0.31982,0.15156 0.89767,0.43625 1.94638,1.46886 1.04881,1.03262 1.14099,1.8633 3.58806,2.44856 2.4474,0.58505 4.36256,0.31919 5.24912,-0.23072 0.88679,-0.54958 2.35861,-0.69151 3.17427,-0.86878 0.81565,-0.17727 0.9399,-0.67405 1.64941,-0.7095 0.70919,-0.0353 1.7199,-0.60294 2.37595,-0.78032 0.65638,-0.17726 2.53598,0.1596 3.15659,-0.053 0.62072,-0.21272 2.50053,-0.90456 3.44043,-1.24142 0.93991,-0.33698 1.59596,-1.20577 2.5002,-1.11718 0.90457,0.0888 2.64245,-0.17738 3.8661,-0.60304 1.22343,-0.42545 3.58203,-1.01071 4.59274,-1.08151 1.01092,-0.0711 1.84436,-0.0888 2.71314,-0.3192 0.8691,-0.23071 1.27688,-0.10646 2.11053,-0.0356 0.83344,0.071 1.15263,-0.0355 2.00375,-0.26585 0.85132,-0.23072 1.45404,-0.2484 2.07475,-0.23072 0.62071,0.0178 2.92555,-0.74518 3.77793,-0.4608 0.85259,0.28416 2.16662,0.71014 2.98344,0.21304 0.81693,-0.49742 1.31435,-0.49742 2.59292,-0.46175 1.27857,0.0355 9.24814,-0.60261 9.93965,-0.0885 0.69142,0.51456 0.74486,1.11717 1.79091,0.83375 1.04648,-0.28384 1.40103,-1.04648 2.02174,-0.81608 0.62071,0.23071 0.76264,0.79809 1.4895,0.35496 0.72718,-0.44344 1.92363,-1.08214 2.7324,-0.87757 0.80878,0.205 1.68868,1.17517 2.48878,1.38875 0.79978,0.21357 2.90068,0.2868 4.35483,0.41074 1.45415,0.12414 3.99002,0.65638 6.31317,1.25909 2.32293,0.60294 3.45482,0.46652 4.03267,0.82254 0.57774,0.35613 0.86212,0.57838 1.4043,0.74761 0.54208,0.16923 0.56875,-0.008 1.04871,0.23167 0.48006,0.24024 0.95102,0.68517 1.3953,0.64072 0.44461,-0.0444 0.71109,-0.54293 1.30651,-0.27602 0.59553,0.26701 0.6222,0.51636 1.1556,0.63214 0.53319,0.11547 1.50188,0.14224 2.15074,0.45392 0.64886,0.31136 1.4133,0.93451 2.65504,0.56875 z m 7.28122,26.35441 c 0.88773,0.81692 2.0955,1.34968 2.62837,2.06015 0.53277,0.71035 1.10098,1.06563 1.34969,0.95906 0.2484,-0.10679 0.95875,-1.1013 1.38505,-0.28438 0.42629,0.81693 0.85227,2.37988 1.27856,2.66404 0.4263,0.28406 0.28417,0.35517 1.24323,0.46165 0.95885,0.10646 1.24322,0.4263 0.88805,0.95906 -0.35518,0.53256 0.0708,1.02996 0.60357,1.02996 0.53276,0 0.81692,-0.14223 1.56305,0 0.74581,0.14214 0.95874,0.24872 0.88762,0.63925 -0.0708,0.39062 -0.21293,0.21303 0.67501,1.10109 0.88804,0.88794 0.54091,0.83904 2.24673,4.74895 1.70614,3.9099 1.55374,5.76453 1.66021,7.36261 0.10647,1.5984 0.19166,3.02514 0.19166,4.10696 0,1.08184 0.42577,8.45884 0.14193,9.94833 -0.28353,1.48982 -2.00608,3.4125 -2.0592,4.04464 -0.0534,0.63204 0.83577,2.18006 1.29688,2.81844 0.46079,0.6384 -0.12414,1.36536 0.81576,1.18798 0.9398,-0.17726 2.25203,-0.51413 2.67748,-2.76627 0.42566,-2.25213 0.0533,-2.78426 -0.39,-4.14961 -0.44344,-1.36557 -0.65617,-1.96861 -0.72718,-2.89073 -0.0708,-0.92192 -0.28353,-9.25682 0.018,-10.83479 0.3012,-1.5784 0.6914,-3.1567 1.20565,-3.05044 0.51424,0.10647 2.12789,1.61396 2.28748,2.30547 0.1596,0.69152 -0.12721,0.75216 0.26405,1.46431 0.39085,0.71216 1.77536,1.65661 2.30759,2.75611 0.53192,1.09951 1.2045,1.77271 1.4532,3.08674 0.24871,1.31423 0.56822,1.82541 0.97621,2.44613 0.40767,0.6207 0,1.06415 0.56727,2.0394 0.56758,0.97536 3.32253,6.77376 4.06833,9.04685 0.74603,2.27308 1.27858,2.80585 1.74054,3.72924 0.46175,0.9234 -0.53277,1.84711 -0.21325,2.84163 0.31983,0.99452 1.66951,2.66372 1.70486,3.7647 0.0355,1.10099 -0.17759,4.04908 -1.02986,5.15006 -0.85259,1.10099 -0.675,2.13127 0.17759,2.80596 0.85227,0.67501 1.63375,1.63375 1.63375,1.98893 0,0.35528 0.17769,5.75404 -0.4263,7.74308 -0.60389,1.98892 -1.69703,3.3438 -1.09432,3.99987 0.60294,0.65605 1.38324,0.90445 0.81598,1.57829 -0.56758,0.67384 -1.08183,0.17727 -1.04637,1.04637 0.0353,0.86879 0.92212,3.51123 0.49646,4.13195 -0.42566,0.62039 -0.83344,0.53192 -0.54959,1.73756 0.28352,1.20598 -0.19527,2.96165 -0.56759,3.74195 -0.37232,0.78032 -0.0531,1.38325 -0.33697,1.95061 -0.28374,0.56759 -0.70919,0.78021 -0.63839,1.52517 0.0708,0.74454 -1.27021,4.2273 -2.79749,6.85556 -1.52728,2.62838 -5.32765,8.24008 -6.71312,11.3301 -1.38503,3.09033 -10.54131,12.5694 -13.2426,15.3417 -2.7015,2.77263 -7.60614,7.61376 -8.65251,8.64246 -1.04616,1.02838 -4.03299,2.58328 -4.99173,3.29364 -0.95906,0.71046 -2.13117,1.84711 -3.23226,2.41533 -1.10098,0.56822 -3.9425,1.98903 -5.00782,2.52179 -1.06563,0.53277 -11.29474,4.191 -12.78667,4.36859 -1.49152,0.17759 -7.6362,2.37987 -8.59526,1.56305 -0.95906,-0.81693 -2.80585,-2.02469 -4.01341,-1.91823 -1.20777,0.10678 -1.13665,2.09582 -2.16662,1.74064 -1.03018,-0.35528 -1.45648,-0.92371 -1.52728,-1.95368 -0.0711,-1.02986 -1.34969,-0.71035 -2.0247,-1.34969 -0.67468,-0.63923 -1.74032,-1.56263 -1.42049,-2.41522 0.31951,-0.85238 0.56822,-0.46175 0.17758,-1.81144 -0.39083,-1.3497 0.2484,-1.45617 0.53256,-3.30306 0.28438,-1.84701 0.21326,-2.16652 0.21326,-3.26751 0,-1.1013 -0.67501,-1.8471 -0.24871,-2.73514 0.42629,-0.88774 1.6692,-0.49711 1.1721,-1.31403 -0.49742,-0.81682 -1.42081,-1.49184 -0.56822,-2.30876 0.85238,-0.81693 1.45627,-2.62826 1.77578,-4.58163 0.31972,-1.95358 0.88794,-3.44551 0.99441,-5.54101 0.10689,-2.0955 0.0357,-2.5926 0.74612,-3.97796 0.71014,-1.38514 2.0955,-3.94229 1.95337,-4.9368 -0.14193,-0.99452 -0.28417,-0.60388 0.10647,-1.70487 0.39084,-1.10109 0.92371,-1.70498 0.95906,-3.09034 0.0355,-1.38514 -0.88794,-1.56273 0.14224,-2.91243 1.02986,-1.34968 2.02438,-5.43422 2.20197,-6.92573 0.17759,-1.49193 1.1721,-2.48645 1.20756,-3.9426 0.0356,-1.45627 -0.28417,-2.23774 0.56842,-2.16662 0.85228,0.0711 0.31952,-0.78148 0.2484,-1.56274 -0.0708,-0.78147 -0.0708,-0.53276 0.53286,-1.10099 0.60389,-0.56853 1.88247,-2.06004 1.84712,-3.16113 -0.0358,-1.1013 -1.27868,-1.74053 -0.8526,-2.30876 0.4263,-0.56821 1.13665,-0.85227 1.13665,-2.3442 0,-1.49161 -0.28405,-1.95358 0.24871,-3.94261 0.53277,-1.98903 1.45616,-3.05424 2.30854,-5.71828 0.85259,-2.66372 0.21326,-4.36859 1.3497,-5.43422 1.13665,-1.06564 0.60388,-1.49193 1.10098,-3.0189 0.49741,-1.52728 0.85259,-1.74054 1.70487,-3.87149 0.85259,-2.13117 2.59016,-6.33211 2.92714,-8.85031 0.33686,-2.5182 0.0921,-2.69304 1.15739,-3.86514 1.06553,-1.1721 0.85259,-2.48644 1.38536,-3.76502 0.53276,-1.27868 0.71045,-0.95885 1.56273,-2.41501 0.85228,-1.45648 -0.67469,-2.13117 0.9234,-3.26792 1.5984,-1.13644 1.88246,-1.70455 2.73473,-4.29747 0.8527,-2.59291 -0.0674,-2.51671 0.50017,-4.02389 0.56726,-1.50748 3.05011,-3.44042 3.31587,-4.11427 0.26606,-0.67373 0.9399,-1.79101 0.72717,-2.83739 -0.21261,-1.04638 -0.37221,-0.90445 0.14193,-1.95062 0.51424,-1.04637 3.342,-3.6251 3.69718,-6.43106 0.35528,-2.80585 -0.10647,-2.16662 0.46175,-2.09582 0.56843,0.0711 2.09582,-1.10098 1.66952,-2.45067 -0.4263,-1.3497 -1.27868,-4.33324 -0.28417,-3.83583 0.99452,0.49711 0.85228,1.56274 1.27858,1.20756 0.4263,-0.35528 0.80793,-2.00914 1.24322,-1.45626 z m -73.69703,-14.03848 c 0.60261,0.67416 0.51413,-0.0531 0.86879,1.24142 0.35454,1.29446 0.60292,5.97631 0.24838,6.88044 -0.35485,0.90456 -1.17062,1.33022 -1.24142,2.03941 -0.0711,0.70951 -0.3303,1.38811 0.15843,1.95781 0.48895,0.5697 1.18226,1.15707 1.55543,1.54898 0.37328,0.39179 0.13029,1.15708 0.78666,1.21041 0.65606,0.0531 0.97525,-0.70951 1.17031,-1.1883 0.19494,-0.47879 1.06405,-1.59596 1.02838,-2.3406 -0.0353,-0.74486 0.0276,-1.72286 -0.43444,-2.59493 -0.46228,-0.87239 -1.28546,-1.23539 -1.30345,-2.74288 -0.0177,-1.50728 0.0888,-5.24913 1.15284,-6.82741 1.06384,-1.5783 1.29456,-1.6491 1.50728,-2.07487 0.21262,-0.42534 0.28374,-0.46111 0.88678,-0.31919 0.60272,0.14192 1.4007,-1.80869 2.05708,-1.43637 0.65606,0.37264 1.40071,1.0995 1.9683,0.88678 0.56736,-0.21273 0.84719,-1.31064 1.98363,-1.16882 1.13665,0.14224 3.19648,-0.95875 5.32764,-0.74582 2.13128,0.21305 2.9481,-0.46164 4.04919,-0.42629 1.10098,0.0358 3.9425,-0.28406 5.25653,-0.28406 1.31434,0 1.06563,-0.24871 2.27309,0 1.20787,0.24871 1.59839,0.24871 2.37997,0.10647 0.78116,-0.14182 2.13085,-0.24839 2.94778,0.28417 0.81693,0.53276 1.42081,1.1721 2.94809,1.38535 1.52728,0.21304 2.45068,0.81693 2.98344,0.85228 0.53288,0.0357 0.46176,-1.66921 1.06564,-1.24312 0.60356,0.42629 3.62278,1.03018 5.57615,1.77599 1.95357,0.7458 3.23215,1.49183 5.32765,2.37956 2.0955,0.88804 3.16113,1.24322 3.5163,1.66951 0.35518,0.4263 0.99452,0.63924 1.27858,0.95906 0.28448,0.31952 0.88804,0.10658 0.88804,1.63386 0,1.52696 -0.0636,2.57514 -0.70198,3.72777 -0.63839,1.15263 -2.14567,1.79101 -1.13496,2.44739 1.01071,0.65607 1.73788,0.40767 1.15263,0.93959 -0.58526,0.53224 -2.26981,1.13517 -2.16334,1.77367 0.10626,0.63838 -0.39031,1.41837 0.21273,1.59596 0.60303,0.17727 0.99303,-1.06416 1.24142,-0.7095 0.24807,0.35464 -0.14193,1.24142 -0.76263,1.96828 -0.62072,0.72718 -1.61365,0.58526 -1.04638,1.48981 0.56759,0.90424 -0.0651,1.50686 -0.77555,2.78554 -0.71035,1.27857 -0.48355,1.55903 -0.96234,1.84288 -0.47879,0.28373 -0.83343,0.97525 -0.88657,1.89748 -0.053,0.92192 -0.12414,1.27677 0.30153,1.63142 0.42545,0.35455 0.0886,1.4895 -0.42567,1.52485 -0.51424,0.0358 -0.88646,0.10657 -0.86879,0.63839 0.0177,0.53223 -1.74,3.83074 -1.13611,4.61189 0.60388,0.78158 0.56821,0.21336 -0.46175,2.13127 -1.02987,1.91791 -1.10099,3.0189 -1.06554,3.90684 0.0356,0.88805 -0.56821,1.84711 -0.88804,2.0955 -0.31951,0.24871 0.31983,0.78158 -0.0353,1.52739 -0.35517,0.7457 -0.95917,1.24312 -1.49161,2.02469 -0.53277,0.78116 0.35485,1.24281 -0.24871,2.62827 -0.60388,1.38504 -1.26545,5.65351 -2.82935,6.64856 -1.5639,0.99547 -2.98556,5.04719 -2.77251,5.68716 0.21325,0.63955 -1.20841,3.05668 -1.91919,4.54946 -0.71098,1.49277 -4.26539,9.88112 -4.19427,12.22713 0.0711,2.34569 -2.34569,8.67241 -3.34106,11.87154 -0.99515,3.19892 -0.0387,4.40796 -0.71373,5.04719 -0.67469,0.63934 -2.13085,0.99451 -1.63376,1.34969 0.49742,0.35529 0.95907,0.63934 0.53277,1.31435 -0.4263,0.67468 -1.20745,1.20745 -1.20745,2.45067 0,1.24322 -0.24872,2.62837 -0.85259,3.55177 -0.60368,0.92339 -1.70499,1.38504 -1.42061,1.66941 0.28416,0.28416 0.60368,0.9234 0.0708,1.45627 -0.53276,0.53277 -1.27857,0.53277 -1.2428,1.4205 0.0354,0.88794 0.78264,1.79037 0.8183,2.64149 0.0355,0.85111 -0.24838,2.51819 -1.08172,2.94354 -0.83344,0.42577 -3.11107,3.25892 -3.64384,6.02943 -0.53276,2.7705 -1.27857,4.47516 -1.63375,6.25115 -0.35528,1.77599 0.675,1.24312 0.74581,2.62826 0.071,1.38536 0.14213,2.73485 -0.60367,2.84163 -0.74581,0.10647 -0.74581,0.39052 -0.81682,0.99452 -0.0711,0.60356 0.24298,4.46965 -0.53913,6.46017 -0.78178,1.99051 -2.01844,3.41365 -2.69313,2.41913 -0.67469,-0.99441 -0.10647,-1.59839 -0.67469,-2.41521 -0.56853,-0.81694 -0.71046,-1.52729 -0.28437,-2.37967 0.42629,-0.85259 0.675,-0.63923 -0.0708,-1.74021 -0.74613,-1.10131 -0.4263,-2.73516 -0.63934,-4.1202 -0.21325,-1.38515 -0.85259,-1.66921 -1.27889,-2.5219 -0.42597,-0.85228 0.56854,-2.0955 -0.31951,-2.87698 -0.88795,-0.78116 -1.52728,-0.71035 -1.34969,-1.88246 0.17759,-1.1721 0.17759,-1.1721 -0.35518,-2.20197 -0.53287,-1.02997 -0.63933,-2.20207 -0.63933,-3.33871 0,-1.13644 -0.4263,-1.31403 -0.63924,-2.84132 -0.21336,-1.52727 -0.21336,-2.23774 -0.88805,-3.58742 -0.67468,-1.3497 -1.02986,-2.91244 -1.38514,-4.75954 -0.35518,-1.84679 0.0355,-2.5218 -0.60389,-3.58701 -0.63923,-1.06563 -0.14213,-1.1013 -0.63923,-2.77051 -0.49742,-1.66951 -0.35529,-0.675 -0.56822,-1.88256 -0.21336,-1.20745 -1.1013,-1.42081 -1.1013,-2.37956 0,-0.95906 -1.20757,-3.40984 -1.56273,-5.89618 -0.35519,-2.48613 -0.35519,-2.87676 -1.31403,-6.00245 -0.95906,-3.12568 -0.78147,-2.98344 -1.31425,-4.75953 -0.53275,-1.77567 -0.99451,-5.50524 -1.81144,-9.34106 -0.81681,-3.83583 -0.17758,-3.65824 -1.49183,-7.10364 -1.31402,-3.44529 -0.71014,-2.77029 -1.02997,-4.4397 -0.3195,-1.66921 -1.38503,-2.87709 -1.9179,-3.83583 -0.53277,-0.95917 -0.0356,-1.03018 -0.31973,-2.87697 -0.28416,-1.84679 -0.44821,-1.90596 -1.13971,-3.96304 -0.69152,-2.05676 -1.06236,-1.86214 -1.38208,-4.34816 -0.31951,-2.48645 -0.78126,-4.79499 -1.70466,-6.4644 -0.92371,-1.66921 -0.39084,-2.0955 -0.81714,-2.80597 -0.42608,-0.71003 -1.30989,-1.29507 -1.50484,-2.48306 -0.19505,-1.18829 -0.40767,-1.70253 -0.72686,-2.53586 -0.3192,-0.83376 0.62039,-0.92224 -0.1777,-2.58932 -0.79798,-1.66688 -2.37596,-2.39406 -2.16323,-3.42244 0.21272,-1.02839 0.33687,-1.18798 -0.21273,-1.77324 -0.54991,-0.58536 -0.74485,-0.23072 -0.60304,-1.20608 0.14193,-0.97525 0.30153,-1.47182 -0.24838,-2.07476 -0.5496,-0.60271 -0.95758,-0.53191 -0.60294,-1.11717 0.35486,-0.58505 0.12415,-1.04616 -0.21273,-2.18101 -0.33686,-1.13496 -0.67383,-2.73093 -0.26606,-3.67083 0.40799,-0.93991 0.49678,-1.73789 0.51446,-2.23435 0.0177,-0.49657 1.80869,-0.95769 2.16333,-1.31255 0.35455,-0.35465 -0.49657,0 -0.72696,-0.63838 -0.23072,-0.63839 0.70918,-0.97536 0.92191,-1.29456 0.21305,-0.31919 0.81597,-0.0353 1.40102,0.44344 0.58526,0.47879 0.65607,-0.37232 0.99304,-0.67384 0.33718,-0.30141 -0.19506,-0.10647 1.15284,-0.39031 1.34758,-0.28343 1.95062,-0.88646 2.73092,-1.22333 0.78031,-0.33687 0.0531,0.17727 1.70222,0.2304 1.64942,0.0533 2.89073,-0.58504 3.31618,-0.88656 0.42567,-0.30142 -0.0177,-0.12415 1.27678,-0.1596 1.29455,-0.0356 1.86214,-0.26607 1.96861,-0.70951 0.10625,-0.44334 -0.2484,-0.97526 0.40767,-0.54959 0.65616,0.42545 0.41402,0.64029 1.04648,1.22343 z m -37.54173,18.38971 c 0.40799,-0.39032 1.2591,-1.11718 1.91516,-0.42566 0.65648,0.69151 0.69184,1.57828 0.97568,1.50717 0.28342,-0.0708 0.47879,-0.54959 0.86879,-0.24807 0.38999,0.30141 0.21261,0.54959 0.65605,0.74485 0.44345,0.19505 0.54991,-0.0711 0.92224,0.56727 0.37232,0.63849 1.54283,3.05011 2.32283,4.9476 0.78031,1.89759 1.75567,4.57538 2.64244,6.18903 0.88678,1.61375 1.20598,1.82636 1.4895,2.23445 0.28384,0.40767 0.10647,0.44334 0.17727,1.20566 0.0711,0.76263 1.01103,2.18133 1.15295,2.94386 0.14192,0.76263 0.24808,1.54294 1.01071,2.41173 0.76253,0.86879 0.54959,0.99304 0.90445,1.87981 0.35465,0.88646 0.92191,1.96829 1.91526,4.22042 0.99293,2.25203 0.7092,3.08578 0.72687,3.65304 0.0177,0.56759 0,0.74497 0.35465,1.09951 0.35485,0.35465 0.9398,0.53192 0.9398,1.66709 0,1.13495 -0.10763,1.53786 -0.50758,1.64465 -0.40016,0.10678 -0.80878,0.0444 -0.5424,0.64981 0.2667,0.60505 0.16352,2.3694 1.59989,2.91899 1.43647,0.54991 1.57829,1.04638 1.22343,1.5075 -0.35464,0.46111 -0.53192,0.79797 -0.93959,0.76231 -0.40798,-0.0355 -0.56758,0.0356 -0.30152,0.42566 0.26586,0.39031 0.5496,0.51424 1.13497,0.69152 0.58493,0.17758 0.6914,0.24838 0.9399,0.60303 0.24807,0.35455 0.38999,1.79092 1.0106,3.28073 0.62071,1.4895 1.06415,2.199 1.24142,3.08557 0.17728,0.88678 0.24808,1.91516 0.67385,2.69547 0.42566,0.78031 0.92223,0.67384 1.11717,2.73092 0.19506,2.05709 -0.46111,1.73789 0.31919,2.80194 0.78031,1.06384 0.26607,1.50728 0.58536,2.64213 0.3192,1.13495 1.08142,1.15263 1.01061,2.26981 -0.0708,1.11717 0.88688,1.52517 0.79809,2.53587 -0.0888,1.01103 -0.19505,1.96861 0.37222,2.97931 0.56769,1.01071 0.42576,1.59597 0.46111,2.19901 0.0355,0.60304 0.23071,0.9399 0.47879,1.38303 0.24839,0.44334 0.0748,1.56083 0.6786,2.55534 0.60389,0.99452 0.35529,2.41533 0.53288,3.51632 0.17758,1.10098 0.42629,1.49161 0.60388,1.91791 0.17759,0.42629 -0.21336,1.20745 0.21294,1.98903 0.42629,0.78147 0.675,1.10098 0.675,1.10098 0,0 -0.14965,2.48634 0.25834,3.21363 0.40767,0.72718 0.72686,0.97525 0.72686,0.97525 0,0 1.18142,6.89282 1.42981,9.55654 0.24871,2.66393 0.99991,3.88525 1.21264,5.23314 0.21272,1.34757 0.0353,2.7486 0.49647,3.70618 0.46111,0.95769 0.28384,2.589 0.46111,4.41579 0.17727,1.82636 0.84899,3.55134 1.41722,4.33281 0.56821,0.78158 -0.0711,1.27868 0.0353,2.13127 0.10689,0.85228 -0.42418,1.74625 0.35613,2.97001 0.78031,1.22332 0.72718,1.79101 0.40799,2.37627 -0.3192,0.58505 -0.14193,1.27677 0.17737,1.77334 0.3192,0.49647 0.9398,1.20566 0.65606,1.79091 -0.28384,0.58537 -0.72718,1.6491 -0.58536,2.55366 0.14192,0.90445 0.30152,0.83343 0.26617,2.03941 -0.0355,1.20565 -0.67384,1.22332 0.0354,2.25202 0.7095,1.02849 1.20607,1.13496 1.29455,1.64921 0.0888,0.51413 -0.14192,2.16354 -0.54959,2.66001 -0.40799,0.49657 -0.7095,0.79798 -0.62071,1.57829 0.0888,0.78031 -0.33687,1.5783 -0.74496,1.59608 -0.40767,0.0177 -2.85507,-0.23072 -3.91891,-1.06416 -1.06404,-0.83333 -1.68475,-1.29445 -2.3586,-1.47182 -0.67373,-0.17728 -2.90428,-0.849 -4.4669,-2.5182 -1.56274,-1.66942 -1.91791,-1.98893 -2.84131,-2.20197 -0.92372,-0.21326 -0.67501,-0.10679 -1.63386,-1.20777 -0.95906,-1.10099 -0.92371,-0.9234 -1.81133,-1.45627 -0.88805,-0.53276 -1.91823,-0.35517 -2.34421,-1.20745 -0.42629,-0.8526 -0.46207,-1.03018 -1.42081,-1.88246 -0.95917,-0.85259 -4.11935,-3.32253 -5.37845,-4.93627 -1.2591,-1.61365 -2.53979,-1.98205 -3.02874,-2.88121 -0.48874,-0.89874 -0.51541,-0.97018 -1.05749,-1.59321 -0.54218,-0.62315 -1.64168,-1.43077 -2.59926,-2.35268 -0.95758,-0.92213 -1.34758,-0.72718 -2.21637,-1.77355 -0.8691,-1.04606 -1.62814,-2.04237 -2.74806,-3.02165 -1.11982,-0.97917 -1.35086,-1.2372 -1.51977,-1.47744 -0.16891,-0.24034 -0.78623,-0.83851 -1.51352,-1.5657 -0.72686,-0.72696 -1.2591,-1.56029 -2.14556,-2.73092 -0.88677,-1.1703 -1.86213,-2.16333 -2.76627,-3.65315 -0.90456,-1.4895 -1.86214,-1.82637 -2.89084,-3.24506 -1.02838,-1.4187 -3.46255,-5.18605 -5.84221,-9.37705 -2.37955,-4.19131 -4.58184,-7.77843 -4.79488,-9.34148 -0.21326,-1.56263 -0.56854,-2.13085 -1.06564,-3.2676 -0.49731,-1.13665 -0.49731,-1.17211 -0.78147,-2.23764 -0.28406,-1.06532 -0.81693,-0.85227 -0.78116,-1.84679 0.0353,-0.99451 0.31951,-0.4263 -0.2487,-1.70497 -0.56823,-1.27858 0.14213,-1.02987 -0.35518,-2.30876 -0.49742,-1.27856 -1.06564,-1.70455 -1.06564,-2.66372 0,-0.95906 -0.4263,-1.45616 -0.71046,-2.3442 -0.28405,-0.88795 0.46175,-6.10913 -0.10646,-7.1391 -0.56823,-1.02986 -0.99452,-0.85227 -0.24871,-2.23763 0.74612,-1.38515 2.07994,-2.73727 2.06227,-3.99637 -0.0178,-1.25879 -0.0355,-1.70223 -0.17738,-1.1703 -0.14182,0.53191 -0.8691,1.40101 -1.40092,1.47182 -0.53192,0.0711 -0.90455,-0.58494 -0.47889,-1.4187 0.42576,-0.83344 0.31919,-1.20565 0.39031,-1.47182 0.0708,-0.26575 0.6204,-0.58494 0.47879,-1.22333 -0.14182,-0.63849 -0.58526,-1.77366 -0.62061,-2.97931 -0.0358,-1.20608 0.2304,-2.25214 0.56727,-3.17437 0.33686,-0.92213 0.57838,-1.11294 0.58705,-1.58453 0.009,-0.47191 0.68464,-0.81005 0.66665,-1.94945 -0.0177,-1.13941 0.72898,-2.91084 1.64433,-4.64672 0.91557,-1.73577 2.1915,-3.32815 2.33331,-4.6227 0.14192,-1.29444 0.88688,-2.48274 1.34768,-3.05012 0.46101,-0.56758 1.3407,-1.84255 1.38504,-2.35881 0.0448,-0.51636 0.12457,-0.78337 0.32914,-1.00594 0.20426,-0.22257 1.08776,-1.42315 1.24735,-2.07963 0.1596,-0.65606 -0.14192,-0.60261 0.85111,-1.3299 0.99336,-0.72686 0.93991,-0.51414 1.45437,-1.45404 0.51424,-0.93991 1.2918,-4.07998 2.46391,-3.90239 1.1721,0.17758 2.37965,-0.88806 2.87707,-1.66921 0.4971,-0.78147 2.00067,-3.25956 2.58562,-3.89795 0.58536,-0.63838 0.74495,-0.7803 0.67383,-1.45404 -0.0708,-0.67416 -0.0531,-0.65648 0.14193,-1.50749 0.19526,-0.85111 1.01102,-2.07486 2.03941,-2.48253 1.0287,-0.40799 1.45531,-0.0106 2.12788,-0.62071"
      style="fill:#ff0000;fill-opacity:1;fill-rule:evenodd;stroke:none"
      id="path2995"
    />
  </g>
</svg>