<svg t="1740110739216" class="icon" viewBox="0 0 1024 1024" version="1.1" xmlns="http://www.w3.org/2000/svg" p-id="9446" width="200" height="200"><path d="M513.21969778 190.67577837c-168.70786845 0-328.75648948 63.275008-452.04426903 177.89625838l-21.63173453 20.01032533 21.09531023 20.545536 68.12831288 67.59431584 19.46783289 19.46661926 20.54674963-18.39012977c94.08542341-86.50752 216.27729541-134.0987923 343.89409185-134.0987923 127.60587378 0 250.34266548 47.5912723 343.89409185 134.0987923l20.545536 18.39012977 19.45691023-19.46661926 68.13802192-67.59431584 21.08802845-20.545536-21.64022993-20.01032533c-122.18216297-114.62125037-282.78662637-177.89625837-450.93865244-177.89625838z m0 0" fill="#8AC78A" p-id="9447"></path><path d="M877.10591052 522.56585955a26.33576297 26.33576297 0 0 1-17.59398874-6.71986725l-20.53461333-18.38891615c-88.93599289-82.24282548-204.70776415-127.38013867-326.30131675-127.38013867-121.09717808 0-236.87865837 45.154304-326.04038637 127.14469452l-20.80768 18.62557392c-10.43964208 9.34494815-26.3576083 8.90197333-36.24504888-1.0036717l-19.46661927-19.46783289-88.97118815-87.89227141a26.3988717 26.3988717 0 0 1-7.97718755-19.24209777 26.43406697 26.43406697 0 0 1 8.4662803-19.02485807l21.64144355-20.00789808c128.21268859-119.22333392 295.12802608-184.90496948 469.94530608-184.90496948 175.243264 0 341.79329897 65.71683082 468.98532504 185.03240059l21.5043034 19.88168059c5.31448415 4.90913185 8.37404445 11.79041185 8.4662803 19.02485808s-2.78892089 14.188544-7.96747852 19.24209777l-21.08924208 20.53461334-87.35099258 86.82549096a26.36246282 26.36246282 0 0 1-18.66319645 7.7211117zM77.86162252 389.08237748l1.179648 1.15052089 70.19997866 69.6562726 1.94666193-1.73791764c98.65959348-90.72731022 227.1356397-140.82715497 361.48808059-140.82715496 134.91313778 0 263.39889303 50.11804918 361.80483793 141.11721245l1.62019555 1.44664651 1.81194904-1.81923081 69.57495941-68.98756267-1.24032948-1.14081185c-117.50968889-110.23883378-271.24986311-170.87905185-433.02790637-170.87905185-161.43701333 0-315.59103525 60.6657043-434.08133689 170.83414755l-1.27673837 1.18692978z" fill="#363634" p-id="9448"></path><path d="M792.96512 528.60245333c-77.06168889-69.44540445-175.91296-107.97511111-279.32216889-107.97511111h-17.74023111v0.50858667c-97.32437333 4.05731555-190.09763555 41.56074667-262.58318222 107.46652444l-20.78947556 18.75171556 19.78026667 19.77912889 64.87836444 64.37888 18.25223112 17.73226667 19.26030222-16.72305778c50.18510222-44.10709333 113.55363555-68.43619555 178.94172444-68.43619556 65.39832889 0 129.26634667 24.33024 179.45258667 68.43619556l19.26144 16.72305778 18.24881777-17.73226667 64.88860445-64.37888 19.76092445-19.77912889-22.29020445-18.75171556z m0 0" fill="#8AC78A" p-id="9449"></path><path d="M302.34548148 684.76988682a26.32726755 26.32726755 0 0 1-18.39862518-7.46018134l-19.45812385-18.92412681-90.56589748-90.02219142a26.35032652 26.35032652 0 0 1-7.72232534-19.32341095 26.36489008 26.36489008 0 0 1 8.70172445-18.91563141l22.17422695-20.0006163c79.71847585-72.48888415 183.03112533-115.4210323 291.35970608-121.14936414a25.20466015 25.20466015 0 0 1 6.39461452-0.81677275h18.92291319c116.10794667 0 228.04950282 43.20157392 315.2572871 121.64816593l23.44004267 19.72390874a26.33212208 26.33212208 0 0 1 9.37043438 19.03942163 26.31998578 26.31998578 0 0 1-7.69562549 19.78580385l-21.07953303 21.09773748-88.95177008 87.85828978c-9.81583645 9.56218785-25.31510045 9.99424-35.68313837 1.00367171l-20.53704059-17.83671467c-48.86801067-42.9467117-110.65510875-66.54209897-174.12065659-66.54209897-63.10267259 0-124.71015348 23.59538725-173.45922845 66.44258134l-20.6644717 17.9362323a26.29935408 26.29935408 0 0 1-17.28451319 6.455296z m211.4069997-143.58816237c76.283904 0 150.45245155 28.25936592 208.82560949 79.56313125l2.12870636 1.84593067 2.08258845-2.02797512 69.70360415-69.16717984-1.78524918-1.50247349c-0.22694875-0.19053985-0.45025659-0.38957511-0.67841897-0.58861037-77.54486518-69.89293037-177.08191289-108.39290311-280.2768403-108.3929031h-13.6727514a24.04928475 24.04928475 0 0 1-4.14818608 0.51579258c-97.92534755 4.08265008-191.47798755 42.37509215-263.4425837 107.80429275l-1.63111822 1.46727822 1.44786014 1.45635555 71.0325286 70.43542282 2.23793303-1.9539437c58.27728118-51.2042477 132.24436622-79.45511822 208.17631763-79.45511822z" fill="#363634" p-id="9450"></path><path d="M513.64295111 844.40746667l19.26940444-18.75968 104.41955556-103.40920889 20.78833778-20.78037333-22.81927111-18.75968c-30.4128-22.80106667-64.37774222-39.53322667-121.65916445-39.53322667-57.28256 0-88.70684445 18.75285333-121.66030222 39.53322667l-22.79992889 18.75968 20.77923556 20.78037333 104.41955555 103.40920889 19.26257778 18.75968z m0 0" fill="#8AC78A" p-id="9451"></path><path d="M513.75248118 892.95469985a26.34061748 26.34061748 0 0 1-18.39862518-7.4795994l-20.545536-20.01153897-133.80023941-132.72132266a26.37945363 26.37945363 0 0 1 1.89204859-39.02790164l24.31992415-19.99940266a25.77263882 25.77263882 0 0 1 2.68940326-1.94787555c34.3614957-21.67542518 73.31536592-46.23200711 143.84181096-46.23200712 72.54592475 0 114.3069203 23.97768059 145.588224 47.43714133 0.31797097 0.24393955 0.62623289 0.48059733 0.93449482 0.73424593l24.33934222 20.00789807a26.345472 26.345472 0 0 1 9.58767408 19.08918045c0.36287525 7.43348148-2.42725925 14.67763675-7.69683912 19.94843022l-22.16573155 22.16573156-132.18853925 130.55863467a26.3005677 26.3005677 0 0 1-18.39741157 7.47838577z m-114.884608-176.95448177l1.60199112 1.6019911 113.28261688 112.14908682 2.1541926-2.09108385 112.74012444-111.6612077-1.41145125-1.1590163c-29.392896-21.95820089-60.02369422-36.55331082-113.48286579-36.55331082-54.44463882 0-83.73801718 17.95443675-114.29721126 37.21352534l-0.58739674 0.50001541z" fill="#363634" p-id="9452"></path></svg>
