<svg
  t="1734529583798"
  class="icon"
  viewBox="0 0 1024 1024"
  version="1.1"
  xmlns="http://www.w3.org/2000/svg"
  p-id="8088"
  width="256"
  height="256"
>
  <path
    d="M117.74976 0.80384H907.0592c64.31232 0 116.9408 52.62336 116.9408 116.9408V907.0592c0 64.31744-52.62848 116.9408-116.9408 116.9408H117.74976c-64.31744 0-116.9408-52.61824-116.9408-116.9408V117.7344C0.80384 53.41696 53.42208 0.80384 117.74976 0.80384z"
    fill="#B74141"
    p-id="8089"
  ></path>
  <path
    d="M520.18176 528.62976c-99.7376 0-199.48544-0.02048-299.21792 0.03072-9.57952 0-18.01216-2.5088-22.10304-11.45344-4.54144-9.91744-4.48-20.5312 0.02048-30.50496 3.4816-7.72096 10.71616-10.8032 19.13344-11.28448 1.31072-0.0768 2.62144-0.03072 3.93216-0.03072 198.89152 0 397.78304 0 596.6848 0.03072 3.328 0 6.74304 0.13824 9.9584 0.90112a20.60288 20.60288 0 0 1 15.81056 19.1488c0.16384 3.82976 0.1536 7.66976 0.0768 11.49952-0.25088 12.30336-8.56064 20.77184-21.16096 21.61152-1.73568 0.11776-3.50208 0.05632-5.23776 0.05632l-297.89696-0.00512zM234.8544 252.65152v6.18496l-0.19456 111.55968c-0.02048 12.52352-12.61568 23.69024-25.45152 22.56896-18.08384-1.57696-30.29504-14.06976-30.336-31.78496-0.14336-52.79744-0.06656-105.6-0.03072-158.40256 0.01024-8.76032 5.10976-13.65504 14.19776-13.65504 53.7344-0.03072 107.46368-0.06656 161.19808 0.01024 15.65184 0.02048 28.416 10.17856 32.16384 25.12384 3.57376 14.21312-3.49184 30.63808-16.25088 37.2992-1.66912 0.8704-3.87584 1.05472-5.84192 1.05472-41.20576 0.05632-82.42688 0.04608-123.63264 0.04608l-5.82144-0.00512zM239.14496 773.34528h5.97504c40.91392 0 81.8176-0.0512 122.73152 0.11776 2.94912 0.01024 6.38976 1.08032 8.73984 2.7904 10.76736 7.80288 15.75936 18.52928 14.00832 31.5392-1.67424 12.45184-8.68352 21.53984-20.82816 26.18368-3.70176 1.41312-7.93088 2.05312-11.92448 2.06336-53.28896 0.128-106.58304 0.09728-159.86688 0.0768-9.70752 0-14.54592-4.61824-14.56128-14.1056-0.04096-51.79904-0.10752-103.59808 0.03072-155.40224 0.05632-17.9456 11.776-30.32064 29.55264-31.97952 13.44512-1.2544 25.93792 9.728 25.9584 22.82496l0.17408 110.27456c0.01024 1.68448 0.01024 3.36384 0.01024 5.61664zM789.73952 241.85856h-6.0928c-40.02304 0-80.05632 0.0512-120.07936-0.128a14.44864 14.44864 0 0 1-8.20736-2.85184c-14.12096-11.01824-18.69312-29.78816-10.8032-43.8272 6.08256-10.84928 16.09728-16.04608 28.35968-16.09728 52.83328-0.23552 105.6768-0.13824 158.5152-0.06144 8.56064 0.01024 13.25568 5.08416 13.27616 14.00832 0.06656 22.41536 0.0256 44.84096 0.0256 67.24608 0 29.0816 0.02048 58.16832-0.01536 87.26528-0.01024 9.2672-1.62816 18.16576-8.21248 25.35936-11.1104 12.14976-32.03072 10.20416-42.60352-3.79392-2.56512-3.39968-3.93216-6.95296-3.93216-11.37152 0.05632-36.75136-0.11776-73.49248-0.22016-110.24384-0.02048-1.65376-0.01024-3.31264-0.01024-5.504zM791.68512 784.01024v-6.2208l0.23552-105.56416c0.03584-13.07648 9.33376-23.36256 22.70208-25.1136 17.55648-2.28864 29.75232 8.23808 31.488 27.19232 0.16384 1.83296 0.17408 3.6864 0.17408 5.52448 0.01024 50.37568 0.01024 100.74624 0 151.12192 0 11.20256-4.29056 15.34976-15.83104 15.34976-51.24096 0-102.49216 0.03072-153.728-0.01024-16.5632-0.01024-28.91776-8.9856-32.73216-23.54688-3.4304-13.08672 4.21888-30.9248 16.32256-37.63712 1.63328-0.90112 3.88096-1.05472 5.8368-1.05472 39.74656-0.0512 79.488-0.04096 119.22944-0.04096h6.30272zM352.88064 697.21088H299.4432V550.0928h53.43744v147.11808zM352.8704 453.89824H299.53024V327.93088H352.8704v125.96736zM735.87712 549.76v147.29216h-44.31872c-0.08704-1.37728-0.26112-2.8672-0.26112-4.35712-0.01024-45.95712 0.04096-91.92448-0.10752-137.8816-0.01024-4.1728 1.24416-5.22752 5.39648-5.15072 12.93824 0.256 25.87136 0.09728 39.29088 0.09728zM735.76448 454.144h-9.73312c-10.19392 0-20.39808-0.10752-30.58176 0.06656-3.2512 0.0512-4.2752-0.91648-4.22912-4.10112 0.15872-12.62592 0.06656-25.2672 0.06656-37.87776V333.89056v-5.86752h44.47232l0.00512 126.12096zM529.75616 697.28256h-34.32448v-147.10784h34.32448v147.10784zM614.87104 697.27744h-31.76448v-147.25632h31.76448v147.25632zM529.69984 453.86752h-34.34496V327.93088h34.34496v125.93664zM582.99392 453.74976V327.92576h31.8208v125.824h-31.8208zM452.95104 697.25696h-22.49728v-147.072h22.49728v147.072zM396.93824 697.21088h-21.57056V550.0928h21.57056v147.11808zM659.05664 697.24672h-20.82816c-0.10752-1.5616-0.31744-3.05152-0.31744-4.5312-0.02048-46.08 0.03584-92.17536-0.09728-138.26048-0.01024-3.73248 1.02912-5.00736 4.90496-4.78208 5.32992 0.31232 10.69056 0.07168 16.3328 0.07168l0.00512 147.50208zM452.91008 453.89824h-22.41024V327.15264h22.41024v126.7456zM375.30624 453.77536v-125.8496h21.6576v125.8496h-21.6576zM637.89056 327.8592h21.07904v126.23872c-6.29248 0-12.50304 0.08704-18.69312-0.10752-0.79872-0.02048-1.7664-1.37216-2.26304-2.29888-0.3584-0.67072-0.10752-1.66912-0.10752-2.52416V332.54912c-0.01536-1.3824-0.01536-2.79552-0.01536-4.68992z"
    fill="#FFFFFF"
    p-id="8090"
  ></path>
</svg>