<svg
  t="1747709199305"
  class="icon"
  viewBox="0 0 1024 1024"
  version="1.1"
  xmlns="http://www.w3.org/2000/svg"
  p-id="11921"
  width="200"
  height="200"
>
  <path
    d="M1066.6666665 0h1024v1024H1066.6666665V0z"
    fill="#202425"
    p-id="11922"
  ></path>
  <path
    d="M102.4 136.533333a34.133333 34.133333 0 0 1 34.133333-34.133333h750.933334a34.133333 34.133333 0 0 1 34.133333 34.133333v34.133334a34.133333 34.133333 0 0 1-34.133333 34.133333H136.533333a34.133333 34.133333 0 0 1-34.133333-34.133333V136.533333z"
    fill="#FFAA44"
    p-id="11923"
  ></path>
  <path
    d="M38.6844448 220.72888853a36.40888853 36.40888853 0 0 0-36.4088896 36.4088896v582.54222187a36.40888853 36.40888853 0 0 0 36.4088896 36.40888853h327.68l132.74680853 132.7468096a18.2044448 18.2044448 0 0 0 25.77749334 0L657.6355552 876.08888853h327.68a36.40888853 36.40888853 0 0 0 36.4088896-36.40888853V257.13777813a36.40888853 36.40888853 0 0 0-36.4088896-36.4088896H38.6844448z"
    fill="#82C651"
    p-id="11924"
  ></path>
  <path
    d="M238.933333 477.866667a68.266667 68.266667 0 1 1 0 136.533333 68.266667 68.266667 0 0 1 0-136.533333z m273.066667 0a68.266667 68.266667 0 1 1 0 136.533333 68.266667 68.266667 0 0 1 0-136.533333z m273.066667 0a68.266667 68.266667 0 1 1 0 136.533333 68.266667 68.266667 0 0 1 0-136.533333z"
    fill="#FFFFFF"
    p-id="11925"
  ></path>
</svg>