<svg
  t="1733565429514"
  class="icon"
  viewBox="0 0 1024 1024"
  version="1.1"
  xmlns="http://www.w3.org/2000/svg"
  p-id="16519"
  width="256"
  height="256"
>
  <path
    d="M888.105581 265.700414c0 146.731655-169.533121 265.594852-378.757681 265.594851S130.590218 412.432069 130.590218 265.700414 300.123339 25.2294 509.3479 25.2294s378.757682 93.739359 378.757681 240.471014z"
    fill="#1296db"
    p-id="16520"
  ></path>
  <path
    d="M509.3479 548.18524c-218.19736 0-395.647656-126.67481-395.647657-282.484826C113.700243 116.646387 280.066494 8.444987 509.3479 8.444987s395.542094 108.2014 395.542094 257.255427c0 155.704454-177.450296 282.484826-395.542094 282.484826z m0-505.960303C299.595527 42.224937 147.79688 136.069858 147.79688 265.700414c0 137.231044 162.354881 248.810439 361.973269 248.810439s361.55102-111.579395 361.55102-248.810439C871.321169 136.069858 719.100272 42.224937 509.3479 42.224937z"
    fill="#8D4520"
    p-id="16521"
  ></path>
  <path
    d="M677.719835 740.730951H332.530977a16.889975 16.889975 0 0 1 0-33.674387h345.188858a16.889975 16.889975 0 0 1 0 33.674387zM643.939885 808.079725H366.205364a16.889975 16.889975 0 0 1 0-33.674387H643.939885a16.889975 16.889975 0 0 1 0 33.674387z"
    fill="#8D4520"
    p-id="16522"
  ></path>
  <path
    d="M130.590218 294.624495h757.515363V648.152778H130.590218z"
    fill="#FFFFFF"
    p-id="16523"
  ></path>
  <path
    d="M888.105581 665.042752H130.590218a16.889975 16.889975 0 0 1-16.889975-16.784412v-353.633845a16.889975 16.889975 0 0 1 16.889975-16.889974h757.515363a16.889975 16.889975 0 0 1 16.784413 16.889974V648.152778a16.784412 16.784412 0 0 1-16.784413 16.889974zM147.79688 631.262803h723.524289V311.408908H147.79688z"
    fill="#8D4520"
    p-id="16524"
  ></path>
  <path
    d="M138.929643 294.624495s42.224937-176.816922 370.418257-176.816922 378.757682 176.816922 378.757681 176.816922z"
    fill="#1296db"
    p-id="16525"
  ></path>
  <path
    d="M888.316706 311.408908h-749.492625a16.889975 16.889975 0 0 1-13.195293-6.333741 17.206662 17.206662 0 0 1-3.16687-14.356478c1.900122-7.811613 49.086489-190.012215 386.780419-190.012215 318.903834 0 385.935921 162.249319 394.064222 186.211971a17.206662 17.206662 0 0 1 1.688997 7.389363 16.784412 16.784412 0 0 1-16.67885 17.1011z m-724.579913-33.674387h698.506015c-25.2294-44.758433-108.412525-143.036973-352.894908-143.036973s-323.020765 98.806352-345.611107 143.036973z"
    fill="#2c2c2c"
    p-id="16526"
  ></path>
  <path
    d="M509.3479 294.624495V639.70779"
    fill="#FFFFFF"
    p-id="16527"
  ></path>
  <path
    d="M509.3479 656.597765a16.889975 16.889975 0 0 1-16.889975-16.889975V294.624495a16.889975 16.889975 0 1 1 33.674387 0V639.70779a16.889975 16.889975 0 0 1-16.784412 16.889975zM643.939885 656.597765a16.889975 16.889975 0 0 1-11.928544-28.818519l126.67481-126.67481a16.784412 16.784412 0 0 1 23.751526 23.857089l-126.67481 126.67481a16.784412 16.784412 0 0 1-11.822982 4.96143zM256.842778 656.597765a16.889975 16.889975 0 0 1-11.928544-28.818519l126.67481-126.67481a16.784412 16.784412 0 0 1 23.751527 23.857089l-126.67481 126.67481a16.784412 16.784412 0 0 1-11.822983 4.96143z"
    fill="#2c2c2c"
    p-id="16528"
  ></path>
  <path
    d="M441.999126 210.385747h151.48196"
    fill="#F6E89A"
    p-id="16529"
  ></path>
  <path
    d="M593.481086 227.275722H441.999126a16.889975 16.889975 0 1 1 0-33.674387h151.48196a16.889975 16.889975 0 1 1 0 33.674387z"
    fill="#2c2c2c"
    p-id="16530"
  ></path>
  <path
    d="M879.660594 370.312694h84.133186v176.71136h-84.133186z"
    fill="#FFFFFF"
    p-id="16531"
  ></path>
  <path
    d="M963.899343 563.914029h-84.449874a16.784412 16.784412 0 0 1-16.784412-16.784412V370.312694a16.784412 16.784412 0 0 1 16.784412-16.784412h84.449874a16.784412 16.784412 0 0 1 16.784412 16.784412v176.816923a16.784412 16.784412 0 0 1-16.784412 16.784412z m-67.348774-33.674387h50.458799V387.202669h-50.458799z"
    fill="#2c2c2c"
    p-id="16532"
  ></path>
  <path
    d="M54.796457 370.312694h84.133186v176.71136H54.796457z"
    fill="#FFFFFF"
    p-id="16533"
  ></path>
  <path
    d="M138.929643 563.914029h-84.449873a16.889975 16.889975 0 0 1-16.889975-16.784412V370.312694a16.889975 16.889975 0 0 1 16.889975-16.784412h84.449873a16.889975 16.889975 0 0 1 16.889975 16.784412v176.816923a16.889975 16.889975 0 0 1-16.889975 16.784412z m-67.348774-33.674387h50.564362V387.202669H71.580869z"
    fill="#2c2c2c"
    p-id="16534"
  ></path>
  <path
    d="M63.347006 648.152778c-8.444987-42.224937 58.903787-58.903787 58.903787-58.903787h765.854788s75.793761 16.784412 75.793762 58.903787c0 220.941981-857.377339 216.613925-900.552337 0z"
    fill="#1296db"
    p-id="16535"
  ></path>
  <path
    d="M532.993864 829.086631c-224.319976 0-461.729682-54.892418-486.325708-177.661421-9.078361-45.602932 40.535939-70.832331 71.360143-78.538382a18.367847 18.367847 0 0 1 4.116932-0.527812h765.96035a14.673165 14.673165 0 0 1 3.694682 0c9.078361 2.005684 88.883492 21.112468 88.883492 75.371512 0 125.408062-224.847788 181.356103-447.689891 181.356103zM124.467602 606.033403C116.128177 608.778024 75.275551 622.817816 79.709169 644.880345c19.740158 98.806352 242.793386 150.531899 453.284695 150.531899 205.741004 0 414.015504-50.564362 414.015504-147.259466 0-21.112468-39.902565-37.052382-60.803909-42.224937z"
    fill="#2c2c2c"
    p-id="16536"
  ></path>
  <path
    d="M816.534314 1018.465472a96.90623 96.90623 0 0 1-96.800667-96.800667v-21.112469H298.85659v21.112469a96.800667 96.800667 0 1 1-193.284647 0v-21.112469H63.347006a25.334962 25.334962 0 0 1-25.334962-25.229399V639.70779v-0.950061c1.477873-39.058066 41.591563-60.909471 67.243212-70.937893v-3.905807H46.351469A25.2294 25.2294 0 0 1 21.12207 538.367942V361.973269a25.2294 25.2294 0 0 1 25.229399-25.229399H105.571943v-50.564362a23.645965 23.645965 0 0 1 0-5.489242c0-5.383679-0.633374-10.556234-0.633374-14.989852C105.571943 111.684957 275.210626 0 509.3479 0s403.987081 111.684957 403.987081 265.700414c0 4.644743 0 9.606173-0.633374 14.989852a24.384901 24.384901 0 0 1 0.633374 5.489242v50.564362h58.903787a25.334962 25.334962 0 0 1 25.334962 25.229399V538.367942a25.334962 25.334962 0 0 1-25.334962 25.2294h-58.903787c23.962652 10.556234 64.076341 32.302077 73.893639 67.137649a19.001221 19.001221 0 0 1 1.055624 4.222494 58.375975 58.375975 0 0 1 1.477872 12.667481 99.017476 99.017476 0 0 1-1.055623 14.356478v213.447055a25.2294 25.2294 0 0 1-25.2294 25.2294h-50.142112v33.674387c0 39.69144-41.380438 84.133186-96.800667 84.133186zM273.416066 850.199099h471.758105a25.546087 25.546087 0 0 1 18.47341 7.917176 25.123837 25.123837 0 0 1 6.967114 18.790097v44.758433a46.341868 46.341868 0 0 0 46.236306 46.341868c26.812835 0 46.341868-22.168092 46.341868-33.674387v-55.42023-2.005684a25.2294 25.2294 0 0 1 25.229399-26.707273h50.669924v-190.012214a23.118153 23.118153 0 0 1 0-3.800245 59.114911 59.114911 0 0 0 0.42225-8.233862 10.556234 10.556234 0 0 0 0-1.688998v-0.527812c-3.483557-13.934229-33.3577-31.140891-55.103543-39.163628a25.2294 25.2294 0 0 1-21.112468-24.912713V538.367942a25.2294 25.2294 0 0 1 25.2294-25.229399h58.903786v-126.67481h-59.326036a25.2294 25.2294 0 0 1-25.229399-25.2294v-71.782392a24.384901 24.384901 0 0 1-0.844499-9.183924c0-5.911491 0.844499-10.556234 0.844499-15.30654 0-124.669125-148.737339-215.241615-353.528282-215.241614s-353.528282 91.311426-353.528282 215.980551a161.40482 161.40482 0 0 0 1.055623 17.734473 25.440524 25.440524 0 0 1-1.055623 10.556234v67.982148a25.2294 25.2294 0 0 1-25.2294 25.2294H71.580869v126.67481h59.009349A25.2294 25.2294 0 0 1 155.819618 538.367942v47.397492A25.334962 25.334962 0 0 1 137.240645 610.467022c-23.962652 6.544865-47.819741 21.112468-48.664239 29.979705v209.752372h42.224937a25.123837 25.123837 0 0 1 25.123837 26.707273 10.556234 10.556234 0 0 1 0 1.79456v42.963873a46.341868 46.341868 0 1 0 92.578174 0v-21.112469-24.279338a25.651649 25.651649 0 0 1 7.178239-18.47341 25.2294 25.2294 0 0 1 17.734473-7.600489z"
    fill="#2c2c2c"
    p-id="16537"
  ></path>
  <path
    d="M888.105581 903.085833H886.733271a25.2294 25.2294 0 0 1-23.751527-25.123838v-2.427934h7.178239-3.16687 21.112468l25.2294-0.527811v5.805929a25.334962 25.334962 0 0 1-25.2294 22.273654z"
    fill="#8D4520"
    p-id="16538"
  ></path>
  <path
    d="M63.241444 648.152778h900.657899v218.830734H63.241444z"
    fill="#1296db"
    p-id="16539"
  ></path>
  <path
    d="M963.899343 883.767924H63.347006a16.889975 16.889975 0 0 1-16.889974-16.784412V648.152778A16.889975 16.889975 0 0 1 63.347006 631.262803h900.552337a16.889975 16.889975 0 0 1 16.784412 16.889975v218.830734a16.784412 16.784412 0 0 1-16.784412 16.784412zM80.025856 850.199099h866.983512V665.042752H80.025856z"
    fill="#2c2c2c"
    p-id="16540"
  ></path>
  <path
    d="M130.801343 866.983512v63.12628a71.571268 71.571268 0 1 0 143.036973 0v-58.903787-4.222493z"
    fill="#1296db"
    p-id="16541"
  ></path>
  <path
    d="M202.055923 1018.465472a88.461242 88.461242 0 0 1-88.35568-88.35568v-58.903787V865.611201a16.784412 16.784412 0 0 1 16.889975-15.834351H273.416066a16.67885 16.67885 0 0 1 16.784412 15.834351v64.076342a88.461242 88.461242 0 0 1-88.144555 88.777929zM147.79688 883.767924v46.341868a54.786855 54.786855 0 0 0 109.468148 0v-46.341868z"
    fill="#2c2c2c"
    p-id="16542"
  ></path>
  <path
    d="M745.174171 866.983512v63.12628a71.571268 71.571268 0 0 0 143.142535 0v-58.903787-4.222493z"
    fill="#1296db"
    p-id="16543"
  ></path>
  <path
    d="M816.534314 1018.465472A88.461242 88.461242 0 0 1 728.389759 930.109792v-58.903787V865.611201a16.784412 16.784412 0 0 1 16.784412-15.834351h142.720286A16.784412 16.784412 0 0 1 904.678869 865.611201v64.076342a88.35568 88.35568 0 0 1-88.144555 88.777929z m-54.681293-134.697548v46.341868a54.786855 54.786855 0 0 0 109.468148 0v-46.341868z"
    fill="#2c2c2c"
    p-id="16544"
  ></path>
  <path
    d="M197.83343 757.515363m-50.4588 0a50.458799 50.458799 0 1 0 100.917599 0 50.458799 50.458799 0 1 0-100.917599 0Z"
    fill="#FFFFFF"
    p-id="16545"
  ></path>
  <path
    d="M197.83343 824.864137a67.348774 67.348774 0 1 1 67.348773-67.348774 67.348774 67.348774 0 0 1-67.348773 67.348774z m0-101.02316a33.674387 33.674387 0 1 0 33.674387 33.674386 33.674387 33.674387 0 0 0-33.674387-33.674386z"
    fill="#2c2c2c"
    p-id="16546"
  ></path>
  <path
    d="M812.31182 757.515363m-50.458799 0a50.458799 50.458799 0 1 0 100.917598 0 50.458799 50.458799 0 1 0-100.917598 0Z"
    fill="#FFFFFF"
    p-id="16547"
  ></path>
  <path
    d="M812.839632 824.864137a67.348774 67.348774 0 1 1 67.348774-67.348774A67.454336 67.454336 0 0 1 812.839632 824.864137z m0-101.02316a33.674387 33.674387 0 1 0 33.674387 33.674386A33.674387 33.674387 0 0 0 812.839632 723.840977z"
    fill="#2c2c2c"
    p-id="16548"
  ></path>
</svg>