<svg
  t="1734485699653"
  class="icon"
  viewBox="0 0 1024 1024"
  version="1.1"
  xmlns="http://www.w3.org/2000/svg"
  p-id="7092"
  width="200"
  height="200"
>
  <path
    d="M948.90666667 190.57777777v655.36H75.09333333V190.57777777h873.81333334M2.27555555 190.57777777v655.36a72.81777778 72.81777778 0 0 0 72.81777778 72.81777778h873.66769778a72.81777778 72.81777778 0 0 0 72.81777778-72.81777778V190.57777777a72.81777778 72.81777778 0 0 0-72.81777778-72.81777778H75.09333333a72.81777778 72.81777778 0 0 0-72.81777778 72.81777778z"
    fill="#7CA356"
    p-id="7093"
  ></path>
  <path
    d="M167.95117985 655.1834074V464.10955852h1.55344594L250.98286459 655.1834074h39.22450963l81.55591111-191.07384888h1.55344592V655.1834074h45.43829334V377.89330962h-53.28319526l-93.98347851 217.48242962h-1.55344592l-94.37184-217.48242962h-53.12785068V655.1834074h45.43829333z m383.31278224 0c45.04993185 0 78.75970845-12.42756741 102.13906961-37.28270222 22.13660445-23.69005037 33.39908741-57.47749925 33.39908741-101.36234666 0-44.27320889-11.26248297-78.06065778-33.39908741-101.36234668-23.30168889-24.85513482-57.16681008-37.28270222-102.13906961-37.28270222H449.74627082V655.1834074h101.36234666z m-8.5439526-38.83614815h-47.38010074V416.72945776h47.38010074c34.48649955 0 59.80766815 7.76722963 75.65281659 23.69005038 15.53445925 15.53445925 23.30168889 41.16631703 23.30168889 76.11885038 0 34.17581037-7.76722963 59.41930667-23.30168889 75.73048888-15.92282075 15.92282075-41.16631703 24.07841185-75.7304889 24.07841185z m249.6387603 44.27320889c27.57366518 0 51.26371555-8.15559111 71.45851258-24.46677334 21.74824297-18.25298963 32.62236445-41.55467852 32.62236445-70.29342814 0-29.90383408-8.54395259-53.59388445-24.85513482-70.68178964-16.31118222-17.08790518-37.6710637-25.63185778-63.69128297-25.63185778-12.42756741 0-23.69005037 1.94180741-33.70977658 5.82542222a76.35186725 76.35186725 0 0 0-29.5154726 18.64135113h-1.16508444l7.76722962-76.11885037h132.43126519V377.89330962h-168.93724444l-15.22377007 156.12131556h42.33140147a49.86561422 49.86561422 0 0 1 22.52496593-21.35988149 69.2836883 69.2836883 0 0 1 31.06891852-6.2137837c17.86462815 0 31.84564148 5.04869925 41.16631704 15.92282074 9.32067555 10.48576 14.44704711 25.2434963 14.44704711 43.88484741 0 17.08790518-5.82542222 30.68055703-16.69954369 40.77795555a60.19602963 60.19602963 0 0 1-41.55467854 15.14609778 60.04068503 60.04068503 0 0 1-35.7292563-9.70903704c-10.09739852-7.37886815-16.00049303-18.64135111-17.86462814-33.78744888h-44.66157036c1.86413511 25.63185778 12.81592889 46.2150163 33.01072592 61.36111407 17.86462815 13.59265185 39.61287111 20.58315852 64.85636741 20.58315852z"
    fill="#7CA356"
    p-id="7094"
  ></path>
</svg>