<svg
  t="1734460701319"
  class="icon"
  viewBox="0 0 1024 1024"
  version="1.1"
  xmlns="http://www.w3.org/2000/svg"
  p-id="7492"
  width="256"
  height="256"
>
  <path
    d="M208.76735525 1021.16572173h613.95497012c108.30210743 0 196.05730341-87.75519598 196.05730341-196.05730342V211.1534482c0-108.30210743-87.75519598-196.05730341-196.05730341-196.05730342H208.76735525c-108.30210743 0-196.05730341 87.75519598-196.05730341 196.05730342v613.95497011c0 108.23582707 87.82147635 196.05730341 196.05730341 196.05730342z"
    fill="#FF5D50"
    p-id="7493"
  ></path>
  <path
    d="M12.71005184 753.98959255l215.01348624-211.96458969c28.69939566-28.30171351 74.9630866-27.77147063 102.99967867 1.19304647l55.34410019 57.06738953c28.10287243 28.9645171 74.43284372 29.49475998 103.13223938 1.06048575l126.26408487-124.8721973c28.36799387-28.10287243 74.10144193-27.97031171 102.27059472 0.26512144 74.9630866 74.9630866 215.21232731 215.41116839 300.97911252 301.57563575v50.04167143c0 106.51253773-86.29702807 192.80956581-192.80956581 192.8095658h-620.38416497c-106.51253773 0-192.80956581-86.29702807-192.80956581-192.8095658v-74.36656338z"
    fill="#FFDF99"
    p-id="7494"
  ></path>
  <path
    d="M317.26830377 283.39904005m-89.01452281 0a89.01452283 89.01452283 0 1 0 178.02904562 0 89.01452283 89.01452283 0 1 0-178.02904562 0Z"
    fill="#FFDF99"
    p-id="7495"
  ></path>
</svg>