<svg
  t="1734428420030"
  class="icon"
  viewBox="0 0 1024 1024"
  version="1.1"
  xmlns="http://www.w3.org/2000/svg"
  p-id="6622"
  width="200"
  height="200"
>
  <path
    d="M981.333333 768v170.666667H42.666667v-170.666667h725.333333z"
    fill="#4DD0E1"
    p-id="6623"
  ></path>
  <path
    d="M128 448h213.333333v320H128z"
    fill="#FF7043"
    p-id="6624"
  ></path>
  <path
    d="M341.333333 384v64H128v-64c0-58.88 47.786667-106.666667 106.666667-106.666667 29.44 0 56.106667 11.946667 75.52 31.146667 19.2 19.413333 31.146667 46.08 31.146666 75.52z"
    fill="#E0F7FA"
    p-id="6625"
  ></path>
  <path
    d="M647.317333 490.666667c17.6 49.664 65.066667 85.333333 120.682667 85.333333s103.082667-35.669333 120.682667-85.333333H981.333333c23.552 0 42.666667-19.114667 42.666667-42.666667s-19.114667-42.666667-42.666667-42.666667h-128c-23.552 0-42.666667 19.114667-42.666666 42.666667 0 23.530667-19.136 42.666667-42.666667 42.666667s-42.666667-19.136-42.666667-42.666667c0-23.552-19.114667-42.666667-42.666666-42.666667H384v-21.333333c0-39.68-15.445333-77.162667-43.818667-105.856C311.829333 250.112 274.346667 234.666667 234.666667 234.666667c-82.346667 0-149.333333 66.986667-149.333334 149.333333v21.333333H42.666667c-23.552 0-42.666667 19.114667-42.666667 42.666667s19.114667 42.666667 42.666667 42.666667h42.666666v234.666666H42.666667c-23.552 0-42.666667 19.114667-42.666667 42.666667v170.666667c0 23.552 19.114667 42.666667 42.666667 42.666666h938.666666c23.552 0 42.666667-19.114667 42.666667-42.666666v-170.666667c0-23.552-19.114667-42.666667-42.666667-42.666667h-170.666666v-42.666666c0-23.552-19.114667-42.666667-42.666667-42.666667s-42.666667 19.114667-42.666667 42.666667v42.666666H384v-234.666666h263.317333zM170.666667 384c0-35.285333 28.714667-64 64-64 17.088 0 33.258667 6.677333 45.184 18.474667 12.138667 12.266667 18.816 28.437333 18.816 45.525333v21.333333H170.666667v-21.333333z m768 512H85.333333v-85.333333h853.333334v85.333333z m-640-170.666667H170.666667v-234.666666h128v234.666666zM42.666667 128h21.333333c23.552 0 42.666667-19.114667 42.666667-42.666667s-19.114667-42.666667-42.666667-42.666666h-21.333333C19.114667 42.666667 0 61.781333 0 85.333333s19.114667 42.666667 42.666667 42.666667zM213.333333 128h21.333334c23.552 0 42.666667-19.114667 42.666666-42.666667s-19.114667-42.666667-42.666666-42.666666h-21.333334c-23.552 0-42.666667 19.114667-42.666666 42.666666s19.114667 42.666667 42.666666 42.666667zM512 128h213.333333c23.552 0 42.666667-19.114667 42.666667-42.666667s-19.114667-42.666667-42.666667-42.666666h-213.333333c-23.552 0-42.666667 19.114667-42.666667 42.666666s19.114667 42.666667 42.666667 42.666667zM981.333333 42.666667h-106.666666c-23.552 0-42.666667 19.114667-42.666667 42.666666s19.114667 42.666667 42.666667 42.666667h106.666666c23.552 0 42.666667-19.114667 42.666667-42.666667s-19.114667-42.666667-42.666667-42.666666z"
    fill="#012E52"
    p-id="6626"
  ></path>
</svg>