<svg
  t="1746544171270"
  class="icon"
  viewBox="0 0 1024 1024"
  version="1.1"
  xmlns="http://www.w3.org/2000/svg"
  p-id="11326"
  width="256"
  height="256"
>
  <path
    d="M936.39111111 57.83552H609.30275555c-0.40618667 29.99978667-24.83768889 54.19690667-54.93418666 54.19690667s-54.528-24.19712-54.93418667-54.19690667h-422.4c-31.86574222 0-57.69784889 25.83210667-57.69784889 57.69784889v852.26154666H1004.65777778V126.10218667c0-37.70254222-30.56412445-68.26666667-68.26666667-68.26666667z"
    fill="#FFFFFF"
    p-id="11327"
  ></path>
  <path
    d="M603.61159111 63.00216889c0.00113778 0.1536 0.01137778 0.30492445 0.01137778 0.45852444 0 28.39893333-23.80003555 51.42072889-53.15925334 51.42072889s-53.15925333-23.02179555-53.15925333-51.42072889c0-0.1536 0.01024-0.30492445 0.01251556-0.45852444H69.91530667c-27.93358222 0-50.57763555 21.90449778-50.57763556 48.92444444v122.30997334H757.77137778V111.92661333c0-27.01994667-22.64405333-48.92444445-50.57763556-48.92444444h-103.58215111z"
    fill="#F52F57"
    p-id="11328"
  ></path>
  <path
    d="M448.81 430.934H145.533a7.583 7.583 0 0 1-7.582-7.582v-81.891a7.583 7.583 0 0 1 7.582-7.582H448.81a7.583 7.583 0 0 1 7.582 7.582v81.891a7.581 7.581 0 0 1-7.582 7.582z"
    fill="#7353BA"
    p-id="11329"
  ></path>
  <path
    d="M440.10382222 436.83157333H95.04199111c-14.16760889 0-25.69329778-11.52568889-25.69329778-25.69329778v-93.17376c0-14.16760889 11.52568889-25.69329778 25.69329778-25.69329777H440.10382222c14.16760889 0 25.69329778 11.52568889 25.69329778 25.69329777v93.17376c0 14.16760889-11.52568889 25.69329778-25.69329778 25.69329778z m-336.62179555-34.13333333h328.18176v-76.29368889H103.48202667v76.29368889z"
    fill="#2F195F"
    p-id="11330"
  ></path>
  <path
    d="M251.08935111 123.41020445H86.39488c-6.28394667 0-11.37777778-5.09383111-11.37777778-11.37777778s5.09383111-11.37777778 11.37777778-11.37777778h164.69447111c6.28394667 0 11.37777778 5.09383111 11.37777778 11.37777778s-5.09383111 11.37777778-11.37777778 11.37777778zM341.36860445 123.41020445h-25.42705778c-6.28394667 0-11.37777778-5.09383111-11.37777778-11.37777778s5.09383111-11.37777778 11.37777778-11.37777778h25.42705778c6.28394667 0 11.37777778 5.09383111 11.37777777 11.37777778s-5.09383111 11.37777778-11.37777777 11.37777778z"
    fill="#FFFFFF"
    p-id="11331"
  ></path>
  <path
    d="M650.704 434.333l5.008-0.681c6.013-0.817 11.956-1.888 17.834-3.153V341.46a7.582 7.582 0 0 0-7.582-7.582h-53.073a7.583 7.583 0 0 0-7.582 7.582v103.729a235.313 235.313 0 0 1 45.395-10.856z"
    fill="#7353BA"
    p-id="11332"
  ></path>
  <path
    d="M86.41536 967.79491555h918.51662222V151.37905778l-74.48803555 153.67281777c-47.68881778 96.01706667-139.58257778 161.95697778-245.81802667 176.3896889l-5.67068445 0.77027555c-57.88785778 7.86432-110.27456 39.84156445-143.72522666 87.73404445l-97.05358222 138.94542222c-46.94357333 67.20739555-116.9408 113.68561778-197.09952 130.87061333-56.11861333 12.032-105.41056 47.05621333-135.23626667 96.09216l-19.42528 31.94083555z"
    fill="#F52F57"
    p-id="11333"
  ></path>
  <path
    d="M78.996 797.579c-8.284 0-15-6.716-15-15v-14.777c0-8.284 6.716-15 15-15s15 6.716 15 15v14.777c0 8.284-6.716 15-15 15z"
    fill="#2F195F"
    p-id="11334"
  ></path>
  <path
    d="M553.60853333 386.05710222c9.42535111 0 17.06666667-7.64131555 17.06666667-17.06666667v-55.7056c0-9.42535111-7.64131555-17.06666667-17.06666667-17.06666666s-17.06666667 7.64131555-17.06666666 17.06666666v55.7056c0 9.42535111 7.64131555 17.06666667 17.06666666 17.06666667zM183.14467555 540.80739555h154.52615112c9.42535111 0 17.06666667-7.64131555 17.06666666-17.06666666s-7.64131555-17.06666667-17.06666666-17.06666667H183.14467555c-9.42535111 0-17.06666667 7.64131555-17.06666666 17.06666667s7.64131555 17.06666667 17.06666666 17.06666666zM86.41536 540.80739555h51.75978667c9.42535111 0 17.06666667-7.64131555 17.06666666-17.06666666s-7.64131555-17.06666667-17.06666666-17.06666667h-51.75978667c-9.42535111 0-17.06666667 7.64131555-17.06666667 17.06666667s7.64131555 17.06666667 17.06666667 17.06666666zM139.63150222 570.07672889h-53.21614222c-9.42535111 0-17.06666667 7.64131555-17.06666667 17.06666666s7.64131555 17.06666667 17.06666667 17.06666667h53.21614222c9.42535111 0 17.06666667-7.64131555 17.06666667-17.06666667s-7.64131555-17.06666667-17.06666667-17.06666666zM139.63150222 633.47939555h-53.21614222c-9.42535111 0-17.06666667 7.64131555-17.06666667 17.06666667s7.64131555 17.06666667 17.06666667 17.06666667h53.21614222c9.42535111 0 17.06666667-7.64131555 17.06666667-17.06666667s-7.64131555-17.06666667-17.06666667-17.06666667z"
    fill="#2F195F"
    p-id="11335"
  ></path>
  <path
    d="M936.66531555 40.76885333H608.64853333c-9.42535111 0-17.06666667 7.64131555-17.06666666 17.06666667l0.00113778 0.16384c-0.05688889 19.89859555-15.76277333 36.18474667-35.43267556 37.17688889a17.16110222 17.16110222 0 0 0-2.54065778-0.20935111c-0.71907555 0-1.42336 0.05916445-2.11854222 0.14563555-19.26371555-1.41425778-34.51448889-17.49902222-34.57706667-37.10179555l0.00113778-0.17294223c0-9.42535111-7.64131555-17.06666667-17.06666667-17.06666666H71.09632c-37.95057778 0-68.82645333 30.87473778-68.82645333 68.82531556v569.35310222c0 37.95057778 30.87473778 68.82531555 68.82645333 68.82531555H220.78577778c9.42535111 0 17.06666667-7.64131555 17.06666667-17.06666667s-7.64131555-17.06666667-17.06666667-17.06666666H71.09632c-19.12945778 0-34.69312-15.56366222-34.69312-34.69198222v-423.3216H536.54186667v1.95015111c0 9.42535111 7.64131555 17.06666667 17.06666666 17.06666667s17.06666667-7.64131555 17.06666667-17.06666667v-1.95015111h170.02951111v131.25404444a251.03701333 251.03701333 0 0 1-27.83345778 10.35491556v-79.27239112c0-14.16760889-11.52568889-25.69329778-25.69329778-25.69329777h-60.38641777c-14.16760889 0-25.69329778 11.52568889-25.69329778 25.69329777v106.20814223a286.07943111 286.07943111 0 0 0-30.42190222 14.20401777v-13.68177777c0-9.42535111-7.64131555-17.06666667-17.06666667-17.06666667s-17.06666667 7.64131555-17.06666666 17.06666667v34.13333333c0 0.39708445 0.03299555 0.78620445 0.05916444 1.17646222-24.54300445 18.12707555-46.25408 40.21589333-64.02844444 65.62588445l-32.50517334 44.44501333H183.14467555c-9.42535111 0-17.06666667 7.64131555-17.06666666 17.06666667s7.64131555 17.06666667 17.06666666 17.06666667h233.56074667l-19.66193777 29.26933333H183.14467555c-9.42535111 0-17.06666667 7.64131555-17.06666666 17.06666667s7.64131555 17.06666667 17.06666666 17.06666666h190.21596445c-36.39068445 50.90872889-89.99253333 86.12067555-151.25959111 99.25518222-59.99388445 12.86371555-115.17496889 45.47470222-155.37607111 91.82549334-6.17585778 7.12135111-5.41013333 17.89838222 1.71008 24.07537778a16.9984 16.9984 0 0 0 11.17525333 4.17336888c4.77525333 0 9.52547555-1.99338667 12.90012444-5.88458666 35.38033778-40.79388445 83.94410667-69.49319111 136.74609778-80.81408 70.64007111-15.14609778 132.32696889-56.10496 173.69770667-115.33198222l17.17703111-24.5919289 0.13425778-0.19569777 0.04323556-0.06257778 42.3981511-63.11480889 37.52391112-51.30922666a28.89955555 28.89955555 0 0 0 0.21617778-0.30151112c31.06360889-44.47459555 75.80103111-77.44967111 126.66652444-94.34112 0.37888-0.12515555 0.75662222-0.25486222 1.13550222-0.37774222a250.19733333 250.19733333 0 0 1 4.46008889-1.40174222c0.63260445-0.19342222 1.26407111-0.39253333 1.89895111-0.58026667 1.25155555-0.37205333 2.50993778-0.72476445 3.76832-1.07861333 0.84764445-0.23779555 1.69301333-0.48014222 2.54293334-0.70883556 1.0752-0.29013333 2.15722667-0.56092445 3.23697777-0.83626666 1.00693333-0.256 2.01386667-0.51882667 3.02307556-0.76344889 0.97735111-0.23665778 1.95925333-0.45397333 2.94001777-0.67811556 1.09340445-0.25031111 2.18567111-0.50631111 3.28135112-0.74183111 0.98304-0.21048889 1.97176889-0.40277333 2.95822222-0.60188444 1.08430222-0.21959111 2.16746667-0.44714667 3.25404444-0.65194667 1.15939555-0.21845333 2.32561778-0.41301333 3.48956445-0.61553778 0.91249778-0.15815111 1.82272-0.32881778 2.73521777-0.47672889 2.08554667-0.33792 4.17678222-0.65194667 6.27484445-0.93639111l5.69685333-0.77482667c1.75786667-0.23893333 3.50890667-0.49834667 5.25767112-0.76913777l0.01592888-0.00227556c91.38062222-14.14940445 170.12167111-71.65041778 211.35815112-154.6752l50.29432888-101.26108444a17.06666667 17.06666667 0 0 0-21.31285333-23.55882667l-81.53088 30.77233778c-8.81777778 3.328-13.26876445 13.17546667-9.93962667 21.99438222 3.32686222 8.81664 13.16750222 13.26990222 21.99324445 9.94076444l40.90083555-15.43736888-30.97713778 62.36728888a250.31566222 250.31566222 0 0 1-89.03224888 99.39285334V147.66535111c0-9.42535111-7.64131555-17.06666667-17.06666667-17.06666666s-17.06666667 7.64131555-17.06666667 17.06666666v73.8304H570.6752v-19.62325333c0-9.42535111-7.64131555-17.06666667-17.06666667-17.06666667s-17.06666667 7.64131555-17.06666666 17.06666667v19.62325333H36.40433778v-111.90044444c0-19.12945778 15.56366222-34.69198222 34.69312-34.69198222h413.72899555c6.25891555 25.53287111 26.28039111 45.71704889 51.71655112 52.22627555v19.03843555c0 9.42535111 7.64131555 17.06666667 17.06666666 17.06666667s17.06666667-7.64131555 17.06666667-17.06666667v-18.73009777c26.04032-6.15196445 46.63068445-26.57507555 52.99427555-52.53347556h312.99584c28.23168 0 51.2 22.96832 51.2 51.2v78.07544889h-32.99555555c-9.42535111 0-17.06666667 7.64131555-17.06666667 17.06666667s7.64131555 17.06666667 17.06666667 17.06666667h32.99555555v111.31676444h-32.99555555c-9.42535111 0-17.06666667 7.64131555-17.06666667 17.06666666s7.64131555 17.06666667 17.06666667 17.06666667h32.99555555v111.31676445h-32.99555555c-9.42535111 0-17.06666667 7.64131555-17.06666667 17.06666666 0 9.42648889 7.64131555 17.06666667 17.06666667 17.06666667h32.99555555v111.31790222h-32.99555555c-9.42535111 0-17.06666667 7.64131555-17.06666667 17.06666667s7.64131555 17.06666667 17.06666667 17.06666666h32.99555555v111.31676445h-32.99555555c-9.42535111 0-17.06666667 7.64131555-17.06666667 17.06666667s7.64131555 17.06666667 17.06666667 17.06666666h32.99555555v130.61575112h-94.68928c0.09557333-0.73159111 0.16270222-1.47342222 0.16270222-2.23118223V918.49386667c0-9.42535111-7.64131555-17.06666667-17.06666666-17.06666667s-17.06666667 7.64131555-17.06666667 17.06666667v30.00547555c0 0.75776 0.06599111 1.49959111 0.16270223 2.23118223h-111.85493334c0.09557333-0.73159111 0.16270222-1.47342222 0.16270222-2.23118223V918.49386667c0-9.42535111-7.64131555-17.06666667-17.06666666-17.06666667s-17.06666667 7.64131555-17.06666667 17.06666667v30.00547555c0 0.75776 0.06599111 1.49959111 0.16270222 2.23118223H601.85031111c0.09557333-0.73159111 0.16270222-1.47342222 0.16270222-2.23118223V918.49386667c0-9.42535111-7.64131555-17.06666667-17.06666666-17.06666667s-17.06666667 7.64131555-17.06666667 17.06666667v30.00547555c0 0.75776 0.06712889 1.49959111 0.16270222 2.23118223h-111.85493333c0.09557333-0.73159111 0.16270222-1.47342222 0.16270222-2.23118223V918.49386667c0-9.42535111-7.64131555-17.06666667-17.06666666-17.06666667s-17.06666667 7.64131555-17.06666667 17.06666667v30.00547555c0 0.75889778 0.06599111 1.49959111 0.16270222 2.23232h-112.68437333c0.09557333-0.73272889 0.16270222-1.47342222 0.16270222-2.23232V918.49386667c0-9.42535111-7.64131555-17.06666667-17.06666667-17.06666667s-17.06666667 7.64131555-17.06666667 17.06666667v30.00547555c0 0.75889778 0.06599111 1.49959111 0.16270223 2.23232h-111.02663111c0.09557333-0.73272889 0.16270222-1.47342222 0.16270222-2.23232V918.49386667c0-9.42535111-7.64131555-17.06666667-17.06666667-17.06666667s-17.06666667 7.64131555-17.06666667 17.06666667v30.00547555c0 0.75889778 0.06712889 1.49959111 0.16270223 2.23232H36.40775111v-74.95793777c0-9.42535111-7.64131555-17.06666667-17.06666666-17.06666667s-17.06666667 7.64131555-17.06666667 17.06666667v92.02460444a17.06666667 17.06666667 0 0 0 17.06666667 17.06666666l985.59544888-0.00113777c9.42535111 0 17.06666667-7.64131555 17.06666667-17.06666667V126.10218667c-0.00455111-47.0528-38.28394667-85.33333333-85.33788445-85.33333334zM678.73792 405.12625778l-0.00682667 0.00113777c-1.86368 0.29923555-3.70460445 0.57344-5.51708444 0.8192l-5.69685334 0.77482667a285.43431111 285.43431111 0 0 0-7.78012444 1.17304889c-0.74524445 0.12288-1.48821333 0.26510222-2.23345778 0.39367111a280.48497778 280.48497778 0 0 0-5.53870222 1.00124445c-0.88291555 0.17066667-1.76241778 0.3584-2.64419556 0.53703111-1.6896 0.34360889-3.37692445 0.69290667-5.05742222 1.06609777-0.97848889 0.21731555-1.95470222 0.44828445-2.93205333 0.67584-1.54965333 0.36181333-3.09703111 0.73159111-4.63872 1.11843556-0.48583111 0.12174222-0.97621333 0.22755555-1.46090667 0.35271111v-86.63608889h43.50634667v78.72284445z"
    fill="#2F195F"
    p-id="11336"
  ></path>
</svg>