<svg
	t="1732615141360"
	class="icon"
	viewBox="0 0 1165 1024"
	version="1.1"
	xmlns="http://www.w3.org/2000/svg"
	p-id="4264"
	width="200"
	height="200"
>
	<path
		d="M354.827378 366.67392l221.047466-127.622258a17.881316 17.881316 0 0 1 17.885867 0l221.047467 127.622258A17.894969 17.894969 0 0 1 823.751111 382.161351v255.244516c0 6.385209-3.413333 12.288-8.942933 15.487431l-221.047467 127.622258a17.881316 17.881316 0 0 1-17.885867 0l-221.047466-127.622258A17.890418 17.890418 0 0 1 345.884444 637.405867V382.1568c0.004551-6.38976 3.413333-12.288 8.942934-15.487431"
		fill="#8080F2"
		p-id="4265"
	></path>
	<path
		d="M1157.880036 488.866702L893.487787 28.899556C883.884942 12.269796 866.144711 0 846.939022 0H318.149973c-19.205689 0-36.955022 12.269796-46.557866 28.899556L7.204409 487.851804c-9.602844 16.634311-9.602844 37.628587 0 54.262898l264.387698 456.198827c9.602844 16.62976 27.352178 25.131236 46.557866 25.131235h528.784498c19.205689 0 36.950471-8.246613 46.548765-24.880924l264.392248-456.940658c9.611947-16.625209 9.611947-36.12672 0-52.75648z m-218.9312 221.184c0 6.7584-4.068693 13.016178-9.930525 16.402205l-336.777671 194.300586a19.160178 19.160178 0 0 1-19.050951 0l-337.037085-194.300586c-5.85728-3.386027-9.957831-9.639253-9.957831-16.406756V321.435876c0-6.767502 4.041387-13.016178 9.903218-16.402205l336.759467-194.305138a19.123769 19.123769 0 0 1 19.0464 0l337.055289 194.305138c5.866382 3.386027 9.989689 9.634702 9.989689 16.402205v388.610275z"
		fill="#4B32C3"
		p-id="4266"
	></path>
</svg>