<svg
  t="1743472408689"
  class="icon"
  viewBox="0 0 1024 1024"
  version="1.1"
  xmlns="http://www.w3.org/2000/svg"
  p-id="11227"
  width="200"
  height="200"
>
  <path
    d="M982.05979181 874.8849683l-118.33244888-401.43761257a33.60362445 33.60362445 0 0 0-32.05665122-23.97225971h-23.17611868l-0.28738748-0.4634447-7.35686102-5.50178766 0.94889657-4.68363947 0.35470349-1.72303043v-88.37424419h38.86203891v-25.78202422h5.16909132a24.08229547 24.08229547 0 0 0 23.50881501-18.00702736 25.03248656 25.03248656 0 0 0 0.86086795-5.80988776V276.01861847h-8.66046103v3.99882873a25.29657236 25.29657236 0 0 0-3.49136973-2.4518555c-27.262976-15.86327198-72.90839547-49.46819097-72.90839546-96.50523907v-17.67433103h-24.30236697v-26.75551698H267.05005733v26.71150269h-32.10196007v17.67433102c0 47.01504095-45.73344805 80.64196709-72.90839545 96.50394453a25.23055091 25.23055091 0 0 0-3.53408949 2.49716434v-4.70564663h-8.66046103v23.11009722a24.92115627 24.92115627 0 0 0 0.86086794 6.62803596 24.08229547 24.08229547 0 0 0 23.50752048 18.00573282h13.01269871v25.91665619h34.8632102v54.76803066h-11.04629507l-0.9942054 45.77746237h-39.7682157a33.60362445 33.60362445 0 0 0-32.05794576 23.97225971l-118.26642742 401.17223221h-5.19109847v22.55732939a33.36025125 33.36025125 0 0 0 33.3822584 33.14017975h905.56706261a33.36025125 33.36025125 0 0 0 33.29552434-32.9188137V874.8849683zM852.23961031 301.53785141l0.19806436-0.44143754z m0.2873875-0.7068179a6.93743059 6.93743059 0 0 0 0.3314018-1.25958572 6.95943775 6.95943775 0 0 1-0.42072494 1.25958572z m0.35340894-1.36962148a6.84810747 6.84810747 0 0 0 0-1.21557144 6.62803595 6.62803595 0 0 1-0.08932313 1.21557144z m-685.29490298-1.21557144a6.93743059 6.93743059 0 0 0 1.67901613 4.81568238 6.93743059 6.93743059 0 0 1-1.79034643-4.81568238z"
    fill="#996E28"
    p-id="11228"
  ></path>
  <path
    d="M864.887 788.873l-94.293-319.864a12.151 12.151 0 0 0-11.656-8.721h-29.645l-9.814-9.728 3.004-14.865v-80.452h30.02V335.24h-477.73v20.019h26.932v80.52l-4.096 24.508h-49.596a12.151 12.151 0 0 0-11.657 8.721l-94.293 319.864a12.151 12.151 0 0 0 11.656 15.598h699.495a12.151 12.151 0 0 0 11.673-15.598z"
    fill="#AF3131"
    p-id="11229"
  ></path>
  <path
    d="M752.503 335.24v20.02h-30.037v80.52l-2.987 14.78 9.814 9.643h29.645a12.151 12.151 0 0 1 11.656 8.72l94.276 319.881a12.151 12.151 0 0 1-11.656 15.6H153.737a12.151 12.151 0 0 1-11.657-15.6l94.276-319.88a12.151 12.151 0 0 1 11.657-8.721h49.596l4.096-24.508v-80.452h-26.932V335.24h477.73m13.654-13.654H261.12v47.326h26.931v65.74l-1.997 11.948h-38.041a25.958 25.958 0 0 0-24.764 18.517l-94.276 319.949a25.805 25.805 0 0 0 24.764 33.109h699.477a25.805 25.805 0 0 0 24.764-33.11L783.7 465.153a25.958 25.958 0 0 0-24.763-18.517h-24.064l-0.547-0.546 1.536-7.612 0.274-1.331v-68.267h30.02v-47.292z"
    fill="#E8D4AB"
    p-id="11230"
  ></path>
  <path
    d="M251.034 335.24h519.1a5.12 5.12 0 0 0 2.576-9.642c-24.234-14.097-63.146-43.418-63.146-86.34H690.79v-20.634H336.435v20.634h-24.798c0 42.922-38.929 72.243-63.146 86.34a5.12 5.12 0 0 0 2.543 9.643z"
    fill="#AF3131"
    p-id="11231"
  ></path>
  <path
    d="M743.49580642 132.21354003v26.71150269h24.30236697c0 55.5641717 50.39508037 93.52132835 81.74620824 111.77043438a6.62803595 6.62803595 0 0 1-3.33731967 12.48323255H174.16952542a6.62803595 6.62803595 0 0 1-3.33602513-12.48323255c31.37184048-18.24910602 81.7449137-56.20626267 81.74491369-111.77043438h32.12396721v-26.71150269h458.79342523m17.67433102-17.67433102H267.05005733v26.71020815h-32.10196007v17.67562556c0 47.0137464-45.73344805 80.64067255-72.90839545 96.50394453a24.30236697 24.30236697 0 0 0 12.21785221 45.42405342h671.90549364a24.30236697 24.30236697 0 0 0 12.21785221-45.42534796c-27.262976-15.86197744-72.90839547-49.4656019-72.90839545-96.50264999v-17.67562556h-24.30236698v-26.71020815z"
    fill="#E8D4AB"
    p-id="11232"
  ></path>
  <path
    d="M239.76507417 289.67340816h544.71322485v143.01152647H239.76507417z"
    fill="#AF3131"
    p-id="11233"
  ></path>
  <path
    d="M846.75982981 456.3477997a15.72993454 15.72993454 0 0 0-15.0891381-11.2909628H170.2587253a15.72993454 15.72993454 0 0 0-15.09043264 11.28966826l-122.06589725 414.07618972a15.72993454 15.72993454 0 0 0 15.0891381 20.19220796h905.5230483a15.72993454 15.72993454 0 0 0 15.08913809-20.19220796z"
    fill="#D5382E"
    p-id="11234"
  ></path>
  <path
    d="M808.20718555 426.89705403l-18.51448637-13.56676109H673.63604859v-31.72524942h-29.69411887v31.72524942h-116.07865774v-31.72524942h-29.67081719v31.72524942h-116.07995227v-31.72524942h-29.69411887v31.72524942h-116.05535606v-31.72524942h-25.3858955l-1.3696215 63.45179338h609.77930746l-11.1796325-18.16107741z"
    fill="#E8D4AB"
    p-id="11235"
  ></path>
  <path
    d="M204.87856229 283.17741511h618.43976849v25.9166562h-618.43976849z"
    fill="#631B1B"
    p-id="11236"
  ></path>
  <path
    d="M284.72438835 132.21354003h458.77141807v38.66397455h-458.77141807z"
    fill="#FF4743"
    p-id="11237"
  ></path>
  <path
    d="M767.73215195 158.92504272h-515.10972366c0 55.5641717-50.39508037 93.52132835-81.74491371 111.77043438a6.62803595 6.62803595 0 0 0 3.33602513 12.48323255h671.94950795a6.62803595 6.62803595 0 0 0 3.33602514-12.48323255c-31.37184048-18.24910602-81.76692085-56.20626267-81.76692085-111.77043438z"
    fill="#D5382E"
    p-id="11238"
  ></path>
  <path
    d="M447.22130489 890.43884563V684.32893472a64.55732907 64.55732907 0 0 1 64.55862361-64.55732907 64.55732907 64.55732907 0 0 1 64.53402737 64.55732907v206.19793951"
    fill="#631B1B"
    p-id="11239"
  ></path>
</svg>
