<svg
  t="1730769521863"
  class="icon"
  viewBox="0 0 1024 1024"
  version="1.1"
  xmlns="http://www.w3.org/2000/svg"
  p-id="7248"
  width="200"
  height="200"
>
  <path
    d="M832 608v128H512v-128h320zM512 288v128H192V288h320z m160-160v128H352V128h320z"
    fill="#4BE8EB"
    p-id="7249"
  ></path>
  <path
    d="M992 96a16 16 0 1 1 0 32h-304v128H992a16 16 0 0 1 2.88 31.744L992 288h-144v128H992a16 16 0 0 1 2.88 31.744L992 448h-304v128H992a16 16 0 0 1 2.88 31.744L992 608h-144v128H992a16 16 0 0 1 2.88 31.744L992 768h-304v128H992a16 16 0 0 1 15.744 13.12l0.256 2.88a16 16 0 0 1-13.12 15.744L992 928H32a16 16 0 0 1-2.88-31.744L32 896h304v-128H32a16 16 0 0 1-15.744-13.12L16 752a16 16 0 0 1 13.12-15.744L32 736h144v-128H32a16 16 0 0 1-15.744-13.12L16 592a16 16 0 0 1 13.12-15.744L32 576h304v-128H32a16 16 0 0 1-15.744-13.12L16 432a16 16 0 0 1 13.12-15.744L32 416h144V288H32a16 16 0 0 1-15.744-13.12L16 272a16 16 0 0 1 13.12-15.744L32 256h304V128H32a16 16 0 0 1-15.744-13.12L16 112A16 16 0 0 1 32 96h960zM656 768h-288v128h288v-128z m-160-160h-288v128h288v-128z m320 0h-288v128h288v-128z m-160-160h-288v128h288v-128z m-160-160h-288v128h288V288z m320 0h-288v128h288V288z m-160-160h-288v128h288V128z"
    fill="#62708B"
    p-id="7250"
  ></path>
</svg>
