<svg
  t="1734368418998"
  class="icon"
  viewBox="0 0 1133 1024"
  version="1.1"
  xmlns="http://www.w3.org/2000/svg"
  p-id="6775"
  width="256"
  height="256"
>
  <path
    d="M78.263589 0h977.188571A78.262857 78.262857 0 0 1 1133.715017 78.628571v866.742858A78.262857 78.262857 0 0 1 1055.45216 1024H78.263589A78.262857 78.262857 0 0 1 0.000731 945.371429V78.628571A78.262857 78.262857 0 0 1 78.263589 0z"
    fill="#14447A"
    p-id="6776"
  ></path>
  <path
    d="M109.715017 36.571429h914.285714a73.142857 73.142857 0 0 1 73.142858 73.142857v804.571428a73.142857 73.142857 0 0 1-73.142858 73.142857H109.715017a73.142857 73.142857 0 0 1-73.142857-73.142857V109.714286a73.142857 73.142857 0 0 1 73.142857-73.142857z"
    fill="#F1E0BF"
    p-id="6777"
  ></path>
  <path
    d="M438.857874 146.285714h256v36.571429h109.714286v109.714286h182.857143v585.142857H146.286446V292.571429h182.857143V182.857143h109.714285z"
    fill="#0D0E10"
    p-id="6778"
  ></path>
  <path
    d="M365.715017 731.428571h36.571429v146.285715h-36.571429zM438.857874 731.428571h36.571429v146.285715h-36.571429zM292.57216 731.428571h36.571429v146.285715H292.57216zM512.000731 731.428571h36.571429v146.285715h-36.571429zM585.143589 731.428571h36.571428v146.285715h-36.571428zM658.286446 731.428571h36.571428v146.285715h-36.571428zM731.429303 731.428571h36.571428v146.285715h-36.571428zM804.57216 731.428571h36.571429v146.285715h-36.571429z"
    fill="#968460"
    p-id="6779"
  ></path>
</svg>