<svg
  t="1753423926792"
  class="icon"
  viewBox="0 0 1129 1024"
  version="1.1"
  xmlns="http://www.w3.org/2000/svg"
  p-id="12009"
  width="200"
  height="200"
>
  <path
    d="M813.95501653 168.76461653l42.56073494-111.86317333h74.0481472l42.560736 111.86317333 127.7952 37.28772374v64.82037653l-127.757536 37.3253888-42.5984 111.86317227h-74.01048214l-42.5984-111.90083627-127.757536-37.2877248v-64.78271253l127.757536-37.28772374v-0.037664z m144.59350721 354.34637227v398.4890112h-129.97973334v-398.4890112h129.94206933z"
    fill="#2976FF"
    p-id="12010"
  ></path>
  <path
    d="M814.04390542 167.34239431l42.56073495-111.86317333h74.0481472l42.560736 111.86317333 127.7952 37.28772373v64.82037654l-127.757536 37.3253888-42.5984 111.86317226h-74.01048215l-42.5984-111.90083625-127.75753599-37.28772481v-64.78271254l127.75753599-37.28772372v-0.03766401z"
    fill="#44D7B6"
    p-id="12011"
  ></path>
  <path
    d="M265.41116373 181.53283627h216.15580587l219.09362773 740.06716373h-134.27347093l-50.58324587-170.80790827H231.09892374l-50.4702528 170.80790827H46.317536L265.41116373 181.53283627z m-0.48963733 455.437536h217.17274453l-101.12882773-341.61581547h-14.95275307L264.8838624 636.93270827v0.037664z"
    fill="#2976FF"
    p-id="12012"
  ></path>
</svg>
