<svg
  t="1746463758204"
  class="icon"
  viewBox="0 0 1024 1024"
  version="1.1"
  xmlns="http://www.w3.org/2000/svg"
  p-id="12301"
  width="256"
  height="256"
>
  <path
    d="M837.818182 1024H186.181818c-102.4 0-186.181818-83.781818-186.181818-186.181818V186.181818c0-102.4 83.781818-186.181818 186.181818-186.181818h651.636364c102.4 0 186.181818 83.781818 186.181818 186.181818v651.636364c0 102.4-83.781818 186.181818-186.181818 186.181818z"
    fill="#F75B2B"
    p-id="12302"
  ></path>
  <path
    d="M660.945455 844.8c-11.636364 0-25.6 0-37.236364-2.327273-67.490909-11.636364-167.563636-55.854545-274.618182-204.8-97.745455-139.636364-139.636364-246.690909-123.345454-325.818182 11.636364-62.836364 53.527273-97.745455 90.763636-123.345454 9.309091-9.309091 32.581818-18.618182 65.163636 2.327273 39.563636 25.6 79.127273 97.745455 74.472728 123.345454-4.654545 25.6-20.945455 46.545455-34.909091 65.163637-20.945455 27.927273-23.272727 34.909091-16.290909 44.218181l146.618181 207.127273c16.290909 23.272727 27.927273 18.618182 65.163637 4.654546 20.945455-9.309091 46.545455-18.618182 72.145454-13.963637 23.272727 4.654545 102.4 83.781818 114.036364 132.654546 6.981818 30.254545-6.981818 46.545455-16.290909 53.527272-37.236364 25.6-81.454545 37.236364-125.672727 37.236364zM386.327273 609.745455c97.745455 137.309091 186.181818 176.872727 244.363636 186.181818 65.163636 9.309091 107.054545-13.963636 128-27.927273 2.327273-11.636364-44.218182-81.454545-81.454545-102.4-11.636364-2.327273-27.927273 4.654545-41.890909 11.636364-32.581818 13.963636-81.454545 32.581818-121.018182-20.945455l-146.618182-207.127273c-27.927273-41.890909-2.327273-74.472727 18.618182-100.072727 11.636364-13.963636 20.945455-27.927273 25.6-41.890909-4.654545-16.290909-34.909091-69.818182-58.181818-81.454545-6.981818-2.327273-6.981818 0-9.309091 0-30.254545 20.945455-62.836364 46.545455-69.818182 93.090909-16.290909 67.490909 20.945455 165.236364 111.709091 290.909091z"
    fill="#FFFFFF"
    p-id="12303"
  ></path>
</svg>