<svg
  t="1734244278196"
  class="icon"
  viewBox="0 0 1024 1024"
  version="1.1"
  xmlns="http://www.w3.org/2000/svg"
  p-id="5364"
  width="256"
  height="256"
>
  <path
    d="M108.606061 15.515152h806.787878a93.090909 93.090909 0 0 1 93.090909 93.090909v806.787878a93.090909 93.090909 0 0 1-93.090909 93.090909h-806.787878a93.090909 93.090909 0 0 1-93.090909-93.090909v-806.787878a93.090909 93.090909 0 0 1 93.090909-93.090909z"
    fill="#3E3E58"
    p-id="5365"
  ></path>
  <path
    d="M533.33333333 858.86721518c20.9285258 0 37.75972016-17.27306299 37.75972016-37.75972015V204.61981129c0-20.9285258-17.27306299-37.75972016-37.75972016-37.75972018s-37.75972016 17.27306299-37.75972016 37.75972018v616.40734339c0 20.9285258 16.83119436 37.75972016 37.75972016 37.75972016z m161.1616987-111.55185418c20.9285258 0 37.75972016-17.27306299 37.75972016-37.75972015v-383.34149767c0-20.9285258-17.27306299-37.75972016-37.75972016-37.75971887s-37.75972016 17.27306299-37.75972015 37.75971887v383.34149767c0 20.48665716 16.83119436 37.75972016 37.75972015 37.75972015z m161.16169871-100.62563657c20.9285258 0 37.75972016-17.27306299 37.75971886-37.75972016v-173.01182308c0-20.9285258-17.27306299-37.75972016-37.75971886-37.75972016s-37.75972016 17.27306299-37.75972017 37.75972016v172.52978491c-1.84781616 20.96869532 14.98337821 38.28192912 37.75972017 38.28192784z m-644.64679482 0c20.9285258 0 37.75972016-17.27306299 37.75972017-37.75972016v-173.01182308c0-20.9285258-17.27306299-37.75972016-37.75972017-37.75972016-20.9285258 0-37.75972016 17.27306299-37.75971886 37.75972016v172.52978491a37.75972016 37.75972016 0 0 0 37.75971886 38.28192784z m159.35405337 98.33595178c20.9285258 0 37.75972016-17.27306299 37.75971886-37.75972016v-383.34149766c0-20.9285258-17.27306299-37.75972016-37.75971886-37.75972016-20.96869532 0-37.79988969 17.27306299-37.79989098 37.75972016v383.34149766c-0.44186863 20.9285258 16.87136389 37.75972016 37.75972016 37.75972016z"
    fill="#FFFFFF"
    p-id="5366"
  ></path>
</svg>