<svg
  t="1734349590458"
  class="icon"
  viewBox="0 0 1024 1024"
  version="1.1"
  xmlns="http://www.w3.org/2000/svg"
  p-id="6169"
  width="256"
  height="256"
>
  <path
    d="M0 0m256 0l512 0q256 0 256 256l0 512q0 256-256 256l-512 0q-256 0-256-256l0-512q0-256 256-256Z"
    fill="#F05151"
    p-id="6170"
  ></path>
  <path
    d="M428.373333 253.696c35.754667-66.773333 131.498667-66.773333 167.253334 0l225.536 421.034667c33.877333 63.189333-11.946667 139.648-83.626667 139.648H286.421333c-71.68 0-117.461333-76.458667-83.626666-139.648l225.578666-421.034667z"
    fill="#FFFFFF"
    p-id="6171"
  ></path>
  <path
    d="M512 356.224a32 32 0 0 0-32 32v189.610667a32 32 0 0 0 64 0V388.224a32 32 0 0 0-32-32z m0 358.485333a32 32 0 1 0 0-64 32 32 0 0 0 0 64z"
    fill="#F05151"
    p-id="6172"
  ></path>
</svg>