<svg
  t="1733736116750"
  class="icon"
  viewBox="0 0 1024 1024"
  version="1.1"
  xmlns="http://www.w3.org/2000/svg"
  p-id="5120"
  width="200"
  height="200"
>
  <path
    d="M936.458549 836.91827h-26.197442V679.033688c0-33.89669-27.497315-61.394004-61.394004-61.394004h-16.098428V41.195977c0-5.199492-2.599746-9.999024-6.899326-12.79875l-38.996192-25.797481c-10.199004-6.699346-23.797676 0.599941-23.797676 12.79875v185.081926l-11.598867-31.296944C735.878137 126.987599 695.582072 98.990333 650.686456 98.990333H382.212675c-45.195586 0-85.591641 28.297237-100.990138 70.793087L270.023631 200.480422V15.398496c0-12.198809-13.598672-19.598086-23.797677-12.79875l-38.996191 25.797481c-4.29958 2.799727-6.899326 7.699248-6.899327 12.79875v576.443707h-16.098427c-33.89669 0-61.394004 27.497315-61.394005 61.394004V836.91827H96.640562c-8.49917 0-15.398496 6.899326-15.398496 15.398496v84.89171c0 8.49917 6.899326 15.398496 15.398496 15.398496h66.293526v40.696026c0 16.99834 13.798652 30.697002 30.697003 30.697002H275.023142c16.99834 0 30.697002-13.798652 30.697003-30.697002v-40.696026h421.658822v40.696026c0 16.99834 13.798652 30.697002 30.697002 30.697002h81.392052c16.99834 0 30.697002-13.798652 30.697002-30.697002v-40.696026h66.293526c8.49917 0 15.398496-6.899326 15.398496-15.398496v-84.89171c-0.09999-8.59916-6.899326-15.398496-15.398496-15.398496zM290.421639 286.072063h452.355824v151.285226H290.421639V286.072063zM308.919832 764.9253c0 15.998438-12.998731 28.997168-28.997168 28.997169h-52.494874c-15.998438 0-28.997168-12.998731-28.997168-28.997169v-0.699931c0-15.998438 12.998731-28.997168 28.997168-28.997169h52.494874c15.998438 0 28.997168 12.998731 28.997168 28.997169v0.699931z m342.766527 6.799336c0 16.99834-13.798652 30.697002-30.697002 30.697003H412.209745c-16.99834 0-30.697002-13.798652-30.697002-30.697003V577.143638c0-16.99834 13.798652-30.697002 30.697002-30.697002H620.989357c16.99834 0 30.697002 13.798652 30.697002 30.697002v194.580998z m183.082121-6.799336c0 15.998438-12.998731 28.997168-28.997169 28.997169h-52.494873c-15.998438 0-28.997168-12.998731-28.997168-28.997169v-0.699931c0-15.998438 12.998731-28.997168 28.997168-28.997169h52.494873c15.998438 0 28.997168 12.998731 28.997169 28.997169v0.699931z"
    fill="#626264"
    p-id="5121"
  ></path>
  <path
    d="M616.289815 628.138658h-199.98047c-8.39918 0-15.198516 6.799336-15.198516 15.198516v0.299971c0 8.39918 6.799336 15.198516 15.198516 15.198516h199.98047c8.39918 0 15.198516-6.799336 15.198516-15.198516v-0.299971c0-8.39918-6.799336-15.198516-15.198516-15.198516zM616.289815 566.744654h-199.98047c-8.39918 0-15.198516 6.799336-15.198516 15.198516v0.29997c0 8.39918 6.799336 15.198516 15.198516 15.198516h199.98047c8.39918 0 15.198516-6.799336 15.198516-15.198516v-0.29997c0-8.39918-6.799336-15.198516-15.198516-15.198516zM616.289815 751.026658h-199.98047c-8.39918 0-15.198516 6.799336-15.198516 15.198515v0.299971c0 8.39918 6.799336 15.198516 15.198516 15.198516h199.98047c8.39918 0 15.198516-6.799336 15.198516-15.198516v-0.299971c0-8.39918-6.799336-15.198516-15.198516-15.198515zM616.289815 689.532663h-199.98047c-8.39918 0-15.198516 6.799336-15.198516 15.198516v0.29997c0 8.39918 6.799336 15.198516 15.198516 15.198516h199.98047c8.39918 0 15.198516-6.799336 15.198516-15.198516v-0.29997c0-8.39918-6.799336-15.198516-15.198516-15.198516z"
    fill="#FF9623"
    p-id="5122"
  ></path>
</svg>