<svg t="1739124105271" class="icon" viewBox="0 0 1024 1024" version="1.1" xmlns="http://www.w3.org/2000/svg" p-id="8675" width="256" height="256"><path d="M210.666667 220.72c-13.333333 9.994667-44.442667 41.776-56 61.333333l330.666666-42.666666c-7.328-10.992-31.178667-29.066667-52.581333-44.005334-24.197333-16.890667-54.122667-22.965333-83.093333-17.338666-46.346667 9.002667-115.088 24.746667-138.992 42.677333zM810.666667 220.72c13.328 9.994667 44.442667 41.776 56 61.333333l-330.666667-42.666666c7.328-10.992 31.178667-29.066667 52.581333-44.005334 24.197333-16.890667 54.122667-22.965333 83.093334-17.338666 46.352 9.002667 115.088 24.746667 138.992 42.677333z" fill="#322E63" p-id="8676"></path><path d="M33.162667 679.578667c8.064-109.509333 20.117333-193.989333 51.877333-287.765334 16.176-47.770667 36.464-82.794667 64.981333-108.714666 28.48-25.882667 63.344-41.013333 105.530667-52.218667C351.861333 205.296 450.229333 202.666667 514.666667 202.666667s162.810667 2.629333 259.114666 28.213333c42.186667 11.205333 77.056 26.336 105.530667 52.213333 28.517333 25.92 48.805333 60.949333 64.981333 108.72 31.76 93.781333 43.813333 178.256 51.877334 287.765334 4.170667 56.602667-3.205333 95.066667-17.237334 121.637333-14.421333 27.312-34.592 39.648-50.304 46.282667-18.464 7.792-42.837333 7.386667-65.344 1.104-23.072-6.442667-47.269333-19.872-65.104-41.925334-25.797333-31.893333-50.485333-78.106667-57.722666-92.037333a66.634667 66.634667 0 0 0-3.68-6.458667 96.197333 96.197333 0 0 0-79.909334-42.549333H372.464a96.197333 96.197333 0 0 0-79.909333 42.549333c-1.130667 1.685333-2.234667 3.669333-3.68 6.458667-7.237333 13.930667-31.925333 60.144-57.722667 92.037333-17.834667 22.053333-42.026667 35.482667-65.104 41.925334-22.506667 6.282667-46.88 6.688-65.344-1.104-15.712-6.634667-35.882667-18.970667-50.304-46.282667-14.032-26.570667-21.408-65.034667-17.237333-121.637333z m21.274666 1.568c8.005333-108.672 19.866667-191.136 50.810667-282.490667 30.933333-91.36 74.789333-125.642667 155.786667-147.157333C354.528 226.661333 450.613333 224 514.666667 224c64.053333 0 160.133333 2.661333 253.637333 27.498667 80.992 21.514667 124.842667 55.802667 155.781333 147.157333 30.938667 91.354667 42.805333 173.818667 50.810667 282.490667 8.005333 108.672-29.354667 136.058667-54.565333 146.698666-25.205333 10.64-76.421333 1.450667-105.562667-34.581333-24.298667-30.037333-48.122667-74.501333-55.376-88.458667a88.266667 88.266667 0 0 0-4.890667-8.506666 117.546667 117.546667 0 0 0-97.632-52H372.464a117.541333 117.541333 0 0 0-97.632 52 87.173333 87.173333 0 0 0-4.890667 8.506666c-7.253333 13.957333-31.077333 58.421333-55.376 88.458667-29.141333 36.032-80.357333 45.221333-105.562666 34.581333-25.210667-10.64-62.570667-38.026667-54.565334-146.698666z" fill="#322E63" p-id="8677"></path><path d="M105.248 398.656c-30.944 91.354667-42.805333 173.818667-50.810667 282.490667-8.005333 108.672 29.354667 136.058667 54.56 146.698666 25.210667 10.64 76.426667 1.450667 105.568-34.581333 24.298667-30.037333 48.122667-74.501333 55.376-88.458667 1.514667-2.917333 3.066667-5.781333 4.896-8.506666a117.541333 117.541333 0 0 1 97.626667-52h284.405333a117.546667 117.546667 0 0 1 97.632 52c1.824 2.725333 3.376 5.589333 4.890667 8.506666 7.253333 13.957333 31.077333 58.421333 55.376 88.458667 29.141333 36.032 80.357333 45.221333 105.562667 34.581333 25.210667-10.64 62.570667-38.026667 54.565333-146.698666-8.005333-108.672-19.872-191.136-50.810667-282.490667-30.938667-91.36-74.789333-125.642667-155.781333-147.157333C674.8 226.661333 578.72 224 514.666667 224c-64.053333 0-160.133333 2.661333-253.637334 27.498667-80.992 21.514667-124.842667 55.802667-155.786666 147.157333z" fill="#464185" p-id="8678"></path><path d="M54.437333 681.141333c8-108.672 19.861333-191.136 50.784-282.490666 1.578667-4.672 7.813333-5.402667 10.533334-1.285334 61.12 92.544 137.477333 205.322667 180.613333 260.565334 3.749333 4.805333 2.752 11.701333-1.818667 15.733333a116.853333 116.853333 0 0 0-19.829333 22.645333c-1.824 2.72-3.365333 5.573333-4.874667 8.48-7.237333 13.941333-31.061333 58.421333-55.36 88.474667-29.125333 36.032-80.32 45.221333-105.509333 34.581333-25.194667-10.64-62.544-38.032-54.538667-146.704z" fill="#8FFBC1" p-id="8679"></path><path d="M974.896 681.141333c-8-108.672-19.861333-191.136-50.784-282.490666-1.578667-4.672-7.813333-5.402667-10.533333-1.285334-61.125333 92.544-137.477333 205.322667-180.613334 260.565334-3.749333 4.805333-2.752 11.701333 1.818667 15.733333a116.933333 116.933333 0 0 1 19.829333 22.645333c1.824 2.72 3.365333 5.573333 4.874667 8.48 7.242667 13.941333 31.061333 58.421333 55.354667 88.474667 29.130667 36.032 80.32 45.221333 105.514666 34.581333 25.194667-10.64 62.544-38.032 54.538667-146.704z" fill="#F64679" p-id="8680"></path><path d="M307.04 669.168a117.642667 117.642667 0 0 1 66.917333-20.864h284.410667c24.368 0 47.685333 7.530667 67.066667 20.965333a1378.666667 1378.666667 0 0 1 6.954666-8.736l0.005334-0.005333c0.970667-1.216 1.690667-2.112 2.069333-2.597333 9.530667-12.202667 20.677333-27.210667 32.928-44.192A134.805333 134.805333 0 0 0 679.738667 581.333333h-327.146667a134.794667 134.794667 0 0 0-87.653333 32.405334c12.245333 16.981333 23.397333 31.989333 32.922666 44.192 0.528 0.672 1.568 1.930667 2.949334 3.610666 1.669333 2.026667 3.845333 4.666667 6.234666 7.626667z" fill="#3F3A78" p-id="8681"></path><path d="M930.026667 823.92c-24.453333-1.232-50.346667-9.973333-68.661334-32.768-26.122667-32.506667-51.776-102.282667-61.824-131.498667-3.034667-8.816-6.698667-17.477333-12.336-24.906666a135.130667 135.130667 0 0 0-19.813333-21.008c-12.250667 16.981333-23.397333 31.989333-32.928 44.192-0.378667 0.490667-1.098667 1.386667-2.074667 2.602666a1378.666667 1378.666667 0 0 0-6.954666 8.736c11.893333 8.245333 20.970667 14.410667 29.232 26.730667 1.829333 2.725333 4.709333 9.898667 6.218666 12.810667 7.253333 13.957333 33.482667 58.485333 57.781334 88.522666 21.973333 27.168 56.208 35.013333 82.666666 34.666667 10.016-0.133333 14.784-1.733333 20.522667-4.154667 2.613333-1.104 5.36-2.389333 8.170667-3.925333z" fill="#DD3F6D" p-id="8682"></path><path d="M101.333333 823.92c24.453333-1.232 50.346667-9.973333 68.661334-32.768 26.122667-32.506667 51.776-102.282667 61.824-131.498667 3.04-8.816 6.698667-17.477333 12.336-24.906666a135.114667 135.114667 0 0 1 19.813333-21.008c12.250667 16.981333 23.402667 31.989333 32.928 44.192a1252.213333 1252.213333 0 0 1 9.029333 11.338666c-12.730667 8.826667-29.317333 23.402667-36.592 37.397334-7.253333 13.957333-34.368 60.629333-58.666666 90.666666-21.973333 27.168-56 34.666667-74.666667 34.666667-10.666667 0-20.757333-1.733333-26.496-4.154667a90.101333 90.101333 0 0 1-8.170667-3.925333z" fill="#81E2AE" p-id="8683"></path><path d="M408 568a24 24 0 0 1-48 0v-112a24 24 0 1 1 48 0v112z" fill="#F64679" p-id="8684"></path><path d="M328 538.666667a24 24 0 1 1 0-48h112a24 24 0 1 1 0 48h-112z" fill="#F64679" p-id="8685"></path><path d="M768 312a24 24 0 0 1-48 0v-5.333333a24 24 0 0 1 48 0v5.333333zM768 418.666667a24 24 0 0 1-48 0v-5.333334a24 24 0 0 1 48 0v5.333334zM794.666667 386.666667a24 24 0 0 1 0-48h5.333333a24 24 0 0 1 0 48h-5.333333zM688 386.666667a24 24 0 0 1 0-48h5.333333a24 24 0 0 1 0 48h-5.333333z" fill="#8FFBC1" p-id="8686"></path><path d="M272 314.666667a42.666667 42.666667 0 1 1 0 85.333333 42.666667 42.666667 0 0 1 0-85.333333z" fill="#EFC12F" p-id="8687"></path><path d="M272 293.333333c35.344 0 64 28.656 64 64s-28.656 64-64 64-64-28.656-64-64 28.656-64 64-64z m42.666667 64a42.666667 42.666667 0 1 0-85.333334 0 42.666667 42.666667 0 0 0 85.333334 0z" fill="#322E63" p-id="8688"></path><path d="M634.666667 474.666667a42.666667 42.666667 0 1 1 0 85.333333 42.666667 42.666667 0 0 1 0-85.333333z" fill="#EFC12F" p-id="8689"></path><path d="M634.666667 453.333333c35.344 0 64 28.656 64 64s-28.656 64-64 64-64-28.656-64-64 28.656-64 64-64z m42.666666 64a42.666667 42.666667 0 1 0-85.333333 0 42.666667 42.666667 0 0 0 85.333333 0z" fill="#322E63" p-id="8690"></path><path d="M448 325.333333a26.666667 26.666667 0 1 1-53.333333 0 26.666667 26.666667 0 0 1 53.333333 0zM629.333333 325.333333a26.666667 26.666667 0 1 1-53.333333 0 26.666667 26.666667 0 0 1 53.333333 0z" fill="#322E63" p-id="8691"></path></svg>