<svg
  t="1745266741717"
  class="icon"
  viewBox="0 0 1024 1024"
  version="1.1"
  xmlns="http://www.w3.org/2000/svg"
  p-id="10745"
  width="256"
  height="256"
>
  <path
    d="M457.946166 1023.986526C311.327464 1018.152498 91.197307 891.070381 63.185886 641.527559c-24.211892-215.710846 125.182353-435.046065 393.776714-476.813937V7.652952L467.418041 0 707.367726 238.642755 467.06773 485.666031l-8.461362-4.688781V277.325193c-61.964658 7.855055-119.927685 33.65682-166.128341 73.929133C189.71559 439.667478 151.989771 550.594861 186.023849 677.946448c33.131354 124.010158 120.075894 202.237339 250.014395 234.89712 15.764003 3.961211 23.05317 8.905988 22.28518 25.464928-1.320404 28.496467-0.363785 57.087249-0.363785 85.67803z"
    fill="#465B7C"
    p-id="10746"
  ></path>
  <path
    d="M877.753695 336.837673c46.887804 58.636702 76.475625 128.402521 85.610663 201.913975-34.42481 0-66.478283 0.700622-98.437442-0.633255a24.616097 24.616097 0 0 1-16.639781-13.594768c-16.073894-38.736332-30.854331-77.998132-46.60486-118.499494L877.753695 336.837673z"
    fill="#465B7C"
    opacity=".15"
    p-id="10747"
  ></path>
  <path
    d="M801.682275 781.894554c14.21455-37.671925 29.439613-79.358956 45.985079-120.520519a24.845147 24.845147 0 0 1 16.976619-13.810345c31.528006-1.374298 63.1638-0.646728 98.720385-0.646728-8.717359 81.609031-40.447468 150.768543-89.24851 215.387481L801.682275 781.894554z"
    fill="#465B7C"
    opacity=".346"
    p-id="10748"
  ></path>
  <path
    d="M788.208768 937.86387c-63.258115 46.806963-133.077828 77.135827-215.441376 86.122656 0-34.168814-0.565887-65.939343 0.552414-97.655978 1.226089-6.7637 5.591505-12.557308 11.802792-15.669688 42.037342-16.424205 84.546256-31.689688 129.776819-48.356417L788.208768 937.86387z"
    fill="#465B7C"
    opacity=".695"
    p-id="10749"
  ></path>
</svg>
