<?xml version="1.0" standalone="no"?>
<!DOCTYPE svg PUBLIC "-//W3C//DTD SVG 1.1//EN" "http://www.w3.org/Graphics/SVG/1.1/DTD/svg11.dtd">
<svg
  t="1729662351844"
  class="icon"
  viewBox="0 0 1024 1024"
  version="1.1"
  xmlns="http://www.w3.org/2000/svg"
  p-id="2974"
  width="200"
  height="200"
>
  <path
    d="M594.393575 511.99934885l190.33251653-190.33512172c14.30722871-14.30657757 16.75299248-35.07049176 5.46144524-46.36203838l-41.49916992-41.49851878c-11.29154662-11.29154662-32.02680235-8.81777554-46.36203837 5.48945318L512.00749033 429.61782282 321.67041455 239.29247138c-14.30657757-14.32090648-35.07049176-16.78165092-46.36203837-5.47512363l-41.49851878 41.49851877c-11.29154662 11.27786885-8.84578284 32.04113189 5.48945318 46.34836061l190.33056249 190.33381945L239.29931058 702.33381946c-14.30722871 14.30722871-16.78165092 35.05616222-5.48945318 46.3483606l41.49851878 41.50568323c11.29154662 11.29219839 32.05546143 8.84578284 46.36203837-5.46144523l190.34163504-190.34489203 190.31362774 190.31688473c14.33523602 14.33523602 35.07049176 16.78165092 46.36203837 5.48945317l41.49916992-41.50568324c11.29154662-11.29219839 8.84578284-32.04113189-5.46144523-46.36269014L594.393575 511.99934885z"
    p-id="2975"
  ></path>
</svg>
