<svg
  t="1743188413059"
  class="icon"
  viewBox="0 0 1024 1024"
  version="1.1"
  xmlns="http://www.w3.org/2000/svg"
  p-id="10280"
  width="256"
  height="256"
>
  <path
    d="M850.72402963 820.86874075c-46.8461037-5.5826963-91.7504-16.384-133.01380741-33.25345186-61.53102222-25.2434963-120.2706963-69.29825185-161.5341037-119.05706667-60.80284445-73.66731852-105.58577778-152.67460741-106.07122963-296.61108147-0.24272592-83.37635555 30.82619259-172.33540741 69.66234074-231.6818963 25.48622222-38.95751111 52.79288889-68.93416297 88.95905185-100.6098963 6.18951111-5.33997037 24.02986667-14.19946667 23.54441482-18.93262223-0.48545185-4.85451852-16.01991111-7.28177778-26.33576297-8.61677037-10.55857778-1.45635555-21.11715555-2.18453333-31.67573333-2.3058963-278.16391111 0-503.6562963 225.49238518-503.6562963 503.6562963s225.49238518 505.11265185 503.6562963 503.6562963c138.83922963-0.72817778 248.67271111-50.48699259 333.01997037-126.8242963 12.74311111-11.52948148 25.60758518-23.30168889 36.65161481-36.40888888 16.99081482-20.26761482 17.96171852-34.46708148 9.95176297-35.31662222-6.5536-0.72817778-51.21517037 8.37404445-103.15851852 2.3058963z"
    fill="#FDBC11"
    p-id="10281"
  ></path>
  <path
    d="M889.43881482 839.55863703c-252.79905185 0-457.7810963-204.98204445-457.7810963-457.78109628 0-142.60148148 65.17191111-269.91122963 167.48088889-353.8944-8.8594963-0.48545185-17.84035555-0.72817778-26.82121482-0.72817778-268.57623703 0-486.18002963 217.60379259-486.18002962 486.18002962s217.60379259 486.18002963 486.18002962 486.18002963C716.37522963 999.51502222 845.74814815 936.77037037 934.7072 837.25274075c-14.92764445 1.45635555-30.09801482 2.3058963-45.26838518 2.30589628z"
    fill="#F58A33"
    p-id="10282"
  ></path>
  <path
    d="M572.92420741 712.49161482c-90.41540741-86.28906667-141.38785185-205.83158518-141.26648889-330.71407407 0-142.60148148 65.17191111-269.91122963 167.48088889-353.8944-8.8594963-0.48545185-17.84035555-0.72817778-26.82121482-0.72817778-268.57623703 0-486.18002963 217.60379259-486.18002962 486.18002962 0 30.82619259 2.91271111 61.65238518 8.61677036 91.99312593 77.79365925 87.62405925 188.84077037 142.35875555 312.14554075 142.35875556 57.28331852 0 113.7170963-11.89357037 166.02453333-35.19525926z"
    fill="#F79A4D"
    p-id="10283"
  ></path>
  <path
    d="M161.98921482 252.1618963C201.43217778 357.86903703 303.2557037 433.11407408 422.79822222 433.11407408c3.88361482 0 7.76722963-0.12136297 11.65084445-0.24272593-1.82044445-16.86945185-2.79134815-33.98162963-2.79134815-50.97244445 0-142.60148148 65.17191111-269.91122963 167.48088889-353.8944-8.8594963-0.48545185-17.84035555-0.72817778-26.82121482-0.72817778-172.45677037-0.12136297-323.91774815 89.68722963-410.32817777 224.88557038z"
    fill="#F4B04E"
    p-id="10284"
  ></path>
  <path
    d="M349.25226667 81.16148148c8.49540741 64.07964445 50.36562963 118.81434075 109.95484444 143.81511111 28.15620741-76.94411852 76.45866667-145.02874075 139.81013334-197.09345184-8.8594963-0.48545185-17.84035555-0.72817778-26.82121482-0.72817778-77.55093333-0.12136297-154.13096297 18.44717037-222.94376296 54.00651851z"
    fill="#F2C051"
    p-id="10285"
  ></path>
</svg>
