<svg t="1743188485647" class="icon" viewBox="0 0 1024 1024" version="1.1" xmlns="http://www.w3.org/2000/svg" p-id="10924" width="256" height="256"><path d="M1003.86133333 400.95288889c-99.78311111 3.64088889-129.024-21.504-92.84266666-80.09955556-68.38044445-8.192-69.85955555-46.76266667-4.77866667-122.53866666-88.40533333 46.64888889-125.61066667 36.63644445-118.32888889-31.97155556-65.19466667 22.30044445-83.28533333-11.83288889-57.45777778-108.31644444-59.392 80.32711111-97.28 87.49511111-120.49066666 22.64177778-49.03822222 48.35555555-80.09955555 25.48622222-98.75911112-72.59022223-18.65955555 98.19022222-49.72088889 121.05955555-98.7591111 72.59022223-23.21066667 64.85333333-61.09866667 57.79911111-120.49066667-22.64177778 25.82755555 96.48355555 7.73688889 130.61688889-57.45777778 108.31644444 7.28177778 68.49422222-30.03733333 78.50666667-118.32888889 31.97155556 65.08088889 75.776 63.60177778 114.34666667-4.77866666 122.53866666 36.18133333 58.59555555 7.05422222 83.74044445-92.84266667 80.09955556 91.59111111 40.04977778 106.95111111 75.43466667 48.81066667 112.41244444 58.02666667 37.09155555 42.66666667 72.47644445-48.81066667 112.41244445 99.89688889-3.64088889 129.024 21.504 92.84266667 80.09955555 68.38044445 8.192 69.85955555 46.76266667 4.77866666 122.53866667 88.29155555-46.64888889 125.61066667-36.63644445 118.32888889 31.97155555 65.19466667-22.30044445 83.28533333 11.83288889 57.45777778 108.31644445 59.392-80.32711111 97.28-87.49511111 120.49066667-22.64177778 49.03822222-48.35555555 80.09955555-25.48622222 98.7591111 72.59022223 18.65955555-98.19022222 49.72088889-121.05955555 98.75911112-72.59022223 23.21066667-64.85333333 61.09866667-57.79911111 120.49066666 22.64177778-25.82755555-96.48355555-7.73688889-130.61688889 57.45777778-108.31644445-7.28177778-68.49422222 30.03733333-78.50666667 118.32888889-31.97155555-65.08088889-75.776-63.60177778-114.34666667 4.77866667-122.53866667-36.29511111-58.59555555-7.05422222-83.85422222 92.84266666-80.09955555-91.59111111-40.04977778-106.95111111-75.43466667-48.81066666-112.41244445-58.14044445-36.97777778-42.78044445-72.47644445 48.81066666-112.41244444z m-492.65777778 521.32977778c-195.92533333-53.47555555-355.44177778-212.87822222-408.91733333-408.91733334 53.47555555-195.92533333 212.992-355.44177778 408.91733333-408.91733333 195.92533333 53.47555555 355.44177778 212.992 408.91733334 408.91733333-53.58933333 196.03911111-212.992 355.44177778-408.91733334 408.91733334z" fill="#F9A433" p-id="10925"></path><path d="M929.45066667 513.47911111c0-4.55111111-15.24622222-33.792-15.36-38.34311111-0.91022222-25.14488889-4.096-25.03111111-9.32977778-48.81066667 1.13777778-1.13777778 2.048-2.27555555 3.18577778-3.29955555-1.47911111-0.45511111-2.95822222-1.13777778-4.32355556-1.59288889-13.42577778-57.23022222-39.25333333-110.70577778-75.66222222-156.78577778 0.56888889-1.59288889 1.024-3.18577778 1.59288889-4.66488889-1.59288889 0.22755555-3.29955555 0.34133333-4.89244445 0.45511111-36.97777778-45.62488889-83.39911111-82.71644445-136.07822222-108.65777778-0.22755555-1.59288889-0.45511111-3.072-0.56888889-4.66488888-1.25155555 0.91022222-2.73066667 1.59288889-3.98222222 2.38933333-51.54133333-24.576-81.80622222-38.45688889-142.56355555-38.79822222-0.79644445-1.36533333-29.12711111-23.32444445-29.92355556-24.68977778-0.79644445 1.36533333-32.88177778 23.43822222-33.67822222 24.68977778-60.75733333 0.34133333-87.15377778 14.22222222-138.80888889 38.79822222-1.36533333-0.79644445-2.73066667-1.59288889-3.98222223-2.38933333-0.11377778 1.59288889-0.45511111 3.072-0.56888888 4.66488888-52.67911111 25.94133333-98.98666667 63.03288889-135.96444445 108.65777778-1.59288889-0.22755555-3.29955555-0.22755555-4.89244444-0.45511111 0.56888889 1.59288889 1.024 3.18577778 1.59288889 4.66488889-36.40888889 46.08-62.23644445 99.55555555-75.66222222 156.78577778-1.47911111 0.56888889-2.95822222 1.13777778-4.43733334 1.59288889 1.13777778 1.024 2.16177778 2.27555555 3.18577778 3.29955555-5.46133333 24.46222222-8.64711111 27.19288889-9.44355556 53.13422222-0.11377778 3.75466667-15.81511111 30.26488889-15.81511111 34.01955556 0 3.41333333 15.70133333 33.792 15.81511111 37.09155556 0.68266667 26.39644445 3.98222222 25.14488889 9.44355556 49.94844444-1.13777778 1.13777778-2.048 2.27555555-3.18577778 3.41333334 1.47911111 0.45511111 2.95822222 1.13777778 4.43733334 1.59288888 13.42577778 57.11644445 39.25333333 110.70577778 75.66222222 156.78577778-0.56888889 1.59288889-0.91022222 3.18577778-1.59288889 4.66488889 1.59288889-0.22755555 3.29955555-0.34133333 4.89244444-0.45511111 36.97777778 45.62488889 83.28533333 82.71644445 135.96444445 108.65777778 0.22755555 1.59288889 0.45511111 3.072 0.56888888 4.66488888 1.36533333-0.91022222 2.73066667-1.59288889 3.98222223-2.38933333 51.54133333 24.576 71.56622222 38.34311111 132.32355555 38.79822223 0.79644445 1.36533333 39.36711111 23.21066667 40.16355556 24.576 0.79644445-1.36533333 33.45066667-23.32444445 34.24711111-24.576 60.75733333-0.34133333 86.58488889-14.22222222 138.24-38.79822223 1.36533333 0.79644445 2.73066667 1.59288889 3.98222222 2.38933333 0.11377778-1.59288889 0.45511111-3.072 0.56888889-4.66488888 52.67911111-25.94133333 99.10044445-63.03288889 136.07822222-108.65777778 1.59288889 0.22755555 3.29955555 0.22755555 4.89244445 0.45511111-0.56888889-1.59288889-1.024-3.18577778-1.59288889-4.66488889 36.40888889-46.08 62.23644445-99.55555555 75.66222222-156.78577778 1.47911111-0.56888889 2.84444445-1.13777778 4.32355556-1.59288888-1.13777778-1.024-2.16177778-2.27555555-3.29955556-3.41333334 5.46133333-24.576 8.76088889-22.98311111 9.44355556-48.92444444 0.11377778-3.64088889 15.36-34.36088889 15.36-38.11555556zM511.20355555 873.92711111c-199.11111111 0-360.56177778-161.45066667-360.56177777-360.56177778s161.33688889-360.56177778 360.56177777-360.56177778 360.56177778 161.45066667 360.56177778 360.56177778-161.45066667 360.56177778-360.56177778 360.56177778z" fill="#F9A433" p-id="10926"></path><path d="M511.20355555 513.36533333m-319.9431111 0a319.94311111 319.94311111 0 1 0 639.88622222 0 319.94311111 319.94311111 0 1 0-639.88622222 0Z" fill="#F58A33" p-id="10927"></path><path d="M511.20355555 193.42222222c-149.61777778 0-275.22844445 102.74133333-310.272 241.43644445 35.04355555 138.80888889 160.65422222 241.43644445 310.272 241.43644444S786.432 573.55377778 821.47555555 434.85866667C786.432 296.16355555 660.82133333 193.42222222 511.20355555 193.42222222z" fill="#F79A4D" p-id="10928"></path><path d="M385.024 326.42844445a140.85688889 114.46044445 0 1 0 281.71377778 0 140.85688889 114.46044445 0 1 0-281.71377778 0Z" fill="#F4B04E" p-id="10929"></path><path d="M476.72888889 266.46755555a58.02666667 38.57066667 0 1 0 116.05333333 0 58.02666667 38.57066667 0 1 0-116.05333333 0Z" fill="#FFEEC5" p-id="10930"></path></svg>