<!-- 空气质量  -->
<svg
  t="1734730899688"
  class="icon"
  viewBox="0 0 1024 1024"
  version="1.1"
  xmlns="http://www.w3.org/2000/svg"
  p-id="953"
  width="256"
  height="256"
>
  <path
    d="M346.636205 784.375582c-0.274687 3.883654-103.85711-56.517944-141.358249-128.414144-41.000231-72.813233-15.923405-157.116841 160.320116-222.268414 176.032223-74.896629 274.505464-161.710456 333.48714-221.034435 58.284394-60.731223 77.072997-93.972597 77.736472-94.213477-1.360758 1.001552 133.700815 222.196573 151.073724 433.033775 6.123411 105.412262-24.345736 209.763809-120.980686 270.068209-94.509294 58.715441-255.171713 73.387963-460.278517-37.171514z"
    fill="#85DF00"
    p-id="954"
  ></path>
  <path
    d="M747.954175 886.842352c-121.914622 36.127703-277.539701 17.077091-436.625838-73.971145-8.012414-4.166793-57.249034-31.204464-99.386048-73.176664-64.450064-64.200733-82.249794-125.984219-65.772789-178.994619 21.129783-67.501205 92.687907-114.379742 202.064116-159.18756 167.753574-70.594605 263.091155-153.017663 320.585295-209.932847 56.87715-58.199875 75.902407-90.887649 76.946218-91.720162a38.506917 38.506917 0 0 1 31.969362-17.550398c12.927201-0.097197 25.000759 6.283997 31.622833 17.127802 2.687708 16.734788 279.141338 414.17333 114.844597 664.675361-39.267589 57.257486-99.96923 100.265047-176.247746 122.730232z m21.784806-698.237908c-50.373403 57.743471-152.852851 175.820925-386.138334 277.057942-84.079633 35.121925-135.374294 68.397108-145.740566 110.128429-20.005679 71.579253 91.470831 156.829476 141.861138 178.88897 0.621216 0.295817 1.233979 0.608538 1.829839 0.925484 132.475288 71.32147 261.033114 87.870316 346.139655 62.480769 43.628776-12.87649 77.935092-36.639044 103.142923-71.046783 108.93671-149.501667 4.678134-420.076992-61.094655-558.434811z"
    fill="#85DF00"
    p-id="955"
  ></path>
  <path
    d="M103.263363 941.598072c-23.234309-1.141008-44.621876-11.291756-52.477929-26.006537-10.264849-19.316848 5.87408-38.697085 35.058536-44.203506-0.088745-0.37611 174.337614-29.5986 344.166133-153.359966 158.308561-109.033907 323.087061-333.360362 309.758394-596.77269-0.557826-19.912708 14.634488-36.867246 34.65707-38.78583 19.997227-1.90168 38.122355 11.955231 39.766252 31.914425 27.346165 280.595068-144.633365 530.057513-314.994355 652.03975-181.944336 138.011291-368.811912 172.047146-374.292977 173.581168a86.788471 86.788471 0 0 1-21.641124 1.593186z"
    fill="#69B000"
    p-id="956"
  ></path>
  <path
    d="M668.13008 576.754333c-16.122024 4.885206-33.676648 3.211727-45.352966-5.430354-1.867873-1.39034-19.101324-14.364027-38.642148-41.845422-25.309254-35.544521-43.147017-78.484466-54.717686-126.846314-4.513322-19.28304 9.91832-39.16194 32.024299-45.179702 22.105979-6.000858 44.626102 3.828717 50.504408 22.739872 28.216712 95.231932 78.733798 132.517548 79.519826 132.627423 17.905378 12.005943 17.91383 35.29519-1.293143 51.962362-6.360065 5.510647-14.017498 9.550662-22.04259 11.972135zM656.690416 709.783222c-74.283865 20.200073-134.486843 19.993001-138.670541 20.081745-28.499851 0.04226-47.719502-16.96299-43.476641-36.972894 4.251312-20.014131 29.260524-35.738915 56.395391-36.072766 0.629668 1.246657 148.022582-4.466836 232.452969-77.647727 19.933837-16.831985 50.136749-21.400244 68.726733-10.07468 18.560401 11.321338 18.061739 35.109248-2.366536 53.0104-50.022648 43.928819-115.56301 72.225825-173.061375 87.675922z"
    fill="#69B000"
    p-id="957"
  ></path>
</svg>