<!-- 晚上 小雪  -->
<svg
  t="1734721062805"
  class="icon"
  viewBox="0 0 1024 1024"
  version="1.1"
  xmlns="http://www.w3.org/2000/svg"
  p-id="4793"
  width="256"
  height="256"
>
  <path
    d="M246.79 424.34S92.67 400.1 67.35 534.39C53.41 608.5 87.84 653.66 131.92 680.9c41 25.31 81.94 28.1 81.94 28.1h605.9s30.89-1.5 58.67-12c43.55-16.52 92.24-53.52 80-140.72-14.16-101.46-122.81-97.6-122.81-97.6s3.43-79.16-79.8-104.36c-57.28-17.27-94.39 7.4-94.39 7.4s-66.61-114.12-205.4-106.4c-182.96 10.29-209.24 169.02-209.24 169.02z"
    fill="#78A4D6"
    p-id="4794"
  ></path>
  <path
    d="M945.79 556.48C928.52 465.42 824 470 824 470s4.83-78.62-73.79-104c-47.73-15.44-93.1 8.37-93.1 8.37s-69.4-117-199.71-107.58c-175.75 12.76-202.13 171.93-202.13 171.93S107.68 407.29 79.9 535.46c-30 139 130.75 160.78 130.75 160.78h284s62.21-4.83 87.41-32.5c34.21-37.43 36-92.35-4.29-121.84-36.36-26.6-80.55-20.7-111.55-9-12.55 4.72-13.73 6.54-15.34 6.22-1.18-0.21-4.61-3.65 2.9-9.12 9.44-6.86 20.16-13.41 38.72-17.7 62.85-14.48 122 16.95 138.25 64.89a140.63 140.63 0 0 1-4.08 102.54c-4.4 9.87-6.44 9.65-6.33 13.19 0.11 3.86 4.83 3.32 4.83 3.32H826.3c0.11-0.11 143.7-11.91 119.49-139.76z"
    fill="#C0E7FA"
    p-id="4795"
  ></path>
  <path
    d="M494.56 696.13s62.21-4.83 87.41-32.5c23-25.1 31.21-57.92 22.09-85.81a74.09 74.09 0 0 0-16.2-26.92 14.64 14.64 0 0 0-1.82-1.82c-0.75-0.75-1.5-1.5-2.36-2.25-1.93-1.72-4-3.43-6.11-5a95.79 95.79 0 0 0-43.87-17.7h-0.64c49.55 30.25 32.93 82.16-0.64 100.61-26.49 14.59-84.3 17.27-102.54 13.51-109.29-22.09-105.65-80.12-103.07-102.75 0.64-6.11 4.4-8.15 1.61-9.65s-11 4.29-14.59 7c-40.22 30.25-31.1 72-31.1 72s-60.81 19.95-122.59-12.33C103.28 562.49 98 501.89 97.71 490.63l-1.61 2.57c-1.5 2.68-3.86 6.65-6.44 12.23-1 2.15-1.93 4.4-2.9 6.65-0.32 0.75-0.54 1.5-0.86 2.25-1 2.57-1.82 5.26-2.68 7.94-0.32 1-0.64 2-1 3.11-0.75 2.57-1.39 5.15-1.93 7.83-1 4.08-1.82 8.37-2.57 13.19-0.64 3.86-1 7.51-1.29 11.15 0 0.43-0.11 0.75-0.11 1.18-0.21 3-0.32 5.9-0.32 8.8v3.54c0 2 0.11 4.08 0.21 6.11 6.86 101.68 134.18 118.95 134.18 118.95h284.17zM948.47 579.44a161.72 161.72 0 0 0-2.68-22.63c-0.32-1.82-0.75-3.54-1.07-5.15l-0.32-1.61c-0.21-1.07-0.54-2-0.75-3.11-6.11-22.2-17.8-38-31.53-49.23a131.37 131.37 0 0 0-11.26-8c-0.32-0.21 32.5 95.78-84.3 128.71-41.1 11.58-137.2 13.9-179.24-15.42A140.72 140.72 0 0 1 627 679.29c-4.4 9.87-6.44 9.65-6.33 13.19 0.11 3.86 4.83 3.32 4.83 3.32h201.12c-0.21 0.33 125.71-10.07 121.85-116.36z"
    fill="#9CDCF8"
    p-id="4796"
  ></path>
  <path
    d="M430.95 342.19a81.3 52.45 0 1 0 162.6 0 81.3 52.45 0 1 0-162.6 0Z"
    fill="#FFFFFF"
    p-id="4797"
  ></path>
  <path
    d="M576.72 847.89l-11.84-6.84 11-0.18a4.69 4.69 0 0 0-0.16-9.37l-26.62 0.43-18.1-10.44 19.16-11.07 22 4.43a4.69 4.69 0 1 0 1.85-9.19l-11.54-2.33 14.3-8.26a9.46 9.46 0 1 0-9.46-16.39l-11.9 6.87 5.39-9.06a4.69 4.69 0 0 0-8.06-4.79l-13.92 23.43-17.26 10v-23.19l14.25-20.08a4.69 4.69 0 0 0-7.65-5.42l-6.6 9.31v-13.46a9.46 9.46 0 1 0-18.92 0v13.53l-6.48-9.15a4.69 4.69 0 0 0-7.65 5.42L502.6 782v23.1L481.69 793l-8.14-20.68a4.68 4.68 0 0 0-8.72 3.43l3.83 9.72-11.78-6.8a9.46 9.46 0 0 0-9.47 16.39l11.95 6.9-12.23 0.47a4.69 4.69 0 0 0 0.36 9.36l27.11-1 18.56 10.72-20 11.53-24.88-1.35a4.69 4.69 0 0 0-0.5 9.36l10.54 0.57-10.91 6.29a9.46 9.46 0 0 0 9.47 16.38l12.35-7.13-4.58 11.09a4.69 4.69 0 0 0 8.67 3.57l9.21-22.34 20.08-11.59v26.77l-13.9 19.59a4.69 4.69 0 0 0 7.65 5.42l6.24-8.81v9.84a9.46 9.46 0 0 0 18.92 0v-10.45l6.84 9.65a4.69 4.69 0 0 0 7.65-5.42l-14.49-20.42v-26.19l19.77 11.41 7.88 21.38a4.68 4.68 0 1 0 8.79-3.24l-4-10.81 13.29 7.67a9.46 9.46 0 1 0 9.46-16.38z"
    fill="#9CDCF8"
    p-id="4798"
  ></path>
  <path
    d="M547.33 830.92L531 821.49l16.33-9.49a36.49 36.49 0 0 0-9.45-16.39l-16.36 9.44V786.2a36.6 36.6 0 0 0-18.92 0v18.9l-16.39-9.46a36.48 36.48 0 0 0-9.46 16.36l16.39 9.47-16.39 9.46a36.49 36.49 0 0 0 9.47 16.38l16.38-9.46v18.91a36.6 36.6 0 0 0 18.92 0v-18.89l16.35 9.44a36.49 36.49 0 0 0 9.46-16.39z"
    fill="#C0E7FA"
    p-id="4799"
  ></path>
</svg>