<svg
  t="1729970740355"
  class="icon"
  viewBox="0 0 1024 1024"
  version="1.1"
  xmlns="http://www.w3.org/2000/svg"
  p-id="2568"
  width="256"
  height="256"
>
  <path
    d="M843.4024448 14.27528818H170.23995449c-56.96097849 0-103.56435627 46.60337778-103.56435627 103.56435627v776.72684657c0 56.95515307 46.60337778 103.55853085 103.56435627 103.55853085h673.15666489c56.95515307 0 103.55853085-46.60337778 103.55853084-103.55853085V117.83964445c0.00582542-56.96097849-46.59755235-103.56435627-103.55270542-103.56435627zM744.65571271 797.95768889H277.89375715c-29.55819235 0-53.52397938-23.9599616-53.52397937-53.52397937s23.9599616-53.52397938 53.52397937-53.52397938h466.76195556c29.55819235 0 53.52397938 23.9599616 53.52397938 53.52397938s-23.96578702 53.52397938-53.52397938 53.52397937z m0-228.64782222H277.89375715c-29.55819235 0-53.52397938-23.9599616-53.52397937-53.52397938s23.9599616-53.52397938 53.52397937-53.52397937h466.76195556c29.55819235 0 53.52397938 23.9599616 53.52397938 53.52397937s-23.96578702 53.52397938-53.52397938 53.52397938z m0-227.19146667H277.89375715c-29.55819235 0-53.52397938-23.9599616-53.52397937-53.52397938s23.9599616-53.52397938 53.52397937-53.52397937h466.76195556c29.55819235 0 53.52397938 23.9599616 53.52397938 53.52397937s-23.96578702 53.52397938-53.52397938 53.52397938z"
    p-id="2569"
  ></path>
</svg>
