<svg
  t="1736693795834"
  class="icon"
  viewBox="0 0 1417 1024"
  version="1.1"
  xmlns="http://www.w3.org/2000/svg"
  p-id="8173"
  width="256"
  height="256"
>
  <path
    d="M343.236923 728.438154c-2.894769 15.36-4.194462 29.341538-8.172308 42.673231-14.237538 47.950769 0.118154 87.394462 34.658462 122.564923 14.434462 14.769231 28.868923 30.72 38.4 48.580923 16.699077 31.192615 7.325538 60.770462-27.372308 69.691077-38.656 9.846154-80.206769 12.012308-120.457846 12.051692-29.065846 0.059077-45.883077-21.307077-53.051077-48.364308-21.523692-81.447385-42.948923-162.914462-65.181538-247.197538zM897.910154 17.073231c18.254769-23.670154 43.657846-17.959385 68.233846-11.027693 23.04 6.596923 34.855385 21.129846 35.249231 45.036308 1.437538 86.843077 5.435077 173.764923 4.292923 260.608-0.728615 58.978462-3.800615 58.919385 49.270154 81.585231 59.470769 25.403077 91.569231 73.787077 86.724923 130.717538-4.548923 52.932923-49.782154 101.336615-111.025231 111.655385-28.081231 4.706462-26.505846 21.129846-26.308923 38.695385 0.905846 78.454154 3.485538 156.928 3.741538 235.382153 0.019692 22.705231-3.899077 45.843692-9.097846 68.056616-8.566154 36.745846-35.308308 52.696615-71.739077 39.975384-20.164923-7.049846-39.325538-20.775385-54.587077-35.682461-15.419077-15.202462-28.022154-34.363077-37.29723-53.819077-68.608-143.990154-194.304-211.180308-347.057231-231.975385-101.769846-13.784615-205.981538-10.712615-309.051077-16.56123-33.319385-1.890462-67.347692-4.785231-99.249231-13.508923C26.348308 651.579077 0.886154 615.187692 0.196923 561.624615c-0.354462-29.006769-0.098462-57.993846-0.039385-87.000615 0.098462-74.968615 37.179077-118.488615 114.116924-126.326154 58.013538-5.907692 116.676923-5.907692 175.104-8.566154 76.583385-3.426462 186.722462-8.270769 276.873846-28.790154 112.64-25.6 197.651692-92.731077 257.102769-190.286769 22.016-36.214154 48.600615-69.828923 74.574769-103.581538z m388.489846 124.278154C1366.744615 211.593846 1417.846154 358.518154 1417.846154 521.846154c0 174.001231-57.974154 328.763077-146.766769 392.664615a19.692308 19.692308 0 0 1-23.000616-31.940923C1324.937846 827.234462 1378.461538 684.366769 1378.461538 521.846154c0-152.950154-47.36-289.083077-117.996307-350.838154a19.692308 19.692308 0 1 1 25.934769-29.656615z m-364.937846-10.24c-34.422154 43.441231-61.164308 82.432-93.302154 116.65723-95.803077 101.927385-219.431385 151.788308-357.710769 170.338462-23.650462 3.150769-31.744 10.200615-31.035077 33.358769 1.614769 49.014154 0.531692 98.166154 0.531692 149.720616 207.241846 18.983385 368.777846 112.600615 481.536 293.612307l-0.019692-0.039384z m290.737231 133.868307C1265.880615 312.103385 1299.692308 411.470769 1299.692308 521.846154c0 111.655385-34.599385 211.987692-89.284923 258.422154A19.692308 19.692308 0 1 1 1184.886154 750.276923C1229.469538 712.408615 1260.307692 623.005538 1260.307692 521.846154c0-100.056615-30.168615-188.711385-74.082461-227.268923a19.692308 19.692308 0 0 1 25.993846-29.597539z m-875.323077 160.689231c-54.252308 1.792-109.174154 1.595077-162.441846 10.417231-17.073231 2.816-32.689231 28.888615-43.756308 47.241846-10.496 17.388308-0.590769 29.991385 21.070769 30.188308 29.715692 0.354462 59.431385 0.098462 89.147077 0.098461v1.063385c27.273846 0 54.626462-1.004308 81.860923 0.334769 20.342154 1.024 30.365538-6.045538 29.892923-26.092308-0.393846-15.616 0.827077-31.448615-1.496615-46.76923-0.945231-6.301538-9.452308-16.620308-14.296616-16.482462z m485.769846-73.629538l11.776 3.958153c0 34.185846 0.787692 68.450462-0.807385 102.616616-0.295385 5.454769-10.417231 13.154462-17.368615 15.143384-92.16 26.722462-186.387692 36.548923-283.746462 32.177231V469.858462c112.246154-4.608 207.320615-47.025231 290.146462-117.83877z"
    fill="#FFAC00"
    p-id="8174"
  ></path>
</svg>
