<svg
  t="1730429119212"
  class="icon"
  viewBox="0 0 1024 1024"
  version="1.1"
  xmlns="http://www.w3.org/2000/svg"
  p-id="3619"
  width="200"
  height="200"
>
  <path
    d="M393.6 447.36H174.08c-96 0-173.44-70.4-173.44-156.8v-198.4C0.64 48 40.32 12.16 88.32 12.16H307.84c95.36 0 173.44 70.4 173.44 156.8v199.04c0 43.52-39.04 79.36-87.68 79.36z m457.6 0H632.32c-48.64 0-88.32-35.84-88.32-80v-198.4C544 82.56 621.44 12.16 717.44 12.16h218.88c48.64 0 88.32 35.84 88.32 80v198.4c0 86.4-77.44 156.8-173.44 156.8z m85.76 491.52H717.44c-95.36 0-173.44-70.4-173.44-156.8v-198.4c0-44.16 39.68-79.36 87.68-79.36h219.52c95.36 0 173.44 70.4 173.44 156.8v199.04c0 43.52-39.68 78.72-87.68 78.72z m-628.48 0H88.32c-48.64 0-87.68-35.84-88.32-79.36v-199.04C0 574.08 77.44 503.68 173.44 503.68h219.52c48.64 0 87.68 35.84 88.32 79.36v199.04c0 87.04-77.44 156.8-172.8 156.8z"
    p-id="3620"
  ></path>
  <path
    d="M722.56 81.28c-56.32 0-101.76 40.96-101.76 92.16v181.76c0 12.16 10.88 21.76 23.68 21.76H845.44c56.32 0 101.76-40.96 101.76-92.16V103.04c0-12.16-10.88-21.76-23.68-21.76h-200.96zM644.48 573.44c-12.8 0-23.68 9.6-23.68 21.12v182.4c0 50.56 45.44 92.16 101.76 92.16h201.6c12.8 0 23.68-9.6 23.68-21.12V665.6c0-50.56-45.44-92.16-101.76-92.16h-201.6zM179.2 574.08C123.52 574.08 77.44 615.04 77.44 665.6v182.4c0 11.52 10.24 21.12 23.68 21.12h201.6c56.32 0 101.76-40.96 101.76-92.16V595.2c0-11.52-10.24-21.12-23.68-21.12H179.2zM101.12 81.92c-12.8 0-23.68 9.6-23.68 21.12v182.4C77.44 336 122.88 377.6 179.2 377.6h201.6c12.8 0 23.68-9.6 23.68-21.12V174.08c0-50.56-45.44-92.16-101.76-92.16H101.12z"
    fill="#FFCC00"
    p-id="3621"
  ></path>
</svg>
