<svg
  t="1729935649567"
  class="icon"
  viewBox="0 0 1024 1024"
  version="1.1"
  xmlns="http://www.w3.org/2000/svg"
  p-id="1570"
  width="256"
  height="256"
>
  <path
    d="M180.59820247 14.8973037a165.70089876 165.70089876 0 0 0-165.70089877 165.70089877v662.80359506a165.70089876 165.70089876 0 0 0 165.70089877 165.70089877h662.80359506a165.70089876 165.70089876 0 0 0 165.70089877-165.70089877V180.59820247a165.70089876 165.70089876 0 0 0-165.70089877-165.70089877H180.59820247z m405.08303234 721.07464628c39.7682157 32.03593861 79.42639565 47.777524 119.08457559 47.39045705 24.30236697 0 42.97090338-4.41825911 55.8955735-13.36610765a41.42522469 41.42522469 0 0 0 18.83553185-36.45419773 53.63272059 53.63272059 0 0 0-18.7798667-41.31518894c-12.98033525-11.32203173-37.50277373-22.64535798-73.57119906-34.02305484-43.30230518-12.5388977-76.77518128-28.72192063-100.24904375-48.6060285-23.08809008-19.88410785-34.79718875-47.61182309-35.23862629-83.23751632 0-33.63728245 14.58167909-61.7507701 43.74503728-84.45179323 28.3892243-22.64535798 64.62335052-34.02434939 108.80982534-34.02434939 61.52940405 0 110.96393703 14.96874604 148.19226863 44.96060872L809.8732563 519.0694735a143.44131318 143.44131318 0 0 0-51.64301527-25.51793841 177.35562683 177.35562683 0 0 0-52.25144826-9.11354944c-20.98834899 0-37.83417552 3.86678581-50.42744383 11.54469231-12.5388977 7.7322771-18.7798667 17.84003191-18.77986671 30.37763509 0 13.80883973 7.67661195 25.5179384 23.03242494 35.23992082 15.46584873 9.33362094 41.75662649 19.66274181 78.98366355 30.98606808 44.96060871 13.36610765 76.99654732 31.20613957 95.99648555 53.46572515 19.05560336 22.25958558 28.55621973 50.64880987 28.55621973 85.06022621 0 35.23862629-13.53310309 65.61755591-40.7080505 91.13549433-26.73221531 25.13087147-65.61755591 38.27690762-116.65343273 39.49118451-66.8318328 0-122.72870083-20.04980875-167.68930955-60.14942625l47.39045705-65.61755592z m-305.44112704 35.23992084c12.97904071 8.11934403 28.55492519 12.15053621 46.78202406 12.15053621 19.05560336 0 34.79718875-5.46812965 47.39045706-16.40438898 12.5388977-11.32203173 18.83553185-30.98606807 18.83553184-58.93385482V415.17500997h82.02194489v308.6464038c-1.21557143 47.77622945-14.96874604 82.24201639-41.31518894 103.28603053a136.20613878 136.20613878 0 0 1-49.21316693 26.73350985 182.05091714 182.05091714 0 0 1-51.64301526 7.897978c-30.37892962 0-57.33251097-5.24676362-80.807668-15.79595599-25.13087147-11.32332626-46.1748856-31.37313502-63.18641304-60.14942626l57.11114493-46.78331859c10.49482177 14.19461215 21.87251863 24.91079997 34.02434939 32.20163951z"
    p-id="1571"
  ></path>
</svg>
