<svg
  t="1729931837274"
  class="icon"
  viewBox="0 0 1024 1024"
  version="1.1"
  xmlns="http://www.w3.org/2000/svg"
  p-id="3074"
  width="256"
  height="256"
>
  <path
    d="M170.666667 0a170.666667 170.666667 0 0 0-170.666667 170.666667v682.666666a170.666667 170.666667 0 0 0 170.666667 170.666667h682.666666a170.666667 170.666667 0 0 0 170.666667-170.666667V170.666667a170.666667 170.666667 0 0 0-170.666667-170.666667H170.666667z m417.223111 742.684444c40.96 32.995556 81.806222 49.208889 122.652444 48.810667 25.031111 0 44.259556-4.551111 57.571556-13.767111a42.666667 42.666667 0 0 0 19.399111-37.546667 55.239111 55.239111 0 0 0-19.342222-42.552889c-13.368889-11.662222-38.627556-23.324444-75.776-35.043555-44.600889-12.913778-79.075556-29.582222-103.253334-50.062222-23.779556-20.48-35.84-49.038222-36.295111-85.731556 0-34.645333 15.018667-63.601778 45.056-86.983111 29.240889-23.324444 66.56-35.043556 112.071111-35.043556 63.374222 0 114.289778 15.416889 152.632889 46.307556l-43.804444 68.209778a147.740444 147.740444 0 0 0-53.191111-26.282667 182.670222 182.670222 0 0 0-53.816889-9.386667c-21.617778 0-38.968889 3.982222-51.939556 11.889778-12.913778 7.964444-19.342222 18.375111-19.342222 31.288889 0 14.222222 7.907556 26.282667 23.722667 36.295111 15.928889 9.614222 43.008 20.252444 81.351111 31.914667 46.307556 13.767111 79.303111 32.142222 98.872889 55.068444 19.626667 22.926222 29.411556 52.167111 29.411555 87.608889 0 36.295111-13.937778 67.584-41.927111 93.866667-27.534222 25.884444-67.584 39.424-120.149333 40.675555-68.835556 0-126.407111-20.650667-172.714667-61.952l48.810667-67.584z m-314.595556 36.295112c13.368889 8.362667 29.411556 12.515556 48.184889 12.515555 19.626667 0 35.84-5.632 48.810667-16.896 12.913778-11.662222 19.399111-31.914667 19.399111-60.700444V412.273778h84.48v317.895111c-1.251556 49.208889-15.416889 84.707556-42.552889 106.382222a140.288 140.288 0 0 1-50.688 27.534222 187.505778 187.505778 0 0 1-53.191111 8.135111c-31.288889 0-59.050667-5.404444-83.228445-16.270222-25.884444-11.662222-47.559111-32.312889-65.080888-61.952l58.823111-48.184889c10.808889 14.620444 22.528 25.656889 35.043555 33.166223z"
    p-id="3075"
  ></path>
</svg>
