<svg
  t="1729932408598"
  class="icon"
  viewBox="0 0 1144 1024"
  version="1.1"
  xmlns="http://www.w3.org/2000/svg"
  p-id="2636"
  width="256"
  height="256"
>
  <path
    d="M570.978584 409.619081c54.570932 0 99.092671 44.521739 99.092671 100.173913 0 53.044472-44.521739 98.075031-99.092671 98.075031-54.634534 0-99.156273-45.030559-99.156273-98.075031 0-55.652174 44.521739-100.173913 99.156273-100.173913m-245.441988 524.211677c33.391304 20.161988 106.534161-10.621615 190.807454-90.124721a1283.943354 1283.943354 0 0 1-80.011926-100.682733 1203.168199 1203.168199 0 0 1-127.204969-19.080745c-27.031056 113.40323-16.981863 191.316273 16.409441 209.888199m37.652671-304.210683l-15.391801-27.031056c-5.787826 15.328199-11.639255 30.72-15.328199 45.539379 14.310559 3.180124 30.21118 5.851429 46.620621 8.522732l-15.900621-27.031055m346.63354-40.323976l42.931677-79.503105-42.931677-79.503106c-15.900621-28.048696-32.882484-52.98087-48.210683-77.913043-28.621118-1.590062-58.832298-1.590062-90.63354-1.590062s-62.012422 0-90.633541 1.590062c-15.391801 24.932174-32.373665 49.864348-48.274285 77.913043l-42.931677 79.503106 42.931677 79.503105c15.900621 28.112298 32.882484 53.044472 48.274285 77.913044 28.621118 1.590062 58.832298 1.590062 90.633541 1.590062s62.012422 0 90.63354-1.590062c15.328199-24.868571 32.310062-49.800745 48.210683-77.913044m-138.844223-356.173913c-10.112795 11.702857-20.670807 23.850932-31.292423 38.161491h62.521243c-10.558012-14.310559-21.179627-26.458634-31.22882-38.161491m0 553.341615c10.049193-11.639255 20.670807-23.850932 31.22882-38.16149h-62.521243c10.621615 14.310559 21.179627 26.522236 31.292423 38.16149m244.869565-700.644969c-32.882484-20.161988-106.025342 10.558012-190.298633 90.061118 27.539876 31.292422 54.570932 65.192547 80.011925 100.746336 43.504099 4.197764 86.435776 10.558012 127.204969 19.080745 27.031056-113.466832 16.981863-191.379876-16.918261-209.888199m-37.143851 304.210684l15.391801 27.031055c5.851429-15.391801 11.639255-30.72 15.391802-45.602981-14.310559-3.180124-30.21118-5.787826-46.684224-8.45913l15.900621 27.031056m76.895404-373.664597c77.913043 44.521739 86.372174 161.677516 53.489689 298.422857 134.64646 39.751553 231.640248 105.452919 231.640249 195.005218 0 89.615901-96.993789 155.317267-231.640249 195.06882 32.882484 136.745342 24.423354 253.901118-53.489689 298.422857-77.404224 44.521739-182.857143-6.360248-284.621118-103.354037-101.763975 96.993789-207.280497 147.875776-285.193541 103.354037-77.340621-44.521739-85.863354-161.677516-52.980869-298.422857-134.64646-39.751553-231.640248-105.452919-231.640249-195.06882 0-89.552298 96.993789-155.253665 231.640249-195.005218-32.882484-136.745342-24.359752-253.901118 52.980869-298.422857 77.913043-44.521739 183.429565 6.360248 285.193541 103.354038 101.763975-96.993789 207.216894-147.875776 284.621118-103.354038m-15.391801 493.428075c17.999503 39.751553 33.900124 79.503106 47.193043 119.827081 111.304348-33.391304 173.82559-81.093168 173.82559-119.827081 0-38.670311-62.521242-86.372174-173.82559-119.763478a1193.309814 1193.309814 0 0 1-47.193043 119.763478m-538.522236 0a1193.309814 1193.309814 0 0 1-47.129441-119.763478c-111.304348 33.391304-173.889193 81.093168-173.889193 119.763478 0 38.733913 62.584845 86.435776 173.889193 119.827081 13.229317-40.323975 29.129938-80.075528 47.129441-119.827081m477.018633 119.827081l-15.900621 27.031055c16.473043-2.671304 32.373665-5.342609 46.684224-8.522732-3.752547-14.819379-9.540373-30.21118-15.391802-45.539379l-15.391801 27.031056m-153.154782 214.085962c84.273292 79.503106 157.416149 110.286708 190.298633 90.124721 33.900124-18.571925 43.949317-96.484969 16.918261-209.888199-40.769193 8.45913-83.70087 14.819379-127.204969 19.080745-25.440994 35.490186-52.47205 69.453913-80.011925 100.682733m-262.360249-453.676521l15.900621-27.031056c-16.409441 2.671304-32.310062 5.279006-46.620621 8.45913 3.688944 14.882981 9.540373 30.21118 15.328199 45.602981l15.391801-27.031055m153.154783-214.149566c-84.273292-79.503106-157.416149-110.223106-190.807454-90.061118-33.391304 18.508323-43.440497 96.421366-16.409441 209.888199 41.97764-8.649938 84.464099-15.010186 127.204969-19.080745 25.440994-35.553789 52.47205-69.453913 80.011926-100.746336z"
    p-id="2637"
  ></path>
</svg>
