<svg
  t="1729931786650"
  class="icon"
  viewBox="0 0 1040 1024"
  version="1.1"
  xmlns="http://www.w3.org/2000/svg"
  p-id="2298"
  width="256"
  height="256"
>
  <path
    d="M936.8 0h-824a100 100 0 0 0-100 100v824a100 100 0 0 0 100 100h824a100 100 0 0 0 100-100V100a100 100 0 0 0-100-100z m-330 568h-128v366h-102V568h-128v-82h358v82z m330 300.208c-8 18-21.792 31.392-38 42-16 9.792-34 17.392-56 22-22 4.592-44 6.8-68 6.8s-48-2.016-70-6.208-41.792-10.4-58-18.8v-96.096c-1.264-1.008-2.56-1.984-3.792-3.024l3.792-0.88v3.904a189.376 189.376 0 0 0 56.208 30.976c20 7.6 41.984 11.392 64 11.392 13.984 0 24.592-1.2 33.984-3.392 9.808-2.4 17.6-5.6 24-9.6 6.4-4 11.168-8.8 14.208-14.4 3.04-5.6 4.592-11.6 4.592-18 0-9.2-2.592-17.2-7.584-24-4.608-6.8-11.408-13.2-20-19.008-8-5.792-18-11.392-30-16.8-12-5.392-24.208-10.992-38-16.592-34-16-60.8-32-78-54-17.408-20-26-46-26-76 0-24 4.592-43.2 14-60 10-18 21.792-31.2 38-42 16-11.008 34-19.008 56-24a301.52 301.52 0 0 1 68-7.6c24 0 44 1.392 62 4.192 18 2.8 34.8 7.2 50 13.008v94a132.128 132.128 0 0 0-24-13.808 222.208 222.208 0 0 0-56-15.6c-8.8-1.248-17.6-1.872-26-1.872-12.208 0-22.608 1.008-32 3.2-9.6 2.208-17.6 5.2-24 9.2-6.4 4-11.392 8.592-15.008 14.192-3.616 5.6-5.408 11.808-5.408 18.608 0 7.392 2 14 6 20 4 5.792 9.6 11.392 17.008 16.8 6.608 5.2 15.6 10.4 26 15.6 12 5.2 22.8 10.4 36 15.808 18 7.584 34 16 48 24a158.848 158.848 0 0 1 36 28c10.8 10 18.608 22 24 36 5.408 14 8.208 29.792 8.208 48 0 26-6.208 46-14.208 64z"
    p-id="2299"
  ></path>
</svg>
