<svg xmlns:xlink="http://www.w3.org/1999/xlink" xmlns="http://www.w3.org/2000/svg" version="1.1" viewBox="0 0 1024 1024" height="1024px" width="1024px">
    <title>401@1x</title>
    <g fill-rule="evenodd" fill="none" stroke-width="1" stroke="none" id="401">
        <g transform="translate(110.1525, 161)" id="编组">
            <ellipse ry="129.5" rx="401.886956" cy="546.995548" cx="402.042373" fill="#F2F4FF" id="椭圆形备份-3"></ellipse>
            <circle r="12.6694915" cy="635.211864" cx="462.805085" fill="#FFFFFF" id="椭圆形备份-6"></circle>
            <polygon points="381.227111 286.308932 432.227111 286.308932 504.538526 424.379654 453.538526 424.379654" transform="translate(442.8828, 355.3443) rotate(-270) translate(-442.8828, -355.3443)" fill="#0076FC" id="矩形备份-11"></polygon>
            <path transform="translate(442.8828, 355.3443) rotate(-270) translate(-442.8828, -355.3443)" fill-rule="nonzero" fill="#000000" id="矩形备份-11" d="M434.042463,283.308932 L434.884696,284.917082 L507.19611,422.987804 L509.496242,427.379654 L451.723174,427.379654 L450.880942,425.771503 L378.569527,287.700781 L376.269395,283.308932 L434.042463,283.308932 Z M430.412111,289.308932 L386.184111,289.308932 L455.353111,421.378932 L499.580111,421.378932 L430.412111,289.308932 Z"></path>
            <path fill="#FFFFFF" id="形状结合备份-2" d="M300.847458,515 L249.847458,515 L249.847458,380 L112.847458,380 C105.115471,380 98.8474576,373.731986 98.8474576,366 L98.8474576,187 L149.847458,187 L149.847458,329 L249.847458,329 L249.847458,187 L300.847458,187 L300.847458,515 Z"></path>
            <path fill-rule="nonzero" fill="#000000" id="形状结合备份-2" d="M152.847458,184 L152.847458,326 L246.847458,326 L246.847458,184 L303.847458,184 L303.847458,518 L246.847458,518 L246.847458,383 L112.847458,383 C103.566535,383 96.0226617,375.562804 95.8504655,366.32304 L95.8474576,366 L95.8474576,184 L152.847458,184 Z M146.847458,190 L101.847458,190 L101.847458,366 C101.847458,371.978702 106.617221,376.843365 112.55905,376.996293 L112.847458,377 L252.847458,377 L252.847458,512 L297.847458,512 L297.847458,190 L252.847458,190 L252.847458,332 L146.847458,332 L146.847458,190 Z"></path>
            <path fill="#FFFFFF" id="形状结合备份-2" d="M499.847458,515 L399.847458,514.999 L348.847458,515 L348.847458,187 L550.847458,187 L550.847458,515 L499.847458,515 Z M399.847458,237.999 L399.847458,463.999 L499.847458,464 L499.847458,238 L399.847458,237.999 Z"></path>
            <path fill-rule="nonzero" fill="#000000" id="形状结合备份-2" d="M553.847458,184 L553.847458,518.000059 L499.847458,518.000059 L399.847516,518.000059 L348.847516,518.000059 L345.847458,518.000059 L345.847458,184 L553.847458,184 Z M547.847458,512 L547.847458,190 L351.847458,190 L351.847458,512 L399.847488,512 L499.847458,512 L547.847458,512 Z M396.847458,234.99897 L399.847488,234.99897 L499.847488,234.99897 L502.847458,234.99897 L502.847458,467.00003 L499.847428,467.00003 L399.847428,467.00003 L396.847458,467.00003 L396.847458,234.99897 Z M402.847458,240.998 L402.847458,461 L496.847458,461 L496.847458,240.998 L402.847458,240.998 Z"></path>
            <rect height="328" width="51" y="187" x="598.847458" fill="#FFFFFF" id="矩形备份-13"></rect>
            <path fill-rule="nonzero" fill="#000000" id="矩形备份-13" d="M652.847458,184 L652.847458,518 L595.847458,518 L595.847458,184 L652.847458,184 Z M646.847458,190 L601.847458,190 L601.847458,512 L646.847458,512 L646.847458,190 Z"></path>
            <circle r="20.3813559" cy="20.3813559" cx="280.432203" fill="#0076FC" id="椭圆形备份-6"></circle>
            <path fill-rule="nonzero" fill="#0076FC" id="椭圆形备份-6" d="M280.432203,0 C291.688515,0 300.813559,9.12504387 300.813559,20.3813559 C300.813559,31.637668 291.688515,40.7627119 280.432203,40.7627119 C269.175891,40.7627119 260.050847,31.637668 260.050847,20.3813559 C260.050847,9.12504387 269.175891,0 280.432203,0 Z M280.432203,2.28205128 C270.436233,2.28205128 262.332899,10.385386 262.332899,20.3813559 C262.332899,30.3773259 270.436233,38.4806606 280.432203,38.4806606 C290.428173,38.4806606 298.531508,30.3773259 298.531508,20.3813559 C298.531508,10.385386 290.428173,2.28205128 280.432203,2.28205128 Z"></path>
            <path fill-rule="nonzero" fill="#000000" id="椭圆形备份-3" d="M12.6694915,338.084746 C19.6666585,338.084746 25.3389831,343.75707 25.3389831,350.754237 C25.3389831,357.751404 19.6666585,363.423729 12.6694915,363.423729 C5.67232457,363.423729 0,357.751404 0,350.754237 C0,343.75707 5.67232457,338.084746 12.6694915,338.084746 Z M12.6694915,341.366797 C7.48495128,341.366797 3.282051,345.569697 3.282051,350.754237 C3.282051,355.938778 7.48495128,360.141678 12.6694915,360.141678 C17.8540318,360.141678 22.0569321,355.938778 22.0569321,350.754237 C22.0569321,345.569697 17.8540318,341.366797 12.6694915,341.366797 Z"></path>
            <path fill="#0076FC" id="形状结合备份-2" d="M764.079965,376.525424 C766.600649,376.525424 768.644068,378.568842 768.644068,381.089526 L768.64378,391.948424 L779.605389,391.949153 C782.126073,391.949153 784.169492,393.992571 784.169492,396.513255 L784.169492,397.300304 C784.169492,399.820988 782.126073,401.864407 779.605389,401.864407 L768.64378,401.863424 L768.644068,412.724033 C768.644068,415.244717 766.600649,417.288136 764.079965,417.288136 L763.292916,417.288136 C760.772232,417.288136 758.728814,415.244717 758.728814,412.724033 L758.72878,401.863424 L747.970882,401.864407 C745.450198,401.864407 743.40678,399.820988 743.40678,397.300304 L743.40678,396.513255 C743.40678,393.992571 745.450198,391.949153 747.970882,391.949153 L758.72878,391.948424 L758.728814,381.089526 C758.728814,378.568842 760.772232,376.525424 763.292916,376.525424 L764.079965,376.525424 Z"></path>
            <path fill-rule="nonzero" fill="#0076FC" id="形状结合备份-2" d="M764.079965,376.525424 C766.600649,376.525424 768.644068,378.568842 768.644068,381.089526 L768.64378,391.948424 L779.605389,391.949153 C782.126073,391.949153 784.169492,393.992571 784.169492,396.513255 L784.169492,397.300304 C784.169492,399.820988 782.126073,401.864407 779.605389,401.864407 L768.64378,401.863424 L768.644068,412.724033 C768.644068,415.244717 766.600649,417.288136 764.079965,417.288136 L763.292916,417.288136 C760.772232,417.288136 758.728814,415.244717 758.728814,412.724033 L758.72878,401.863424 L747.970882,401.864407 C745.450198,401.864407 743.40678,399.820988 743.40678,397.300304 L743.40678,396.513255 C743.40678,393.992571 745.450198,391.949153 747.970882,391.949153 L758.72878,391.948424 L758.728814,381.089526 C758.728814,378.568842 760.772232,376.525424 763.292916,376.525424 L764.079965,376.525424 Z M764.079965,378.807475 L763.292916,378.807475 C762.032574,378.807475 761.010865,379.829184 761.010865,381.089534 L761.010824,394.23032 L758.728934,394.230475 L747.970882,394.231204 C746.71054,394.231204 745.688831,395.252913 745.688831,396.513255 L745.688831,397.300304 C745.688831,398.560646 746.71054,399.582355 747.970674,399.582356 L758.728571,399.581372 L761.010824,399.581164 L761.010865,412.724033 C761.010865,413.984375 762.032574,415.006084 763.292916,415.006084 L764.079965,415.006084 C765.340307,415.006084 766.362017,413.984375 766.362017,412.724093 L766.361728,401.863484 L766.361668,399.581168 L768.643984,399.581372 L779.605389,399.582355 C780.865731,399.582355 781.88744,398.560646 781.88744,397.300304 L781.88744,396.513255 C781.88744,395.252913 780.865731,394.231204 779.605237,394.231204 L768.643628,394.230475 L766.361668,394.230323 L766.361728,391.948363 L766.362017,381.089526 C766.362017,379.829184 765.340307,378.807475 764.079965,378.807475 Z"></path>
        </g>
    </g>
</svg>
