<svg xmlns:xlink="http://www.w3.org/1999/xlink" xmlns="http://www.w3.org/2000/svg" version="1.1" viewBox="0 0 1024 1024" height="1024px" width="1024px">
    <title>404@1x</title>
    <g fill-rule="evenodd" fill="none" stroke-width="1" stroke="none" id="404">
        <g transform="translate(110.308, 139.0847)" id="编组">
            <ellipse ry="129.5" rx="401.886956" cy="568.910803" cx="401.886956" fill="#F2F4FF" id="椭圆形备份-2"></ellipse>
            <path fill="#FFFFFF" id="形状结合" d="M239.692041,536.915254 L188.692041,536.915254 L188.692041,401.915254 L51.6920413,401.915254 C43.9600548,401.915254 37.6920413,395.647241 37.6920413,387.915254 L37.6920413,208.915254 L88.6920413,208.915254 L88.6920413,350.915254 L188.692041,350.915254 L188.692041,208.915254 L239.692041,208.915254 L239.692041,536.915254 Z"></path>
            <path fill-rule="nonzero" fill="#000000" id="形状结合" d="M91.6920413,205.915254 L91.6920413,347.915254 L185.692041,347.915254 L185.692041,205.915254 L242.692041,205.915254 L242.692041,539.915254 L185.692041,539.915254 L185.692041,404.915254 L51.6920413,404.915254 C42.4111182,404.915254 34.8672453,397.478059 34.6950491,388.238294 L34.6920413,387.915254 L34.6920413,205.915254 L91.6920413,205.915254 Z M85.6920413,211.915254 L40.6920413,211.915254 L40.6920413,387.915254 C40.6920413,393.893956 45.4618048,398.758619 51.4036338,398.911547 L51.6920413,398.915254 L191.692041,398.915254 L191.692041,533.915254 L236.692041,533.915254 L236.692041,211.915254 L191.692041,211.915254 L191.692041,353.915254 L85.6920413,353.915254 L85.6920413,211.915254 Z"></path>
            <path fill="#FFFFFF" id="形状结合备份" d="M735.692041,536.915254 L684.692041,536.915254 L684.692041,401.915254 L547.692041,401.915254 C539.960055,401.915254 533.692041,395.647241 533.692041,387.915254 L533.692041,208.915254 L584.692041,208.915254 L584.692041,350.915254 L684.692041,350.915254 L684.692041,208.915254 L735.692041,208.915254 L735.692041,536.915254 Z"></path>
            <path fill-rule="nonzero" fill="#000000" id="形状结合备份" d="M587.692041,205.915254 L587.692041,347.915254 L681.692041,347.915254 L681.692041,205.915254 L738.692041,205.915254 L738.692041,539.915254 L681.692041,539.915254 L681.692041,404.915254 L547.692041,404.915254 C538.411118,404.915254 530.867245,397.478059 530.695049,388.238294 L530.692041,387.915254 L530.692041,205.915254 L587.692041,205.915254 Z M581.692041,211.915254 L536.692041,211.915254 L536.692041,387.915254 C536.692041,393.893956 541.461805,398.758619 547.403634,398.911547 L547.692041,398.915254 L687.692041,398.915254 L687.692041,533.915254 L732.692041,533.915254 L732.692041,211.915254 L687.692041,211.915254 L687.692041,353.915254 L581.692041,353.915254 L581.692041,211.915254 Z"></path>
            <polygon points="318.071695 308.224186 369.071695 308.224186 441.38311 446.294908 390.38311 446.294908" transform="translate(379.7274, 377.2595) rotate(-270) translate(-379.7274, -377.2595)" fill="#0076FC" id="矩形备份-10"></polygon>
            <path transform="translate(379.7274, 377.2595) rotate(-270) translate(-379.7274, -377.2595)" fill-rule="nonzero" fill="#000000" id="矩形备份-10" d="M370.887047,305.224186 L371.729279,306.832336 L444.040694,444.903058 L446.340826,449.294908 L388.567758,449.294908 L387.725525,447.686758 L315.414111,309.616036 L313.113979,305.224186 L370.887047,305.224186 Z M367.256695,311.224186 L323.028695,311.224186 L392.197695,443.294186 L436.424695,443.294186 L367.256695,311.224186 Z"></path>
            <path fill="#FFFFFF" id="形状结合" d="M436.692041,536.915254 L336.692041,536.914254 L285.692041,536.915254 L285.692041,208.915254 L487.692041,208.915254 L487.692041,536.915254 L436.692041,536.915254 Z M336.692041,259.914254 L336.692041,485.914254 L436.692041,485.915254 L436.692041,259.915254 L336.692041,259.914254 Z"></path>
            <path fill-rule="nonzero" fill="#000000" id="形状结合" d="M490.692041,205.915254 L490.692041,539.915313 L436.692041,539.915313 L336.6921,539.915313 L285.6921,539.915313 L282.692041,539.915313 L282.692041,205.915254 L490.692041,205.915254 Z M484.692041,533.915254 L484.692041,211.915254 L288.692041,211.915254 L288.692041,533.915254 L336.692071,533.915254 L436.692041,533.915254 L484.692041,533.915254 Z M333.692041,256.914224 L336.692071,256.914224 L436.692071,256.914224 L439.692041,256.914224 L439.692041,488.915284 L436.692011,488.915284 L336.692011,488.915284 L333.692041,488.915284 L333.692041,256.914224 Z M339.692041,262.913254 L339.692041,482.915254 L433.692041,482.915254 L433.692041,262.913254 L339.692041,262.913254 Z"></path>
            <circle r="12.6694915" cy="621.127119" cx="285.649668" fill="#FFFFFF" id="椭圆形备份-5"></circle>
            <path fill="#0076FC" id="形状结合备份" d="M826.924549,398.440678 C829.445233,398.440678 831.488651,400.484096 831.488651,403.004781 L831.488363,413.863678 L842.449973,413.864407 C844.970657,413.864407 847.014075,415.907825 847.014075,418.428509 L847.014075,419.215558 C847.014075,421.736243 844.970657,423.779661 842.449973,423.779661 L831.488363,423.778678 L831.488651,434.639287 C831.488651,437.159971 829.445233,439.20339 826.924549,439.20339 L826.1375,439.20339 C823.616816,439.20339 821.573397,437.159971 821.573397,434.639287 L821.573363,423.778678 L810.815466,423.779661 C808.294782,423.779661 806.251363,421.736243 806.251363,419.215558 L806.251363,418.428509 C806.251363,415.907825 808.294782,413.864407 810.815466,413.864407 L821.573363,413.863678 L821.573397,403.004781 C821.573397,400.484096 823.616816,398.440678 826.1375,398.440678 L826.924549,398.440678 Z"></path>
            <path fill-rule="nonzero" fill="#0076FC" id="形状结合备份" d="M826.924549,398.440678 C829.445233,398.440678 831.488651,400.484096 831.488651,403.004781 L831.488363,413.863678 L842.449973,413.864407 C844.970657,413.864407 847.014075,415.907825 847.014075,418.428509 L847.014075,419.215558 C847.014075,421.736243 844.970657,423.779661 842.449973,423.779661 L831.488363,423.778678 L831.488651,434.639287 C831.488651,437.159971 829.445233,439.20339 826.924549,439.20339 L826.1375,439.20339 C823.616816,439.20339 821.573397,437.159971 821.573397,434.639287 L821.573363,423.778678 L810.815466,423.779661 C808.294782,423.779661 806.251363,421.736243 806.251363,419.215558 L806.251363,418.428509 C806.251363,415.907825 808.294782,413.864407 810.815466,413.864407 L821.573363,413.863678 L821.573397,403.004781 C821.573397,400.484096 823.616816,398.440678 826.1375,398.440678 L826.924549,398.440678 Z M826.924549,400.722729 L826.1375,400.722729 C824.877158,400.722729 823.855448,401.744438 823.855448,403.004788 L823.855407,416.145575 L821.573518,416.145729 L810.815466,416.146458 C809.555124,416.146458 808.533415,417.168167 808.533415,418.428509 L808.533415,419.215558 C808.533415,420.475901 809.555124,421.49761 810.815257,421.49761 L821.573155,421.496627 L823.855407,421.496418 L823.855448,434.639287 C823.855448,435.899629 824.877158,436.921339 826.1375,436.921339 L826.924549,436.921339 C828.184891,436.921339 829.2066,435.899629 829.2066,434.639348 L829.206312,423.778739 L829.206251,421.496422 L831.488568,421.496627 L842.449973,421.49761 C843.710315,421.49761 844.732024,420.475901 844.732024,419.215558 L844.732024,418.428509 C844.732024,417.168167 843.710315,416.146458 842.449821,416.146458 L831.488212,416.145729 L829.206251,416.145578 L829.206312,413.863617 L829.2066,403.004781 C829.2066,401.744438 828.184891,400.722729 826.924549,400.722729 Z"></path>
            <path fill-rule="nonzero" fill="#000000" id="椭圆形备份-2" d="M647.514075,0 C654.511242,0 660.183567,5.67232457 660.183567,12.6694915 C660.183567,19.6666585 654.511242,25.3389831 647.514075,25.3389831 C640.516908,25.3389831 634.844584,19.6666585 634.844584,12.6694915 C634.844584,5.67232457 640.516908,0 647.514075,0 Z M647.514075,3.282051 C642.329535,3.282051 638.126635,7.48495128 638.126635,12.6694915 C638.126635,17.8540318 642.329535,22.0569321 647.514075,22.0569321 C652.698615,22.0569321 656.901516,17.8540318 656.901516,12.6694915 C656.901516,7.48495128 652.698615,3.282051 647.514075,3.282051 Z"></path>
            <circle r="20.3813559" cy="117.29661" cx="159.276787" fill="#0076FC" id="椭圆形备份-5"></circle>
            <path fill-rule="nonzero" fill="#0076FC" id="椭圆形备份-5" d="M159.276787,96.9152542 C170.533099,96.9152542 179.658143,106.040298 179.658143,117.29661 C179.658143,128.552922 170.533099,137.677966 159.276787,137.677966 C148.020475,137.677966 138.895431,128.552922 138.895431,117.29661 C138.895431,106.040298 148.020475,96.9152542 159.276787,96.9152542 Z M159.276787,99.1973055 C149.280817,99.1973055 141.177482,107.30064 141.177482,117.29661 C141.177482,127.29258 149.280817,135.395915 159.276787,135.395915 C169.272757,135.395915 177.376092,127.29258 177.376092,117.29661 C177.376092,107.30064 169.272757,99.1973055 159.276787,99.1973055 Z"></path>
        </g>
    </g>
</svg>
