<svg
  height="1024"
  node-id="1"
  sillyvg="true"
  template-height="1024"
  template-width="1024"
  version="1.1"
  viewBox="0 0 1024 1024"
  width="1024"
  xmlns="http://www.w3.org/2000/svg"
  xmlns:xlink="http://www.w3.org/1999/xlink"
>
  <defs node-id="24"></defs>
  <g node-id="26">
    <g node-id="27">
      <path
        d="M 555.10 454.70 L 555.10 505.70 L 417.00 578.00 L 417.00 527.00 Z"
        fill="#0076fc"
        fill-rule="evenodd"
        group-id="1,2"
        id="矩形备份-11"
        node-id="6"
        stroke="none"
        target-height="123.29999"
        target-width="138.09998"
        target-x="417"
        target-y="454.7"
      />
    </g>
    <g node-id="28">
      <path
        d="M 558.10 507.50 L 414.00 583.00 L 414.00 525.20 L 558.10 449.70 L 558.10 507.50 Z M 552.10 503.90 L 552.10 459.60 L 420.00 528.80 L 420.00 573.00 L 552.10 503.90 Z"
        fill="#000000"
        fill-rule="nonzero"
        group-id="1,3"
        id="矩形备份-11"
        node-id="7"
        stroke="none"
        target-height="133.29999"
        target-width="144.09998"
        target-x="414"
        target-y="449.7"
      />
    </g>
    <path
      d="M 888.10 708.00 L 887.80 713.00 L 886.90 718.10 L 885.30 723.10 L 883.20 728.20 L 880.30 733.40 L 877.10 738.10 L 873.30 742.80 L 868.80 747.70 L 863.50 752.60 L 857.50 757.60 L 849.90 763.10 L 841.30 768.60 L 831.60 774.20 L 820.60 779.80 L 809.70 784.80 L 797.70 789.80 L 784.70 794.70 L 770.40 799.60 L 741.40 808.00 L 709.20 815.70 L 675.80 822.20 L 640.00 827.60 L 615.80 830.60 L 590.80 833.00 L 565.00 835.00 L 539.10 836.40 L 512.90 837.20 L 486.20 837.50 L 459.50 837.20 L 433.20 836.40 L 407.40 835.00 L 381.60 833.00 L 356.60 830.60 L 332.40 827.60 L 296.60 822.20 L 263.20 815.70 L 231.00 808.00 L 202.00 799.60 L 187.70 794.70 L 174.70 789.80 L 162.70 784.80 L 151.80 779.80 L 140.80 774.20 L 131.10 768.60 L 122.50 763.10 L 114.90 757.60 L 108.90 752.60 L 103.60 747.70 L 99.10 742.80 L 95.30 738.10 L 92.10 733.40 L 89.20 728.20 L 87.10 723.10 L 85.50 718.10 L 84.60 713.00 L 84.30 708.00 L 84.60 703.00 L 85.50 697.90 L 87.10 692.90 L 89.20 687.80 L 92.10 682.60 L 95.30 677.90 L 99.10 673.10 L 103.60 668.30 L 108.90 663.40 L 114.90 658.40 L 122.50 652.90 L 131.10 647.40 L 140.80 641.80 L 151.80 636.10 L 162.70 631.10 L 174.70 626.20 L 187.70 621.30 L 202.00 616.40 L 231.00 608.00 L 263.20 600.30 L 296.60 593.80 L 332.40 588.40 L 356.60 585.40 L 381.60 583.00 L 407.40 581.00 L 433.20 579.60 L 459.50 578.80 L 486.20 578.50 L 512.90 578.80 L 539.10 579.60 L 565.00 581.00 L 590.80 583.00 L 615.80 585.40 L 640.00 588.40 L 675.80 593.80 L 709.20 600.30 L 741.40 608.00 L 770.40 616.40 L 784.70 621.30 L 797.70 626.20 L 809.70 631.10 L 820.60 636.10 L 831.60 641.80 L 841.30 647.40 L 849.90 652.90 L 857.50 658.40 L 863.50 663.40 L 868.80 668.30 L 873.30 673.10 L 877.10 677.90 L 880.30 682.60 L 883.20 687.80 L 885.30 692.90 L 886.90 697.90 L 887.80 703.00 L 888.10 708.00 Z"
      fill="#f2f4ff"
      fill-rule="evenodd"
      group-id="1"
      id="椭圆形备份-3"
      node-id="8"
      stroke="none"
      target-height="259"
      target-width="803.8"
      target-x="84.3"
      target-y="578.5"
    />
    <g node-id="29">
      <path
        d="M 803.10 454.70 L 803.10 505.70 L 665.00 578.00 L 665.00 527.00 Z"
        fill="#0076fc"
        fill-rule="evenodd"
        group-id="1,4"
        id="矩形备份-13"
        node-id="9"
        stroke="none"
        target-height="123.29999"
        target-width="138.09998"
        target-x="665"
        target-y="454.7"
      />
    </g>
    <g node-id="30">
      <path
        d="M 806.10 507.50 L 662.00 583.00 L 662.00 525.20 L 806.10 449.70 L 806.10 507.50 Z M 800.10 503.90 L 800.10 459.60 L 668.00 528.80 L 668.00 573.00 L 800.10 503.90 Z"
        fill="#000000"
        fill-rule="nonzero"
        group-id="1,5"
        id="矩形备份-13"
        node-id="10"
        stroke="none"
        target-height="133.29999"
        target-width="144.09998"
        target-x="662"
        target-y="449.7"
      />
    </g>
    <path
      d="M 543.00 676.00 L 392.00 676.00 L 392.00 348.00 L 594.00 348.00 L 594.00 676.00 L 543.00 676.00 Z M 443.00 399.00 L 443.00 625.00 L 543.00 625.00 L 543.00 399.00 L 443.00 399.00 Z"
      fill="#ffffff"
      fill-rule="evenodd"
      group-id="1"
      id="形状结合备份-2"
      node-id="11"
      stroke="none"
      target-height="328"
      target-width="202"
      target-x="392"
      target-y="348"
    />
    <path
      d="M 597.00 345.00 L 597.00 679.00 L 389.00 679.00 L 389.00 345.00 L 597.00 345.00 Z M 591.00 673.00 L 591.00 351.00 L 395.00 351.00 L 395.00 673.00 L 591.00 673.00 Z M 440.00 396.00 L 546.00 396.00 L 546.00 628.00 L 440.00 628.00 L 440.00 396.00 Z M 446.00 402.00 L 446.00 622.00 L 540.00 622.00 L 540.00 402.00 L 446.00 402.00 Z"
      fill="#000000"
      fill-rule="nonzero"
      group-id="1"
      id="形状结合备份-2"
      node-id="12"
      stroke="none"
      target-height="334"
      target-width="208"
      target-x="389"
      target-y="345"
    />
    <path
      d="M 791.00 676.00 L 640.00 676.00 L 640.00 348.00 L 842.00 348.00 L 842.00 676.00 L 791.00 676.00 Z M 691.00 399.00 L 691.00 625.00 L 791.00 625.00 L 791.00 399.00 L 691.00 399.00 Z"
      fill="#ffffff"
      fill-rule="evenodd"
      group-id="1"
      id="形状结合备份-3"
      node-id="13"
      stroke="none"
      target-height="328"
      target-width="202"
      target-x="640"
      target-y="348"
    />
    <path
      d="M 845.00 345.00 L 845.00 679.00 L 637.00 679.00 L 637.00 345.00 L 845.00 345.00 Z M 839.00 673.00 L 839.00 351.00 L 643.00 351.00 L 643.00 673.00 L 839.00 673.00 Z M 688.00 396.00 L 794.00 396.00 L 794.00 628.00 L 688.00 628.00 L 688.00 396.00 Z M 694.00 402.00 L 694.00 622.00 L 788.00 622.00 L 788.00 402.00 L 694.00 402.00 Z"
      fill="#000000"
      fill-rule="nonzero"
      group-id="1"
      id="形状结合备份-3"
      node-id="14"
      stroke="none"
      target-height="334"
      target-width="208"
      target-x="637"
      target-y="345"
    />
    <path
      d="M 332.00 490.00 L 334.60 490.20 L 336.90 490.90 L 339.10 491.90 L 341.00 493.30 L 342.70 495.00 L 344.10 496.90 L 345.10 499.10 L 345.80 501.40 L 346.00 504.00 L 346.00 662.00 L 345.80 664.60 L 345.10 666.90 L 344.10 669.10 L 342.70 671.00 L 341.00 672.70 L 339.10 674.10 L 336.90 675.10 L 334.60 675.80 L 332.00 676.00 L 144.00 676.00 L 144.00 625.00 L 295.00 625.00 L 295.00 541.00 L 159.00 541.00 L 156.30 540.70 L 153.80 540.10 L 151.40 539.00 L 149.30 537.50 L 147.50 535.70 L 146.00 533.60 L 144.90 531.20 L 144.30 528.70 L 144.00 526.00 L 144.00 362.00 L 144.20 359.40 L 144.90 357.10 L 145.90 354.90 L 147.30 353.00 L 149.00 351.30 L 150.90 349.90 L 153.10 348.90 L 155.40 348.20 L 158.00 348.00 L 346.00 348.00 L 346.00 399.00 L 195.00 399.00 L 195.00 490.00 L 332.00 490.00 Z"
      fill="#ffffff"
      fill-rule="evenodd"
      group-id="1"
      id="形状结合"
      node-id="15"
      stroke="none"
      target-height="328"
      target-width="202"
      target-x="144"
      target-y="348"
    />
    <path
      d="M 158.00 345.00 L 349.00 345.00 L 349.00 402.00 L 198.00 402.00 L 198.00 487.00 L 332.00 487.00 L 335.10 487.30 L 337.90 488.00 L 340.50 489.30 L 342.90 490.90 L 344.90 492.90 L 346.60 495.20 L 347.90 497.80 L 348.70 500.60 L 349.00 504.00 L 349.00 662.00 L 348.70 665.10 L 347.90 667.90 L 346.70 670.60 L 345.00 673.00 L 343.00 675.00 L 340.60 676.70 L 337.90 677.90 L 335.10 678.70 L 332.00 679.00 L 141.00 679.00 L 141.00 622.00 L 292.00 622.00 L 292.00 544.00 L 159.00 544.00 L 155.80 543.70 L 152.80 542.90 L 150.00 541.60 L 147.50 539.80 L 145.40 537.70 L 143.60 535.30 L 142.20 532.50 L 141.40 529.60 L 141.00 526.00 L 141.00 362.00 L 141.30 358.90 L 142.10 356.10 L 143.30 353.40 L 145.00 351.00 L 147.00 349.00 L 149.40 347.30 L 152.10 346.10 L 154.90 345.30 L 158.00 345.00 Z M 343.00 351.00 L 158.00 351.00 L 154.20 351.70 L 150.90 353.60 L 148.50 356.40 L 147.70 358.20 L 147.00 362.00 L 147.00 526.00 L 147.80 530.20 L 149.80 533.70 L 152.90 536.40 L 154.80 537.20 L 159.00 538.00 L 298.00 538.00 L 298.00 628.00 L 147.00 628.00 L 147.00 673.00 L 332.00 673.00 L 335.80 672.30 L 339.00 670.50 L 341.40 667.70 L 342.20 666.00 L 343.00 662.30 L 343.00 504.00 L 342.80 502.00 L 341.50 498.40 L 339.10 495.60 L 337.60 494.50 L 334.00 493.20 L 332.00 493.00 L 192.00 493.00 L 192.00 396.00 L 343.00 396.00 L 343.00 351.00 Z"
      fill="#000000"
      fill-rule="nonzero"
      group-id="1"
      id="形状结合"
      node-id="16"
      stroke="none"
      target-height="334"
      target-width="208"
      target-x="141"
      target-y="345"
    />
    <path
      d="M 469.60 760.20 L 469.40 762.70 L 468.70 765.10 L 467.50 767.20 L 465.90 769.20 L 464.00 770.80 L 461.80 771.90 L 459.40 772.60 L 457.00 772.90 L 454.50 772.60 L 452.10 771.90 L 449.90 770.80 L 448.00 769.20 L 446.40 767.20 L 445.30 765.10 L 444.50 762.70 L 444.30 760.20 L 444.50 757.70 L 445.30 755.40 L 446.40 753.20 L 448.00 751.30 L 449.90 749.70 L 452.10 748.50 L 454.50 747.80 L 457.00 747.50 L 459.40 747.80 L 461.80 748.50 L 464.00 749.70 L 465.90 751.30 L 467.50 753.20 L 468.70 755.40 L 469.40 757.70 L 469.60 760.20 Z"
      fill="#ffffff"
      fill-rule="evenodd"
      group-id="1"
      id="椭圆形备份-6"
      node-id="17"
      stroke="none"
      target-height="25.400024"
      target-width="25.300018"
      target-x="444.3"
      target-y="747.5"
    />
    <path
      d="M 225.20 235.50 L 227.50 236.10 L 229.20 237.80 L 229.60 238.90 L 229.80 250.90 L 242.00 251.10 L 243.10 251.60 L 244.70 253.20 L 245.30 255.50 L 245.10 257.50 L 244.70 258.60 L 243.10 260.20 L 242.00 260.70 L 229.80 260.90 L 229.60 273.00 L 229.20 274.00 L 227.50 275.70 L 225.20 276.30 L 223.20 276.10 L 222.10 275.70 L 220.50 274.00 L 220.10 273.00 L 219.90 260.90 L 207.90 260.70 L 206.80 260.20 L 205.20 258.60 L 204.60 256.30 L 204.70 254.30 L 205.20 253.20 L 206.80 251.60 L 207.90 251.10 L 219.90 250.90 L 220.10 238.90 L 220.50 237.80 L 222.10 236.10 L 223.20 235.70 L 225.20 235.50 Z"
      fill="#0076fc"
      fill-rule="evenodd"
      group-id="1"
      id="形状结合备份-2"
      node-id="18"
      stroke="none"
      target-height="40.799988"
      target-width="40.699997"
      target-x="204.6"
      target-y="235.5"
    />
    <path
      d="M 225.20 235.50 L 227.50 236.10 L 229.20 237.80 L 229.60 238.90 L 229.80 250.90 L 242.00 251.10 L 243.10 251.60 L 244.70 253.20 L 245.30 255.50 L 245.10 257.50 L 244.70 258.60 L 243.10 260.20 L 242.00 260.70 L 229.80 260.90 L 229.60 273.00 L 229.20 274.00 L 227.50 275.70 L 225.20 276.30 L 223.20 276.10 L 222.10 275.70 L 220.50 274.00 L 220.10 273.00 L 219.90 260.90 L 207.90 260.70 L 206.80 260.20 L 205.20 258.60 L 204.60 256.30 L 204.70 254.30 L 205.20 253.20 L 206.80 251.60 L 207.90 251.10 L 219.90 250.90 L 220.10 238.90 L 220.50 237.80 L 222.10 236.10 L 223.20 235.70 L 225.20 235.50 Z M 225.20 237.80 L 223.60 238.00 L 222.80 238.50 L 222.20 240.10 L 222.20 253.20 L 209.10 253.20 L 207.50 253.90 L 206.80 255.50 L 207.00 257.20 L 207.50 257.90 L 209.10 258.60 L 222.20 258.60 L 222.20 271.70 L 222.30 272.60 L 223.60 273.80 L 226.10 273.80 L 227.30 272.60 L 227.50 258.60 L 240.80 258.60 L 242.40 257.90 L 243.00 256.30 L 242.90 254.60 L 242.40 253.90 L 240.80 253.20 L 227.50 253.20 L 227.50 240.10 L 226.80 238.50 L 225.20 237.80 Z"
      fill="#0076fc"
      fill-rule="nonzero"
      group-id="1"
      id="形状结合备份-2"
      node-id="19"
      stroke="none"
      target-height="40.799988"
      target-width="40.699997"
      target-x="204.6"
      target-y="235.5"
    />
    <path
      d="M 664.80 223.10 L 669.30 223.90 L 671.20 224.80 L 674.50 227.60 L 676.70 231.30 L 677.50 235.80 L 676.70 240.20 L 674.50 243.90 L 671.20 246.70 L 669.30 247.60 L 664.80 248.40 L 660.40 247.60 L 656.60 245.40 L 653.90 242.10 L 652.90 240.20 L 652.20 235.80 L 652.90 231.30 L 655.10 227.60 L 658.40 224.80 L 660.40 223.90 L 664.80 223.10 Z M 664.80 226.40 L 661.50 227.00 L 660.10 227.60 L 658.20 229.10 L 656.70 231.00 L 656.00 232.50 L 655.40 235.80 L 656.00 239.00 L 656.70 240.50 L 658.20 242.40 L 660.10 243.90 L 663.10 245.00 L 664.80 245.10 L 668.10 244.60 L 669.60 243.90 L 671.50 242.40 L 672.90 240.50 L 673.60 239.00 L 674.20 235.80 L 673.60 232.50 L 672.90 231.00 L 671.50 229.10 L 669.60 227.60 L 668.10 227.00 L 664.80 226.40 Z"
      fill="#000000"
      fill-rule="nonzero"
      group-id="1"
      id="椭圆形备份-3"
      node-id="20"
      stroke="none"
      target-height="25.299988"
      target-width="25.299988"
      target-x="652.2"
      target-y="223.1"
    />
    <path
      d="M 954.00 557.40 L 953.60 561.10 L 952.70 564.50 L 951.20 567.70 L 949.20 570.50 L 946.70 573.00 L 943.90 575.00 L 940.70 576.50 L 937.30 577.40 L 933.60 577.80 L 929.90 577.40 L 926.50 576.50 L 923.30 575.00 L 920.40 573.00 L 918.00 570.50 L 916.00 567.70 L 914.50 564.50 L 913.50 561.10 L 913.20 557.40 L 913.50 553.70 L 914.50 550.30 L 916.00 547.10 L 918.00 544.20 L 920.40 541.80 L 923.30 539.80 L 926.50 538.30 L 929.90 537.30 L 933.60 537.00 L 937.30 537.30 L 940.70 538.30 L 943.90 539.80 L 946.70 541.80 L 949.20 544.20 L 951.20 547.10 L 952.70 550.30 L 953.60 553.70 L 954.00 557.40 Z"
      fill="#0076fc"
      fill-rule="evenodd"
      group-id="1"
      id="椭圆形备份-6"
      node-id="21"
      stroke="none"
      target-height="40.799988"
      target-width="40.799988"
      target-x="913.2"
      target-y="537"
    />
    <path
      d="M 933.60 537.00 L 937.30 537.30 L 940.70 538.30 L 943.90 539.80 L 946.70 541.80 L 949.20 544.20 L 951.20 547.10 L 952.70 550.30 L 953.60 553.70 L 954.00 557.40 L 953.60 561.10 L 952.70 564.50 L 951.20 567.70 L 949.20 570.50 L 946.70 573.00 L 943.90 575.00 L 940.70 576.50 L 937.30 577.40 L 933.60 577.80 L 929.90 577.40 L 926.50 576.50 L 923.30 575.00 L 920.40 573.00 L 918.00 570.50 L 916.00 567.70 L 914.50 564.50 L 913.50 561.10 L 913.20 557.40 L 913.50 553.70 L 914.50 550.30 L 916.00 547.10 L 918.00 544.20 L 920.40 541.80 L 923.30 539.80 L 926.50 538.30 L 929.90 537.30 L 933.60 537.00 Z M 933.60 539.30 L 930.30 539.60 L 927.30 540.40 L 924.40 541.80 L 921.90 543.60 L 919.80 545.70 L 918.00 548.20 L 916.60 551.10 L 915.80 554.10 L 915.50 557.40 L 915.80 560.70 L 916.60 563.70 L 918.00 566.50 L 919.80 569.10 L 921.90 571.20 L 924.40 573.00 L 927.30 574.30 L 930.30 575.20 L 933.60 575.50 L 936.90 575.20 L 939.90 574.30 L 942.70 573.00 L 945.30 571.20 L 947.40 569.10 L 949.20 566.50 L 950.60 563.70 L 951.40 560.70 L 951.70 557.40 L 951.40 554.10 L 950.60 551.10 L 949.20 548.20 L 947.40 545.70 L 945.30 543.60 L 942.70 541.80 L 939.90 540.40 L 936.90 539.60 L 933.60 539.30 Z"
      fill="#0076fc"
      fill-rule="nonzero"
      group-id="1"
      id="椭圆形备份-6"
      node-id="22"
      stroke="none"
      target-height="40.799988"
      target-width="40.799988"
      target-x="913.2"
      target-y="537"
    />
  </g>
</svg>
